<svg width="150" height="110" viewBox="0 0 150 110" fill="none" xmlns="http://www.w3.org/2000/svg">
<path d="M0.916654 108.504C0.884466 108.505 0.873737 108.506 0.855851 108.507L0.820071 108.509L0.85774 109.236C0.890007 109.235 0.900753 109.234 0.918677 109.233L0.954523 109.231L0.916654 108.504ZM6.72691 108.148L5.27896 108.247L3.82368 108.339L3.86815 109.066L5.32683 108.974L6.7782 108.875L6.72691 108.148ZM12.5221 107.682L11.0765 107.809L9.6234 107.929L9.68164 108.656L11.1384 108.535L12.5875 108.408L12.5221 107.682ZM18.3242 107.098L16.8815 107.255L15.4309 107.405L15.5038 108.13L16.9582 107.979L18.4046 107.822L18.3242 107.098ZM24.0969 106.392L22.6583 106.58L21.2115 106.761L21.2997 107.484L22.7506 107.303L24.1933 107.115L24.0969 106.392ZM29.8609 105.555L28.4275 105.776L26.9855 105.99L27.0902 106.711L28.5364 106.496L29.974 106.275L29.8609 105.555ZM35.594 104.58L34.166 104.837L32.7291 105.086L32.851 105.804L34.2924 105.554L35.725 105.297L35.594 104.58ZM41.2112 103.478C40.5821 103.61 39.9503 103.74 39.3157 103.867L38.3617 104.056L38.5016 104.771C39.1411 104.646 39.7778 104.518 40.4118 104.388L41.3607 104.191L41.2112 103.478ZM46.8984 102.202C46.2734 102.352 45.6456 102.499 45.0149 102.644L44.0667 102.859L44.226 103.57C44.8618 103.427 45.4948 103.282 46.1249 103.134L47.0678 102.911L46.8984 102.202ZM52.5407 100.764C51.9203 100.932 51.2969 101.097 50.6704 101.26L49.7286 101.503L49.9084 102.209C50.5402 102.048 51.1689 101.884 51.7947 101.718L52.7312 101.467L52.5407 100.764ZM58.1404 99.1502C57.5256 99.3381 56.9078 99.5232 56.2867 99.7057L55.3529 99.9774L55.5544 100.678C56.181 100.497 56.8045 100.314 57.4249 100.128L58.3531 99.8471L58.1404 99.1502ZM63.6753 97.3571C63.0675 97.5655 62.4564 97.7711 61.8421 97.974L60.9182 98.2761L61.1425 98.9693C61.7627 98.7684 62.3796 98.5647 62.9933 98.3582L63.9114 98.0463L63.6753 97.3571ZM69.1466 95.3713C68.5462 95.6017 67.9424 95.8291 67.3352 96.0535L66.4218 96.3881L66.6701 97.0731C67.2834 96.8505 67.8934 96.625 68.5 96.3966L69.4073 96.0517L69.1466 95.3713ZM74.5431 93.1835C73.9523 93.4364 73.3579 93.6862 72.7601 93.933L71.8606 94.301L72.134 94.9763C72.7383 94.7314 73.3391 94.4833 73.9363 94.2323L74.8295 93.8534L74.5431 93.1835ZM79.8535 90.7836C79.2729 91.0604 78.6887 91.334 78.1009 91.6044L77.2163 92.0077L77.516 92.6718C78.1105 92.4032 78.7014 92.1313 79.2887 91.8563L80.1667 91.4414L79.8535 90.7836ZM85.0463 88.1723C84.4781 88.4735 83.9062 88.7714 83.3304 89.066L82.464 89.5055L82.7909 90.1566C83.3736 89.8637 83.9524 89.5674 84.5275 89.2679L85.3872 88.8162L85.0463 88.1723ZM90.1216 85.3358C89.5679 85.6619 89.0103 85.9846 88.4487 86.304L87.6035 86.7804L87.9586 87.4166C88.5272 87.0988 89.0919 86.7777 89.6527 86.4531L90.491 85.9637L90.1216 85.3358ZM95.0687 82.2648C94.5307 82.6166 93.9887 82.965 93.4427 83.3099L92.6207 83.8247L93.0046 84.4438C93.5579 84.1004 94.1071 83.7534 94.6523 83.403L95.4671 82.8746L95.0687 82.2648ZM99.8505 78.9686C99.33 79.3466 98.8054 79.7211 98.2766 80.0919L97.4803 80.6455L97.8934 81.2456C98.4296 80.876 98.9616 80.5029 99.4895 80.1261L100.278 79.5583L99.8505 78.9686ZM104.468 75.4343C103.967 75.8384 103.462 76.2388 102.953 76.6356L102.185 77.2281L102.628 77.8068C103.145 77.4112 103.657 77.0119 104.166 76.6088L104.925 76.0016L104.468 75.4343ZM108.897 71.6683C108.417 72.0984 107.933 72.5247 107.445 72.9474L106.709 73.5786L107.181 74.1338C107.677 73.7122 108.168 73.2867 108.655 72.8575L109.383 72.211L108.897 71.6683ZM113.087 67.7093C112.631 68.164 112.17 68.6149 111.705 69.0621L111.004 69.73L111.504 70.2599C111.976 69.8135 112.445 69.3634 112.908 68.9094L113.601 68.2257L113.087 67.7093ZM117.102 63.4887C116.67 63.9683 116.233 64.4442 115.792 64.9162L115.127 65.6214L115.655 66.1237C116.103 65.6523 116.547 65.1771 116.987 64.6981L117.643 63.9767L117.102 63.4887ZM120.88 59.0625C120.474 59.5646 120.064 60.0629 119.65 60.5574L119.025 61.2963L119.579 61.7694C120 61.2754 120.417 60.7776 120.83 60.2759L121.446 59.5205L120.88 59.0625ZM124.413 54.4391C124.035 54.962 123.653 55.4813 123.267 55.9967L122.683 56.7671L123.262 57.2096C123.655 56.6945 124.045 56.1756 124.43 55.6529L125.004 54.866L124.413 54.4391ZM127.694 49.6371C127.343 50.1807 126.988 50.7205 126.629 51.2566L126.087 52.058L126.688 52.4691C127.054 51.9332 127.416 51.3936 127.773 50.8502L128.306 50.0322L127.694 49.6371ZM130.719 44.669C130.397 45.2301 130.07 45.7875 129.74 46.3412L129.241 47.169L129.863 47.5481C130.2 46.9945 130.532 46.4372 130.861 45.8762L131.35 45.0319L130.719 44.669ZM133.475 39.5773C133.181 40.1539 132.883 40.7268 132.581 41.2962L132.125 42.1475L132.765 42.4945C133.073 41.9252 133.377 41.3523 133.677 40.7757L134.124 39.9082L133.475 39.5773ZM135.993 34.3208C135.728 34.9114 135.458 35.4985 135.184 36.082L134.771 36.9547L135.427 37.2696C135.707 36.686 135.982 36.099 136.253 35.5084L136.657 34.6199L135.993 34.3208ZM138.254 28.9645C138.016 29.5673 137.774 30.1666 137.527 30.7626L137.155 31.6539L137.826 31.9373C138.078 31.3414 138.325 30.742 138.569 30.1392L138.931 29.2324L138.254 28.9645ZM140.267 23.5177C140.056 24.1311 139.84 24.7411 139.621 25.3479L139.29 26.2555L139.973 26.5083C140.197 25.9015 140.417 25.2914 140.634 24.678L140.956 23.7554L140.267 23.5177ZM142.048 17.9787C141.862 18.6014 141.672 19.2209 141.479 19.8372L141.186 20.7593L141.88 20.9823C142.078 20.366 142.272 19.7465 142.463 19.1238L142.746 18.1873L142.048 17.9787ZM143.602 12.3669C143.441 12.9955 143.277 13.6209 143.109 14.2432L142.855 15.1745L143.556 15.3689C143.729 14.7466 143.897 14.1212 144.062 13.4927L144.307 12.5476L143.602 12.3669ZM146.543 0.737922C144.771 0.37083 143.037 1.51077 142.67 3.28404C142.328 4.93516 143.292 6.55317 144.857 7.0646L144.936 6.7089C144.798 7.3446 144.657 7.97734 144.513 8.6071L144.294 9.54952L145.003 9.71676C145.151 9.08704 145.296 8.45435 145.438 7.8187L145.571 7.21338C147.214 7.3705 148.745 6.26747 149.088 4.61339C149.454 2.84012 148.315 1.10501 146.543 0.737922V0.737922Z" fill="#CA6AB4"/>
</svg>
