<svg width="165" height="120" viewBox="0 0 165 120" fill="none" xmlns="http://www.w3.org/2000/svg">
<path d="M164.164 118.913C164.2 118.915 164.212 118.915 164.231 118.916L164.271 118.918L164.229 119.721C164.194 119.719 164.182 119.719 164.162 119.718L164.122 119.715L164.164 118.913ZM157.754 118.52L159.351 118.629L160.957 118.731L160.908 119.533L159.299 119.431L157.697 119.322L157.754 118.52ZM151.36 118.006L152.955 118.146L154.558 118.279L154.494 119.08L152.887 118.947L151.288 118.807L151.36 118.006ZM144.959 117.362L146.551 117.535L148.151 117.7L148.071 118.5L146.466 118.334L144.87 118.161L144.959 117.362ZM138.59 116.583L140.177 116.791L141.773 116.99L141.676 117.788L140.075 117.588L138.484 117.38L138.59 116.583ZM132.231 115.659L133.812 115.903L135.403 116.139L135.288 116.935L133.692 116.698L132.106 116.453L132.231 115.659ZM125.906 114.584L127.481 114.867L129.066 115.141L128.932 115.934L127.342 115.659L125.761 115.375L125.906 114.584ZM119.708 113.368C120.402 113.514 121.099 113.657 121.8 113.797L122.852 114.006L122.698 114.795C121.992 114.657 121.29 114.516 120.59 114.372L119.543 114.155L119.708 113.368ZM113.434 111.96C114.123 112.125 114.816 112.288 115.512 112.447L116.558 112.685L116.382 113.469C115.681 113.312 114.982 113.152 114.287 112.989L113.247 112.742L113.434 111.96ZM107.209 110.373C107.893 110.559 108.581 110.741 109.272 110.921L110.311 111.189L110.113 111.968C109.416 111.79 108.722 111.61 108.032 111.426L106.999 111.149L107.209 110.373ZM101.031 108.593C101.709 108.8 102.391 109.005 103.076 109.206L104.106 109.506L103.884 110.278C103.193 110.079 102.505 109.877 101.82 109.672L100.796 109.362L101.031 108.593ZM94.9242 106.615C95.5948 106.845 96.269 107.072 96.9467 107.295L97.9661 107.629L97.7186 108.394C97.0344 108.172 96.3537 107.947 95.6767 107.719L94.6637 107.375L94.9242 106.615ZM88.8879 104.424C89.5503 104.678 90.2165 104.929 90.8864 105.177L91.8941 105.546L91.6202 106.301C90.9435 106.056 90.2705 105.807 89.6013 105.555L88.6003 105.175L88.8879 104.424ZM82.934 102.01C83.5858 102.289 84.2416 102.565 84.9012 102.837L85.8936 103.243L85.5919 103.988C84.9252 103.718 84.2624 103.444 83.6035 103.167L82.618 102.749L82.934 102.01ZM77.0752 99.3625C77.7157 99.6679 78.3603 99.9697 79.0089 100.268L79.9848 100.713L79.6541 101.446C78.9982 101.149 78.3463 100.849 77.6984 100.546L76.7296 100.088L77.0752 99.3625ZM71.3461 96.4815C71.973 96.8138 72.604 97.1424 73.2392 97.4675L74.1951 97.9524L73.8344 98.6707C73.1916 98.3475 72.553 98.0207 71.9185 97.6903L70.97 97.1919L71.3461 96.4815ZM65.7467 93.352C66.3576 93.7118 66.9728 94.0679 67.5923 94.4202L68.5248 94.9459L68.1331 95.6477C67.5057 95.2972 66.8827 94.9428 66.264 94.5848L65.3392 94.0448L65.7467 93.352ZM60.2887 89.9638C60.8822 90.3521 61.4802 90.7364 62.0826 91.117L62.9895 91.6849L62.566 92.368C61.9555 91.9891 61.3496 91.6063 60.748 91.2196L59.8491 90.6367L60.2887 89.9638ZM55.013 86.3273C55.5873 86.7443 56.1661 87.1574 56.7495 87.5666L57.628 88.1774L57.1723 88.8394C56.5807 88.4317 55.9937 88.02 55.4113 87.6044L54.5411 86.9779L55.013 86.3273ZM49.9184 82.428C50.4712 82.8738 51.0286 83.3156 51.5907 83.7534L52.4372 84.407L51.9491 85.0455C51.3788 84.609 50.8131 84.1685 50.2522 83.7238L49.4142 83.0538L49.9184 82.428ZM45.0319 78.273C45.5613 78.7475 46.0954 79.2179 46.6343 79.6842L47.4462 80.3806L46.9259 80.9932C46.3787 80.528 45.8363 80.0586 45.2987 79.5851L44.4958 78.8717L45.0319 78.273ZM40.4094 73.9052C40.913 74.4068 41.4213 74.9043 41.9345 75.3977L42.7078 76.1346L42.1563 76.7191C41.6349 76.2267 41.1183 75.7301 40.6066 75.2292L39.8425 74.4749L40.4094 73.9052ZM35.9798 69.2487C36.4567 69.7779 36.9383 70.3028 37.4249 70.8236L38.1583 71.6016L37.5763 72.1558C37.0817 71.6358 36.5918 71.1115 36.1069 70.583L35.3831 69.7871L35.9798 69.2487ZM31.8122 64.3654C32.2597 64.9193 32.712 65.4691 33.1692 66.0147L33.8585 66.8299L33.2475 67.3519C32.7824 66.8068 32.3222 66.2576 31.8668 65.7041L31.1874 64.8707L31.8122 64.3654ZM27.9133 59.2644C28.3303 59.8414 28.7521 60.4143 29.1787 60.983L29.8222 61.8329L29.184 62.3212C28.7497 61.7528 28.3202 61.1803 27.8956 60.6037L27.2623 59.7355L27.9133 59.2644ZM24.2942 53.9666C24.6811 54.5663 25.0728 55.1619 25.4692 55.7534L26.0674 56.6375L25.4041 57.0911C25.0003 56.4998 24.6012 55.9045 24.207 55.3049L23.6192 54.4025L24.2942 53.9666ZM20.9565 48.4854C21.312 49.1044 21.6721 49.7194 22.0369 50.3303L22.5876 51.2436L21.9014 51.6618C21.5296 51.0511 21.1624 50.4362 20.8 49.8173L20.2599 48.8858L20.9565 48.4854ZM17.9162 42.8678C18.2403 43.504 18.569 44.1361 18.9023 44.7643L19.4056 45.7035L18.6991 46.0864C18.3591 45.4582 18.0238 44.8261 17.6931 44.1901L17.2004 43.233L17.9162 42.8678ZM15.1376 37.0685C15.4307 37.7201 15.7282 38.3678 16.0302 39.0116L16.4866 39.9744L15.7621 40.3218C15.4538 39.678 15.1499 39.0303 14.8506 38.3787L14.4049 37.3985L15.1376 37.0685ZM12.6435 31.159C12.9063 31.824 13.1735 32.4853 13.445 33.1428L13.8554 34.1262L13.1153 34.4389C12.8378 33.7814 12.5648 33.1201 12.2961 32.455L11.8964 31.4546L12.6435 31.159ZM10.422 25.1497C10.6555 25.8264 10.8931 26.4995 11.135 27.1689L11.5009 28.1703L10.7474 28.4491C10.5 27.7797 10.2568 27.1066 10.0178 26.4299L9.66255 25.412L10.422 25.1497ZM8.45761 19.0387C8.66277 19.7257 8.872 20.4092 9.08531 21.0891L9.40831 22.1064L8.64346 22.3525C8.42495 21.6725 8.21054 20.989 8.00022 20.302L7.68781 19.2688L8.45761 19.0387ZM6.74322 12.8474C6.9206 13.5408 7.10189 14.2308 7.28708 14.9174L7.56778 15.9448L6.79349 16.1594C6.60347 15.4728 6.41738 14.7827 6.23521 14.0893L5.96489 13.0467L6.74322 12.8474ZM3.49846 0.0173589C5.45374 -0.387644 7.36693 0.870022 7.7717 2.82643C8.14858 4.64806 7.08484 6.43318 5.3581 6.99742L5.27162 6.60499C5.42328 7.30634 5.57872 8.00442 5.73793 8.69922L5.97958 9.73897L5.19761 9.92348C5.03386 9.22873 4.87391 8.5307 4.71775 7.8294L4.57099 7.16157C2.7586 7.33491 1.06858 6.11797 0.691022 4.29307C0.286253 2.33666 1.54318 0.422362 3.49846 0.0173589V0.0173589Z" fill="#FEEF99"/>
</svg>
