<svg width="132" height="130" viewBox="0 0 132 130" fill="none" xmlns="http://www.w3.org/2000/svg">
<path d="M0.709387 1.5258C0.677797 1.5194 0.667266 1.51727 0.649712 1.51372L0.614594 1.50663L0.759003 0.79242C0.790672 0.798826 0.801216 0.800975 0.818807 0.804537L0.853988 0.811662L0.709387 1.5258ZM6.40386 2.73334L4.98626 2.42241L3.56047 2.11666L3.71154 1.40385L5.14067 1.71032L6.56162 2.02197L6.40386 2.73334ZM12.0673 4.0471L10.6562 3.70881L9.2366 3.37591L9.40116 2.66609L10.8243 2.99981L12.2389 3.33896L12.0673 4.0471ZM17.7201 5.47886L16.3163 5.11156L14.9036 4.74988L15.0824 4.04351L16.4988 4.40615L17.9063 4.77442L17.7201 5.47886ZM23.326 7.02683L21.9308 6.6291L20.5263 6.23719L20.7202 5.5348L22.1285 5.92779L23.5277 6.32665L23.326 7.02683ZM28.9038 8.70384L27.5186 8.27402L26.1239 7.85025L26.3335 7.15244L27.7324 7.57746L29.1217 8.00855L28.9038 8.70384ZM34.4309 10.5117L33.0563 10.0478L31.6716 9.59022L31.898 8.89765L33.287 9.35668L34.666 9.82207L34.4309 10.5117ZM39.8246 12.4287C39.2218 12.2055 38.616 11.9843 38.007 11.765L37.0913 11.4375L37.335 10.7509C37.949 10.9689 38.56 11.1889 39.1679 11.4109L40.0775 11.7453L39.8246 12.4287ZM45.2619 14.5281C44.6658 14.2882 44.0665 14.0502 43.4639 13.8144L42.5577 13.462L42.82 12.7823C43.4279 13.017 44.0326 13.2537 44.634 13.4924L45.5338 13.8521L45.2619 14.5281ZM50.6308 16.7819C50.0419 16.5242 49.4497 16.2686 48.8541 16.0151L47.9583 15.6364L48.2401 14.9645C48.8412 15.2168 49.4391 15.4713 50.0336 15.7279L50.9228 16.1143L50.6308 16.7819ZM55.9319 19.2021C55.3515 18.9257 54.7676 18.6516 54.1803 18.3797L53.2966 17.9735L53.599 17.3106C54.1922 17.5813 54.7819 17.8543 55.3682 18.1296L56.2449 18.5441L55.9319 19.2021ZM61.1424 21.7905C60.5719 21.4949 59.9978 21.2015 59.42 20.9105L58.5507 20.4756L58.8746 19.8229C59.4585 20.1129 60.0387 20.4052 60.6153 20.6999L61.4775 21.1435L61.1424 21.7905ZM66.2617 24.5601C65.7017 24.2439 65.138 23.9301 64.5704 23.6187L63.7163 23.1533L64.0627 22.5123C64.6366 22.8228 65.2067 23.1356 65.773 23.4509L66.6197 23.9255L66.2617 24.5601ZM71.2772 27.5186C70.7301 27.1815 70.179 26.8469 69.624 26.5147L68.7885 26.0184L69.1584 25.3907C69.72 25.7219 70.2777 26.0557 70.8315 26.3919L71.6591 26.8982L71.2772 27.5186ZM76.1763 30.6741C75.6428 30.3149 75.1053 29.9583 74.5636 29.6042L73.7481 29.0751L74.1423 28.4624C74.6908 28.8156 75.2352 29.1715 75.7756 29.53L76.583 30.0696L76.1763 30.6741ZM80.928 34.0215C80.4103 33.64 79.8885 33.2611 79.3624 32.8849L78.5701 32.3226L78.9894 31.7268C79.5225 32.1023 80.0514 32.4805 80.5761 32.8614L81.3599 33.4348L80.928 34.0215ZM85.5302 37.5743C85.0306 37.1703 84.5266 36.7689 84.0182 36.3704L83.2523 35.7747L83.6972 35.1977C84.2128 35.5957 84.7241 35.9965 85.231 36.4001L85.9881 37.0076L85.5302 37.5743ZM89.9712 41.3402C89.4909 40.913 89.0061 40.4886 88.5168 40.067L87.7796 39.4369L88.2504 38.881C88.7471 39.3022 89.2393 39.7262 89.727 40.1531L90.4551 40.7956L89.9712 41.3402ZM94.2155 45.3045C93.7564 44.8539 93.2926 44.4063 92.8241 43.9617L92.118 43.2969L92.615 42.7641C93.0909 43.2086 93.5622 43.656 94.0289 44.1064L94.7255 44.7841L94.2155 45.3045ZM98.2624 49.4801C97.8264 49.0066 97.3856 48.5362 96.9402 48.0687L96.2684 47.3697L96.7913 46.8624C97.2443 47.3299 97.6926 47.8003 98.1362 48.2738L98.798 48.9863L98.2624 49.4801ZM102.089 53.8572C101.677 53.3611 101.261 52.8681 100.84 52.3781L100.206 51.6455L100.754 51.1657C101.182 51.6558 101.606 52.149 102.025 52.6452L102.649 53.3919L102.089 53.8572ZM105.65 58.3898C105.265 57.8729 104.876 57.359 104.482 56.8483L103.887 56.0844L104.459 55.6339C104.861 56.145 105.258 56.6592 105.65 57.1765L106.234 57.9547L105.65 58.3898ZM109 63.1555C108.643 62.6175 108.281 62.0826 107.914 61.5508L107.361 60.7554L107.956 60.3362C108.33 60.8685 108.699 61.4038 109.064 61.9424L109.606 62.7525L109 63.1555ZM112.084 68.0896C111.757 67.5333 111.425 66.9801 111.088 66.4299L110.578 65.6071L111.196 65.2207C111.54 65.7714 111.879 66.3252 112.214 66.8822L112.712 67.72L112.084 68.0896ZM114.899 73.183C114.602 72.6101 114.3 72.0402 113.994 71.4734L113.53 70.6256L114.167 70.273C114.481 70.8405 114.79 71.4111 115.093 71.9847L115.545 72.8475L114.899 73.183ZM117.436 78.4156C117.169 77.8263 116.898 77.2401 116.621 76.6569L116.203 75.7844L116.858 75.4663C117.141 76.0502 117.42 76.6373 117.693 77.2274L118.099 78.1148L117.436 78.4156ZM119.697 83.775C119.461 83.1726 119.22 82.5732 118.975 81.9768L118.603 81.0845L119.274 80.8011C119.526 81.3983 119.773 81.9985 120.015 82.6018L120.375 83.5089L119.697 83.775ZM121.673 89.2169C121.467 88.6033 121.257 87.9928 121.042 87.3851L120.716 86.4759L121.401 86.227C121.621 86.8354 121.838 87.4469 122.049 88.0613L122.363 88.9851L121.673 89.2169ZM123.39 94.7869C123.214 94.1636 123.034 93.5432 122.849 92.9257L122.568 92.0017L123.264 91.7869C123.455 92.4052 123.641 93.0264 123.822 93.6505L124.091 94.5888L123.39 94.7869ZM124.837 100.418C124.69 99.7864 124.539 99.1579 124.383 98.5322L124.147 97.5958L124.852 97.4143C125.013 98.0407 125.169 98.67 125.322 99.3021L125.546 100.252L124.837 100.418ZM126.027 106.102C125.908 105.464 125.784 104.829 125.657 104.196L125.463 103.25L126.175 103.1C126.308 103.733 126.436 104.369 126.56 105.008L126.743 105.968L126.027 106.102ZM126.972 111.842C126.88 111.199 126.784 110.558 126.683 109.92L126.529 108.965L127.248 108.847C127.353 109.485 127.454 110.127 127.551 110.771L127.693 111.739L126.972 111.842ZM127.683 117.622C127.616 116.976 127.546 116.334 127.472 115.693L127.357 114.735L128.08 114.646C128.158 115.287 128.233 115.93 128.304 116.576L128.407 117.547L127.683 117.622ZM128.879 129.557C127.072 129.659 125.525 128.276 125.423 126.468C125.329 124.785 126.52 123.327 128.144 123.051L128.169 123.415C128.127 122.765 128.08 122.119 128.03 121.475L127.953 120.51L128.678 120.449C128.732 121.094 128.783 121.741 128.829 122.391L128.871 123.009C130.519 123.095 131.872 124.412 131.967 126.098C132.069 127.906 130.686 129.455 128.879 129.557V129.557Z" fill="#CA6AB4"/>
</svg>
