<svg width="146" height="143" viewBox="0 0 146 143" fill="none" xmlns="http://www.w3.org/2000/svg">
<path d="M145.018 0.979925C145.053 0.972868 145.064 0.970521 145.084 0.966603L145.122 0.958778L144.963 0.170809C144.928 0.177876 144.917 0.180247 144.897 0.184176L144.858 0.192037L145.018 0.979925ZM138.735 2.31218L140.299 1.96913L141.872 1.63181L141.706 0.845386L140.129 1.1835L138.561 1.52734L138.735 2.31218ZM132.487 3.76161L134.044 3.38838L135.61 3.0211L135.428 2.23798L133.858 2.60616L132.298 2.98034L132.487 3.76161ZM126.25 5.34124L127.799 4.93601L129.358 4.53697L129.16 3.75765L127.598 4.15774L126.045 4.56405L126.25 5.34124ZM120.065 7.04907L121.605 6.61027L123.154 6.17788L122.94 5.40296L121.387 5.83653L119.843 6.27658L120.065 7.04907ZM113.912 8.89928L115.44 8.42506L116.979 7.95754L116.747 7.18765L115.204 7.65657L113.671 8.13218L113.912 8.89928ZM107.814 10.8939L109.33 10.382L110.858 9.8772L110.608 9.1131L109.076 9.61954L107.554 10.133L107.814 10.8939ZM101.863 13.0088C102.528 12.7626 103.196 12.5185 103.868 12.2766L104.879 11.9153L104.61 11.1577C103.932 11.3983 103.258 11.641 102.588 11.8859L101.584 12.2549L101.863 13.0088ZM95.8642 15.3251C96.5219 15.0603 97.1831 14.7978 97.8478 14.5376L98.8476 14.1489L98.5583 13.3989C97.8876 13.6578 97.2205 13.919 96.5569 14.1824L95.5642 14.5793L95.8642 15.3251ZM89.9408 17.8116C90.5905 17.5273 91.2439 17.2453 91.901 16.9656L92.8894 16.5478L92.5784 15.8065C91.9152 16.0849 91.2556 16.3656 90.5997 16.6487L89.6187 17.0751L89.9408 17.8116ZM84.0922 20.4817C84.7326 20.1768 85.3767 19.8744 86.0248 19.5744L86.9997 19.1262L86.6661 18.3948C86.0116 18.6936 85.361 18.9948 84.7142 19.2985L83.7469 19.7558L84.0922 20.4817ZM78.3436 23.3375C78.973 23.0113 79.6064 22.6877 80.2439 22.3665L81.203 21.8867L80.8456 21.1667C80.2015 21.4866 79.5613 21.8091 78.9252 22.1342L77.974 22.6237L78.3436 23.3375ZM72.6957 26.3931C73.3135 26.0442 73.9354 25.698 74.5616 25.3544L75.5039 24.841L75.1217 24.1338C74.4886 24.4763 73.8596 24.8215 73.2348 25.1693L72.3007 25.693L72.6957 26.3931ZM67.1621 29.6572C67.7658 29.2852 68.3738 28.916 68.9861 28.5496L69.9079 28.002L69.4998 27.3094C68.8802 27.6749 68.2649 28.0431 67.6539 28.4141L66.7408 28.9726L67.1621 29.6572ZM61.7571 33.1385C62.3457 32.7422 62.9388 32.3488 63.5363 31.9582L64.4361 31.3744L64.0012 30.6984C63.396 31.0881 62.7954 31.4807 62.1992 31.8762L61.3085 32.4716L61.7571 33.1385ZM56.5147 36.8316C57.0858 36.4107 57.6616 35.9927 58.242 35.5776L59.1161 34.9573L58.6535 34.2999C58.0653 34.7142 57.4818 35.1315 56.9029 35.5518L56.0381 36.1844L56.5147 36.8316ZM51.4371 40.7513C51.9884 40.3056 52.5445 39.8628 53.1054 39.4231L53.9503 38.7659L53.4595 38.1293C52.8906 38.5684 52.3265 39.0106 51.7673 39.4559L50.932 40.1261L51.4371 40.7513ZM46.5376 44.9062C47.0675 44.4348 47.6023 43.9666 48.1421 43.5015L48.9555 42.8062L48.436 42.193C47.888 42.6576 47.345 43.1255 46.807 43.5965L46.0037 44.3054L46.5376 44.9062ZM41.8549 49.2798C42.3615 48.7828 42.8732 48.2889 43.39 47.7983L44.169 47.0649L43.6207 46.4771C43.0956 46.9675 42.5756 47.4611 42.0608 47.958L41.2923 48.7058L41.8549 49.2798ZM37.39 53.8867C37.8711 53.3643 38.3574 52.8453 38.8489 52.3295L39.59 51.5584L39.0132 50.9987C38.5133 51.5144 38.0187 52.0334 37.5293 52.5558L36.7992 53.3419L37.39 53.8867ZM33.1686 58.7158C33.6224 58.1685 34.0814 57.6246 34.5457 57.084L35.2462 56.2757L34.6414 55.7464C34.1687 56.2871 33.7013 56.8312 33.2393 57.3787L32.5502 58.2025L33.1686 58.7158ZM29.2397 63.7165C29.6639 63.1462 30.0934 62.5793 30.5283 62.0158L31.1847 61.1731L30.5532 60.6761C30.11 61.2399 29.6721 61.8072 29.2397 62.3779L28.5951 63.2365L29.2397 63.7165ZM25.544 68.9744C25.9378 68.3808 26.3369 67.7907 26.7414 67.2039L27.3523 66.3264L26.6951 65.8639C26.2824 66.4512 25.8751 67.0419 25.4733 67.636L24.8746 68.5298L25.544 68.9744ZM22.1409 74.4181C22.502 73.8043 22.8684 73.194 23.2403 72.587L23.8021 71.6792L23.1209 71.2528C22.7411 71.8604 22.3667 72.4715 21.9978 73.086L21.4485 74.0103L22.1409 74.4181ZM19.0357 80.0375C19.3632 79.4054 19.696 78.7767 20.0342 78.1514L20.5456 77.216L19.8424 76.827C19.4965 77.4531 19.1561 78.0826 18.821 78.7155L18.3224 79.6674L19.0357 80.0375ZM16.2362 85.8105C16.5305 85.1603 16.8302 84.5135 17.1352 83.8701L17.5967 82.9076L16.8738 82.5566C16.5615 83.2008 16.2545 83.8485 15.9528 84.4995L15.5043 85.4786L16.2362 85.8105ZM13.742 91.7233C14.0024 91.0587 14.268 90.3974 14.5388 89.7395L14.949 88.755L14.2088 88.4424C13.9309 89.1012 13.6583 89.7635 13.391 90.429L12.9939 91.4298L13.742 91.7233ZM11.562 97.7273C11.7889 97.0504 12.0209 96.3767 12.258 95.7063L12.6175 94.7032L11.8624 94.4286C11.6186 95.0999 11.38 95.7745 11.1466 96.4523L10.8002 97.4715L11.562 97.7273ZM9.66757 103.872C9.86153 103.185 10.0605 102.5 10.2644 101.819L10.574 100.8L9.80624 100.563C9.59607 101.245 9.39092 101.93 9.19078 102.619L8.89433 103.654L9.66757 103.872ZM8.07087 110.085C8.2329 109.388 8.39975 108.695 8.57146 108.005L8.83267 106.972L8.05452 106.771C7.87695 107.462 7.70425 108.157 7.53643 108.854L7.28835 109.902L8.07087 110.085ZM6.75845 116.356C6.88972 115.652 7.02567 114.951 7.16633 114.254L7.38085 113.209L6.59446 113.044C6.4483 113.743 6.30687 114.444 6.17016 115.149L5.96865 116.208L6.75845 116.356ZM5.71532 122.689C5.81709 121.98 5.9234 121.273 6.03425 120.569L6.20395 119.515L5.41119 119.384C5.29519 120.089 5.18377 120.797 5.0769 121.507L4.92003 122.575L5.71532 122.689ZM4.9313 129.066C5.00464 128.354 5.08235 127.644 5.16441 126.938L5.29076 125.88L4.49333 125.782C4.40648 126.489 4.32402 127.199 4.24594 127.912L4.1321 128.983L4.9313 129.066ZM3.61113 142.234C5.60473 142.346 7.31187 140.821 7.42414 138.826C7.52868 136.969 6.21368 135.36 4.42269 135.056L4.39493 135.457C4.44167 134.741 4.49262 134.027 4.54779 133.317L4.63369 132.253L3.83308 132.185C3.77342 132.896 3.718 133.61 3.66681 134.327L3.61998 135.009C1.80183 135.105 0.309434 136.557 0.204705 138.418C0.0924301 140.412 1.61753 142.121 3.61113 142.234V142.234Z" fill="#CA6AB4"/>
</svg>
