<svg width="511" height="538" viewBox="0 0 511 538" fill="none" xmlns="http://www.w3.org/2000/svg">
<rect width="478.998" height="506.41" transform="matrix(-0.999996 -0.0027656 -0.00266803 0.999996 495.458 16.4583)" fill="#FFD2DD"/>
<rect width="478.998" height="506.41" transform="matrix(0.999485 0.032093 -0.0321906 0.999482 24.0557 8.23999)" fill="#FE779A"/>
<rect width="478.998" height="506.41" transform="matrix(0.997923 0.0644106 0.0643132 -0.99793 0 506.254)" fill="#51DFDC"/>
<path d="M155.56 85.4737C154.1 85.4737 152.78 85.2237 151.6 84.7237C150.44 84.2237 149.52 83.5037 148.84 82.5637C148.16 81.6237 147.81 80.5137 147.79 79.2337H152.29C152.35 80.0937 152.65 80.7737 153.19 81.2737C153.75 81.7737 154.51 82.0237 155.47 82.0237C156.45 82.0237 157.22 81.7937 157.78 81.3337C158.34 80.8537 158.62 80.2337 158.62 79.4737C158.62 78.8537 158.43 78.3437 158.05 77.9437C157.67 77.5437 157.19 77.2337 156.61 77.0137C156.05 76.7737 155.27 76.5137 154.27 76.2337C152.91 75.8337 151.8 75.4437 150.94 75.0637C150.1 74.6637 149.37 74.0737 148.75 73.2937C148.15 72.4937 147.85 71.4337 147.85 70.1137C147.85 68.8737 148.16 67.7937 148.78 66.8737C149.4 65.9537 150.27 65.2537 151.39 64.7737C152.51 64.2737 153.79 64.0237 155.23 64.0237C157.39 64.0237 159.14 64.5537 160.48 65.6137C161.84 66.6537 162.59 68.1137 162.73 69.9937H158.11C158.07 69.2737 157.76 68.6837 157.18 68.2237C156.62 67.7437 155.87 67.5037 154.93 67.5037C154.11 67.5037 153.45 67.7137 152.95 68.1337C152.47 68.5537 152.23 69.1637 152.23 69.9637C152.23 70.5237 152.41 70.9937 152.77 71.3737C153.15 71.7337 153.61 72.0337 154.15 72.2737C154.71 72.4937 155.49 72.7537 156.49 73.0537C157.85 73.4537 158.96 73.8537 159.82 74.2537C160.68 74.6537 161.42 75.2537 162.04 76.0537C162.66 76.8537 162.97 77.9037 162.97 79.2037C162.97 80.3237 162.68 81.3637 162.1 82.3237C161.52 83.2837 160.67 84.0537 159.55 84.6337C158.43 85.1937 157.1 85.4737 155.56 85.4737ZM166.731 76.9537C166.731 75.2337 167.081 73.7337 167.781 72.4537C168.481 71.1537 169.451 70.1537 170.691 69.4537C171.931 68.7337 173.351 68.3737 174.951 68.3737C177.011 68.3737 178.711 68.8937 180.051 69.9337C181.411 70.9537 182.321 72.3937 182.781 74.2537H178.251C178.011 73.5337 177.601 72.9737 177.021 72.5737C176.461 72.1537 175.761 71.9437 174.921 71.9437C173.721 71.9437 172.771 72.3837 172.071 73.2637C171.371 74.1237 171.021 75.3537 171.021 76.9537C171.021 78.5337 171.371 79.7637 172.071 80.6437C172.771 81.5037 173.721 81.9337 174.921 81.9337C176.621 81.9337 177.731 81.1737 178.251 79.6537H182.781C182.321 81.4537 181.411 82.8837 180.051 83.9437C178.691 85.0037 176.991 85.5337 174.951 85.5337C173.351 85.5337 171.931 85.1837 170.691 84.4837C169.451 83.7637 168.481 82.7637 167.781 81.4837C167.081 80.1837 166.731 78.6737 166.731 76.9537ZM185.978 76.8937C185.978 75.2137 186.308 73.7237 186.968 72.4237C187.648 71.1237 188.558 70.1237 189.698 69.4237C190.858 68.7237 192.148 68.3737 193.568 68.3737C194.808 68.3737 195.888 68.6237 196.808 69.1237C197.748 69.6237 198.498 70.2537 199.058 71.0137V68.6437H203.288V85.2637H199.058V82.8337C198.518 83.6137 197.768 84.2637 196.808 84.7837C195.868 85.2837 194.778 85.5337 193.538 85.5337C192.138 85.5337 190.858 85.1737 189.698 84.4537C188.558 83.7337 187.648 82.7237 186.968 81.4237C186.308 80.1037 185.978 78.5937 185.978 76.8937ZM199.058 76.9537C199.058 75.9337 198.858 75.0637 198.458 74.3437C198.058 73.6037 197.518 73.0437 196.838 72.6637C196.158 72.2637 195.428 72.0637 194.648 72.0637C193.868 72.0637 193.148 72.2537 192.488 72.6337C191.828 73.0137 191.288 73.5737 190.868 74.3137C190.468 75.0337 190.268 75.8937 190.268 76.8937C190.268 77.8937 190.468 78.7737 190.868 79.5337C191.288 80.2737 191.828 80.8437 192.488 81.2437C193.168 81.6437 193.888 81.8437 194.648 81.8437C195.428 81.8437 196.158 81.6537 196.838 81.2737C197.518 80.8737 198.058 80.3137 198.458 79.5937C198.858 78.8537 199.058 77.9737 199.058 76.9537ZM217.8 68.4037C219.78 68.4037 221.38 69.0337 222.6 70.2937C223.82 71.5337 224.43 73.2737 224.43 75.5137V85.2637H220.23V76.0837C220.23 74.7637 219.9 73.7537 219.24 73.0537C218.58 72.3337 217.68 71.9737 216.54 71.9737C215.38 71.9737 214.46 72.3337 213.78 73.0537C213.12 73.7537 212.79 74.7637 212.79 76.0837V85.2637H208.59V68.6437H212.79V70.7137C213.35 69.9937 214.06 69.4337 214.92 69.0337C215.8 68.6137 216.76 68.4037 217.8 68.4037ZM242.863 72.0937V80.1337C242.863 80.6937 242.993 81.1037 243.253 81.3637C243.533 81.6037 243.993 81.7237 244.633 81.7237H246.583V85.2637H243.943C240.403 85.2637 238.633 83.5437 238.633 80.1037V72.0937H236.653V68.6437H238.633V64.5337H242.863V68.6437H246.583V72.0937H242.863ZM258.183 85.5337C256.583 85.5337 255.143 85.1837 253.863 84.4837C252.583 83.7637 251.573 82.7537 250.833 81.4537C250.113 80.1537 249.753 78.6537 249.753 76.9537C249.753 75.2537 250.123 73.7537 250.863 72.4537C251.623 71.1537 252.653 70.1537 253.953 69.4537C255.253 68.7337 256.703 68.3737 258.303 68.3737C259.903 68.3737 261.353 68.7337 262.653 69.4537C263.953 70.1537 264.973 71.1537 265.713 72.4537C266.473 73.7537 266.853 75.2537 266.853 76.9537C266.853 78.6537 266.463 80.1537 265.683 81.4537C264.923 82.7537 263.883 83.7637 262.563 84.4837C261.263 85.1837 259.803 85.5337 258.183 85.5337ZM258.183 81.8737C258.943 81.8737 259.653 81.6937 260.313 81.3337C260.993 80.9537 261.533 80.3937 261.933 79.6537C262.333 78.9137 262.533 78.0137 262.533 76.9537C262.533 75.3737 262.113 74.1637 261.273 73.3237C260.453 72.4637 259.443 72.0337 258.243 72.0337C257.043 72.0337 256.033 72.4637 255.213 73.3237C254.413 74.1637 254.013 75.3737 254.013 76.9537C254.013 78.5337 254.403 79.7537 255.183 80.6137C255.983 81.4537 256.983 81.8737 258.183 81.8737ZM289.203 85.4737C287.243 85.4737 285.443 85.0137 283.803 84.0937C282.163 83.1737 280.863 81.9037 279.903 80.2837C278.943 78.6437 278.463 76.7937 278.463 74.7337C278.463 72.6937 278.943 70.8637 279.903 69.2437C280.863 67.6037 282.163 66.3237 283.803 65.4037C285.443 64.4837 287.243 64.0237 289.203 64.0237C291.183 64.0237 292.983 64.4837 294.603 65.4037C296.243 66.3237 297.533 67.6037 298.473 69.2437C299.433 70.8637 299.913 72.6937 299.913 74.7337C299.913 76.7937 299.433 78.6437 298.473 80.2837C297.533 81.9037 296.243 83.1737 294.603 84.0937C292.963 85.0137 291.163 85.4737 289.203 85.4737ZM289.203 81.7237C290.463 81.7237 291.573 81.4437 292.533 80.8837C293.493 80.3037 294.243 79.4837 294.783 78.4237C295.323 77.3637 295.593 76.1337 295.593 74.7337C295.593 73.3337 295.323 72.1137 294.783 71.0737C294.243 70.0137 293.493 69.2037 292.533 68.6437C291.573 68.0837 290.463 67.8037 289.203 67.8037C287.943 67.8037 286.823 68.0837 285.843 68.6437C284.883 69.2037 284.133 70.0137 283.593 71.0737C283.053 72.1137 282.783 73.3337 282.783 74.7337C282.783 76.1337 283.053 77.3637 283.593 78.4237C284.133 79.4837 284.883 80.3037 285.843 80.8837C286.823 81.4437 287.943 81.7237 289.203 81.7237ZM308.437 71.2237C308.977 70.3437 309.677 69.6537 310.537 69.1537C311.417 68.6537 312.417 68.4037 313.537 68.4037V72.8137H312.427C311.107 72.8137 310.107 73.1237 309.427 73.7437C308.767 74.3637 308.437 75.4437 308.437 76.9837V85.2637H304.237V68.6437H308.437V71.2237ZM316.486 76.8937C316.486 75.2137 316.816 73.7237 317.476 72.4237C318.156 71.1237 319.076 70.1237 320.236 69.4237C321.396 68.7237 322.686 68.3737 324.106 68.3737C325.186 68.3737 326.216 68.6137 327.196 69.0937C328.176 69.5537 328.956 70.1737 329.536 70.9537V63.0637H333.796V85.2637H329.536V82.8037C329.016 83.6237 328.286 84.2837 327.346 84.7837C326.406 85.2837 325.316 85.5337 324.076 85.5337C322.676 85.5337 321.396 85.1737 320.236 84.4537C319.076 83.7337 318.156 82.7237 317.476 81.4237C316.816 80.1037 316.486 78.5937 316.486 76.8937ZM329.566 76.9537C329.566 75.9337 329.366 75.0637 328.966 74.3437C328.566 73.6037 328.026 73.0437 327.346 72.6637C326.666 72.2637 325.936 72.0637 325.156 72.0637C324.376 72.0637 323.656 72.2537 322.996 72.6337C322.336 73.0137 321.796 73.5737 321.376 74.3137C320.976 75.0337 320.776 75.8937 320.776 76.8937C320.776 77.8937 320.976 78.7737 321.376 79.5337C321.796 80.2737 322.336 80.8437 322.996 81.2437C323.676 81.6437 324.396 81.8437 325.156 81.8437C325.936 81.8437 326.666 81.6537 327.346 81.2737C328.026 80.8737 328.566 80.3137 328.966 79.5937C329.366 78.8537 329.566 77.9737 329.566 76.9537ZM354.548 76.5937C354.548 77.1937 354.508 77.7337 354.428 78.2137H342.278C342.378 79.4137 342.798 80.3537 343.538 81.0337C344.278 81.7137 345.188 82.0537 346.268 82.0537C347.828 82.0537 348.938 81.3837 349.598 80.0437H354.128C353.648 81.6437 352.728 82.9637 351.368 84.0037C350.008 85.0237 348.338 85.5337 346.358 85.5337C344.758 85.5337 343.318 85.1837 342.038 84.4837C340.778 83.7637 339.788 82.7537 339.068 81.4537C338.368 80.1537 338.018 78.6537 338.018 76.9537C338.018 75.2337 338.368 73.7237 339.068 72.4237C339.768 71.1237 340.748 70.1237 342.008 69.4237C343.268 68.7237 344.718 68.3737 346.358 68.3737C347.938 68.3737 349.348 68.7137 350.588 69.3937C351.848 70.0737 352.818 71.0437 353.498 72.3037C354.198 73.5437 354.548 74.9737 354.548 76.5937ZM350.198 75.3937C350.178 74.3137 349.788 73.4537 349.028 72.8137C348.268 72.1537 347.338 71.8237 346.238 71.8237C345.198 71.8237 344.318 72.1437 343.598 72.7837C342.898 73.4037 342.468 74.2737 342.308 75.3937H350.198ZM363.014 71.2237C363.554 70.3437 364.254 69.6537 365.114 69.1537C365.994 68.6537 366.994 68.4037 368.114 68.4037V72.8137H367.004C365.684 72.8137 364.684 73.1237 364.004 73.7437C363.344 74.3637 363.014 75.4437 363.014 76.9837V85.2637H358.814V68.6437H363.014V71.2237Z" fill="#14142B"/>
<path d="M108.345 129.126C107.517 129.126 106.773 128.982 106.113 128.694C105.465 128.394 104.955 127.986 104.583 127.47C104.211 126.942 104.019 126.336 104.007 125.652H105.753C105.813 126.24 106.053 126.738 106.473 127.146C106.905 127.542 107.529 127.74 108.345 127.74C109.125 127.74 109.737 127.548 110.181 127.164C110.637 126.768 110.865 126.264 110.865 125.652C110.865 125.172 110.733 124.782 110.469 124.482C110.205 124.182 109.875 123.954 109.479 123.798C109.083 123.642 108.549 123.474 107.877 123.294C107.049 123.078 106.383 122.862 105.879 122.646C105.387 122.43 104.961 122.094 104.601 121.638C104.253 121.17 104.079 120.546 104.079 119.766C104.079 119.082 104.253 118.476 104.601 117.948C104.949 117.42 105.435 117.012 106.059 116.724C106.695 116.436 107.421 116.292 108.237 116.292C109.413 116.292 110.373 116.586 111.117 117.174C111.873 117.762 112.299 118.542 112.395 119.514H110.595C110.535 119.034 110.283 118.614 109.839 118.254C109.395 117.882 108.807 117.696 108.075 117.696C107.391 117.696 106.833 117.876 106.401 118.236C105.969 118.584 105.753 119.076 105.753 119.712C105.753 120.168 105.879 120.54 106.131 120.828C106.395 121.116 106.713 121.338 107.085 121.494C107.469 121.638 108.003 121.806 108.687 121.998C109.515 122.226 110.181 122.454 110.685 122.682C111.189 122.898 111.621 123.24 111.981 123.708C112.341 124.164 112.521 124.788 112.521 125.58C112.521 126.192 112.359 126.768 112.035 127.308C111.711 127.848 111.231 128.286 110.595 128.622C109.959 128.958 109.209 129.126 108.345 129.126ZM114.719 124.05C114.719 123.03 114.923 122.142 115.331 121.386C115.739 120.618 116.303 120.024 117.023 119.604C117.755 119.184 118.589 118.974 119.525 118.974C120.737 118.974 121.733 119.268 122.513 119.856C123.305 120.444 123.827 121.26 124.079 122.304H122.315C122.147 121.704 121.817 121.23 121.325 120.882C120.845 120.534 120.245 120.36 119.525 120.36C118.589 120.36 117.833 120.684 117.257 121.332C116.681 121.968 116.393 122.874 116.393 124.05C116.393 125.238 116.681 126.156 117.257 126.804C117.833 127.452 118.589 127.776 119.525 127.776C120.245 127.776 120.845 127.608 121.325 127.272C121.805 126.936 122.135 126.456 122.315 125.832H124.079C123.815 126.84 123.287 127.65 122.495 128.262C121.703 128.862 120.713 129.162 119.525 129.162C118.589 129.162 117.755 128.952 117.023 128.532C116.303 128.112 115.739 127.518 115.331 126.75C114.923 125.982 114.719 125.082 114.719 124.05ZM126.053 124.032C126.053 123.024 126.257 122.142 126.665 121.386C127.073 120.618 127.631 120.024 128.339 119.604C129.059 119.184 129.857 118.974 130.733 118.974C131.597 118.974 132.347 119.16 132.983 119.532C133.619 119.904 134.093 120.372 134.405 120.936V119.136H136.061V129H134.405V127.164C134.081 127.74 133.595 128.22 132.947 128.604C132.311 128.976 131.567 129.162 130.715 129.162C129.839 129.162 129.047 128.946 128.339 128.514C127.631 128.082 127.073 127.476 126.665 126.696C126.257 125.916 126.053 125.028 126.053 124.032ZM134.405 124.05C134.405 123.306 134.255 122.658 133.955 122.106C133.655 121.554 133.247 121.134 132.731 120.846C132.227 120.546 131.669 120.396 131.057 120.396C130.445 120.396 129.887 120.54 129.383 120.828C128.879 121.116 128.477 121.536 128.177 122.088C127.877 122.64 127.727 123.288 127.727 124.032C127.727 124.788 127.877 125.448 128.177 126.012C128.477 126.564 128.879 126.99 129.383 127.29C129.887 127.578 130.445 127.722 131.057 127.722C131.669 127.722 132.227 127.578 132.731 127.29C133.247 126.99 133.655 126.564 133.955 126.012C134.255 125.448 134.405 124.794 134.405 124.05ZM144.035 118.956C145.235 118.956 146.207 119.322 146.951 120.054C147.695 120.774 148.067 121.818 148.067 123.186V129H146.447V123.42C146.447 122.436 146.201 121.686 145.709 121.17C145.217 120.642 144.545 120.378 143.693 120.378C142.829 120.378 142.139 120.648 141.623 121.188C141.119 121.728 140.867 122.514 140.867 123.546V129H139.229V119.136H140.867V120.54C141.191 120.036 141.629 119.646 142.181 119.37C142.745 119.094 143.363 118.956 144.035 118.956ZM166.403 131.376L163.901 128.874C163.289 129.042 162.665 129.126 162.029 129.126C160.865 129.126 159.803 128.856 158.843 128.316C157.883 127.764 157.121 127.002 156.557 126.03C156.005 125.046 155.729 123.942 155.729 122.718C155.729 121.494 156.005 120.396 156.557 119.424C157.121 118.44 157.883 117.678 158.843 117.138C159.803 116.586 160.865 116.31 162.029 116.31C163.205 116.31 164.273 116.586 165.233 117.138C166.193 117.678 166.949 118.434 167.501 119.406C168.053 120.378 168.329 121.482 168.329 122.718C168.329 123.918 168.065 124.998 167.537 125.958C167.009 126.918 166.283 127.674 165.359 128.226L168.527 131.376H166.403ZM157.403 122.718C157.403 123.714 157.601 124.59 157.997 125.346C158.405 126.102 158.957 126.684 159.653 127.092C160.361 127.5 161.153 127.704 162.029 127.704C162.905 127.704 163.691 127.5 164.387 127.092C165.095 126.684 165.647 126.102 166.043 125.346C166.451 124.59 166.655 123.714 166.655 122.718C166.655 121.71 166.451 120.834 166.043 120.09C165.647 119.334 165.101 118.752 164.405 118.344C163.709 117.936 162.917 117.732 162.029 117.732C161.141 117.732 160.349 117.936 159.653 118.344C158.957 118.752 158.405 119.334 157.997 120.09C157.601 120.834 157.403 121.71 157.403 122.718ZM177.533 129L174.545 123.87H172.565V129H170.927V116.454H174.977C175.925 116.454 176.723 116.616 177.371 116.94C178.031 117.264 178.523 117.702 178.847 118.254C179.171 118.806 179.333 119.436 179.333 120.144C179.333 121.008 179.081 121.77 178.577 122.43C178.085 123.09 177.341 123.528 176.345 123.744L179.495 129H177.533ZM172.565 122.556H174.977C175.865 122.556 176.531 122.34 176.975 121.908C177.419 121.464 177.641 120.876 177.641 120.144C177.641 119.4 177.419 118.824 176.975 118.416C176.543 118.008 175.877 117.804 174.977 117.804H172.565V122.556ZM186.865 124.05C186.865 123.03 187.069 122.142 187.477 121.386C187.885 120.618 188.449 120.024 189.169 119.604C189.901 119.184 190.735 118.974 191.671 118.974C192.883 118.974 193.879 119.268 194.659 119.856C195.451 120.444 195.973 121.26 196.225 122.304H194.461C194.293 121.704 193.963 121.23 193.471 120.882C192.991 120.534 192.391 120.36 191.671 120.36C190.735 120.36 189.979 120.684 189.403 121.332C188.827 121.968 188.539 122.874 188.539 124.05C188.539 125.238 188.827 126.156 189.403 126.804C189.979 127.452 190.735 127.776 191.671 127.776C192.391 127.776 192.991 127.608 193.471 127.272C193.951 126.936 194.281 126.456 194.461 125.832H196.225C195.961 126.84 195.433 127.65 194.641 128.262C193.849 128.862 192.859 129.162 191.671 129.162C190.735 129.162 189.901 128.952 189.169 128.532C188.449 128.112 187.885 127.518 187.477 126.75C187.069 125.982 186.865 125.082 186.865 124.05ZM203.112 129.162C202.188 129.162 201.348 128.952 200.592 128.532C199.848 128.112 199.26 127.518 198.828 126.75C198.408 125.97 198.198 125.07 198.198 124.05C198.198 123.042 198.414 122.154 198.846 121.386C199.29 120.606 199.89 120.012 200.646 119.604C201.402 119.184 202.248 118.974 203.184 118.974C204.12 118.974 204.966 119.184 205.722 119.604C206.478 120.012 207.072 120.6 207.504 121.368C207.948 122.136 208.17 123.03 208.17 124.05C208.17 125.07 207.942 125.97 207.486 126.75C207.042 127.518 206.436 128.112 205.668 128.532C204.9 128.952 204.048 129.162 203.112 129.162ZM203.112 127.722C203.7 127.722 204.252 127.584 204.768 127.308C205.284 127.032 205.698 126.618 206.01 126.066C206.334 125.514 206.496 124.842 206.496 124.05C206.496 123.258 206.34 122.586 206.028 122.034C205.716 121.482 205.308 121.074 204.804 120.81C204.3 120.534 203.754 120.396 203.166 120.396C202.566 120.396 202.014 120.534 201.51 120.81C201.018 121.074 200.622 121.482 200.322 122.034C200.022 122.586 199.872 123.258 199.872 124.05C199.872 124.854 200.016 125.532 200.304 126.084C200.604 126.636 201 127.05 201.492 127.326C201.984 127.59 202.524 127.722 203.112 127.722ZM210.112 124.032C210.112 123.024 210.316 122.142 210.724 121.386C211.132 120.618 211.69 120.024 212.398 119.604C213.118 119.184 213.922 118.974 214.81 118.974C215.578 118.974 216.292 119.154 216.952 119.514C217.612 119.862 218.116 120.324 218.464 120.9V115.68H220.12V129H218.464V127.146C218.14 127.734 217.66 128.22 217.024 128.604C216.388 128.976 215.644 129.162 214.792 129.162C213.916 129.162 213.118 128.946 212.398 128.514C211.69 128.082 211.132 127.476 210.724 126.696C210.316 125.916 210.112 125.028 210.112 124.032ZM218.464 124.05C218.464 123.306 218.314 122.658 218.014 122.106C217.714 121.554 217.306 121.134 216.79 120.846C216.286 120.546 215.728 120.396 215.116 120.396C214.504 120.396 213.946 120.54 213.442 120.828C212.938 121.116 212.536 121.536 212.236 122.088C211.936 122.64 211.786 123.288 211.786 124.032C211.786 124.788 211.936 125.448 212.236 126.012C212.536 126.564 212.938 126.99 213.442 127.29C213.946 127.578 214.504 127.722 215.116 127.722C215.728 127.722 216.286 127.578 216.79 127.29C217.306 126.99 217.714 126.564 218.014 126.012C218.314 125.448 218.464 124.794 218.464 124.05ZM232.288 123.69C232.288 124.002 232.27 124.332 232.234 124.68H224.35C224.41 125.652 224.74 126.414 225.34 126.966C225.952 127.506 226.69 127.776 227.554 127.776C228.262 127.776 228.85 127.614 229.318 127.29C229.798 126.954 230.134 126.51 230.326 125.958H232.09C231.826 126.906 231.298 127.68 230.506 128.28C229.714 128.868 228.73 129.162 227.554 129.162C226.618 129.162 225.778 128.952 225.034 128.532C224.302 128.112 223.726 127.518 223.306 126.75C222.886 125.97 222.676 125.07 222.676 124.05C222.676 123.03 222.88 122.136 223.288 121.368C223.696 120.6 224.266 120.012 224.998 119.604C225.742 119.184 226.594 118.974 227.554 118.974C228.49 118.974 229.318 119.178 230.038 119.586C230.758 119.994 231.31 120.558 231.694 121.278C232.09 121.986 232.288 122.79 232.288 123.69ZM230.596 123.348C230.596 122.724 230.458 122.19 230.182 121.746C229.906 121.29 229.528 120.948 229.048 120.72C228.58 120.48 228.058 120.36 227.482 120.36C226.654 120.36 225.946 120.624 225.358 121.152C224.782 121.68 224.452 122.412 224.368 123.348H230.596ZM239.437 124.032C239.437 123.024 239.641 122.142 240.049 121.386C240.457 120.618 241.015 120.024 241.723 119.604C242.443 119.184 243.241 118.974 244.117 118.974C244.981 118.974 245.731 119.16 246.367 119.532C247.003 119.904 247.477 120.372 247.789 120.936V119.136H249.445V129H247.789V127.164C247.465 127.74 246.979 128.22 246.331 128.604C245.695 128.976 244.951 129.162 244.099 129.162C243.223 129.162 242.431 128.946 241.723 128.514C241.015 128.082 240.457 127.476 240.049 126.696C239.641 125.916 239.437 125.028 239.437 124.032ZM247.789 124.05C247.789 123.306 247.639 122.658 247.339 122.106C247.039 121.554 246.631 121.134 246.115 120.846C245.611 120.546 245.053 120.396 244.441 120.396C243.829 120.396 243.271 120.54 242.767 120.828C242.263 121.116 241.861 121.536 241.561 122.088C241.261 122.64 241.111 123.288 241.111 124.032C241.111 124.788 241.261 125.448 241.561 126.012C241.861 126.564 242.263 126.99 242.767 127.29C243.271 127.578 243.829 127.722 244.441 127.722C245.053 127.722 245.611 127.578 246.115 127.29C246.631 126.99 247.039 126.564 247.339 126.012C247.639 125.448 247.789 124.794 247.789 124.05ZM254.611 120.486V126.3C254.611 126.78 254.713 127.122 254.917 127.326C255.121 127.518 255.475 127.614 255.979 127.614H257.185V129H255.709C254.797 129 254.113 128.79 253.657 128.37C253.201 127.95 252.973 127.26 252.973 126.3V120.486H251.695V119.136H252.973V116.652H254.611V119.136H257.185V120.486H254.611ZM266.767 120.486V126.3C266.767 126.78 266.869 127.122 267.073 127.326C267.277 127.518 267.631 127.614 268.135 127.614H269.341V129H267.865C266.953 129 266.269 128.79 265.813 128.37C265.357 127.95 265.129 127.26 265.129 126.3V120.486H263.851V119.136H265.129V116.652H266.767V119.136H269.341V120.486H266.767ZM271.113 124.032C271.113 123.024 271.317 122.142 271.725 121.386C272.133 120.618 272.691 120.024 273.399 119.604C274.119 119.184 274.917 118.974 275.793 118.974C276.657 118.974 277.407 119.16 278.043 119.532C278.679 119.904 279.153 120.372 279.465 120.936V119.136H281.121V129H279.465V127.164C279.141 127.74 278.655 128.22 278.007 128.604C277.371 128.976 276.627 129.162 275.775 129.162C274.899 129.162 274.107 128.946 273.399 128.514C272.691 128.082 272.133 127.476 271.725 126.696C271.317 125.916 271.113 125.028 271.113 124.032ZM279.465 124.05C279.465 123.306 279.315 122.658 279.015 122.106C278.715 121.554 278.307 121.134 277.791 120.846C277.287 120.546 276.729 120.396 276.117 120.396C275.505 120.396 274.947 120.54 274.443 120.828C273.939 121.116 273.537 121.536 273.237 122.088C272.937 122.64 272.787 123.288 272.787 124.032C272.787 124.788 272.937 125.448 273.237 126.012C273.537 126.564 273.939 126.99 274.443 127.29C274.947 127.578 275.505 127.722 276.117 127.722C276.729 127.722 277.287 127.578 277.791 127.29C278.307 126.99 278.715 126.564 279.015 126.012C279.315 125.448 279.465 124.794 279.465 124.05ZM285.927 120.972C286.263 120.384 286.755 119.904 287.403 119.532C288.051 119.16 288.789 118.974 289.617 118.974C290.505 118.974 291.303 119.184 292.011 119.604C292.719 120.024 293.277 120.618 293.685 121.386C294.093 122.142 294.297 123.024 294.297 124.032C294.297 125.028 294.093 125.916 293.685 126.696C293.277 127.476 292.713 128.082 291.993 128.514C291.285 128.946 290.493 129.162 289.617 129.162C288.765 129.162 288.015 128.976 287.367 128.604C286.731 128.232 286.251 127.758 285.927 127.182V129H284.289V115.68H285.927V120.972ZM292.623 124.032C292.623 123.288 292.473 122.64 292.173 122.088C291.873 121.536 291.465 121.116 290.949 120.828C290.445 120.54 289.887 120.396 289.275 120.396C288.675 120.396 288.117 120.546 287.601 120.846C287.097 121.134 286.689 121.56 286.377 122.124C286.077 122.676 285.927 123.318 285.927 124.05C285.927 124.794 286.077 125.448 286.377 126.012C286.689 126.564 287.097 126.99 287.601 127.29C288.117 127.578 288.675 127.722 289.275 127.722C289.887 127.722 290.445 127.578 290.949 127.29C291.465 126.99 291.873 126.564 292.173 126.012C292.473 125.448 292.623 124.788 292.623 124.032ZM298.491 115.68V129H296.853V115.68H298.491ZM310.683 123.69C310.683 124.002 310.665 124.332 310.629 124.68H302.745C302.805 125.652 303.135 126.414 303.735 126.966C304.347 127.506 305.085 127.776 305.949 127.776C306.657 127.776 307.245 127.614 307.713 127.29C308.193 126.954 308.529 126.51 308.721 125.958H310.485C310.221 126.906 309.693 127.68 308.901 128.28C308.109 128.868 307.125 129.162 305.949 129.162C305.013 129.162 304.173 128.952 303.429 128.532C302.697 128.112 302.121 127.518 301.701 126.75C301.281 125.97 301.071 125.07 301.071 124.05C301.071 123.03 301.275 122.136 301.683 121.368C302.091 120.6 302.661 120.012 303.393 119.604C304.137 119.184 304.989 118.974 305.949 118.974C306.885 118.974 307.713 119.178 308.433 119.586C309.153 119.994 309.705 120.558 310.089 121.278C310.485 121.986 310.683 122.79 310.683 123.69ZM308.991 123.348C308.991 122.724 308.853 122.19 308.577 121.746C308.301 121.29 307.923 120.948 307.443 120.72C306.975 120.48 306.453 120.36 305.877 120.36C305.049 120.36 304.341 120.624 303.753 121.152C303.177 121.68 302.847 122.412 302.763 123.348H308.991ZM317.832 124.032C317.832 123.024 318.036 122.142 318.444 121.386C318.852 120.618 319.41 120.024 320.118 119.604C320.838 119.184 321.636 118.974 322.512 118.974C323.376 118.974 324.126 119.16 324.762 119.532C325.398 119.904 325.872 120.372 326.184 120.936V119.136H327.84V129H326.184V127.164C325.86 127.74 325.374 128.22 324.726 128.604C324.09 128.976 323.346 129.162 322.494 129.162C321.618 129.162 320.826 128.946 320.118 128.514C319.41 128.082 318.852 127.476 318.444 126.696C318.036 125.916 317.832 125.028 317.832 124.032ZM326.184 124.05C326.184 123.306 326.034 122.658 325.734 122.106C325.434 121.554 325.026 121.134 324.51 120.846C324.006 120.546 323.448 120.396 322.836 120.396C322.224 120.396 321.666 120.54 321.162 120.828C320.658 121.116 320.256 121.536 319.956 122.088C319.656 122.64 319.506 123.288 319.506 124.032C319.506 124.788 319.656 125.448 319.956 126.012C320.256 126.564 320.658 126.99 321.162 127.29C321.666 127.578 322.224 127.722 322.836 127.722C323.448 127.722 324.006 127.578 324.51 127.29C325.026 126.99 325.434 126.564 325.734 126.012C326.034 125.448 326.184 124.794 326.184 124.05ZM335.814 118.956C337.014 118.956 337.986 119.322 338.73 120.054C339.474 120.774 339.846 121.818 339.846 123.186V129H338.226V123.42C338.226 122.436 337.98 121.686 337.488 121.17C336.996 120.642 336.324 120.378 335.472 120.378C334.608 120.378 333.918 120.648 333.402 121.188C332.898 121.728 332.646 122.514 332.646 123.546V129H331.008V119.136H332.646V120.54C332.97 120.036 333.408 119.646 333.96 119.37C334.524 119.094 335.142 118.956 335.814 118.956ZM342.31 124.032C342.31 123.024 342.514 122.142 342.922 121.386C343.33 120.618 343.888 120.024 344.596 119.604C345.316 119.184 346.12 118.974 347.008 118.974C347.776 118.974 348.49 119.154 349.15 119.514C349.81 119.862 350.314 120.324 350.662 120.9V115.68H352.318V129H350.662V127.146C350.338 127.734 349.858 128.22 349.222 128.604C348.586 128.976 347.842 129.162 346.99 129.162C346.114 129.162 345.316 128.946 344.596 128.514C343.888 128.082 343.33 127.476 342.922 126.696C342.514 125.916 342.31 125.028 342.31 124.032ZM350.662 124.05C350.662 123.306 350.512 122.658 350.212 122.106C349.912 121.554 349.504 121.134 348.988 120.846C348.484 120.546 347.926 120.396 347.314 120.396C346.702 120.396 346.144 120.54 345.64 120.828C345.136 121.116 344.734 121.536 344.434 122.088C344.134 122.64 343.984 123.288 343.984 124.032C343.984 124.788 344.134 125.448 344.434 126.012C344.734 126.564 345.136 126.99 345.64 127.29C346.144 127.578 346.702 127.722 347.314 127.722C347.926 127.722 348.484 127.578 348.988 127.29C349.504 126.99 349.912 126.564 350.212 126.012C350.512 125.448 350.662 124.794 350.662 124.05ZM362.323 120.954C362.647 120.39 363.127 119.922 363.763 119.55C364.411 119.166 365.161 118.974 366.013 118.974C366.889 118.974 367.681 119.184 368.389 119.604C369.109 120.024 369.673 120.618 370.081 121.386C370.489 122.142 370.693 123.024 370.693 124.032C370.693 125.028 370.489 125.916 370.081 126.696C369.673 127.476 369.109 128.082 368.389 128.514C367.681 128.946 366.889 129.162 366.013 129.162C365.173 129.162 364.429 128.976 363.781 128.604C363.145 128.22 362.659 127.746 362.323 127.182V133.68H360.685V119.136H362.323V120.954ZM369.019 124.032C369.019 123.288 368.869 122.64 368.569 122.088C368.269 121.536 367.861 121.116 367.345 120.828C366.841 120.54 366.283 120.396 365.671 120.396C365.071 120.396 364.513 120.546 363.997 120.846C363.493 121.134 363.085 121.56 362.773 122.124C362.473 122.676 362.323 123.318 362.323 124.05C362.323 124.794 362.473 125.448 362.773 126.012C363.085 126.564 363.493 126.99 363.997 127.29C364.513 127.578 365.071 127.722 365.671 127.722C366.283 127.722 366.841 127.578 367.345 127.29C367.861 126.99 368.269 126.564 368.569 126.012C368.869 125.448 369.019 124.788 369.019 124.032ZM374.887 115.68V129H373.249V115.68H374.887ZM377.466 124.032C377.466 123.024 377.67 122.142 378.078 121.386C378.486 120.618 379.044 120.024 379.752 119.604C380.472 119.184 381.27 118.974 382.146 118.974C383.01 118.974 383.76 119.16 384.396 119.532C385.032 119.904 385.506 120.372 385.818 120.936V119.136H387.474V129H385.818V127.164C385.494 127.74 385.008 128.22 384.36 128.604C383.724 128.976 382.98 129.162 382.128 129.162C381.252 129.162 380.46 128.946 379.752 128.514C379.044 128.082 378.486 127.476 378.078 126.696C377.67 125.916 377.466 125.028 377.466 124.032ZM385.818 124.05C385.818 123.306 385.668 122.658 385.368 122.106C385.068 121.554 384.66 121.134 384.144 120.846C383.64 120.546 383.082 120.396 382.47 120.396C381.858 120.396 381.3 120.54 380.796 120.828C380.292 121.116 379.89 121.536 379.59 122.088C379.29 122.64 379.14 123.288 379.14 124.032C379.14 124.788 379.29 125.448 379.59 126.012C379.89 126.564 380.292 126.99 380.796 127.29C381.3 127.578 381.858 127.722 382.47 127.722C383.082 127.722 383.64 127.578 384.144 127.29C384.66 126.99 385.068 126.564 385.368 126.012C385.668 125.448 385.818 124.794 385.818 124.05ZM390.03 124.05C390.03 123.03 390.234 122.142 390.642 121.386C391.05 120.618 391.614 120.024 392.334 119.604C393.066 119.184 393.9 118.974 394.836 118.974C396.048 118.974 397.044 119.268 397.824 119.856C398.616 120.444 399.138 121.26 399.39 122.304H397.626C397.458 121.704 397.128 121.23 396.636 120.882C396.156 120.534 395.556 120.36 394.836 120.36C393.9 120.36 393.144 120.684 392.568 121.332C391.992 121.968 391.704 122.874 391.704 124.05C391.704 125.238 391.992 126.156 392.568 126.804C393.144 127.452 393.9 127.776 394.836 127.776C395.556 127.776 396.156 127.608 396.636 127.272C397.116 126.936 397.446 126.456 397.626 125.832H399.39C399.126 126.84 398.598 127.65 397.806 128.262C397.014 128.862 396.024 129.162 394.836 129.162C393.9 129.162 393.066 128.952 392.334 128.532C391.614 128.112 391.05 127.518 390.642 126.75C390.234 125.982 390.03 125.082 390.03 124.05ZM410.976 123.69C410.976 124.002 410.958 124.332 410.922 124.68H403.038C403.098 125.652 403.428 126.414 404.028 126.966C404.64 127.506 405.378 127.776 406.242 127.776C406.95 127.776 407.538 127.614 408.006 127.29C408.486 126.954 408.822 126.51 409.014 125.958H410.778C410.514 126.906 409.986 127.68 409.194 128.28C408.402 128.868 407.418 129.162 406.242 129.162C405.306 129.162 404.466 128.952 403.722 128.532C402.99 128.112 402.414 127.518 401.994 126.75C401.574 125.97 401.364 125.07 401.364 124.05C401.364 123.03 401.568 122.136 401.976 121.368C402.384 120.6 402.954 120.012 403.686 119.604C404.43 119.184 405.282 118.974 406.242 118.974C407.178 118.974 408.006 119.178 408.726 119.586C409.446 119.994 409.998 120.558 410.382 121.278C410.778 121.986 410.976 122.79 410.976 123.69ZM409.284 123.348C409.284 122.724 409.146 122.19 408.87 121.746C408.594 121.29 408.216 120.948 407.736 120.72C407.268 120.48 406.746 120.36 406.17 120.36C405.342 120.36 404.634 120.624 404.046 121.152C403.47 121.68 403.14 122.412 403.056 123.348H409.284ZM219.172 150.136L213.232 164.644H211.54L213.484 159.892L209.506 150.136H211.324L214.42 158.128L217.48 150.136H219.172ZM225.52 160.162C224.596 160.162 223.756 159.952 223 159.532C222.256 159.112 221.668 158.518 221.236 157.75C220.816 156.97 220.606 156.07 220.606 155.05C220.606 154.042 220.822 153.154 221.254 152.386C221.698 151.606 222.298 151.012 223.054 150.604C223.81 150.184 224.656 149.974 225.592 149.974C226.528 149.974 227.374 150.184 228.13 150.604C228.886 151.012 229.48 151.6 229.912 152.368C230.356 153.136 230.578 154.03 230.578 155.05C230.578 156.07 230.35 156.97 229.894 157.75C229.45 158.518 228.844 159.112 228.076 159.532C227.308 159.952 226.456 160.162 225.52 160.162ZM225.52 158.722C226.108 158.722 226.66 158.584 227.176 158.308C227.692 158.032 228.106 157.618 228.418 157.066C228.742 156.514 228.904 155.842 228.904 155.05C228.904 154.258 228.748 153.586 228.436 153.034C228.124 152.482 227.716 152.074 227.212 151.81C226.708 151.534 226.162 151.396 225.574 151.396C224.974 151.396 224.422 151.534 223.918 151.81C223.426 152.074 223.03 152.482 222.73 153.034C222.43 153.586 222.28 154.258 222.28 155.05C222.28 155.854 222.424 156.532 222.712 157.084C223.012 157.636 223.408 158.05 223.9 158.326C224.392 158.59 224.932 158.722 225.52 158.722ZM241.88 150.136V160H240.242V158.542C239.93 159.046 239.492 159.442 238.928 159.73C238.376 160.006 237.764 160.144 237.092 160.144C236.324 160.144 235.634 159.988 235.022 159.676C234.41 159.352 233.924 158.872 233.564 158.236C233.216 157.6 233.042 156.826 233.042 155.914V150.136H234.662V155.698C234.662 156.67 234.908 157.42 235.4 157.948C235.892 158.464 236.564 158.722 237.416 158.722C238.292 158.722 238.982 158.452 239.486 157.912C239.99 157.372 240.242 156.586 240.242 155.554V150.136H241.88ZM246.684 151.738C246.972 151.174 247.38 150.736 247.908 150.424C248.448 150.112 249.102 149.956 249.87 149.956V151.648H249.438C247.602 151.648 246.684 152.644 246.684 154.636V160H245.046V150.136H246.684V151.738ZM261.661 160.162C260.737 160.162 259.897 159.952 259.141 159.532C258.397 159.112 257.809 158.518 257.377 157.75C256.957 156.97 256.747 156.07 256.747 155.05C256.747 154.042 256.963 153.154 257.395 152.386C257.839 151.606 258.439 151.012 259.195 150.604C259.951 150.184 260.797 149.974 261.733 149.974C262.669 149.974 263.515 150.184 264.271 150.604C265.027 151.012 265.621 151.6 266.053 152.368C266.497 153.136 266.719 154.03 266.719 155.05C266.719 156.07 266.491 156.97 266.035 157.75C265.591 158.518 264.985 159.112 264.217 159.532C263.449 159.952 262.597 160.162 261.661 160.162ZM261.661 158.722C262.249 158.722 262.801 158.584 263.317 158.308C263.833 158.032 264.247 157.618 264.559 157.066C264.883 156.514 265.045 155.842 265.045 155.05C265.045 154.258 264.889 153.586 264.577 153.034C264.265 152.482 263.857 152.074 263.353 151.81C262.849 151.534 262.303 151.396 261.715 151.396C261.115 151.396 260.563 151.534 260.059 151.81C259.567 152.074 259.171 152.482 258.871 153.034C258.571 153.586 258.421 154.258 258.421 155.05C258.421 155.854 258.565 156.532 258.853 157.084C259.153 157.636 259.549 158.05 260.041 158.326C260.533 158.59 261.073 158.722 261.661 158.722ZM270.911 151.738C271.199 151.174 271.607 150.736 272.135 150.424C272.675 150.112 273.329 149.956 274.097 149.956V151.648H273.665C271.829 151.648 270.911 152.644 270.911 154.636V160H269.273V150.136H270.911V151.738ZM275.776 155.032C275.776 154.024 275.98 153.142 276.388 152.386C276.796 151.618 277.354 151.024 278.062 150.604C278.782 150.184 279.586 149.974 280.474 149.974C281.242 149.974 281.956 150.154 282.616 150.514C283.276 150.862 283.78 151.324 284.128 151.9V146.68H285.784V160H284.128V158.146C283.804 158.734 283.324 159.22 282.688 159.604C282.052 159.976 281.308 160.162 280.456 160.162C279.58 160.162 278.782 159.946 278.062 159.514C277.354 159.082 276.796 158.476 276.388 157.696C275.98 156.916 275.776 156.028 275.776 155.032ZM284.128 155.05C284.128 154.306 283.978 153.658 283.678 153.106C283.378 152.554 282.97 152.134 282.454 151.846C281.95 151.546 281.392 151.396 280.78 151.396C280.168 151.396 279.61 151.54 279.106 151.828C278.602 152.116 278.2 152.536 277.9 153.088C277.6 153.64 277.45 154.288 277.45 155.032C277.45 155.788 277.6 156.448 277.9 157.012C278.2 157.564 278.602 157.99 279.106 158.29C279.61 158.578 280.168 158.722 280.78 158.722C281.392 158.722 281.95 158.578 282.454 158.29C282.97 157.99 283.378 157.564 283.678 157.012C283.978 156.448 284.128 155.794 284.128 155.05ZM297.952 154.69C297.952 155.002 297.934 155.332 297.898 155.68H290.014C290.074 156.652 290.404 157.414 291.004 157.966C291.616 158.506 292.354 158.776 293.218 158.776C293.926 158.776 294.514 158.614 294.982 158.29C295.462 157.954 295.798 157.51 295.99 156.958H297.754C297.49 157.906 296.962 158.68 296.17 159.28C295.378 159.868 294.394 160.162 293.218 160.162C292.282 160.162 291.442 159.952 290.698 159.532C289.966 159.112 289.39 158.518 288.97 157.75C288.55 156.97 288.34 156.07 288.34 155.05C288.34 154.03 288.544 153.136 288.952 152.368C289.36 151.6 289.93 151.012 290.662 150.604C291.406 150.184 292.258 149.974 293.218 149.974C294.154 149.974 294.982 150.178 295.702 150.586C296.422 150.994 296.974 151.558 297.358 152.278C297.754 152.986 297.952 153.79 297.952 154.69ZM296.26 154.348C296.26 153.724 296.122 153.19 295.846 152.746C295.57 152.29 295.192 151.948 294.712 151.72C294.244 151.48 293.722 151.36 293.146 151.36C292.318 151.36 291.61 151.624 291.022 152.152C290.446 152.68 290.116 153.412 290.032 154.348H296.26ZM302.152 151.738C302.44 151.174 302.848 150.736 303.376 150.424C303.916 150.112 304.57 149.956 305.338 149.956V151.648H304.906C303.07 151.648 302.152 152.644 302.152 154.636V160H300.514V150.136H302.152V151.738Z" fill="#666666"/>
<g filter="url(#filter0_d_2_17329)">
<rect x="46.0315" y="191.965" width="122.685" height="227.07" rx="11.0991" stroke="url(#paint0_linear_2_17329)" stroke-width="1.93027"/>
<rect x="46.625" y="192.558" width="121.499" height="225.884" rx="9.65136" fill="white"/>
<path d="M68.1891 228.927C67.4259 228.959 66.669 228.775 66.0023 228.398C65.4174 228.026 64.9799 227.458 64.7663 226.793C64.5001 225.988 64.3925 225.137 64.4494 224.29L66.8105 223.84C66.7769 224.35 66.8035 224.862 66.8897 225.365C66.9477 225.743 67.1066 226.098 67.3493 226.392C67.6003 226.637 67.9354 226.774 68.2842 226.774C68.6329 226.774 68.9681 226.637 69.2191 226.392C69.4306 226.097 69.5518 225.745 69.5677 225.381C69.6414 224.825 69.5298 224.261 69.2508 223.776C68.9498 223.311 68.5932 222.885 68.1891 222.509L66.446 220.904C65.9802 220.471 65.5986 219.954 65.3209 219.379C65.0333 218.725 64.9239 218.005 65.004 217.293C65.0192 216.778 65.1365 216.271 65.3488 215.802C65.5611 215.334 65.8641 214.913 66.24 214.565C67.045 213.895 68.0673 213.552 69.1082 213.603C69.6954 213.575 70.281 213.685 70.8196 213.923C71.2425 214.114 71.6007 214.427 71.8496 214.822C72.1001 215.22 72.2773 215.66 72.3725 216.122C72.4773 216.65 72.5199 217.188 72.4993 217.727L70.1699 218.128C70.212 217.712 70.212 217.292 70.1699 216.876C70.1413 216.559 70.0199 216.257 69.8213 216.01C69.7093 215.898 69.5751 215.811 69.4275 215.756C69.28 215.701 69.1225 215.678 68.9656 215.689C68.7876 215.68 68.6101 215.712 68.4457 215.781C68.2813 215.85 68.1341 215.956 68.0148 216.09C67.7739 216.366 67.6341 216.717 67.6186 217.085C67.5643 217.513 67.636 217.949 67.8246 218.336C68.0503 218.707 68.3279 219.042 68.6487 219.331L70.36 220.936C70.9328 221.455 71.4149 222.068 71.7862 222.749C72.1771 223.532 72.3367 224.412 72.2458 225.285C72.1952 225.957 71.983 226.607 71.6277 227.178C71.2813 227.73 70.8013 228.183 70.2333 228.494C69.5988 228.81 68.8957 228.959 68.1891 228.927Z" fill="black"/>
<path d="M78.0349 228.922C77.1444 228.982 76.258 228.757 75.5049 228.281C74.9145 227.851 74.4975 227.227 74.3285 226.519C74.1332 225.674 74.0734 224.803 74.1512 223.939L74.5702 218.604C74.626 217.693 74.8216 216.796 75.1504 215.944C75.4283 215.224 75.9383 214.616 76.6007 214.214C77.4004 213.767 78.3114 213.556 79.2274 213.605C80.0596 213.558 80.8892 213.735 81.6285 214.118C82.1843 214.462 82.592 214.998 82.7726 215.624C82.9735 216.365 83.039 217.135 82.966 217.899L82.8693 219.149H80.2265L80.3232 217.867C80.3545 217.483 80.3545 217.097 80.3232 216.713C80.321 216.416 80.2188 216.129 80.0331 215.896C79.9032 215.78 79.7497 215.692 79.5829 215.64C79.4161 215.587 79.2399 215.571 79.0663 215.592C78.6847 215.57 78.3078 215.684 78.0027 215.912C77.7677 216.153 77.6009 216.452 77.5192 216.778C77.4308 217.184 77.3716 217.596 77.342 218.011L76.8263 224.516C76.7754 224.958 76.7754 225.404 76.8263 225.846C76.8549 226.154 76.9987 226.44 77.2292 226.647C77.4975 226.833 77.8212 226.923 78.1477 226.903C78.3275 226.923 78.5094 226.904 78.6815 226.849C78.8537 226.794 79.0122 226.703 79.1468 226.583C79.3696 226.346 79.5205 226.052 79.5819 225.734C79.6635 225.337 79.7174 224.936 79.743 224.532L79.8559 223.186H82.4826V224.372C82.4257 225.181 82.2408 225.976 81.9347 226.727C81.6578 227.386 81.1856 227.945 80.581 228.329C79.805 228.76 78.9227 228.966 78.0349 228.922Z" fill="black"/>
<path d="M84.6084 228.931L88.3743 214.405H91.0206L92.6782 228.931H90.3954L90.09 225.584H87.7345L86.9348 228.931H84.6084ZM88.1126 223.887H89.9446L89.4648 217.799L88.1126 223.887Z" fill="black"/>
<path d="M94.293 228.931L95.4363 214.405H97.3259L100.28 222.688L100.931 214.405H103.17L102.01 228.931H100.216L97.2783 220.259L96.5955 228.931H94.293Z" fill="black"/>
<path d="M110.433 228.931L111.507 214.405H113.995L113.554 220.492H116.35L116.792 214.405H119.309L118.235 228.931H115.732L116.203 222.376H113.406L112.935 228.931H110.433Z" fill="black"/>
<path d="M120.923 228.931L121.925 214.405H127.379L127.253 216.273H124.179L123.886 220.446H126.307L126.182 222.299H123.761L123.427 227.11H126.53L126.405 228.931H120.923Z" fill="black"/>
<path d="M127.379 228.931L128.614 214.408H132.386C133.292 214.383 134.195 214.499 135.059 214.75C135.728 214.954 136.29 215.382 136.632 215.949C137.004 216.665 137.139 217.466 137.021 218.253C136.981 218.781 136.873 219.304 136.7 219.809C136.567 220.251 136.331 220.66 136.006 221.008C135.674 221.35 135.256 221.612 134.788 221.771L136.395 228.916H133.503L132.149 222.269H130.83L130.272 228.916L127.379 228.931ZM130.965 220.619H131.862C132.326 220.637 132.789 220.557 133.215 220.385C133.562 220.244 133.84 219.989 133.993 219.669C134.179 219.269 134.288 218.843 134.315 218.408C134.418 217.848 134.31 217.271 134.01 216.774C133.807 216.552 133.543 216.383 133.246 216.285C132.949 216.186 132.629 216.162 132.319 216.214H131.27L130.965 220.619Z" fill="black"/>
<path d="M137.869 228.931L139.012 214.405H145.132L144.991 216.273H141.532L141.203 220.446H143.927L143.786 222.299H141.062L140.687 227.11H144.193L144.036 228.931H137.869Z" fill="black"/>
<g clip-path="url(#clip0_2_17329)">
<path d="M89.5381 382.266H77.4736V394.331H89.5381V382.266Z" fill="white"/>
<path d="M79.4853 384.277H81.4961V382.266H79.4853V384.277Z" fill="#E34980"/>
<path d="M77.4746 384.277H79.4854V382.266H77.4746V384.277Z" fill="#FD4A78"/>
<path d="M87.5283 388.299H89.5391V386.288H87.5283V388.299Z" fill="#9C3F96"/>
<path d="M79.4853 394.332H81.4961V392.321H79.4853V394.332Z" fill="#69BAA2"/>
<path d="M77.4746 394.332H79.4854V392.321H77.4746V394.332Z" fill="#17D4D0"/>
<path d="M85.5166 388.299H87.5273V386.288H85.5166V388.299Z" fill="#8E3688"/>
<path d="M79.4853 390.311H81.4961V388.3H79.4853V390.311Z" fill="#22578B"/>
<path d="M77.4746 390.311H79.4854V388.3H77.4746V390.311Z" fill="#3071A1"/>
<path d="M77.4746 386.287H79.4854V384.276H77.4746V386.287Z" fill="#78368D"/>
<path d="M85.5166 384.277H87.5273V382.266H85.5166V384.277Z" fill="#87368C"/>
<path d="M85.5166 386.287H87.5273V384.276H85.5166V386.287Z" fill="#763589"/>
<path d="M81.4941 394.332H83.5049V392.321H81.4941V394.332Z" fill="#4BA493"/>
<path d="M81.4941 392.321H83.5049V390.31H81.4941V392.321Z" fill="#3780B1"/>
<path d="M77.4746 392.321H79.4854V390.31H77.4746V392.321Z" fill="#4CA48D"/>
<path d="M85.5166 390.311H87.5273V388.3H85.5166V390.311Z" fill="#AF275D"/>
<path d="M81.4941 384.277H83.5049V382.266H81.4941V384.277Z" fill="#BC357B"/>
<path d="M79.4853 392.321H81.4961V390.31H79.4853V392.321Z" fill="#266099"/>
<path d="M77.4746 388.299H79.4854V386.288H77.4746V388.299Z" fill="#224E9C"/>
<path d="M85.5166 394.332H87.5273V392.321H85.5166V394.332Z" fill="#EA8541"/>
<path d="M87.5283 390.311H89.5391V388.3H87.5283V390.311Z" fill="#E94059"/>
<path d="M87.5283 384.306H89.5391V382.267H87.5283V384.306Z" fill="#2F709E"/>
<path d="M81.4941 388.299H83.5049V386.288H81.4941V388.299Z" fill="#83236D"/>
<path d="M87.5283 394.332H89.5391V392.321H87.5283V394.332Z" fill="#F7DD30"/>
<path d="M85.5166 392.321H87.5273V390.31H85.5166V392.321Z" fill="#DB385E"/>
<path d="M87.5283 392.321H89.5391V390.31H87.5283V392.321Z" fill="#EF9938"/>
<path d="M83.5059 384.277H85.5166V382.266H83.5059V384.277Z" fill="#A9358A"/>
<path d="M81.4941 390.311H83.5049V388.3H81.4941V390.311Z" fill="#111E71"/>
<path d="M79.4853 388.299H81.4961V386.288H79.4853V388.299Z" fill="#2D338B"/>
<path d="M87.5283 386.316H89.5391V384.305H87.5283V386.316Z" fill="#6C64A8"/>
<path d="M83.5059 394.332H85.5166V392.321H83.5059V394.332Z" fill="#E65B3A"/>
<path d="M83.5059 392.321H85.5166V390.31H83.5059V392.321Z" fill="#68378B"/>
<path d="M83.5059 388.299H85.5166V386.288H83.5059V388.299Z" fill="#400B4D"/>
<path d="M83.5059 390.311H85.5166V388.3H83.5059V390.311Z" fill="#58114C"/>
<path d="M79.4853 386.287H81.4961V384.276H79.4853V386.287Z" fill="#8D3687"/>
<path d="M83.5059 386.287H85.5166V384.276H83.5059V386.287Z" fill="#931F36"/>
<path d="M81.4941 386.287H83.5049V384.276H81.4941V386.287Z" fill="#AF2655"/>
<path d="M84.764 388.7C84.8397 388.756 84.8774 388.749 84.9562 388.76C85.3155 388.765 85.6544 388.76 86.0132 388.76C86.4534 388.76 86.8927 388.757 87.3381 388.76C87.3813 388.758 87.4361 388.76 87.4871 388.76C87.4844 388.781 87.4804 388.802 87.4749 388.823C87.3869 389.176 87.3054 389.53 87.1633 389.867C86.8787 390.54 86.4506 391.1 85.8589 391.53C85.2794 391.951 84.6323 392.203 83.9192 392.282C83.0695 392.377 82.2716 392.208 81.5325 391.783C80.9223 391.432 80.4353 390.949 80.0805 390.34C79.7326 389.742 79.5412 389.097 79.5281 388.404C79.5147 387.688 79.6712 387.011 80.0117 386.379C80.4354 385.592 81.0581 385.017 81.8663 384.645C82.5013 384.352 83.1704 384.246 83.867 384.31C84.5735 384.376 85.216 384.617 85.7943 385.023C86.2422 385.337 86.6184 385.742 86.8978 386.212L86.9726 386.337L86.0651 386.844C86.0467 386.819 86.0302 386.8 86.0175 386.779C85.6968 386.243 85.2555 385.842 84.6847 385.588C84.1948 385.369 83.6817 385.292 83.1489 385.359C82.4842 385.443 81.911 385.72 81.4398 386.195C80.7531 386.889 80.4804 387.729 80.5986 388.693C80.6772 389.334 80.9471 389.893 81.3989 390.355C81.8835 390.851 82.473 391.149 83.1638 391.231C84.0636 391.337 84.842 391.063 85.5058 390.456C85.6866 390.29 85.8432 390.1 85.9708 389.891C85.9822 389.872 86.038 389.784 86.0523 389.755C86.0222 389.755 85.9518 389.755 85.9294 389.755C85.615 389.755 85.2677 389.754 84.9563 389.755C84.8919 389.755 84.7924 389.875 84.7594 389.912C84.6878 389.985 84.583 390.001 84.4841 390.003C84.224 390.003 83.9419 390.002 83.6791 389.999C83.5887 389.999 83.5857 389.997 83.4894 389.993C83.4098 389.989 83.3163 389.95 83.2674 389.889C83.1799 389.794 83.138 389.616 83.1092 389.484C83.1068 389.478 83.1005 389.454 83.0955 389.435H83.3149C83.6204 389.435 83.9009 389.435 84.1996 389.434C84.6159 389.426 85.03 389.438 85.4463 389.435C85.6734 389.433 85.9051 389.433 86.1321 389.432C86.1913 389.432 86.2293 389.416 86.2528 389.355C86.2717 389.288 86.2862 389.224 86.308 389.157C86.315 389.136 86.316 389.113 86.3216 389.08C86.285 389.077 86.2567 389.079 86.2262 389.078C85.8012 389.078 85.3753 389.078 84.9549 389.078C84.8738 389.085 84.8407 389.091 84.7758 389.145C84.7175 389.186 84.6874 389.217 84.6446 389.243C84.6044 389.268 84.5441 389.269 84.4866 389.269C84.0643 389.266 83.5976 389.273 83.1743 389.271C83.1599 389.271 83.1341 389.271 83.1199 389.271C83.102 389.264 83.0965 389.255 83.0963 389.241C83.0977 389.232 83.1015 389.223 83.1071 389.216C83.1128 389.208 83.1203 389.202 83.1288 389.199C83.159 389.197 83.1922 389.196 83.2242 389.197C83.4672 389.198 83.7079 389.193 83.9491 389.195C83.9777 389.195 84.0172 389.195 84.0511 389.195C84.0393 389.152 84.0393 389.106 84.0511 389.063C84.0275 389.063 84.0021 389.063 83.9775 389.063C83.7183 389.059 83.459 389.066 83.1999 389.063C83.1798 389.063 83.158 389.063 83.1376 389.063C83.1101 389.063 83.0965 389.047 83.0965 389.019C83.0965 388.991 83.1012 388.989 83.1301 388.988C83.1438 388.987 83.1575 388.987 83.1712 388.987C83.4232 388.992 83.6692 388.984 83.9206 388.988C83.9608 388.988 84.0079 388.988 84.0513 388.988C84.0395 388.945 84.0395 388.899 84.0513 388.856C84.0212 388.854 83.9916 388.856 83.9635 388.856C83.7247 388.853 83.4836 388.858 83.2448 388.856C83.2186 388.856 83.193 388.856 83.1668 388.856C83.1317 388.856 83.0964 388.859 83.0964 388.815C83.0971 388.775 83.1277 388.781 83.1584 388.781C83.1874 388.781 83.2352 388.781 83.2642 388.781C83.5042 388.785 83.7267 388.777 83.9665 388.781C83.9921 388.781 84.0216 388.781 84.051 388.781C84.0376 388.73 84.0382 388.704 84.051 388.649C84.0055 388.649 83.8059 388.649 83.7602 388.649C83.5245 388.647 83.4384 388.651 83.2028 388.648C83.1806 388.649 83.1583 388.649 83.1361 388.648C83.1206 388.641 83.0969 388.629 83.0964 388.612C83.0955 388.581 83.1129 388.577 83.1398 388.573C83.154 388.571 83.2467 388.573 83.2612 388.573C83.6884 388.575 84.0544 388.567 84.4824 388.573C84.5473 388.579 84.6054 388.577 84.6494 388.608L84.764 388.7Z" fill="white"/>
</g>
<path d="M97.2893 394.551C97.1221 394.551 96.9926 394.505 96.9006 394.413C96.817 394.313 96.7752 394.175 96.7752 394V389.887L97.0009 390.602L93.8537 386.263C93.7784 386.155 93.7408 386.046 93.7408 385.937C93.7492 385.82 93.7952 385.724 93.8787 385.649C93.9623 385.574 94.071 385.536 94.2048 385.536C94.3218 385.536 94.4263 385.565 94.5182 385.624C94.6102 385.674 94.6938 385.757 94.769 385.874L97.4398 389.561H97.1765L99.8473 385.874C99.9392 385.749 100.027 385.661 100.111 385.611C100.194 385.561 100.294 385.536 100.412 385.536C100.545 385.536 100.65 385.574 100.725 385.649C100.8 385.716 100.838 385.808 100.838 385.925C100.846 386.033 100.809 386.15 100.725 386.276L97.5903 390.602L97.8034 389.887V394C97.8034 394.367 97.6321 394.551 97.2893 394.551ZM102.938 394.576C102.521 394.576 102.144 394.497 101.81 394.338C101.484 394.171 101.225 393.945 101.033 393.661C100.84 393.377 100.744 393.059 100.744 392.708C100.744 392.257 100.857 391.902 101.083 391.642C101.317 391.383 101.697 391.199 102.224 391.091C102.759 390.982 103.486 390.928 104.406 390.928H104.97V391.592H104.418C103.741 391.592 103.206 391.626 102.813 391.693C102.429 391.751 102.157 391.856 101.998 392.006C101.848 392.156 101.772 392.37 101.772 392.645C101.772 392.988 101.889 393.268 102.123 393.486C102.366 393.703 102.692 393.812 103.102 393.812C103.436 393.812 103.728 393.732 103.979 393.573C104.238 393.415 104.439 393.197 104.581 392.921C104.732 392.645 104.807 392.328 104.807 391.968V390.539C104.807 390.021 104.702 389.649 104.493 389.423C104.284 389.189 103.942 389.072 103.465 389.072C103.173 389.072 102.88 389.11 102.587 389.185C102.295 389.26 101.986 389.381 101.66 389.548C101.542 389.607 101.442 389.628 101.359 389.611C101.275 389.586 101.208 389.54 101.158 389.473C101.108 389.406 101.079 389.331 101.07 389.247C101.062 389.155 101.079 389.068 101.12 388.984C101.171 388.901 101.246 388.834 101.346 388.783C101.714 388.6 102.077 388.466 102.437 388.382C102.796 388.299 103.139 388.257 103.465 388.257C103.992 388.257 104.426 388.345 104.769 388.52C105.112 388.687 105.367 388.947 105.534 389.298C105.701 389.64 105.785 390.083 105.785 390.627V394.025C105.785 394.192 105.743 394.322 105.659 394.413C105.584 394.505 105.471 394.551 105.321 394.551C105.162 394.551 105.041 394.505 104.957 394.413C104.874 394.322 104.832 394.192 104.832 394.025V393.047H104.945C104.878 393.364 104.748 393.636 104.556 393.862C104.372 394.087 104.142 394.263 103.866 394.388C103.591 394.514 103.281 394.576 102.938 394.576ZM109.525 394.576C108.923 394.576 108.463 394.393 108.146 394.025C107.828 393.657 107.669 393.13 107.669 392.445V386.05C107.669 385.883 107.711 385.757 107.794 385.674C107.878 385.582 108.003 385.536 108.171 385.536C108.329 385.536 108.455 385.582 108.547 385.674C108.639 385.757 108.685 385.883 108.685 386.05V392.37C108.685 392.821 108.773 393.16 108.948 393.385C109.132 393.603 109.399 393.711 109.751 393.711C109.826 393.711 109.893 393.707 109.951 393.699C110.01 393.69 110.068 393.686 110.127 393.686C110.219 393.678 110.281 393.699 110.315 393.749C110.357 393.799 110.377 393.899 110.377 394.05C110.377 394.2 110.344 394.313 110.277 394.388C110.21 394.464 110.102 394.514 109.951 394.539C109.884 394.547 109.813 394.556 109.738 394.564C109.663 394.572 109.592 394.576 109.525 394.576ZM113.235 394.576C112.633 394.576 112.173 394.393 111.856 394.025C111.538 393.657 111.379 393.13 111.379 392.445V386.05C111.379 385.883 111.421 385.757 111.505 385.674C111.588 385.582 111.714 385.536 111.881 385.536C112.04 385.536 112.165 385.582 112.257 385.674C112.349 385.757 112.395 385.883 112.395 386.05V392.37C112.395 392.821 112.483 393.16 112.658 393.385C112.842 393.603 113.11 393.711 113.461 393.711C113.536 393.711 113.603 393.707 113.661 393.699C113.72 393.69 113.778 393.686 113.837 393.686C113.929 393.678 113.992 393.699 114.025 393.749C114.067 393.799 114.088 393.899 114.088 394.05C114.088 394.2 114.054 394.313 113.987 394.388C113.921 394.464 113.812 394.514 113.661 394.539C113.595 394.547 113.523 394.556 113.448 394.564C113.373 394.572 113.302 394.576 113.235 394.576ZM117.008 394.576C116.59 394.576 116.214 394.497 115.88 394.338C115.554 394.171 115.294 393.945 115.102 393.661C114.91 393.377 114.814 393.059 114.814 392.708C114.814 392.257 114.927 391.902 115.152 391.642C115.386 391.383 115.767 391.199 116.293 391.091C116.828 390.982 117.556 390.928 118.475 390.928H119.039V391.592H118.488C117.811 391.592 117.276 391.626 116.883 391.693C116.498 391.751 116.226 391.856 116.068 392.006C115.917 392.156 115.842 392.37 115.842 392.645C115.842 392.988 115.959 393.268 116.193 393.486C116.435 393.703 116.761 393.812 117.171 393.812C117.505 393.812 117.798 393.732 118.049 393.573C118.308 393.415 118.509 393.197 118.651 392.921C118.801 392.645 118.876 392.328 118.876 391.968V390.539C118.876 390.021 118.772 389.649 118.563 389.423C118.354 389.189 118.011 389.072 117.535 389.072C117.242 389.072 116.95 389.11 116.657 389.185C116.364 389.26 116.055 389.381 115.729 389.548C115.612 389.607 115.512 389.628 115.428 389.611C115.345 389.586 115.278 389.54 115.228 389.473C115.177 389.406 115.148 389.331 115.14 389.247C115.131 389.155 115.148 389.068 115.19 388.984C115.24 388.901 115.315 388.834 115.416 388.783C115.783 388.6 116.147 388.466 116.506 388.382C116.866 388.299 117.209 388.257 117.535 388.257C118.061 388.257 118.496 388.345 118.839 388.52C119.181 388.687 119.436 388.947 119.604 389.298C119.771 389.64 119.854 390.083 119.854 390.627V394.025C119.854 394.192 119.813 394.322 119.729 394.413C119.654 394.505 119.541 394.551 119.39 394.551C119.232 394.551 119.11 394.505 119.027 394.413C118.943 394.322 118.901 394.192 118.901 394.025V393.047H119.014C118.947 393.364 118.818 393.636 118.626 393.862C118.442 394.087 118.212 394.263 117.936 394.388C117.66 394.514 117.351 394.576 117.008 394.576ZM125.914 394.576C124.969 394.576 124.171 394.397 123.519 394.037C122.875 393.678 122.386 393.16 122.052 392.482C121.718 391.805 121.551 390.995 121.551 390.05C121.551 389.348 121.642 388.717 121.826 388.157C122.019 387.596 122.295 387.124 122.654 386.74C123.022 386.347 123.465 386.046 123.983 385.837C124.51 385.62 125.103 385.511 125.764 385.511C126.29 385.511 126.8 385.586 127.293 385.737C127.787 385.879 128.225 386.109 128.61 386.426C128.71 386.501 128.773 386.585 128.798 386.677C128.823 386.769 128.819 386.861 128.785 386.953C128.76 387.045 128.714 387.124 128.648 387.191C128.589 387.25 128.51 387.283 128.409 387.291C128.317 387.3 128.221 387.27 128.121 387.204C127.778 386.936 127.415 386.744 127.03 386.627C126.646 386.501 126.219 386.439 125.751 386.439C125.082 386.439 124.514 386.581 124.046 386.865C123.586 387.149 123.235 387.559 122.993 388.094C122.758 388.629 122.641 389.281 122.641 390.05C122.641 391.22 122.913 392.115 123.456 392.733C124.008 393.352 124.836 393.661 125.939 393.661C126.34 393.661 126.733 393.624 127.118 393.548C127.502 393.465 127.866 393.352 128.209 393.21L127.983 393.799V390.677H126.19C126.039 390.677 125.927 390.639 125.851 390.564C125.776 390.489 125.739 390.388 125.739 390.263C125.739 390.129 125.776 390.029 125.851 389.962C125.927 389.895 126.039 389.862 126.19 389.862H128.434C128.577 389.862 128.685 389.899 128.76 389.975C128.836 390.05 128.873 390.159 128.873 390.301V393.573C128.873 393.699 128.852 393.803 128.811 393.887C128.769 393.97 128.698 394.033 128.597 394.075C128.246 394.217 127.824 394.338 127.331 394.439C126.846 394.53 126.374 394.576 125.914 394.576ZM131.351 394.551C131.184 394.551 131.054 394.505 130.962 394.413C130.878 394.322 130.837 394.192 130.837 394.025V388.796C130.837 388.629 130.878 388.503 130.962 388.42C131.046 388.328 131.167 388.282 131.326 388.282C131.485 388.282 131.606 388.328 131.689 388.42C131.781 388.503 131.827 388.629 131.827 388.796V389.812H131.702C131.836 389.318 132.091 388.938 132.467 388.671C132.843 388.403 133.307 388.261 133.859 388.244C133.984 388.236 134.084 388.265 134.159 388.332C134.235 388.391 134.277 388.495 134.285 388.646C134.293 388.788 134.26 388.901 134.185 388.984C134.109 389.068 133.992 389.118 133.833 389.135L133.633 389.16C133.064 389.21 132.626 389.394 132.316 389.711C132.015 390.021 131.865 390.447 131.865 390.99V394.025C131.865 394.192 131.819 394.322 131.727 394.413C131.643 394.505 131.518 394.551 131.351 394.551ZM137.487 394.576C136.994 394.576 136.584 394.489 136.258 394.313C135.941 394.129 135.698 393.858 135.531 393.498C135.372 393.139 135.293 392.691 135.293 392.156V388.796C135.293 388.62 135.335 388.491 135.418 388.407C135.51 388.324 135.636 388.282 135.795 388.282C135.962 388.282 136.087 388.324 136.171 388.407C136.263 388.491 136.309 388.62 136.309 388.796V392.144C136.309 392.679 136.417 393.08 136.635 393.348C136.86 393.607 137.211 393.736 137.688 393.736C138.206 393.736 138.628 393.561 138.954 393.21C139.28 392.859 139.443 392.399 139.443 391.83V388.796C139.443 388.62 139.485 388.491 139.569 388.407C139.661 388.324 139.79 388.282 139.957 388.282C140.116 388.282 140.237 388.324 140.321 388.407C140.413 388.491 140.459 388.62 140.459 388.796V394.025C140.459 394.376 140.296 394.551 139.97 394.551C139.811 394.551 139.686 394.505 139.594 394.413C139.51 394.322 139.468 394.192 139.468 394.025V392.884L139.631 393.059C139.464 393.552 139.188 393.929 138.804 394.188C138.428 394.447 137.989 394.576 137.487 394.576ZM145.444 394.576C144.892 394.576 144.416 394.434 144.014 394.15C143.621 393.866 143.358 393.486 143.224 393.009L143.362 392.871V394.025C143.362 394.192 143.316 394.322 143.224 394.413C143.141 394.505 143.02 394.551 142.861 394.551C142.694 394.551 142.568 394.505 142.485 394.413C142.401 394.322 142.359 394.192 142.359 394.025V386.05C142.359 385.883 142.401 385.757 142.485 385.674C142.568 385.582 142.694 385.536 142.861 385.536C143.02 385.536 143.145 385.582 143.237 385.674C143.329 385.757 143.375 385.883 143.375 386.05V389.787H143.224C143.367 389.318 143.634 388.947 144.027 388.671C144.42 388.395 144.892 388.257 145.444 388.257C145.996 388.257 146.472 388.386 146.873 388.646C147.274 388.896 147.584 389.26 147.801 389.736C148.027 390.205 148.14 390.765 148.14 391.417C148.14 392.06 148.027 392.62 147.801 393.097C147.584 393.565 147.27 393.929 146.861 394.188C146.459 394.447 145.987 394.576 145.444 394.576ZM145.231 393.761C145.615 393.761 145.945 393.669 146.221 393.486C146.505 393.302 146.723 393.034 146.873 392.683C147.032 392.332 147.111 391.91 147.111 391.417C147.111 390.656 146.94 390.075 146.597 389.674C146.263 389.273 145.807 389.072 145.231 389.072C144.854 389.072 144.524 389.164 144.24 389.348C143.956 389.523 143.734 389.787 143.576 390.138C143.425 390.48 143.35 390.907 143.35 391.417C143.35 392.169 143.521 392.75 143.864 393.16C144.207 393.561 144.662 393.761 145.231 393.761Z" fill="#3A3A3A"/>
<path d="M66.0664 264V294.182H73.6119V301.728H81.1573V294.182H96.2482V264H66.0664ZM96.2482 294.182V301.728H103.794V309.273H88.7028V316.818H66.0664V347H96.2482V316.818H118.885V309.273H111.339V301.728H126.43V294.182H133.975V301.728H141.521V294.182H149.066V264H118.885V294.182H96.2482ZM141.521 301.728V309.273H149.066V301.728H141.521ZM141.521 309.273H133.975V316.818H141.521V309.273ZM141.521 316.818V324.364H149.066V316.818H141.521ZM141.521 324.364H133.975V316.818H126.43V324.364H107.566V347H115.112V331.909H130.203V339.455H137.748V331.909H141.521V324.364ZM130.203 339.455H122.657V347H130.203V339.455ZM133.975 309.273V301.728H126.43V309.273H133.975ZM88.7028 309.273V301.728H81.1573V309.273H88.7028ZM73.6119 301.728H66.0664V309.273H73.6119V301.728ZM103.794 264V279.091H100.021V286.637H103.794V290.409H111.339V279.091H115.112V271.546H111.339V264H103.794ZM73.6119 271.546H88.7028V286.637H73.6119V271.546ZM126.43 271.546H141.521V286.637H126.43V271.546ZM77.3846 275.318V282.864H84.93V275.318H77.3846ZM130.203 275.318V282.864H137.748V275.318H130.203ZM73.6119 324.364H88.7028V339.455H73.6119V324.364ZM77.3846 328.137V335.682H84.93V328.137H77.3846ZM141.521 339.455V347H149.066V339.455H141.521Z" fill="#4B5C6B"/>
</g>
<defs>
<filter id="filter0_d_2_17329" x="33.0664" y="186" width="148.615" height="253" filterUnits="userSpaceOnUse" color-interpolation-filters="sRGB">
<feFlood flood-opacity="0" result="BackgroundImageFix"/>
<feColorMatrix in="SourceAlpha" type="matrix" values="0 0 0 0 0 0 0 0 0 0 0 0 0 0 0 0 0 0 127 0" result="hardAlpha"/>
<feOffset dy="7"/>
<feGaussianBlur stdDeviation="6"/>
<feComposite in2="hardAlpha" operator="out"/>
<feColorMatrix type="matrix" values="0 0 0 0 0.227451 0 0 0 0 0.227451 0 0 0 0 0.227451 0 0 0 0.19 0"/>
<feBlend mode="normal" in2="BackgroundImageFix" result="effect1_dropShadow_2_17329"/>
<feBlend mode="normal" in="SourceGraphic" in2="effect1_dropShadow_2_17329" result="shape"/>
</filter>
<linearGradient id="paint0_linear_2_17329" x1="107.374" y1="191" x2="107.374" y2="420" gradientUnits="userSpaceOnUse">
<stop stop-color="#FE4A78"/>
<stop offset="0.270833" stop-color="#F8DE30"/>
<stop offset="0.734375" stop-color="#17D5D1"/>
<stop offset="1" stop-color="#408583"/>
</linearGradient>
<clipPath id="clip0_2_17329">
<rect width="12.0645" height="12.0656" fill="white" transform="translate(77.4678 382.267)"/>
</clipPath>
</defs>
</svg>
