<svg width="65" height="66" viewBox="0 0 65 66" fill="none" xmlns="http://www.w3.org/2000/svg">
<path d="M31.1597 27.6715C31.1597 10.5527 26.1104 -0.972063 13.2346 2.29499C-0.271183 5.71318 -2.75085 33.6 21.689 63.0002C35.8512 57.2529 48.9673 50.1153 56.0781 41.0409C63.1889 31.9675 64.055 21.1995 57.8706 14.4843C52.5227 8.768 40.4823 9.82593 31.1597 27.6715Z" fill="#00CE7C"/>
<path d="M29.0908 27.672C29.0908 21.169 28.7922 13.3958 24.9382 7.86066C23.4472 5.85278 21.2907 4.45683 18.8648 3.92914C16.4388 3.40144 13.9062 3.77743 11.7321 4.98805C1.90238 10.0687 4.86061 26.1596 7.48956 34.5684C10.9471 44.473 16.2068 53.6344 22.9964 61.5784L21.0536 61.065C30.2094 57.6352 38.8636 52.9647 46.7798 47.1811C53.8313 41.736 61.1506 33.2382 59.9256 23.6193C59.1781 17.8419 54.9663 12.579 48.8402 13.5469C41.2816 14.7571 36.1433 22.4391 32.8272 28.671C31.6022 30.9691 28.1368 28.9422 29.3608 26.6441C34.1412 17.5696 45.9434 3.59569 57.2967 11.52C59.9493 13.6219 61.9563 16.4447 63.0831 19.6584C64.2099 22.8722 64.41 26.3443 63.6599 29.6689C62.167 38.1077 56.2209 45.0341 49.737 50.1458C41.2788 56.4692 31.986 61.5599 22.1304 65.2688C21.789 65.3739 21.4252 65.3785 21.0813 65.2821C20.7375 65.1857 20.4279 64.9922 20.1886 64.7243C9.22384 51.386 -1.65194 32.8148 1.57522 14.6659C1.89397 12.0404 2.78925 9.52045 4.19539 7.29085C5.60152 5.06126 7.48285 3.17862 9.70135 1.78102C12.3111 0.360779 15.2827 -0.231391 18.2295 0.0815532C21.1763 0.394498 23.9618 1.59807 26.2236 3.53567C32.4979 9.58422 33.0951 19.8988 33.0951 27.9743C33.0826 28.2457 33.0166 28.5118 32.9008 28.7569C32.785 29.002 32.6218 29.2211 32.421 29.4012C32.2201 29.5814 31.9856 29.7189 31.7313 29.8057C31.477 29.8926 31.2081 29.9269 30.9404 29.9067C30.6728 29.8865 30.4119 29.8121 30.1732 29.6881C29.9344 29.564 29.7226 29.3928 29.5504 29.1844C29.3782 28.9761 29.2489 28.7349 29.1703 28.4751C29.0917 28.2153 29.0654 27.9423 29.0929 27.672H29.0908Z" fill="#83236D"/>
</svg>
