<svg width="116" height="133" viewBox="0 0 116 133" fill="none" xmlns="http://www.w3.org/2000/svg">
<g clip-path="url(#clip0_2_11427)">
<path d="M57.4061 130.196L57.4071 130.196C62.8178 130.196 67.2041 125.816 67.2041 120.413L67.2041 10.8808C67.2041 5.47755 62.8178 1.09737 57.4071 1.09737L57.4061 1.09737C51.9954 1.09737 47.6091 5.47755 47.6091 10.8808L47.6091 120.413C47.6091 125.816 51.9954 130.196 57.4061 130.196Z" fill="#007DC4"/>
<path fill-rule="evenodd" clip-rule="evenodd" d="M59.797 130.055C56.553 131.579 52.605 131.097 49.73 128.484L5.126 87.9348C1.191 84.3578 0.755996 78.1424 4.155 74.0541C7.554 69.9638 13.499 69.5494 17.435 73.1264L57.132 109.214L97.757 72.2696C101.692 68.6916 107.636 69.107 111.034 73.1963C114.432 77.2866 113.997 83.502 110.063 87.08L65.466 127.638C63.818 129.137 61.816 129.934 59.797 130.055Z" fill="#007DC4"/>
</g>
<defs>
<clipPath id="clip0_2_11427">
<rect width="132.816" height="115" fill="white" transform="translate(115.002) rotate(90)"/>
</clipPath>
</defs>
</svg>
