<svg width="51" height="88" viewBox="0 0 51 88" fill="none" xmlns="http://www.w3.org/2000/svg">
<path d="M50.0972 81.9376C50.5322 81.5973 50.609 80.9688 50.2688 80.5338L44.7239 73.4448C44.3836 73.0098 43.7551 72.933 43.3201 73.2732C42.8851 73.6135 42.8083 74.242 43.1485 74.677L48.0773 80.9783L41.7759 85.9071C41.3409 86.2474 41.2641 86.8759 41.6044 87.3109C41.9446 87.7459 42.5731 87.8227 43.0081 87.4824L50.0972 81.9376ZM49.6024 80.1573C33.6467 78.2072 1.18846 59.6853 2.27181 0.235108L0.272137 0.198682C-0.827585 60.5471 32.2664 80.0534 49.3598 82.1425L49.6024 80.1573Z" fill="black"/>
</svg>
