<svg width="90" height="90" viewBox="0 0 90 90" fill="none" xmlns="http://www.w3.org/2000/svg">
<g clip-path="url(#clip0_2_17201)">
<path d="M90.002 -0.00268555H0.00195312V89.9974H90.002V-0.00268555Z" fill="white"/>
<path d="M15.002 14.9984L30.0029 14.9984L30.0029 -0.00183296L15.002 -0.00183296L15.002 14.9984Z" fill="#E34980"/>
<path d="M9.05991e-05 14.9984L15.001 14.9984L15.001 -0.00183296L9.05991e-05 -0.00183296L9.05991e-05 14.9984Z" fill="#FD4A78"/>
<path d="M75.0011 44.9973H90.002V29.9971H75.0011V44.9973Z" fill="#9C3F96"/>
<path d="M15.002 89.9973H30.0029L30.0029 74.9971H15.002L15.002 89.9973Z" fill="#69BAA2"/>
<path d="M9.05991e-05 89.9973H15.001L15.001 74.9971H9.05991e-05L9.05991e-05 89.9973Z" fill="#17D4D0"/>
<path d="M60.002 44.9973H75.0029V29.9971H60.002V44.9973Z" fill="#8E3688"/>
<path d="M15.002 59.9966H30.0029L30.0029 44.9963H15.002L15.002 59.9966Z" fill="#22578B"/>
<path d="M9.05991e-05 59.9966H15.001L15.001 44.9963H9.05991e-05L9.05991e-05 59.9966Z" fill="#3071A1"/>
<path d="M9.05991e-05 29.9969L15.001 29.9969L15.001 14.9967L9.05991e-05 14.9967L9.05991e-05 29.9969Z" fill="#78368D"/>
<path d="M60.002 14.9984L75.0029 14.9984V-0.00183296L60.002 -0.00183296V14.9984Z" fill="#87368C"/>
<path d="M60.002 29.9969L75.0029 29.9969V14.9967L60.002 14.9967V29.9969Z" fill="#763589"/>
<path d="M30.0011 89.9973H45.002V74.9971H30.0011V89.9973Z" fill="#4BA493"/>
<path d="M30.0011 74.9969H45.002V59.9967H30.0011V74.9969Z" fill="#3780B1"/>
<path d="M9.05991e-05 74.9969H15.001L15.001 59.9967H9.05991e-05L9.05991e-05 74.9969Z" fill="#4CA48D"/>
<path d="M60.002 59.9972H75.0029V44.9969H60.002V59.9972Z" fill="#AF275D"/>
<path d="M30.0011 14.9984L45.002 14.9984V-0.00183296L30.0011 -0.00183296V14.9984Z" fill="#BC357B"/>
<path d="M15.002 74.9969H30.0029L30.0029 59.9967H15.002L15.002 74.9969Z" fill="#266099"/>
<path d="M9.05991e-05 44.9973H15.001L15.001 29.9971H9.05991e-05L9.05991e-05 44.9973Z" fill="#224E9C"/>
<path d="M60.002 89.9973H75.0029V74.9971H60.002V89.9973Z" fill="#EA8541"/>
<path d="M75.0011 59.9972H90.002V44.9969H75.0011V59.9972Z" fill="#E94059"/>
<path d="M75.0011 15.2068L90.002 15.2068V-0.00271797L75.0011 -0.00271797V15.2068Z" fill="#2F709E"/>
<path d="M30.0011 44.9973H45.002V29.9971H30.0011V44.9973Z" fill="#83236D"/>
<path d="M75.0011 89.9973H90.002V74.9971H75.0011V89.9973Z" fill="#F7DD30"/>
<path d="M60.002 74.9969H75.0029V59.9967H60.002V74.9969Z" fill="#DB385E"/>
<path d="M75.0011 74.9969H90.002V59.9967H75.0011V74.9969Z" fill="#EF9938"/>
<path d="M45.0001 14.9984L60.001 14.9984V-0.00183296L45.0001 -0.00183296V14.9984Z" fill="#A9358A"/>
<path d="M30.0011 59.9966H45.002V44.9963H30.0011V59.9966Z" fill="#111E71"/>
<path d="M15.002 44.9973H30.0029L30.0029 29.9971H15.002L15.002 44.9973Z" fill="#2D338B"/>
<path d="M75.0011 30.2085L90.002 30.2085V15.2082L75.0011 15.2082V30.2085Z" fill="#6C64A8"/>
<path d="M45.0001 89.9973H60.001V74.9971H45.0001V89.9973Z" fill="#E65B3A"/>
<path d="M45.0001 74.9969H60.001V59.9967H45.0001V74.9969Z" fill="#68378B"/>
<path d="M45.0001 44.9987H60.001V29.9984H45.0001V44.9987Z" fill="#400B4D"/>
<path d="M45.0001 59.9972H60.001V44.9969H45.0001V59.9972Z" fill="#58114C"/>
<path d="M15.002 29.9969L30.0029 29.9969L30.0029 14.9967L15.002 14.9967L15.002 29.9969Z" fill="#8D3687"/>
<path d="M45.0001 29.9969L60.001 29.9969V14.9967L45.0001 14.9967V29.9969Z" fill="#931F36"/>
<path d="M30.0011 29.9969L45.002 29.9969V14.9967L30.0011 14.9967V29.9969Z" fill="#AF2655"/>
<path d="M53.8159 47.4436C54.377 47.8558 54.6565 47.8055 55.24 47.8825C57.9034 47.9232 60.4155 47.8825 63.0752 47.8825C66.3377 47.8825 69.5943 47.861 72.8956 47.8825C73.216 47.8714 73.6222 47.8825 74 47.8825C73.9803 48.0392 73.9501 48.1945 73.9098 48.3472C73.257 50.945 72.6534 53.5568 71.5997 56.0369C69.4907 60.9867 66.3169 65.1113 61.9313 68.2738C57.6359 71.3711 52.8397 73.2325 47.5539 73.8127C41.2553 74.5084 35.3413 73.2651 29.8625 70.1374C25.3398 67.5552 21.73 64.0012 19.1001 59.5139C16.5217 55.1155 15.1028 50.3655 15.0059 45.2625C14.9061 39.9937 16.0664 35.0158 18.5904 30.359C21.7307 24.567 26.3466 20.3365 32.3374 17.5952C37.0441 15.4422 42.0035 14.6585 47.1671 15.1344C52.4037 15.6176 57.1656 17.3894 61.4528 20.3795C64.7728 22.687 67.561 25.6692 69.6323 29.1282L70.1867 30.0482L63.4597 33.7842C63.3233 33.5992 63.2011 33.4586 63.1072 33.3024C60.73 29.3614 57.4585 26.4047 53.2279 24.5344C49.5965 22.9291 45.7937 22.3563 41.844 22.8507C36.9174 23.4679 32.6682 25.5091 29.1754 29.0083C24.0856 34.1113 22.0646 40.2957 22.9402 47.391C23.523 52.1129 25.5239 56.2227 28.8729 59.6279C32.4648 63.2803 36.834 65.4703 41.9543 66.0727C48.624 66.8572 54.3934 64.8382 59.3141 60.3673C60.6546 59.1502 61.8149 57.7508 62.7607 56.2108C62.8456 56.0724 63.2592 55.4219 63.3651 55.2095C63.1415 55.2095 62.6198 55.2095 62.4537 55.2095C60.1234 55.2095 57.5494 55.2043 55.2407 55.2095C54.7638 55.2095 54.026 56.091 53.7816 56.3626C53.251 56.9028 52.4738 57.0242 51.7412 57.039C49.8134 57.039 47.7223 57.0309 45.7743 57.0079C45.1036 57.0028 45.082 56.9909 44.3681 56.9628C43.7779 56.9339 43.0848 56.6423 42.7226 56.1953C42.0736 55.4937 41.7636 54.1874 41.5497 53.2179C41.5318 53.1712 41.4856 52.9921 41.4483 52.853H43.0744C45.3391 52.853 47.4182 52.853 49.6323 52.8463C52.7182 52.7901 55.787 52.8789 58.8729 52.853C60.5564 52.8389 62.2741 52.8419 63.9568 52.8352C64.3949 52.8352 64.6766 52.7131 64.851 52.2661C64.9911 51.7717 65.0984 51.298 65.2601 50.8096C65.3123 50.6541 65.3198 50.4832 65.3607 50.2426C65.0895 50.2197 64.8801 50.233 64.6535 50.2286C61.5035 50.2286 58.3468 50.2286 55.2303 50.2286C54.6297 50.2797 54.3845 50.3196 53.9031 50.7171C53.4709 51.0227 53.248 51.2529 52.9306 51.4438C52.6325 51.6252 52.1854 51.6318 51.7591 51.6348C48.6292 51.6104 45.1699 51.6599 42.0326 51.6474C41.9253 51.6474 41.7345 51.6474 41.6294 51.6474C41.4968 51.5948 41.4558 51.5304 41.4543 51.4253C41.4649 51.3577 41.4925 51.2938 41.5346 51.2396C41.5766 51.1854 41.6318 51.1426 41.695 51.1152C41.9186 51.1004 42.1652 51.0989 42.4022 51.1004C44.2034 51.1138 45.9874 51.0708 47.7752 51.0871C47.9876 51.0871 48.2804 51.0871 48.5316 51.0871C48.444 50.7683 48.444 50.432 48.5316 50.1131C48.3565 50.1131 48.1679 50.1131 47.9861 50.1131C46.0649 50.0872 44.1423 50.1368 42.2219 50.1131C42.0728 50.1131 41.9119 50.1131 41.7606 50.1131C41.5564 50.1131 41.4558 49.9962 41.4558 49.7927C41.4558 49.5891 41.4908 49.5706 41.7047 49.561C41.806 49.5551 41.9081 49.5544 42.0095 49.5566C43.877 49.5958 45.7005 49.5336 47.5643 49.5618C47.8624 49.5662 48.2111 49.5618 48.5331 49.5618C48.4458 49.2444 48.4458 48.9096 48.5331 48.5922C48.3095 48.5789 48.0904 48.5922 47.8818 48.5922C46.1119 48.5737 44.3249 48.6085 42.555 48.5922C42.3605 48.5922 42.1712 48.5922 41.9767 48.5922C41.7166 48.5922 41.455 48.6152 41.455 48.2895C41.4603 47.9935 41.6868 48.0416 41.9141 48.0386C42.1295 48.0386 42.4834 48.0386 42.6988 48.0386C44.4776 48.0667 46.1268 48.012 47.9041 48.0386C48.0941 48.0386 48.3125 48.0386 48.5308 48.0386C48.431 47.6686 48.4355 47.4739 48.5308 47.0676C48.1933 47.0676 46.714 47.072 46.3749 47.0676C44.6282 47.0543 43.9903 47.0802 42.2435 47.0624C42.0789 47.0713 41.914 47.0713 41.7494 47.0624C41.6346 47.0128 41.4588 46.9196 41.455 46.7975C41.4483 46.5658 41.5773 46.5421 41.7762 46.5103C41.882 46.494 42.5691 46.5103 42.6764 46.5103C45.8429 46.5221 48.5562 46.4659 51.7285 46.5103C52.2092 46.551 52.6399 46.5369 52.9663 46.7708L53.8159 47.4436Z" fill="white"/>
</g>
<defs>
<clipPath id="clip0_2_17201">
<rect width="90" height="90" fill="white"/>
</clipPath>
</defs>
</svg>
