<svg width="157" height="36" viewBox="0 0 157 36" fill="none" xmlns="http://www.w3.org/2000/svg">
<g clip-path="url(#clip0_2_6344)">
<path d="M36.5 -0.000976562H0.5V35.999H36.5V-0.000976562Z" fill="white"/>
<path d="M6.50043 5.99902L12.5004 5.99902V-0.00107431L6.50043 -0.00107431L6.50043 5.99902Z" fill="#E34980"/>
<path d="M0.500487 5.99902L6.50049 5.99902L6.50049 -0.00107431L0.500487 -0.00107431L0.500487 5.99902Z" fill="#FD4A78"/>
<path d="M30.5001 17.999H36.5001V11.9989H30.5001V17.999Z" fill="#9C3F96"/>
<path d="M6.50043 35.999H12.5004V29.9989H6.50043L6.50043 35.999Z" fill="#69BAA2"/>
<path d="M0.500487 35.999H6.50049L6.50049 29.9989H0.500487L0.500487 35.999Z" fill="#17D4D0"/>
<path d="M24.4996 17.999H30.4996V11.9989H24.4996V17.999Z" fill="#8E3688"/>
<path d="M6.50043 23.9985H12.5004V17.9984H6.50043L6.50043 23.9985Z" fill="#22578B"/>
<path d="M0.500487 23.9985H6.50049L6.50049 17.9984H0.500487L0.500487 23.9985Z" fill="#3071A1"/>
<path d="M0.500487 11.999H6.50049L6.50049 5.99892L0.500487 5.99892L0.500487 11.999Z" fill="#78368D"/>
<path d="M24.4996 5.99902L30.4996 5.99902V-0.00107431L24.4996 -0.00107431V5.99902Z" fill="#87368C"/>
<path d="M24.4996 11.999H30.4996V5.99892L24.4996 5.99892V11.999Z" fill="#763589"/>
<path d="M12.5003 35.999H18.5003V29.9989H12.5003V35.999Z" fill="#4BA493"/>
<path d="M12.5003 29.9985H18.5003V23.9984H12.5003V29.9985Z" fill="#3780B1"/>
<path d="M0.500487 29.9985H6.50049L6.50049 23.9984H0.500487L0.500487 29.9985Z" fill="#4CA48D"/>
<path d="M24.4996 23.999H30.4996V17.9989H24.4996V23.999Z" fill="#AF275D"/>
<path d="M12.5003 5.99902L18.5003 5.99902V-0.00107431L12.5003 -0.00107431V5.99902Z" fill="#BC357B"/>
<path d="M6.50043 29.9985H12.5004V23.9984H6.50043L6.50043 29.9985Z" fill="#266099"/>
<path d="M0.500487 17.999H6.50049L6.50049 11.9989H0.500487L0.500487 17.999Z" fill="#224E9C"/>
<path d="M24.4996 35.999H30.4996V29.9989H24.4996V35.999Z" fill="#EA8541"/>
<path d="M30.5001 23.999H36.5001V17.9989H30.5001V23.999Z" fill="#E94059"/>
<path d="M30.5001 6.08301L36.5001 6.08301V-0.000794411L30.5001 -0.000794411V6.08301Z" fill="#2F709E"/>
<path d="M12.5003 17.999H18.5003V11.9989H12.5003V17.999Z" fill="#83236D"/>
<path d="M30.5001 35.999H36.5001V29.9989H30.5001V35.999Z" fill="#F7DD30"/>
<path d="M24.4996 29.9985H30.4996V23.9984H24.4996V29.9985Z" fill="#DB385E"/>
<path d="M30.5001 29.9985H36.5001V23.9984H30.5001V29.9985Z" fill="#EF9938"/>
<path d="M18.4997 5.99902L24.4997 5.99902V-0.00107431L18.4997 -0.00107431V5.99902Z" fill="#A9358A"/>
<path d="M12.5003 23.9985H18.5003V17.9984H12.5003V23.9985Z" fill="#111E71"/>
<path d="M6.50043 17.999H12.5004V11.9989H6.50043L6.50043 17.999Z" fill="#2D338B"/>
<path d="M30.5001 12.0835H36.5001V6.0834L30.5001 6.0834V12.0835Z" fill="#6C64A8"/>
<path d="M18.4997 35.999H24.4997V29.9989H18.4997V35.999Z" fill="#E65B3A"/>
<path d="M18.4997 29.9985H24.4997V23.9984H18.4997V29.9985Z" fill="#68378B"/>
<path d="M18.4997 17.9995H24.4997V11.9994H18.4997V17.9995Z" fill="#400B4D"/>
<path d="M18.4997 23.999H24.4997V17.9989H18.4997V23.999Z" fill="#58114C"/>
<path d="M6.50043 11.999H12.5004V5.99892L6.50043 5.99892L6.50043 11.999Z" fill="#8D3687"/>
<path d="M18.4997 11.999H24.4997V5.99892L18.4997 5.99892V11.999Z" fill="#931F36"/>
<path d="M12.5003 11.999H18.5003V5.99892L12.5003 5.99892V11.999Z" fill="#AF2655"/>
<path d="M22.2501 19.1945C22.476 19.3616 22.5885 19.3412 22.8234 19.3724C23.8956 19.3889 24.9069 19.3724 25.9776 19.3724C27.291 19.3724 28.602 19.3637 29.931 19.3724C30.06 19.3679 30.2235 19.3724 30.3756 19.3724C30.3677 19.436 30.3555 19.4989 30.3393 19.5608C30.0765 20.6139 29.8335 21.6726 29.4093 22.6779C28.5603 24.6843 27.2826 26.3562 25.5171 27.6382C23.7879 28.8937 21.8571 29.6482 19.7292 29.8834C17.1936 30.1654 14.8128 29.6614 12.6072 28.3936C10.7865 27.3469 9.33331 25.9062 8.27461 24.0873C7.23661 22.3044 6.66541 20.379 6.62641 18.3104C6.58621 16.1747 7.05331 14.1568 8.06941 12.2692C9.33361 9.92138 11.1918 8.20655 13.6035 7.09534C15.4983 6.22262 17.4948 5.90492 19.5735 6.09782C21.6816 6.29372 23.5986 7.01193 25.3245 8.22395C26.661 9.15934 27.7834 10.3682 28.6173 11.7703L28.8405 12.1432L26.1324 13.6576C26.0775 13.5826 26.0283 13.5256 25.9905 13.4623C25.0335 11.8648 23.7165 10.6663 22.0134 9.90818C20.5515 9.25747 19.0206 9.02527 17.4306 9.22567C15.4473 9.47587 13.7367 10.3033 12.3306 11.7217C10.2816 13.7902 9.46801 16.2971 9.82051 19.1732C10.0551 21.0873 10.8606 22.7532 12.2088 24.1335C13.6548 25.614 15.4137 26.5018 17.475 26.746C20.16 27.064 22.4826 26.2455 24.4635 24.4332C25.0031 23.9399 25.4703 23.3726 25.851 22.7484C25.8852 22.6923 26.0517 22.4286 26.0943 22.3425C26.0043 22.3425 25.7943 22.3425 25.7274 22.3425C24.7893 22.3425 23.7531 22.3404 22.8237 22.3425C22.6317 22.3425 22.3347 22.6998 22.2363 22.8099C22.0227 23.0289 21.7098 23.0781 21.4149 23.0841C20.6388 23.0841 19.797 23.0808 19.0128 23.0715C18.7428 23.0694 18.7341 23.0646 18.4467 23.0532C18.2091 23.0415 17.9301 22.9233 17.7843 22.7421C17.523 22.4577 17.3982 21.9282 17.3121 21.5352C17.3049 21.5163 17.2863 21.4437 17.2713 21.3873H17.9259C18.8376 21.3873 19.6746 21.3873 20.5659 21.3846C21.8082 21.3618 23.0436 21.3978 24.2859 21.3873C24.9636 21.3816 25.6551 21.3828 26.3325 21.3801C26.5089 21.3801 26.6223 21.3306 26.6925 21.1494C26.7489 20.949 26.7921 20.757 26.8572 20.559C26.8782 20.496 26.8812 20.4267 26.8977 20.3292C26.7885 20.3198 26.7042 20.3253 26.613 20.3235C25.3449 20.3235 24.0741 20.3235 22.8195 20.3235C22.5777 20.3442 22.479 20.3604 22.2852 20.5215C22.1112 20.6454 22.0215 20.7387 21.8937 20.8161C21.7737 20.8896 21.5937 20.8923 21.4221 20.8935C20.1621 20.8836 18.7695 20.9037 17.5065 20.8986C17.4633 20.8986 17.3865 20.8986 17.3442 20.8986C17.2908 20.8773 17.2743 20.8512 17.2737 20.8086C17.278 20.7811 17.2891 20.7552 17.306 20.7333C17.323 20.7113 17.3452 20.6939 17.3706 20.6829C17.4606 20.6769 17.5599 20.6763 17.6553 20.6769C18.3804 20.6823 19.0986 20.6649 19.8183 20.6715C19.9038 20.6715 20.0217 20.6715 20.1228 20.6715C20.0875 20.5422 20.0875 20.4059 20.1228 20.2767C20.0523 20.2767 19.9764 20.2767 19.9032 20.2767C19.1298 20.2662 18.3558 20.2863 17.5827 20.2767C17.5227 20.2767 17.4579 20.2767 17.397 20.2767C17.3148 20.2767 17.2743 20.2292 17.2743 20.1467C17.2743 20.0642 17.2884 20.0567 17.3745 20.0528C17.4153 20.0504 17.4564 20.0501 17.4972 20.051C18.249 20.0669 18.9831 20.0417 19.7334 20.0531C19.8534 20.0549 19.9938 20.0531 20.1234 20.0531C20.0883 19.9245 20.0883 19.7888 20.1234 19.6601C20.0334 19.6547 19.9452 19.6601 19.8612 19.6601C19.1487 19.6526 18.4293 19.6667 17.7168 19.6601C17.6385 19.6601 17.5623 19.6601 17.484 19.6601C17.3793 19.6601 17.274 19.6694 17.274 19.5374C17.2761 19.4174 17.3673 19.4369 17.4588 19.4357C17.5455 19.4357 17.688 19.4357 17.7747 19.4357C18.4908 19.4471 19.1547 19.4249 19.8702 19.4357C19.9467 19.4357 20.0346 19.4357 20.1225 19.4357C20.0823 19.2857 20.0841 19.2068 20.1225 19.0421C19.9866 19.0421 19.3911 19.0439 19.2546 19.0421C18.5514 19.0367 18.2946 19.0472 17.5914 19.04C17.5252 19.0436 17.4588 19.0436 17.3925 19.04C17.3463 19.0199 17.2755 18.9821 17.274 18.9326C17.2713 18.8387 17.3232 18.8291 17.4033 18.8162C17.4459 18.8096 17.7225 18.8162 17.7657 18.8162C19.0404 18.821 20.1327 18.7982 21.4098 18.8162C21.6033 18.8327 21.7767 18.827 21.9081 18.9218L22.2501 19.1945Z" fill="white"/>
</g>
<path d="M53.95 26.175C53.6167 26.175 53.3583 26.0833 53.175 25.9C53.0083 25.7 52.925 25.425 52.925 25.075V16.875L53.375 18.3L47.1 9.65C46.95 9.43333 46.875 9.21667 46.875 9C46.8917 8.76667 46.9833 8.575 47.15 8.425C47.3167 8.275 47.5333 8.2 47.8 8.2C48.0333 8.2 48.2417 8.25833 48.425 8.375C48.6083 8.475 48.775 8.64167 48.925 8.875L54.25 16.225H53.725L59.05 8.875C59.2333 8.625 59.4083 8.45 59.575 8.35C59.7417 8.25 59.9417 8.2 60.175 8.2C60.4417 8.2 60.65 8.275 60.8 8.425C60.95 8.55833 61.025 8.74167 61.025 8.975C61.0417 9.19167 60.9667 9.425 60.8 9.675L54.55 18.3L54.975 16.875V25.075C54.975 25.8083 54.6333 26.175 53.95 26.175ZM65.2133 26.225C64.3799 26.225 63.6299 26.0667 62.9633 25.75C62.3133 25.4167 61.7966 24.9667 61.4133 24.4C61.0299 23.8333 60.8383 23.2 60.8383 22.5C60.8383 21.6 61.0633 20.8917 61.5133 20.375C61.9799 19.8583 62.7383 19.4917 63.7883 19.275C64.8549 19.0583 66.3049 18.95 68.1383 18.95H69.2633V20.275H68.1633C66.8133 20.275 65.7466 20.3417 64.9633 20.475C64.1966 20.5917 63.6549 20.8 63.3383 21.1C63.0383 21.4 62.8883 21.825 62.8883 22.375C62.8883 23.0583 63.1216 23.6167 63.5883 24.05C64.0716 24.4833 64.7216 24.7 65.5383 24.7C66.2049 24.7 66.7883 24.5417 67.2883 24.225C67.8049 23.9083 68.2049 23.475 68.4883 22.925C68.7883 22.375 68.9383 21.7417 68.9383 21.025V18.175C68.9383 17.1417 68.7299 16.4 68.3133 15.95C67.8966 15.4833 67.2133 15.25 66.2633 15.25C65.6799 15.25 65.0966 15.325 64.5133 15.475C63.9299 15.625 63.3133 15.8667 62.6633 16.2C62.4299 16.3167 62.2299 16.3583 62.0633 16.325C61.8966 16.275 61.7633 16.1833 61.6633 16.05C61.5633 15.9167 61.5049 15.7667 61.4883 15.6C61.4716 15.4167 61.5049 15.2417 61.5883 15.075C61.6883 14.9083 61.8383 14.775 62.0383 14.675C62.7716 14.3083 63.4966 14.0417 64.2133 13.875C64.9299 13.7083 65.6133 13.625 66.2633 13.625C67.3133 13.625 68.1799 13.8 68.8633 14.15C69.5466 14.4833 70.0549 15 70.3883 15.7C70.7216 16.3833 70.8883 17.2667 70.8883 18.35V25.125C70.8883 25.4583 70.8049 25.7167 70.6383 25.9C70.4883 26.0833 70.2633 26.175 69.9633 26.175C69.6466 26.175 69.4049 26.0833 69.2383 25.9C69.0716 25.7167 68.9883 25.4583 68.9883 25.125V23.175H69.2133C69.0799 23.8083 68.8216 24.35 68.4383 24.8C68.0716 25.25 67.6133 25.6 67.0633 25.85C66.5133 26.1 65.8966 26.225 65.2133 26.225ZM78.3451 26.225C77.1451 26.225 76.2285 25.8583 75.5951 25.125C74.9618 24.3917 74.6451 23.3417 74.6451 21.975V9.225C74.6451 8.89167 74.7285 8.64167 74.8951 8.475C75.0618 8.29167 75.3118 8.2 75.6451 8.2C75.9618 8.2 76.2118 8.29167 76.3951 8.475C76.5785 8.64167 76.6701 8.89167 76.6701 9.225V21.825C76.6701 22.725 76.8451 23.4 77.1951 23.85C77.5618 24.2833 78.0951 24.5 78.7951 24.5C78.9451 24.5 79.0785 24.4917 79.1951 24.475C79.3118 24.4583 79.4285 24.45 79.5451 24.45C79.7285 24.4333 79.8535 24.475 79.9201 24.575C80.0035 24.675 80.0451 24.875 80.0451 25.175C80.0451 25.475 79.9785 25.7 79.8451 25.85C79.7118 26 79.4951 26.1 79.1951 26.15C79.0618 26.1667 78.9201 26.1833 78.7701 26.2C78.6201 26.2167 78.4785 26.225 78.3451 26.225ZM85.7426 26.225C84.5426 26.225 83.6259 25.8583 82.9926 25.125C82.3592 24.3917 82.0426 23.3417 82.0426 21.975V9.225C82.0426 8.89167 82.1259 8.64167 82.2926 8.475C82.4592 8.29167 82.7092 8.2 83.0426 8.2C83.3592 8.2 83.6092 8.29167 83.7926 8.475C83.9759 8.64167 84.0676 8.89167 84.0676 9.225V21.825C84.0676 22.725 84.2426 23.4 84.5926 23.85C84.9592 24.2833 85.4926 24.5 86.1926 24.5C86.3426 24.5 86.4759 24.4917 86.5926 24.475C86.7092 24.4583 86.8259 24.45 86.9426 24.45C87.1259 24.4333 87.2509 24.475 87.3176 24.575C87.4009 24.675 87.4426 24.875 87.4426 25.175C87.4426 25.475 87.3759 25.7 87.2426 25.85C87.1092 26 86.8926 26.1 86.5926 26.15C86.4592 26.1667 86.3176 26.1833 86.1676 26.2C86.0176 26.2167 85.8759 26.225 85.7426 26.225ZM93.265 26.225C92.4317 26.225 91.6817 26.0667 91.015 25.75C90.365 25.4167 89.8484 24.9667 89.465 24.4C89.0817 23.8333 88.89 23.2 88.89 22.5C88.89 21.6 89.115 20.8917 89.565 20.375C90.0317 19.8583 90.79 19.4917 91.84 19.275C92.9067 19.0583 94.3567 18.95 96.19 18.95H97.315V20.275H96.215C94.865 20.275 93.7984 20.3417 93.015 20.475C92.2484 20.5917 91.7067 20.8 91.39 21.1C91.09 21.4 90.94 21.825 90.94 22.375C90.94 23.0583 91.1734 23.6167 91.64 24.05C92.1234 24.4833 92.7734 24.7 93.59 24.7C94.2567 24.7 94.84 24.5417 95.34 24.225C95.8567 23.9083 96.2567 23.475 96.54 22.925C96.84 22.375 96.99 21.7417 96.99 21.025V18.175C96.99 17.1417 96.7817 16.4 96.365 15.95C95.9484 15.4833 95.265 15.25 94.315 15.25C93.7317 15.25 93.1484 15.325 92.565 15.475C91.9817 15.625 91.365 15.8667 90.715 16.2C90.4817 16.3167 90.2817 16.3583 90.115 16.325C89.9484 16.275 89.815 16.1833 89.715 16.05C89.615 15.9167 89.5567 15.7667 89.54 15.6C89.5234 15.4167 89.5567 15.2417 89.64 15.075C89.74 14.9083 89.89 14.775 90.09 14.675C90.8234 14.3083 91.5484 14.0417 92.265 13.875C92.9817 13.7083 93.665 13.625 94.315 13.625C95.365 13.625 96.2317 13.8 96.915 14.15C97.5984 14.4833 98.1067 15 98.44 15.7C98.7734 16.3833 98.94 17.2667 98.94 18.35V25.125C98.94 25.4583 98.8567 25.7167 98.69 25.9C98.54 26.0833 98.315 26.175 98.015 26.175C97.6984 26.175 97.4567 26.0833 97.29 25.9C97.1234 25.7167 97.04 25.4583 97.04 25.125V23.175H97.265C97.1317 23.8083 96.8734 24.35 96.49 24.8C96.1234 25.25 95.665 25.6 95.115 25.85C94.565 26.1 93.9484 26.225 93.265 26.225ZM111.022 26.225C109.139 26.225 107.547 25.8667 106.247 25.15C104.964 24.4333 103.989 23.4 103.322 22.05C102.655 20.7 102.322 19.0833 102.322 17.2C102.322 15.8 102.505 14.5417 102.872 13.425C103.255 12.3083 103.805 11.3667 104.522 10.6C105.255 9.81667 106.139 9.21667 107.172 8.8C108.222 8.36667 109.405 8.15 110.722 8.15C111.772 8.15 112.789 8.3 113.772 8.6C114.755 8.88333 115.63 9.34167 116.397 9.975C116.597 10.125 116.722 10.2917 116.772 10.475C116.822 10.6583 116.814 10.8417 116.747 11.025C116.697 11.2083 116.605 11.3667 116.472 11.5C116.355 11.6167 116.197 11.6833 115.997 11.7C115.814 11.7167 115.622 11.6583 115.422 11.525C114.739 10.9917 114.014 10.6083 113.247 10.375C112.48 10.125 111.63 10 110.697 10C109.364 10 108.23 10.2833 107.297 10.85C106.38 11.4167 105.68 12.2333 105.197 13.3C104.73 14.3667 104.497 15.6667 104.497 17.2C104.497 19.5333 105.039 21.3167 106.122 22.55C107.222 23.7833 108.872 24.4 111.072 24.4C111.872 24.4 112.655 24.325 113.422 24.175C114.189 24.0083 114.914 23.7833 115.597 23.5L115.147 24.675V18.45H111.572C111.272 18.45 111.047 18.375 110.897 18.225C110.747 18.075 110.672 17.875 110.672 17.625C110.672 17.3583 110.747 17.1583 110.897 17.025C111.047 16.8917 111.272 16.825 111.572 16.825H116.047C116.33 16.825 116.547 16.9 116.697 17.05C116.847 17.2 116.922 17.4167 116.922 17.7V24.225C116.922 24.475 116.88 24.6833 116.797 24.85C116.714 25.0167 116.572 25.1417 116.372 25.225C115.672 25.5083 114.83 25.75 113.847 25.95C112.88 26.1333 111.939 26.225 111.022 26.225ZM121.862 26.175C121.528 26.175 121.27 26.0833 121.087 25.9C120.92 25.7167 120.837 25.4583 120.837 25.125V14.7C120.837 14.3667 120.92 14.1167 121.087 13.95C121.253 13.7667 121.495 13.675 121.812 13.675C122.128 13.675 122.37 13.7667 122.537 13.95C122.72 14.1167 122.812 14.3667 122.812 14.7V16.725H122.562C122.828 15.7417 123.337 14.9833 124.087 14.45C124.837 13.9167 125.762 13.6333 126.862 13.6C127.112 13.5833 127.312 13.6417 127.462 13.775C127.612 13.8917 127.695 14.1 127.712 14.4C127.728 14.6833 127.662 14.9083 127.512 15.075C127.362 15.2417 127.128 15.3417 126.812 15.375L126.412 15.425C125.278 15.525 124.403 15.8917 123.787 16.525C123.187 17.1417 122.887 17.9917 122.887 19.075V25.125C122.887 25.4583 122.795 25.7167 122.612 25.9C122.445 26.0833 122.195 26.175 121.862 26.175ZM134.096 26.225C133.113 26.225 132.296 26.05 131.646 25.7C131.013 25.3333 130.53 24.7917 130.196 24.075C129.88 23.3583 129.721 22.4667 129.721 21.4V14.7C129.721 14.35 129.805 14.0917 129.971 13.925C130.155 13.7583 130.405 13.675 130.721 13.675C131.055 13.675 131.305 13.7583 131.471 13.925C131.655 14.0917 131.746 14.35 131.746 14.7V21.375C131.746 22.4417 131.963 23.2417 132.396 23.775C132.846 24.2917 133.546 24.55 134.496 24.55C135.53 24.55 136.371 24.2 137.021 23.5C137.671 22.8 137.996 21.8833 137.996 20.75V14.7C137.996 14.35 138.08 14.0917 138.246 13.925C138.43 13.7583 138.688 13.675 139.021 13.675C139.338 13.675 139.58 13.7583 139.746 13.925C139.93 14.0917 140.021 14.35 140.021 14.7V25.125C140.021 25.825 139.696 26.175 139.046 26.175C138.73 26.175 138.48 26.0833 138.296 25.9C138.13 25.7167 138.046 25.4583 138.046 25.125V22.85L138.371 23.2C138.038 24.1833 137.488 24.9333 136.721 25.45C135.971 25.9667 135.096 26.225 134.096 26.225ZM149.96 26.225C148.86 26.225 147.91 25.9417 147.11 25.375C146.327 24.8083 145.802 24.05 145.535 23.1L145.81 22.825V25.125C145.81 25.4583 145.718 25.7167 145.535 25.9C145.368 26.0833 145.127 26.175 144.81 26.175C144.477 26.175 144.227 26.0833 144.06 25.9C143.893 25.7167 143.81 25.4583 143.81 25.125V9.225C143.81 8.89167 143.893 8.64167 144.06 8.475C144.227 8.29167 144.477 8.2 144.81 8.2C145.127 8.2 145.377 8.29167 145.56 8.475C145.743 8.64167 145.835 8.89167 145.835 9.225V16.675H145.535C145.818 15.7417 146.352 15 147.135 14.45C147.918 13.9 148.86 13.625 149.96 13.625C151.06 13.625 152.01 13.8833 152.81 14.4C153.61 14.9 154.227 15.625 154.66 16.575C155.11 17.5083 155.335 18.625 155.335 19.925C155.335 21.2083 155.11 22.325 154.66 23.275C154.227 24.2083 153.602 24.9333 152.785 25.45C151.985 25.9667 151.043 26.225 149.96 26.225ZM149.535 24.6C150.302 24.6 150.96 24.4167 151.51 24.05C152.077 23.6833 152.51 23.15 152.81 22.45C153.127 21.75 153.285 20.9083 153.285 19.925C153.285 18.4083 152.943 17.25 152.26 16.45C151.593 15.65 150.685 15.25 149.535 15.25C148.785 15.25 148.127 15.4333 147.56 15.8C146.993 16.15 146.552 16.675 146.235 17.375C145.935 18.0583 145.785 18.9083 145.785 19.925C145.785 21.425 146.127 22.5833 146.81 23.4C147.493 24.2 148.402 24.6 149.535 24.6Z" fill="#3A3A3A"/>
<defs>
<clipPath id="clip0_2_6344">
<rect width="36" height="36" fill="white" transform="translate(0.5)"/>
</clipPath>
</defs>
</svg>
