<svg width="400" height="103" viewBox="0 0 400 103" fill="none" xmlns="http://www.w3.org/2000/svg">
<path d="M18.877 86.792H48.317V101H0.957001V11.656H18.877V86.792ZM91.195 102.152C84.3683 102.152 78.2243 100.659 72.763 97.672C67.3017 94.6 62.9923 90.2907 59.835 84.744C56.763 79.1973 55.227 72.7973 55.227 65.544C55.227 58.2907 56.8057 51.8907 59.963 46.344C63.2057 40.7973 67.6003 36.5307 73.147 33.544C78.6937 30.472 84.8803 28.936 91.707 28.936C98.5337 28.936 104.72 30.472 110.267 33.544C115.814 36.5307 120.166 40.7973 123.323 46.344C126.566 51.8907 128.187 58.2907 128.187 65.544C128.187 72.7973 126.523 79.1973 123.195 84.744C119.952 90.2907 115.515 94.6 109.883 97.672C104.336 100.659 98.107 102.152 91.195 102.152ZM91.195 86.536C94.4377 86.536 97.467 85.768 100.283 84.232C103.184 82.6107 105.488 80.2213 107.195 77.064C108.902 73.9067 109.755 70.0667 109.755 65.544C109.755 58.8027 107.963 53.64 104.379 50.056C100.88 46.3867 96.571 44.552 91.451 44.552C86.331 44.552 82.0217 46.3867 78.523 50.056C75.1097 53.64 73.403 58.8027 73.403 65.544C73.403 72.2853 75.067 77.4907 78.395 81.16C81.8083 84.744 86.075 86.536 91.195 86.536ZM170.9 84.488L188.82 30.088H207.892L181.652 101H159.892L133.78 30.088H152.98L170.9 84.488ZM283.877 64.008C283.877 66.568 283.706 68.872 283.365 70.92H231.525C231.952 76.04 233.744 80.0507 236.901 82.952C240.058 85.8533 243.941 87.304 248.549 87.304C255.205 87.304 259.941 84.4453 262.757 78.728H282.085C280.037 85.5547 276.112 91.1867 270.309 95.624C264.506 99.976 257.381 102.152 248.933 102.152C242.106 102.152 235.962 100.659 230.501 97.672C225.125 94.6 220.901 90.2907 217.829 84.744C214.842 79.1973 213.349 72.7973 213.349 65.544C213.349 58.2053 214.842 51.7627 217.829 46.216C220.816 40.6693 224.997 36.4027 230.373 33.416C235.749 30.4293 241.936 28.936 248.933 28.936C255.674 28.936 261.69 30.3867 266.981 33.288C272.357 36.1893 276.496 40.328 279.397 45.704C282.384 50.9947 283.877 57.096 283.877 64.008ZM265.317 58.888C265.232 54.28 263.568 50.6107 260.325 47.88C257.082 45.064 253.114 43.656 248.421 43.656C243.984 43.656 240.229 45.0213 237.157 47.752C234.17 50.3973 232.336 54.1093 231.653 58.888H265.317ZM336.545 21.64C333.388 21.64 330.742 20.6587 328.609 18.696C326.561 16.648 325.537 14.1307 325.537 11.144C325.537 8.15733 326.561 5.68266 328.609 3.71999C330.742 1.67199 333.388 0.647995 336.545 0.647995C339.702 0.647995 342.305 1.67199 344.353 3.71999C346.486 5.68266 347.553 8.15733 347.553 11.144C347.553 14.1307 346.486 16.648 344.353 18.696C342.305 20.6587 339.702 21.64 336.545 21.64ZM345.377 30.088V101H327.457V30.088H345.377ZM383.946 44.808V79.112C383.946 81.5013 384.501 83.2507 385.61 84.36C386.805 85.384 388.767 85.896 391.498 85.896H399.818V101H388.554C373.45 101 365.898 93.6613 365.898 78.984V44.808H357.45V30.088H365.898V12.552H383.946V30.088H399.818V44.808H383.946Z" fill="#005D59"/>
</svg>
