<svg width="173" height="173" viewBox="0 0 173 173" fill="none" xmlns="http://www.w3.org/2000/svg">
<g clip-path="url(#clip0_2_4788)">
<path d="M158.207 161.309C158.207 161.361 125.946 161.399 86.1556 161.399C46.3656 161.399 14.0977 161.361 14.0977 161.309C14.0977 161.257 46.3622 161.236 86.1522 161.236C125.942 161.236 158.207 161.261 158.207 161.309Z" fill="#263238"/>
<path d="M139.007 159.265L93.0132 159.234C87.4772 159.234 83 154.514 83 148.701L83.0242 27.5253C83.0242 21.7091 87.5222 16.9965 93.0582 17L139.042 17.0277C144.578 17.0277 149.055 21.7471 149.055 27.5599L149.031 148.733C149.031 154.556 144.543 159.268 139.007 159.265Z" fill="#263238"/>
<path d="M138.994 21.3181H130.077C128.88 21.3181 127.911 22.3838 127.911 23.6951V25.3975C127.911 26.7088 126.939 27.7745 125.745 27.7745H108.362C107.168 27.7745 106.196 26.7053 106.2 25.394V23.6744C106.2 22.363 105.227 21.2974 104.034 21.2974H93.1071C89.2284 21.2974 86.0867 24.5947 86.0867 28.6672L86.0625 146.944C86.0625 151.016 89.2007 154.317 93.0759 154.321L138.976 154.348C142.851 154.348 145.997 151.051 145.997 146.975L146.021 28.6983C146.007 24.6397 142.869 21.3181 138.994 21.3181Z" fill="white"/>
<path d="M95.7671 144.985V148.445C95.7672 148.514 95.749 148.581 95.7143 148.639C95.6796 148.698 95.6298 148.747 95.57 148.779C95.5103 148.812 95.4427 148.829 95.3745 148.826C95.3064 148.824 95.24 148.804 95.1824 148.767L92.4525 147.037C92.3982 147.003 92.3535 146.955 92.3226 146.898C92.2916 146.842 92.2754 146.778 92.2754 146.714C92.2754 146.649 92.2916 146.586 92.3226 146.529C92.3535 146.473 92.3982 146.425 92.4525 146.39L95.1824 144.66C95.2402 144.623 95.3069 144.603 95.3754 144.601C95.4439 144.599 95.5117 144.616 95.5716 144.649C95.6315 144.682 95.6812 144.731 95.7157 144.79C95.7501 144.849 95.7679 144.917 95.7671 144.985Z" fill="#E0E0E0"/>
<path d="M118.188 146.688C118.187 147.16 118.045 147.622 117.782 148.014C117.518 148.406 117.144 148.712 116.707 148.892C116.27 149.072 115.79 149.118 115.326 149.025C114.863 148.932 114.438 148.704 114.104 148.369C113.77 148.034 113.543 147.608 113.452 147.145C113.36 146.681 113.408 146.201 113.589 145.764C113.77 145.328 114.077 144.955 114.47 144.692C114.863 144.43 115.325 144.29 115.797 144.29C116.112 144.29 116.423 144.353 116.713 144.474C117.003 144.594 117.267 144.771 117.489 144.994C117.711 145.216 117.887 145.481 118.007 145.771C118.127 146.062 118.188 146.373 118.188 146.688Z" fill="#E0E0E0"/>
<path d="M139.135 144.601H136.014C135.657 144.601 135.367 144.891 135.367 145.248V148.379C135.367 148.737 135.657 149.026 136.014 149.026H139.135C139.492 149.026 139.782 148.737 139.782 148.379V145.248C139.782 144.891 139.492 144.601 139.135 144.601Z" fill="#E0E0E0"/>
<path d="M142.075 35.1786C142.075 35.2963 142.04 35.4114 141.975 35.5092C141.909 35.6071 141.816 35.6834 141.708 35.7284C141.599 35.7735 141.479 35.7853 141.364 35.7623C141.248 35.7393 141.142 35.6827 141.059 35.5994C140.976 35.5162 140.919 35.4102 140.896 35.2947C140.873 35.1793 140.885 35.0596 140.93 34.9509C140.975 34.8421 141.052 34.7492 141.149 34.6838C141.247 34.6184 141.362 34.5835 141.48 34.5835C141.638 34.5835 141.789 34.6462 141.901 34.7578C142.012 34.8694 142.075 35.0208 142.075 35.1786Z" fill="#263238"/>
<path d="M141.48 37.4C141.809 37.4 142.075 37.1335 142.075 36.8048C142.075 36.4762 141.809 36.2097 141.48 36.2097C141.151 36.2097 140.885 36.4762 140.885 36.8048C140.885 37.1335 141.151 37.4 141.48 37.4Z" fill="#263238"/>
<path d="M141.48 39.0259C141.809 39.0259 142.075 38.7595 142.075 38.4308C142.075 38.1021 141.809 37.8357 141.48 37.8357C141.151 37.8357 140.885 38.1021 140.885 38.4308C140.885 38.7595 141.151 39.0259 141.48 39.0259Z" fill="#263238"/>
<path d="M145.599 41.971C145.599 42.0195 132.219 42.0575 115.719 42.0575C99.2178 42.0575 85.838 42.0195 85.838 41.971C85.838 41.9226 99.2144 41.8845 115.719 41.8845C132.223 41.8845 145.599 41.9399 145.599 41.971Z" fill="#E0E0E0"/>
<path d="M94.508 34.8475V35.2693H93.6688V38H93.1517V35.2693H92.308V34.8475H94.508ZM95.5972 35.1695C95.5034 35.1695 95.4248 35.1378 95.3613 35.0743C95.2978 35.0108 95.266 34.9322 95.266 34.8384C95.266 34.7447 95.2978 34.666 95.3613 34.6025C95.4248 34.539 95.5034 34.5073 95.5972 34.5073C95.6879 34.5073 95.765 34.539 95.8285 34.6025C95.892 34.666 95.9238 34.7447 95.9238 34.8384C95.9238 34.9322 95.892 35.0108 95.8285 35.0743C95.765 35.1378 95.6879 35.1695 95.5972 35.1695ZM95.8512 35.5007V38H95.3341V35.5007H95.8512ZM97.3496 35.8681C97.4373 35.7532 97.5567 35.6564 97.7079 35.5778C97.8591 35.4992 98.03 35.4598 98.2205 35.4598C98.4382 35.4598 98.6363 35.5143 98.8147 35.6231C98.9962 35.729 99.1383 35.8787 99.2411 36.0722C99.3439 36.2657 99.3953 36.488 99.3953 36.739C99.3953 36.99 99.3439 37.2153 99.2411 37.4149C99.1383 37.6114 98.9962 37.7656 98.8147 37.8775C98.6363 37.9864 98.4382 38.0408 98.2205 38.0408C98.03 38.0408 97.8606 38.003 97.7125 37.9274C97.5643 37.8488 97.4433 37.752 97.3496 37.6371V39.1884H96.8325V35.5007H97.3496V35.8681ZM98.8692 36.739C98.8692 36.5666 98.8329 36.4184 98.7603 36.2945C98.6907 36.1675 98.597 36.0722 98.4791 36.0087C98.3641 35.9422 98.2402 35.9089 98.1071 35.9089C97.9771 35.9089 97.8531 35.9422 97.7352 36.0087C97.6202 36.0752 97.5265 36.172 97.4539 36.299C97.3844 36.426 97.3496 36.5757 97.3496 36.7481C97.3496 36.9204 97.3844 37.0716 97.4539 37.2017C97.5265 37.3287 97.6202 37.4254 97.7352 37.492C97.8531 37.5585 97.9771 37.5918 98.1071 37.5918C98.2402 37.5918 98.3641 37.5585 98.4791 37.492C98.597 37.4224 98.6907 37.3226 98.7603 37.1926C98.8329 37.0626 98.8692 36.9114 98.8692 36.739Z" fill="#333333"/>
<path d="M94.489 50.8592C94.2478 50.8599 94.0118 50.7889 93.811 50.6554C93.6102 50.5218 93.4536 50.3316 93.3609 50.1089C93.2683 49.8862 93.2439 49.6411 93.2908 49.4045C93.3377 49.1679 93.4538 48.9506 93.6243 48.7801C93.7948 48.6095 94.0122 48.4935 94.2487 48.4466C94.4853 48.3997 94.7305 48.4241 94.9532 48.5167C95.1759 48.6093 95.366 48.766 95.4996 48.9668C95.6332 49.1676 95.7041 49.4035 95.7034 49.6447C95.7025 49.9665 95.5743 50.2749 95.3467 50.5025C95.1191 50.73 94.8108 50.8583 94.489 50.8592ZM94.489 48.7832C94.3164 48.7825 94.1474 48.833 94.0036 48.9284C93.8598 49.0238 93.7475 49.1598 93.6809 49.319C93.6144 49.4783 93.5967 49.6537 93.6299 49.8231C93.6632 49.9924 93.7459 50.1481 93.8677 50.2704C93.9895 50.3927 94.1449 50.4761 94.3141 50.51C94.4833 50.5439 94.6588 50.5269 94.8184 50.461C94.9779 50.3951 95.1143 50.2833 95.2102 50.1399C95.3062 49.9964 95.3574 49.8277 95.3574 49.6551C95.3588 49.54 95.3374 49.4258 95.2944 49.319C95.2514 49.2123 95.1877 49.1151 95.1069 49.0331C95.0262 48.951 94.93 48.8858 94.824 48.8411C94.7179 48.7965 94.604 48.7732 94.489 48.7728V48.7832Z" fill="#263238"/>
<path d="M93.7784 51.6795C93.4939 51.6786 93.2187 51.5781 93.0006 51.3955C92.7825 51.2129 92.6351 50.9597 92.5842 50.6798C92.5332 50.3999 92.5818 50.111 92.7216 49.8632C92.8614 49.6154 93.0835 49.4244 93.3494 49.3232L93.4739 49.6485C93.3312 49.7018 93.2049 49.7917 93.1077 49.9091C93.0105 50.0265 92.9457 50.1673 92.9199 50.3175C92.894 50.4677 92.908 50.622 92.9605 50.7651C93.0129 50.9082 93.1019 51.0351 93.2187 51.1331C93.3354 51.2311 93.4758 51.2967 93.6258 51.3235C93.7758 51.3504 93.9303 51.3374 94.0737 51.2859C94.2172 51.2344 94.3446 51.1462 94.4434 51.0301C94.5421 50.914 94.6087 50.7741 94.6365 50.6242L94.9825 50.6865C94.9292 50.9665 94.7797 51.219 94.5598 51.4004C94.3398 51.5818 94.0634 51.6805 93.7784 51.6795Z" fill="#263238"/>
<path d="M93.0817 52.3887C92.7964 52.3901 92.5197 52.291 92.3001 52.1087C92.0806 51.9265 91.9322 51.6728 91.881 51.3921C91.8298 51.1114 91.8791 50.8217 92.0202 50.5737C92.1613 50.3257 92.3852 50.1353 92.6526 50.0359L92.7737 50.3577C92.6087 50.4215 92.4666 50.5335 92.3661 50.6791C92.2655 50.8248 92.211 50.9973 92.2098 51.1742C92.2086 51.3924 92.2894 51.6031 92.436 51.7647C92.5826 51.9263 92.7845 52.027 93.0018 52.047C93.2191 52.067 93.4359 52.0048 93.6096 51.8727C93.7832 51.7405 93.901 51.5481 93.9398 51.3334L94.2858 51.3991C94.233 51.6791 94.0835 51.9316 93.8634 52.1125C93.6433 52.2934 93.3666 52.3912 93.0817 52.3887Z" fill="#263238"/>
<path d="M97.7228 50.3923C97.7349 50.1571 97.8156 49.9306 97.9548 49.7407C98.094 49.5508 98.2857 49.4057 98.5064 49.3233C98.727 49.241 98.9669 49.2249 99.1965 49.2771C99.4261 49.3294 99.6355 49.4476 99.7988 49.6173L99.5324 49.8699C99.4579 49.7859 99.3661 49.7189 99.2634 49.6735C99.1608 49.6282 99.0495 49.6054 98.9372 49.6069C98.8299 49.5998 98.7223 49.6147 98.6211 49.6509C98.5198 49.687 98.427 49.7436 98.3485 49.8171C98.27 49.8906 98.2074 49.9794 98.1646 50.078C98.1218 50.1767 98.0997 50.2831 98.0997 50.3906C98.0997 50.4981 98.1218 50.6045 98.1646 50.7031C98.2074 50.8018 98.27 50.8906 98.3485 50.9641C98.427 51.0376 98.5198 51.0941 98.6211 51.1303C98.7223 51.1664 98.8299 51.1814 98.9372 51.1743C99.0495 51.1757 99.1608 51.153 99.2634 51.1076C99.3661 51.0623 99.4579 50.9953 99.5324 50.9113L99.7988 51.1639C99.6364 51.335 99.4272 51.4546 99.1974 51.5079C98.9676 51.5612 98.7272 51.5458 98.506 51.4636C98.2849 51.3814 98.0927 51.236 97.9535 51.0456C97.8142 50.8551 97.734 50.628 97.7228 50.3923Z" fill="#263238"/>
<path d="M102.178 49.2783V51.5066H101.756V50.5516H100.604V51.5066H100.199V49.2783H100.611V50.1987H101.756V49.2783H102.178Z" fill="#263238"/>
<path d="M102.618 50.3927C102.607 50.1532 102.668 49.9159 102.793 49.7113C102.918 49.5067 103.102 49.3442 103.32 49.2448C103.538 49.1454 103.781 49.1136 104.018 49.1534C104.254 49.1933 104.473 49.3031 104.647 49.4686C104.82 49.6341 104.94 49.8477 104.991 50.082C105.042 50.3163 105.022 50.5605 104.933 50.7831C104.844 51.0057 104.69 51.1966 104.492 51.3311C104.293 51.4657 104.059 51.5377 103.819 51.538C103.664 51.546 103.509 51.5222 103.363 51.4682C103.218 51.4142 103.085 51.3311 102.972 51.2239C102.86 51.1167 102.77 50.9877 102.71 50.8447C102.649 50.7018 102.618 50.548 102.618 50.3927ZM104.605 50.3927C104.605 50.2372 104.56 50.085 104.474 49.9554C104.388 49.8258 104.266 49.7246 104.122 49.6646C103.979 49.6046 103.821 49.5886 103.668 49.6185C103.515 49.6484 103.375 49.7229 103.265 49.8326C103.155 49.9423 103.08 50.0823 103.049 50.2347C103.018 50.3872 103.034 50.5453 103.093 50.689C103.152 50.8327 103.253 50.9556 103.382 51.0421C103.512 51.1285 103.664 51.1747 103.819 51.1747C103.923 51.178 104.026 51.1601 104.123 51.122C104.219 51.084 104.307 51.0265 104.381 50.9533C104.454 50.8801 104.512 50.7925 104.551 50.6961C104.589 50.5997 104.607 50.4965 104.605 50.3927Z" fill="#263238"/>
<path d="M105.304 50.3927C105.293 50.1532 105.354 49.9159 105.479 49.7113C105.604 49.5067 105.787 49.3442 106.006 49.2448C106.224 49.1454 106.467 49.1136 106.703 49.1534C106.939 49.1933 107.159 49.3031 107.332 49.4686C107.506 49.6341 107.626 49.8477 107.677 50.082C107.728 50.3163 107.707 50.5605 107.618 50.7831C107.529 51.0057 107.376 51.1966 107.177 51.3311C106.979 51.4657 106.744 51.5377 106.505 51.538C106.349 51.5465 106.194 51.5231 106.048 51.4693C105.902 51.4154 105.769 51.3323 105.657 51.225C105.544 51.1177 105.455 50.9885 105.394 50.8454C105.334 50.7022 105.303 50.5482 105.304 50.3927ZM107.287 50.3927C107.287 50.2371 107.242 50.0847 107.156 49.955C107.07 49.8254 106.947 49.7241 106.803 49.6643C106.66 49.6044 106.501 49.5886 106.349 49.6188C106.196 49.6489 106.056 49.7238 105.946 49.8339C105.836 49.9439 105.761 50.0842 105.731 50.2369C105.7 50.3895 105.716 50.5478 105.776 50.6914C105.836 50.8351 105.937 50.9577 106.067 51.0437C106.197 51.1298 106.349 51.1753 106.505 51.1747C106.609 51.1785 106.712 51.1609 106.809 51.1231C106.906 51.0852 106.995 51.0279 107.068 50.9546C107.142 50.8813 107.201 50.7936 107.239 50.697C107.278 50.6003 107.296 50.4968 107.294 50.3927H107.287Z" fill="#263238"/>
<path d="M107.957 51.2817L108.099 50.9599C108.312 51.1176 108.57 51.2036 108.836 51.2056C109.182 51.2056 109.327 51.081 109.327 50.9149C109.327 50.434 108.005 50.7489 108.005 49.9219C108.005 49.5759 108.289 49.2576 108.902 49.2576C109.162 49.2523 109.419 49.3207 109.642 49.4548L109.514 49.7766C109.328 49.6637 109.116 49.6028 108.898 49.6001C108.552 49.6001 108.414 49.7351 108.414 49.9012C108.414 50.3752 109.735 50.0672 109.735 50.8873C109.735 51.2333 109.445 51.5481 108.836 51.5481C108.522 51.5584 108.213 51.4648 107.957 51.2817Z" fill="#263238"/>
<path d="M111.818 51.1606V51.5066H110.146V49.2783H111.79V49.6243H110.579V50.2056H111.655V50.5516H110.579V51.1675L111.818 51.1606Z" fill="#263238"/>
<path d="M114.607 50.991H113.493L113.271 51.5066H112.846L113.849 49.2783H114.257L115.261 51.5066H114.828L114.607 50.991ZM114.468 50.6658L114.05 49.6901L113.631 50.6658H114.468Z" fill="#263238"/>
<path d="M117.594 51.5066V50.0291L116.86 51.2505H116.673L115.943 50.0464V51.5066H115.549V49.2783H115.895L116.781 50.7557L117.649 49.2783H117.995V51.5066H117.594Z" fill="#263238"/>
<path d="M118.431 50.3927C118.42 50.1532 118.481 49.9159 118.606 49.7113C118.731 49.5067 118.914 49.3442 119.132 49.2448C119.351 49.1454 119.594 49.1136 119.83 49.1534C120.066 49.1933 120.286 49.3031 120.459 49.4686C120.632 49.6341 120.752 49.8477 120.803 50.082C120.854 50.3163 120.834 50.5605 120.745 50.7831C120.656 51.0057 120.502 51.1966 120.304 51.3311C120.106 51.4657 119.871 51.5377 119.632 51.538C119.476 51.5465 119.321 51.5231 119.175 51.4693C119.029 51.4154 118.896 51.3323 118.784 51.225C118.671 51.1177 118.582 50.9885 118.521 50.8454C118.46 50.7022 118.43 50.5482 118.431 50.3927ZM120.414 50.3927C120.414 50.238 120.368 50.0869 120.282 49.9583C120.196 49.8297 120.074 49.7294 119.931 49.6703C119.788 49.6111 119.631 49.5956 119.479 49.6258C119.327 49.6559 119.188 49.7304 119.079 49.8398C118.969 49.9491 118.895 50.0885 118.865 50.2401C118.834 50.3918 118.85 50.5491 118.909 50.6919C118.968 50.8348 119.069 50.957 119.197 51.0429C119.326 51.1288 119.477 51.1747 119.632 51.1747C119.735 51.178 119.838 51.1601 119.935 51.122C120.031 51.0839 120.119 51.0264 120.192 50.9531C120.265 50.8798 120.323 50.7923 120.361 50.6959C120.399 50.5995 120.417 50.4963 120.414 50.3927Z" fill="#263238"/>
<path d="M121.254 50.5343V49.2783H121.669V50.5205C121.669 50.9772 121.873 51.1744 122.233 51.1744C122.593 51.1744 122.797 50.9772 122.797 50.5205V49.2783H123.209V50.5343C123.209 50.7931 123.106 51.0413 122.923 51.2242C122.74 51.4072 122.492 51.51 122.233 51.51C121.974 51.51 121.726 51.4072 121.543 51.2242C121.36 51.0413 121.257 50.7931 121.257 50.5343H121.254Z" fill="#263238"/>
<path d="M125.765 49.2783V51.5066H125.419L124.191 49.998V51.5066H123.779V49.2783H124.125L125.357 50.7869V49.2783H125.765Z" fill="#263238"/>
<path d="M126.817 49.6277H126.08V49.2817H127.969V49.6277H127.233V51.5065H126.817V49.6277Z" fill="#263238"/>
<path d="M129.132 50.6346C129.116 50.1107 129.25 49.5931 129.52 49.1433H129.9C129.651 49.6003 129.521 50.1124 129.521 50.6328C129.521 51.1532 129.651 51.6654 129.9 52.1224H129.52C129.251 51.6735 129.117 51.1573 129.132 50.6346Z" fill="#263238"/>
<path d="M132.205 50.9116L132.471 51.1642C132.361 51.2878 132.224 51.3855 132.072 51.4501C131.919 51.5147 131.754 51.5447 131.589 51.5379C131.334 51.5492 131.083 51.4749 130.875 51.3269C130.668 51.1789 130.516 50.9658 130.443 50.7213H130.08V50.4999H130.402C130.402 50.4653 130.402 50.4307 130.402 50.3926C130.402 50.3546 130.402 50.32 130.402 50.2854H130.08V50.0605H130.443C130.516 49.8164 130.668 49.6036 130.876 49.4562C131.083 49.3088 131.334 49.2353 131.589 49.2474C131.754 49.2399 131.919 49.2693 132.071 49.3333C132.224 49.3973 132.36 49.4944 132.471 49.6176L132.205 49.8702C132.13 49.7862 132.038 49.7192 131.936 49.6739C131.833 49.6285 131.722 49.6058 131.609 49.6072C131.456 49.6014 131.305 49.6414 131.175 49.7222C131.045 49.803 130.942 49.9208 130.879 50.0605H131.793V50.2854H130.821C130.811 50.3566 130.811 50.4287 130.821 50.4999H131.796V50.7213H130.883C130.945 50.8616 131.047 50.98 131.178 51.0608C131.308 51.1417 131.46 51.1814 131.613 51.1746C131.725 51.1756 131.835 51.1526 131.937 51.1072C132.039 51.0619 132.13 50.9952 132.205 50.9116Z" fill="#263238"/>
<path d="M132.631 52.1221C132.88 51.6651 133.01 51.153 133.01 50.6326C133.01 50.1122 132.88 49.6001 132.631 49.1431H133.008C133.264 49.5977 133.399 50.1107 133.399 50.6326C133.399 51.1544 133.264 51.6675 133.008 52.1221H132.631Z" fill="#263238"/>
<path d="M122.172 56.2124H110.823C109.973 56.2124 109.283 56.9017 109.283 57.7521V68.5058C109.283 69.3561 109.973 70.0455 110.823 70.0455H122.172C123.022 70.0455 123.711 69.3561 123.711 68.5058V57.7521C123.711 56.9017 123.022 56.2124 122.172 56.2124Z" fill="#FE4A78"/>
<path d="M116.043 64.1976V64.8446H113.015V64.3326L114.648 62.7859C115.046 62.4053 115.115 62.1631 115.115 61.9348C115.115 61.5576 114.859 61.3431 114.354 61.3431C114.172 61.3337 113.99 61.3674 113.822 61.4413C113.655 61.5152 113.508 61.6274 113.392 61.7687L112.859 61.3604C113.047 61.1309 113.286 60.9487 113.557 60.8285C113.828 60.7083 114.124 60.6535 114.42 60.6684C115.309 60.6684 115.883 61.1217 115.883 61.8483C115.883 62.2462 115.773 62.6095 115.191 63.1458L114.095 64.1838L116.043 64.1976Z" fill="white"/>
<path d="M116.465 62.7898C116.465 61.4439 117.205 60.6792 118.178 60.6792C119.15 60.6792 119.908 61.4439 119.908 62.7898C119.908 64.1357 119.167 64.9039 118.178 64.9039C117.188 64.9039 116.465 64.1392 116.465 62.7898ZM119.129 62.7898C119.129 61.8002 118.742 61.3435 118.178 61.3435C117.614 61.3435 117.233 61.8002 117.233 62.7898C117.233 63.7794 117.62 64.2395 118.178 64.2395C118.735 64.2395 119.129 63.7828 119.129 62.7898Z" fill="white"/>
<path d="M99.1863 60.7378V64.8448H98.4251V61.3848H97.5566V60.7447L99.1863 60.7378Z" fill="#263238"/>
<path d="M100.002 62.7933C100.002 61.4439 100.739 60.6792 101.715 60.6792C102.69 60.6792 103.445 61.4439 103.445 62.7933C103.445 64.1427 102.708 64.9039 101.715 64.9039C100.722 64.9039 100.002 64.1392 100.002 62.7933ZM102.663 62.7933C102.663 61.8002 102.275 61.3435 101.715 61.3435C101.154 61.3435 100.77 61.8002 100.77 62.7933C100.77 63.7863 101.158 64.2395 101.715 64.2395C102.272 64.2395 102.663 63.7828 102.663 62.7933Z" fill="#263238"/>
<path d="M106.274 70.2181H94.9217C94.4688 70.2136 94.0358 70.0317 93.7156 69.7115C93.3954 69.3913 93.2135 68.9583 93.209 68.5054V57.7518C93.2135 57.2989 93.3954 56.8659 93.7156 56.5457C94.0358 56.2255 94.4688 56.0436 94.9217 56.0391H106.274C106.726 56.0445 107.158 56.2268 107.478 56.5469C107.797 56.867 107.979 57.2995 107.983 57.7518V68.5054C107.979 68.9577 107.797 69.3902 107.478 69.7103C107.158 70.0304 106.726 70.2127 106.274 70.2181ZM94.9217 56.3781C94.5606 56.3826 94.2156 56.5281 93.9602 56.7834C93.7049 57.0387 93.5595 57.3838 93.555 57.7448V68.4985C93.5595 68.8596 93.7049 69.2046 93.9602 69.46C94.2156 69.7153 94.5606 69.8607 94.9217 69.8652H106.274C106.635 69.8607 106.98 69.7153 107.235 69.46C107.491 69.2046 107.636 68.8596 107.641 68.4985V57.7518C107.636 57.3907 107.491 57.0457 107.235 56.7903C106.98 56.535 106.635 56.3895 106.274 56.3851L94.9217 56.3781Z" fill="#E0E0E0"/>
<path d="M138.087 70.2181H126.738C126.285 70.2136 125.852 70.0317 125.532 69.7115C125.212 69.3913 125.03 68.9583 125.025 68.5054V57.7518C125.03 57.2989 125.212 56.8659 125.532 56.5457C125.852 56.2255 126.285 56.0436 126.738 56.0391H138.087C138.54 56.0436 138.973 56.2255 139.293 56.5457C139.613 56.8659 139.795 57.2989 139.8 57.7518V68.5054C139.795 68.9583 139.613 69.3913 139.293 69.7115C138.973 70.0317 138.54 70.2136 138.087 70.2181ZM126.738 56.3781C126.377 56.3826 126.032 56.5281 125.777 56.7834C125.521 57.0387 125.376 57.3838 125.371 57.7448V68.4985C125.376 68.8596 125.521 69.2046 125.777 69.46C126.032 69.7153 126.377 69.8607 126.738 69.8652H138.087C138.448 69.8607 138.793 69.7153 139.048 69.46C139.304 69.2046 139.449 68.8596 139.454 68.4985V57.7518C139.449 57.3907 139.304 57.0457 139.048 56.7903C138.793 56.535 138.448 56.3895 138.087 56.3851L126.738 56.3781Z" fill="#E0E0E0"/>
<path d="M131.953 63.5819C131.953 64.3051 131.431 64.9036 130.33 64.9036C129.778 64.9157 129.236 64.7481 128.787 64.4262L129.109 63.8345C129.455 64.1009 129.88 64.2435 130.316 64.2393C130.863 64.2393 131.185 64.0006 131.185 63.6131C131.185 63.2255 130.932 62.9729 130.081 62.9729H129.092L129.303 60.7378H131.725V61.3779H129.96L129.87 62.3294H130.265C131.469 62.3294 131.953 62.8553 131.953 63.5819Z" fill="#263238"/>
<path d="M132.391 62.7898C132.391 61.4439 133.131 60.6792 134.103 60.6792C135.076 60.6792 135.833 61.4439 135.833 62.7898C135.833 64.1357 135.093 64.9039 134.103 64.9039C133.114 64.9039 132.391 64.1392 132.391 62.7898ZM135.055 62.7898C135.055 61.8002 134.667 61.3435 134.103 61.3435C133.539 61.3435 133.159 61.8002 133.159 62.7898C133.159 63.7794 133.546 64.2395 134.103 64.2395C134.661 64.2395 135.055 63.7828 135.055 62.7898Z" fill="#263238"/>
<path d="M122.171 86.3488H110.822C110.369 86.3443 109.936 86.1624 109.616 85.8421C109.296 85.5219 109.114 85.0889 109.11 84.6361V73.8789C109.115 73.4267 109.297 72.9945 109.617 72.6751C109.938 72.3556 110.37 72.1742 110.822 72.1697H122.171C122.623 72.1742 123.056 72.3556 123.376 72.6751C123.696 72.9945 123.878 73.4267 123.884 73.8789V84.6361C123.879 85.0889 123.697 85.5219 123.377 85.8421C123.057 86.1624 122.624 86.3443 122.171 86.3488ZM110.822 72.5088C110.462 72.5132 110.117 72.6582 109.862 72.9128C109.607 73.1674 109.461 73.5115 109.456 73.872V84.6361C109.46 84.9971 109.606 85.3422 109.861 85.5975C110.116 85.8528 110.461 85.9983 110.822 86.0028H122.171C122.535 86.0028 122.885 85.8594 123.144 85.6035C123.403 85.3477 123.551 85.0001 123.555 84.6361V73.8789C123.55 73.5184 123.404 73.1743 123.149 72.9197C122.893 72.6651 122.549 72.5201 122.188 72.5157L110.822 72.5088Z" fill="#E0E0E0"/>
<path d="M114.085 80.3455V80.989H111.058V80.4804L112.691 78.9303C113.089 78.5497 113.158 78.311 113.158 78.0792C113.158 77.7055 112.902 77.4875 112.397 77.4875C112.214 77.478 112.032 77.5119 111.864 77.5865C111.697 77.661 111.55 77.7741 111.435 77.9165L110.902 77.5048C111.09 77.2757 111.329 77.0938 111.6 76.9736C111.871 76.8535 112.167 76.7984 112.463 76.8128C113.352 76.8128 113.926 77.2626 113.926 77.9892C113.926 78.3906 113.815 78.7539 113.234 79.2867L112.137 80.3455H114.085Z" fill="#263238"/>
<path d="M114.506 78.9202C114.506 77.5708 115.243 76.8096 116.236 76.8096C117.229 76.8096 117.966 77.5708 117.966 78.9202C117.966 80.2696 117.225 81.0308 116.236 81.0308C115.246 81.0308 114.506 80.2696 114.506 78.9202ZM117.17 78.9202C117.17 77.9306 116.783 77.4704 116.219 77.4704C115.655 77.4704 115.274 77.9306 115.274 78.9202C115.274 79.9097 115.661 80.3699 116.219 80.3699C116.776 80.3699 117.17 79.9097 117.17 78.9202Z" fill="#263238"/>
<path d="M118.451 78.9202C118.451 77.5708 119.192 76.8096 120.164 76.8096C121.136 76.8096 121.894 77.5708 121.894 78.9202C121.894 80.2696 121.157 81.0308 120.164 81.0308C119.171 81.0308 118.451 80.2696 118.451 78.9202ZM121.115 78.9202C121.115 77.9306 120.728 77.4704 120.164 77.4704C119.6 77.4704 119.223 77.9306 119.223 78.9202C119.223 79.9097 119.607 80.3699 120.164 80.3699C120.721 80.3699 121.133 79.9097 121.133 78.9202H121.115Z" fill="#263238"/>
<path d="M97.2132 76.8857V80.9893H96.4485V77.5293H95.5801V76.8857H97.2132Z" fill="#263238"/>
<path d="M98.0275 78.9199C98.0275 77.5705 98.7679 76.8093 99.7402 76.8093C100.712 76.8093 101.47 77.5705 101.47 78.9199C101.47 80.2693 100.73 81.0305 99.7402 81.0305C98.7506 81.0305 98.0275 80.2693 98.0275 78.9199ZM100.692 78.9199C100.692 77.9304 100.304 77.4702 99.7402 77.4702C99.1762 77.4702 98.7956 77.9304 98.7956 78.9199C98.7956 79.9095 99.1831 80.3697 99.7402 80.3697C100.297 80.3697 100.692 79.9095 100.692 78.9199Z" fill="#263238"/>
<path d="M101.975 78.9202C101.975 77.5708 102.712 76.8096 103.705 76.8096C104.698 76.8096 105.435 77.5708 105.435 78.9202C105.435 80.2696 104.698 81.0308 103.705 81.0308C102.712 81.0308 101.975 80.2696 101.975 78.9202ZM104.635 78.9202C104.635 77.9306 104.248 77.4704 103.687 77.4704C103.127 77.4704 102.743 77.9306 102.743 78.9202C102.743 79.9097 103.13 80.3699 103.687 80.3699C104.244 80.3699 104.635 79.9097 104.635 78.9202Z" fill="#263238"/>
<path d="M106.274 86.349H94.9217C94.4688 86.3445 94.0358 86.1626 93.7156 85.8424C93.3954 85.5222 93.2135 85.0891 93.209 84.6363V73.8792C93.2144 73.4269 93.3967 72.9948 93.7168 72.6753C94.0369 72.3558 94.4694 72.1744 94.9217 72.1699H106.274C106.726 72.1744 107.159 72.3558 107.479 72.6753C107.799 72.9948 107.981 73.4269 107.987 73.8792V84.6363C107.982 85.0891 107.8 85.5222 107.48 85.8424C107.16 86.1626 106.727 86.3445 106.274 86.349ZM94.9217 72.509C94.5612 72.5135 94.2167 72.6584 93.9614 72.913C93.7062 73.1676 93.5604 73.5118 93.555 73.8722V84.6363C93.5595 84.9974 93.7049 85.3424 93.9602 85.5977C94.2156 85.8531 94.5606 85.9985 94.9217 86.003H106.274C106.634 85.9976 106.979 85.8518 107.233 85.5966C107.488 85.3413 107.633 84.9968 107.637 84.6363V73.8792C107.632 73.5187 107.486 73.1745 107.231 72.9199C106.975 72.6653 106.631 72.5204 106.27 72.5159L94.9217 72.509Z" fill="#E0E0E0"/>
<path d="M138.087 86.3488H126.738C126.285 86.3443 125.852 86.1624 125.532 85.8421C125.212 85.5219 125.03 85.0889 125.025 84.6361V73.8789C125.031 73.4267 125.213 72.9945 125.533 72.6751C125.853 72.3556 126.286 72.1742 126.738 72.1697H138.087C138.539 72.1742 138.972 72.3556 139.292 72.6751C139.612 72.9945 139.794 73.4267 139.8 73.8789V84.6361C139.795 85.0889 139.613 85.5219 139.293 85.8421C138.973 86.1624 138.54 86.3443 138.087 86.3488ZM126.738 72.5088C126.378 72.5132 126.033 72.6582 125.778 72.9128C125.523 73.1674 125.377 73.5115 125.371 73.872V84.6361C125.376 84.9971 125.521 85.3422 125.777 85.5975C126.032 85.8528 126.377 85.9983 126.738 86.0028H138.087C138.448 85.9983 138.793 85.8528 139.048 85.5975C139.304 85.3422 139.449 84.9971 139.454 84.6361V73.8789C139.448 73.5184 139.302 73.1743 139.047 72.9197C138.792 72.6651 138.447 72.5201 138.087 72.5157L126.738 72.5088Z" fill="#E0E0E0"/>
<path d="M130.029 79.7128C130.029 80.4325 129.507 81.031 128.403 81.031C127.852 81.0421 127.312 80.8759 126.863 80.557L127.185 79.9654C127.531 80.2323 127.956 80.3749 128.393 80.3702C128.939 80.3702 129.261 80.128 129.261 79.7405C129.261 79.3529 129.008 79.1038 128.157 79.1038H127.168L127.379 76.8687H129.801V77.5053H128.033L127.946 78.4568H128.337C129.541 78.4568 130.029 78.9862 130.029 79.7128Z" fill="#263238"/>
<path d="M130.474 78.9199C130.474 77.5705 131.211 76.8093 132.187 76.8093C133.163 76.8093 133.917 77.5705 133.917 78.9199C133.917 80.2693 133.177 81.0305 132.187 81.0305C131.198 81.0305 130.474 80.2693 130.474 78.9199ZM133.139 78.9199C133.139 77.9304 132.751 77.4702 132.187 77.4702C131.623 77.4702 131.243 77.9304 131.243 78.9199C131.243 79.9095 131.63 80.3697 132.187 80.3697C132.744 80.3697 133.132 79.9095 133.132 78.9199H133.139Z" fill="#263238"/>
<path d="M134.412 78.9202C134.412 77.5708 135.153 76.8096 136.125 76.8096C137.097 76.8096 137.855 77.5708 137.855 78.9202C137.855 80.2696 137.114 81.0308 136.125 81.0308C135.135 81.0308 134.412 80.2696 134.412 78.9202ZM137.076 78.9202C137.076 77.9306 136.689 77.4704 136.125 77.4704C135.561 77.4704 135.18 77.9306 135.18 78.9202C135.18 79.9097 135.568 80.3699 136.125 80.3699C136.682 80.3699 137.076 79.9097 137.076 78.9202Z" fill="#263238"/>
<path d="M92.1602 97.4414L92.302 97.1196C92.5147 97.2788 92.7733 97.365 93.039 97.3653C93.385 97.3653 93.5303 97.2407 93.5303 97.0746C93.5303 96.5971 92.2086 96.912 92.2086 96.0816C92.2086 95.7356 92.4923 95.4173 93.1047 95.4173C93.3652 95.412 93.6218 95.4804 93.8452 95.6145L93.7172 95.9363C93.5307 95.8249 93.3184 95.7641 93.1013 95.7598C92.7553 95.7598 92.6169 95.8948 92.6169 96.0643C92.6169 96.5383 93.9386 96.2304 93.9386 97.0469C93.9386 97.3929 93.648 97.7078 93.039 97.7078C92.7247 97.7181 92.4158 97.6245 92.1602 97.4414Z" fill="#263238"/>
<path d="M96.0208 97.331V97.677H94.3496V95.4487H95.9758V95.7947H94.7648V96.3726H95.8409V96.7186H94.7648V97.3344L96.0208 97.331Z" fill="#263238"/>
<path d="M96.4844 95.4487H96.9134V97.3275H98.076V97.6735H96.4982L96.4844 95.4487Z" fill="#263238"/>
<path d="M100.066 97.331V97.677H98.3945V95.4487H100.028V95.7947H98.8132V96.3726H99.8893V96.7186H98.8132V97.3344L100.066 97.331Z" fill="#263238"/>
<path d="M100.371 96.5627C100.382 96.3271 100.463 96.0999 100.602 95.9094C100.741 95.719 100.933 95.5736 101.154 95.4914C101.375 95.4093 101.616 95.3938 101.846 95.4471C102.076 95.5004 102.285 95.62 102.447 95.7911L102.177 96.0402C102.103 95.9567 102.011 95.8903 101.908 95.8455C101.805 95.8007 101.694 95.7786 101.582 95.7807C101.451 95.7812 101.322 95.8146 101.206 95.8778C101.091 95.9411 100.994 96.0322 100.923 96.1428C100.852 96.2535 100.81 96.3801 100.801 96.5111C100.792 96.6422 100.816 96.7734 100.87 96.8929C100.925 97.0123 101.009 97.1162 101.114 97.1949C101.219 97.2736 101.342 97.3247 101.472 97.3435C101.602 97.3623 101.735 97.3482 101.858 97.3024C101.981 97.2567 102.091 97.1808 102.177 97.0817L102.447 97.3377C102.284 97.5074 102.074 97.6257 101.845 97.6779C101.615 97.7301 101.375 97.7141 101.155 97.6317C100.934 97.5493 100.742 97.4042 100.603 97.2143C100.464 97.0244 100.383 96.7979 100.371 96.5627Z" fill="#263238"/>
<path d="M103.262 95.7981H102.521V95.4521H104.414V95.7981H103.674V97.6769H103.262V95.7981Z" fill="#263238"/>
<path d="M107.468 96.2411C107.468 96.7324 107.122 97.0334 106.52 97.0334H106.019V97.677H105.604V95.4487H106.52C107.109 95.4487 107.468 95.7498 107.468 96.2411ZM107.053 96.2411C107.053 95.9608 106.866 95.7982 106.503 95.7982H106.019V96.684H106.503C106.866 96.684 107.053 96.5213 107.053 96.2411Z" fill="#263238"/>
<path d="M109.22 97.1614H108.106L107.885 97.677H107.459L108.462 95.4487H108.871L109.878 97.677H109.442L109.22 97.1614ZM109.082 96.8362L108.677 95.8639L108.258 96.8362H109.082Z" fill="#263238"/>
<path d="M110.988 96.8916V97.677H110.573V96.8985L109.715 95.4487H110.158L110.812 96.5352L111.469 95.4487H111.877L110.988 96.8916Z" fill="#263238"/>
<path d="M114.146 97.6767V96.1993L113.416 97.4241H113.229L112.482 96.2201V97.6767H112.101V95.4485H112.447L113.333 96.9259L114.202 95.4485H114.548V97.6767H114.146Z" fill="#263238"/>
<path d="M116.816 97.331V97.677H115.145V95.4487H116.771V95.7947H115.56V96.3726H116.636V96.7186H115.56V97.3344L116.816 97.331Z" fill="#263238"/>
<path d="M119.257 95.4485V97.6768H118.911L117.683 96.1682V97.6768H117.271V95.4485H117.617L118.849 96.9536V95.4451L119.257 95.4485Z" fill="#263238"/>
<path d="M120.309 95.7981H119.572V95.4521H121.479V95.7981H120.742V97.6769H120.327L120.309 95.7981Z" fill="#263238"/>
<path d="M124.705 97.677V96.1996L123.971 97.4244H123.788L123.054 96.2203V97.677H122.656V95.4487H123.002L123.885 96.9262L124.756 95.4487H125.102V97.677H124.705Z" fill="#263238"/>
<path d="M127.36 97.331V97.677H125.686V95.4487H127.315V95.7947H126.101V96.3726H127.177V96.7186H126.101V97.3344L127.36 97.331Z" fill="#263238"/>
<path d="M128.284 95.7981H127.547V95.4521H129.436V95.7981H128.699V97.6769H128.284V95.7981Z" fill="#263238"/>
<path d="M131.731 95.4487V97.677H131.316V96.722H130.164V97.677H129.752V95.4487H130.164V96.3691H131.316V95.4487H131.731Z" fill="#263238"/>
<path d="M132.169 96.5626C132.158 96.3231 132.219 96.0858 132.344 95.8812C132.469 95.6766 132.653 95.5141 132.871 95.4147C133.089 95.3153 133.332 95.2835 133.568 95.3234C133.805 95.3633 134.024 95.473 134.197 95.6385C134.371 95.804 134.491 96.0176 134.542 96.2519C134.593 96.4862 134.572 96.7304 134.483 96.953C134.394 97.1756 134.241 97.3665 134.042 97.501C133.844 97.6356 133.61 97.7076 133.37 97.7079C133.215 97.7159 133.06 97.6921 132.914 97.6381C132.768 97.5841 132.635 97.501 132.523 97.3938C132.411 97.2866 132.321 97.1576 132.26 97.0147C132.2 96.8718 132.169 96.7179 132.169 96.5626ZM134.155 96.5626C134.155 96.4073 134.109 96.2554 134.023 96.1263C133.937 95.9971 133.814 95.8964 133.67 95.837C133.527 95.7775 133.369 95.762 133.217 95.7923C133.064 95.8226 132.924 95.8974 132.814 96.0072C132.705 96.1171 132.63 96.257 132.6 96.4094C132.569 96.5617 132.585 96.7197 132.644 96.8632C132.704 97.0067 132.804 97.1294 132.934 97.2157C133.063 97.302 133.215 97.348 133.37 97.348C133.474 97.3514 133.578 97.3334 133.674 97.2951C133.771 97.2568 133.859 97.1991 133.933 97.1255C134.006 97.0519 134.064 96.9639 134.102 96.8671C134.141 96.7703 134.159 96.6667 134.155 96.5626Z" fill="#263238"/>
<path d="M135.014 95.4483H135.986C136.14 95.4362 136.294 95.456 136.44 95.5065C136.585 95.557 136.719 95.637 136.832 95.7417C136.946 95.8463 137.036 95.9733 137.098 96.1145C137.159 96.2557 137.191 96.4082 137.191 96.5624C137.191 96.7166 137.159 96.8691 137.098 97.0103C137.036 97.1516 136.946 97.2785 136.832 97.3831C136.719 97.4878 136.585 97.5679 136.44 97.6183C136.294 97.6688 136.14 97.6886 135.986 97.6765H135.014V95.4483ZM135.969 97.3271C136.171 97.3271 136.366 97.2465 136.509 97.1031C136.653 96.9597 136.733 96.7652 136.733 96.5624C136.733 96.3596 136.653 96.1651 136.509 96.0217C136.366 95.8783 136.171 95.7977 135.969 95.7977H135.425V97.3271H135.969Z" fill="#263238"/>
<path d="M140.66 114.347H92.2855C91.7444 114.346 91.2257 114.131 90.8431 113.748C90.4604 113.365 90.2451 112.847 90.2441 112.306V103.182C90.2451 102.64 90.4604 102.122 90.8431 101.739C91.2257 101.356 91.7444 101.141 92.2855 101.14H140.66C141.201 101.141 141.72 101.356 142.102 101.739C142.485 102.122 142.7 102.64 142.701 103.182V112.309C142.699 112.85 142.484 113.367 142.101 113.749C141.719 114.131 141.2 114.346 140.66 114.347ZM92.2855 101.483C91.8362 101.484 91.4055 101.663 91.0877 101.98C90.77 102.298 90.5911 102.729 90.5901 103.178V112.306C90.5911 112.755 90.77 113.186 91.0877 113.503C91.4055 113.821 91.8362 114 92.2855 114.001H140.66C141.109 114 141.54 113.821 141.858 113.503C142.175 113.186 142.354 112.755 142.355 112.306V103.182C142.354 102.732 142.175 102.301 141.858 101.984C141.54 101.666 141.109 101.487 140.66 101.486L92.2855 101.483Z" fill="#E0E0E0"/>
<path d="M103.259 105.32H95.3145V111.541H103.259V105.32Z" fill="#FE4A78"/>
<path d="M108.017 109.064L107.508 108.347L107.003 109.064H106.602L107.294 108.102L106.633 107.181H107.027L107.508 107.849L107.982 107.181H108.363L107.702 108.091L108.394 109.064H108.017Z" fill="#263238"/>
<path d="M109.839 109.064L109.327 108.348L108.822 109.064H108.424L109.116 108.102L108.455 107.182H108.849L109.33 107.849L109.804 107.182H110.185L109.528 108.092L110.22 109.064H109.839Z" fill="#263238"/>
<path d="M111.659 109.064L111.147 108.348L110.642 109.064H110.244L110.936 108.102L110.275 107.182H110.67L111.151 107.849L111.628 107.182H112.005L111.348 108.092L112.04 109.064H111.659Z" fill="#263238"/>
<path d="M114.259 109.064L113.747 108.348L113.242 109.064H112.848L113.54 108.102L112.879 107.182H113.277L113.758 107.849L114.232 107.182H114.612L113.951 108.092L114.661 109.064H114.259Z" fill="#263238"/>
<path d="M116.081 109.064L115.573 108.347L115.068 109.064H114.67L115.362 108.102L114.701 107.181H115.095L115.576 107.849L116.05 107.181H116.431L115.773 108.091L116.465 109.064H116.081Z" fill="#263238"/>
<path d="M117.903 109.064L117.391 108.348L116.886 109.064H116.488L117.18 108.102L116.519 107.182H116.914L117.395 107.849L117.872 107.182H118.249L117.592 108.092L118.284 109.064H117.903Z" fill="#263238"/>
<path d="M120.507 109.064L119.995 108.348L119.49 109.064H119.092L119.784 108.102L119.123 107.182H119.517L119.998 107.849L120.476 107.182H120.853L120.196 108.092L120.888 109.064H120.507Z" fill="#263238"/>
<path d="M122.326 109.064L121.824 108.348L121.312 109.064H120.914L121.606 108.102L120.945 107.182H121.343L121.824 107.849L122.298 107.182H122.679L122.018 108.092L122.727 109.064H122.326Z" fill="#263238"/>
<path d="M124.146 109.064L123.637 108.348L123.132 109.064H122.734L123.426 108.102L122.766 107.182H123.16L123.641 107.849L124.115 107.182H124.496L123.838 108.092L124.53 109.064H124.146Z" fill="#263238"/>
<path d="M126.08 107.182V109.064H125.734V107.476H125.336V107.182H126.08Z" fill="#263238"/>
<path d="M127.816 108.766V109.063H126.432V108.828L127.18 108.119C127.363 107.946 127.394 107.835 127.394 107.728C127.394 107.558 127.277 107.458 127.048 107.458C126.965 107.454 126.881 107.469 126.805 107.503C126.728 107.538 126.661 107.59 126.609 107.655L126.363 107.465C126.45 107.361 126.56 107.279 126.685 107.225C126.809 107.171 126.944 107.146 127.08 107.154C127.488 107.154 127.751 107.361 127.751 107.693C127.748 107.81 127.718 107.924 127.664 108.027C127.61 108.13 127.533 108.22 127.439 108.288L126.934 108.766H127.816Z" fill="#263238"/>
<path d="M129.356 108.5C129.356 108.815 129.117 109.092 128.612 109.092C128.358 109.095 128.11 109.019 127.902 108.874L128.055 108.6C128.211 108.724 128.405 108.79 128.605 108.787C128.854 108.787 129.003 108.676 129.003 108.5C129.003 108.323 128.878 108.223 128.594 108.223H128.421V107.984L128.85 107.476H127.996V107.182H129.276V107.417L128.819 107.96C128.89 107.96 128.96 107.974 129.025 108.001C129.091 108.028 129.15 108.068 129.2 108.118C129.25 108.169 129.289 108.228 129.316 108.294C129.342 108.359 129.356 108.429 129.356 108.5Z" fill="#263238"/>
<path d="M131.255 108.635H130.909V109.064H130.563V108.635H129.525V108.393L130.453 107.182H130.826L129.951 108.341H130.567V107.96H130.896V108.341H131.242L131.255 108.635Z" fill="#263238"/>
<path d="M137.81 108.836C137.786 108.835 137.762 108.83 137.74 108.82C137.718 108.81 137.698 108.795 137.682 108.777L136.499 107.469C136.482 107.452 136.469 107.433 136.46 107.411C136.451 107.389 136.447 107.365 136.447 107.342C136.448 107.318 136.453 107.295 136.463 107.274C136.473 107.252 136.487 107.233 136.504 107.217C136.522 107.201 136.542 107.189 136.564 107.182C136.587 107.174 136.61 107.171 136.634 107.173C136.657 107.175 136.68 107.181 136.701 107.192C136.722 107.203 136.74 107.219 136.755 107.237L137.81 108.403L138.869 107.237C138.901 107.206 138.943 107.188 138.987 107.188C139.031 107.187 139.074 107.203 139.106 107.232C139.139 107.262 139.159 107.303 139.163 107.347C139.166 107.391 139.153 107.434 139.125 107.469L137.938 108.777C137.923 108.796 137.903 108.811 137.881 108.821C137.859 108.831 137.835 108.836 137.81 108.836Z" fill="#E0E0E0"/>
<path d="M95.4354 130.588C95.4336 130.454 95.4597 130.321 95.512 130.198C95.5643 130.074 95.6417 129.963 95.7393 129.871C95.8369 129.779 95.9525 129.708 96.0789 129.663C96.2053 129.618 96.3396 129.6 96.4734 129.609C96.6142 129.604 96.7546 129.629 96.8843 129.684C97.0141 129.74 97.1302 129.822 97.2242 129.927L96.9959 130.142C96.9321 130.07 96.8537 130.013 96.7659 129.974C96.6782 129.936 96.5832 129.916 96.4872 129.917C96.3953 129.91 96.3029 129.923 96.216 129.954C96.129 129.984 96.0493 130.032 95.9818 130.095C95.9143 130.158 95.8604 130.234 95.8236 130.319C95.7868 130.403 95.7678 130.494 95.7678 130.587C95.7678 130.679 95.7868 130.77 95.8236 130.855C95.8604 130.939 95.9143 131.015 95.9818 131.078C96.0493 131.141 96.129 131.189 96.216 131.22C96.3029 131.25 96.3953 131.263 96.4872 131.256C96.5833 131.258 96.6786 131.239 96.7665 131.2C96.8544 131.161 96.9327 131.104 96.9959 131.031L97.2242 131.249C97.0835 131.391 96.9051 131.489 96.7102 131.531C96.5154 131.574 96.3123 131.559 96.1255 131.49C95.9386 131.42 95.7757 131.298 95.6564 131.138C95.5371 130.978 95.4664 130.787 95.4527 130.588H95.4354Z" fill="#E0E0E0"/>
<path d="M98.7438 131.097H97.7923L97.6055 131.554H97.2422L98.1003 129.651H98.4463L99.3078 131.554H98.9376L98.7438 131.097ZM98.6262 130.82L98.2802 129.99L97.9342 130.82H98.6262Z" fill="#E0E0E0"/>
<path d="M101.239 129.637V131.554H100.945L99.9065 130.263V131.554H99.5605V129.651H99.8512L100.889 130.938V129.651L101.239 129.637Z" fill="#E0E0E0"/>
<path d="M101.611 130.588C101.624 130.389 101.695 130.197 101.815 130.036C101.934 129.876 102.097 129.753 102.285 129.683C102.473 129.614 102.676 129.599 102.872 129.643C103.067 129.686 103.246 129.785 103.386 129.927L103.158 130.142C103.093 130.071 103.015 130.015 102.927 129.976C102.84 129.937 102.745 129.917 102.649 129.917C102.557 129.91 102.465 129.923 102.378 129.953C102.291 129.984 102.211 130.032 102.144 130.095C102.076 130.158 102.023 130.234 101.986 130.319C101.949 130.403 101.93 130.494 101.93 130.587C101.93 130.679 101.949 130.77 101.986 130.855C102.023 130.939 102.076 131.015 102.144 131.078C102.211 131.141 102.291 131.189 102.378 131.22C102.465 131.25 102.557 131.263 102.649 131.256C102.745 131.257 102.84 131.238 102.928 131.199C103.016 131.16 103.094 131.103 103.158 131.031L103.386 131.249C103.29 131.354 103.173 131.436 103.042 131.491C102.911 131.546 102.77 131.572 102.629 131.567C102.497 131.574 102.365 131.553 102.241 131.506C102.117 131.46 102.005 131.388 101.909 131.297C101.814 131.205 101.739 131.095 101.687 130.973C101.636 130.851 101.61 130.72 101.611 130.588Z" fill="#E0E0E0"/>
<path d="M105.154 131.242V131.554H103.725V129.651H105.109V129.945H104.071V130.44H104.991V130.73H104.071V131.256L105.154 131.242Z" fill="#E0E0E0"/>
<path d="M105.562 129.637H105.908V131.239H106.902V131.554H105.562V129.637Z" fill="#E0E0E0"/>
<path d="M145.106 121.018C145.106 121.07 132.037 121.108 115.921 121.108C99.8039 121.108 86.7285 121.07 86.7285 121.018C86.7285 120.966 99.7969 120.928 115.921 120.928C132.044 120.928 145.106 120.969 145.106 121.018Z" fill="#E0E0E0"/>
<path d="M139.02 125H116.807C115.452 125 114.354 126.098 114.354 127.453V133.989C114.354 135.344 115.452 136.442 116.807 136.442H139.02C140.375 136.442 141.473 135.344 141.473 133.989V127.453C141.473 126.098 140.375 125 139.02 125Z" fill="#FE4A78"/>
<path d="M125.874 129.814C125.874 129.983 125.833 130.142 125.752 130.29C125.673 130.438 125.548 130.558 125.375 130.648C125.206 130.739 124.991 130.784 124.731 130.784H124.2V132H123.565V128.834H124.731C124.976 128.834 125.185 128.876 125.357 128.961C125.529 129.046 125.658 129.162 125.743 129.31C125.83 129.458 125.874 129.626 125.874 129.814ZM124.704 130.272C124.879 130.272 125.009 130.232 125.094 130.154C125.179 130.072 125.221 129.959 125.221 129.814C125.221 129.505 125.049 129.351 124.704 129.351H124.2V130.272H124.704ZM128.569 131.397H127.308L127.099 132H126.432L127.571 128.829H128.31L129.449 132H128.778L128.569 131.397ZM128.397 130.889L127.938 129.564L127.48 130.889H128.397ZM132.694 128.834L131.624 130.898V132H130.989V130.898L129.914 128.834H130.63L131.311 130.281L131.987 128.834H132.694Z" fill="white"/>
<g clip-path="url(#clip1_2_4788)">
<path d="M53.506 166.208C53.1222 166.208 52.8111 166.519 52.8111 166.903C52.8111 167.287 53.1222 167.598 53.506 167.598H78.6781C79.0619 167.598 79.373 167.287 79.373 166.903C79.373 166.519 79.0619 166.208 78.6781 166.208H53.506ZM3.23906 167.598H19.0681C19.4388 167.598 19.7631 167.331 19.7631 167.01V166.796C19.7631 166.475 19.4542 166.208 19.0681 166.208H3.23906C2.86843 166.208 2.54413 166.475 2.54413 166.796V167.01C2.54413 167.331 2.85299 167.598 3.23906 167.598Z" fill="#FF5645"/>
<path d="M53.346 166.227C53.3974 166.215 53.451 166.209 53.5061 166.209H78.5688C78.5854 166.124 78.5938 166.017 78.5914 165.879C78.5741 165.772 78.5719 165.648 78.5389 165.525C78.3406 164.787 78.1004 164.297 77.3978 163.861C76.6951 163.426 75.9778 163.037 75.2305 162.695C72.4741 161.399 71.5322 161.415 69.7198 160.227C68.9697 159.73 68.2801 159.155 67.636 158.533C67.2066 158.119 66.3299 157.445 65.0059 156.512L51.5757 156.731L53.346 166.227ZM3.15476 166.213C3.18252 166.21 3.21068 166.209 3.23911 166.209H19.0151L17.7668 158.331L6.70962 156.833L3.15476 166.213Z" fill="#444444"/>
<path d="M35.4064 106.55C39.0135 117.702 41.7534 126.183 45.5439 137.9L47.8666 147.363C48.0359 148.303 49.0049 148.935 50.0048 148.765L61.7569 146.777C62.7567 146.608 63.4335 145.698 63.2489 144.758C62.8028 142.524 62.4183 140.551 62.0953 138.887C61.5415 136.082 61.28 134.725 60.9724 132.999C60.7878 131.951 60.6339 131.073 60.5417 130.487C56.973 111.3 53.6812 96.5666 51.8968 88.5526C51.1431 85.1159 49.6971 78.6276 44.7287 72.0469C44.4056 71.6308 44.1441 71.3072 43.9903 71.1068C43.7605 70.8716 43.5175 70.6664 43.2667 70.4875C43.2724 70.4323 43.2781 70.377 43.2838 70.3217C42.0329 69.426 40.98 68.3613 35.9765 68.0679C35.8529 68.0679 35.7139 68.0524 35.5904 68.0524C30.7413 67.8826 26.2474 70.4307 24.0545 74.4922L20.3018 81.4261C19.7613 82.4144 19.3753 83.4645 19.1591 84.5456L6.29768 145.644C6.12954 146.442 6.61207 147.234 7.39909 147.451L19.4988 150.781C20.4871 151.043 21.5218 150.503 21.7998 149.591L22.7418 146.565C25.6142 138.457 28.4249 129.979 31.1274 121.176C32.6432 116.224 34.0672 111.346 35.4064 106.55Z" fill="#FFCB3D"/>
<path d="M23.0393 83.8651C23.0393 83.8651 26.6524 94.2536 24.268 94.4833C24.268 94.4833 22.9493 93.5855 22.1869 91.0884L21.5644 86.5096L23.0393 83.8651Z" fill="#482D1F"/>
<path opacity="0.2" d="M42.5454 69.9985C42.5822 70.0253 42.619 70.0519 42.6561 70.0784C42.162 74.9097 41.4645 79.3251 40.955 84.1564C40.9468 84.1852 40.9386 84.214 40.9304 84.2428C40.9286 84.2991 40.9252 84.3506 40.9202 84.397C40.7766 85.7121 38.9268 93.1349 35.3709 106.665C39.5242 119.503 41.4239 125.027 45.5771 137.865L47.8999 147.328C48.0691 148.268 49.0381 148.9 50.038 148.73L61.7901 146.742C62.7899 146.573 63.4667 145.663 63.2821 144.723C62.8361 142.489 62.4515 140.516 62.1285 138.852C61.5747 136.047 61.3132 134.69 61.0056 132.964C60.821 131.916 60.6671 131.038 60.5749 130.452C57.0062 111.265 53.7144 96.5316 51.93 88.5176C51.1763 85.0808 49.7303 78.5926 44.7619 72.0119C44.4388 71.5957 44.1773 71.2721 44.0235 71.0718C43.5683 70.6059 43.0616 70.2578 42.5454 69.9985Z" fill="#8C2A00"/>
<path d="M40.1369 45.6742C39.5895 45.5164 39.0166 45.3965 38.4206 45.3194L37.5469 45.2121C36.4636 45.0726 35.4516 45.1269 34.5188 45.3346C34.4083 45.3197 34.2941 45.3057 34.1765 45.2929C32.5859 45.1234 30.393 45.1851 28.3391 46.2791C28.0611 46.4331 27.4356 46.9478 26.8687 47.4512C25.1783 48.9525 25.5439 48.6674 23.4745 52.1959C22.9649 53.0588 22.3255 54.0213 21.8467 55.069C21.8433 55.0412 21.8388 55.0967 21.8467 55.069C21.7708 55.2784 21.7295 55.5043 21.7295 55.7399C21.7295 56.8291 22.6112 57.798 23.7029 57.798C24.6323 57.798 25.4992 57.1933 25.7105 56.3309C25.6674 56.4928 25.652 56.566 25.652 56.7414C25.652 57.5954 26.1076 58.3731 26.8687 58.6474L26.3635 63.4307C26.3582 63.6008 26.3547 63.7556 26.3341 63.9238C26.2555 64.6904 26.2545 65.8391 26.8122 66.7458C27.5891 68.0211 28.7468 69.8709 34.4412 70.6322C40.5649 71.4461 42.2429 69.9445 43.3397 68.8683C44.0983 68.1387 44.3871 67.1806 44.5001 66.3872C44.5208 66.219 44.5549 66.0679 44.5908 65.9016L46.1155 58.9526C46.2911 59.8625 47.0934 60.5497 48.0565 60.5497C49.1482 60.5497 50.0332 59.6667 50.0332 58.5774C50.0332 58.0983 49.862 57.659 49.5772 57.3173C49.4512 56.5465 49.3253 55.8468 49.1993 55.2184C48.319 50.9965 47.3152 49.6251 47.3152 49.6251C46.8056 48.9163 46.3114 48.4541 46.0798 48.2383C44.3811 46.6359 42.2808 46.0041 40.7056 45.7576C40.507 45.7231 40.3169 45.6959 40.1369 45.6742Z" fill="#FF5645"/>
<path d="M65.0055 156.514L61.6509 146.797L49.8886 148.795L51.6834 157.3L65.0055 156.514ZM18.4495 150.494L8.67543 147.782L6.70922 156.834L17.7664 158.332L18.4495 150.494ZM40.6221 43.1205C40.6639 43.1341 40.7065 43.1478 40.7498 43.1618C42.0779 43.5932 42.0006 43.5624 42.0933 43.5932C43.0816 43.8089 43.9156 43.7319 44.07 43.701C45.3518 43.5316 46.7262 41.0816 47.1895 37.6455C47.2358 37.3682 47.2358 37.0908 47.2513 36.8135L47.2049 34.0553C47.2049 33.439 47.0351 32.8381 46.7262 32.3142C46.6953 32.2525 46.6644 32.2063 46.6335 32.1601C46.5254 32.006 46.4173 31.8519 46.3092 31.7287C45.8923 31.2356 45.3981 30.8812 44.8885 30.6347C43.6839 30.1416 42.3249 30.0954 41.5682 30.2032C41.4601 30.2186 41.1204 30.2648 40.6417 30.3265C40.1938 30.4343 39.7614 30.496 39.3136 30.5114C39.0665 30.5268 38.8811 30.7425 38.8811 30.989C38.9738 33.3722 39.0253 34.6871 39.0356 34.9336C39.051 35.3034 38.109 34.5022 37.692 34.4868C36.9508 34.4714 36.0242 35.6732 35.7925 36.4437C35.5455 37.2449 35.8389 38.0615 36.3331 38.57C36.6882 38.9244 37.1052 39.0785 37.3832 39.1555C37.5067 39.1555 37.6457 39.2788 37.692 39.4329C37.692 39.4329 37.692 39.4483 37.7075 39.4637L36.75 41.2973C36.7346 41.3435 36.7191 41.359 36.7191 41.359C36.7191 41.359 36.7334 41.3667 36.7594 41.3807L36.2095 41.2665L35.7617 45.1841C35.7617 45.1841 36.7837 45.4709 37.9518 45.5924C38.7305 45.6734 39.5138 45.7191 40.3018 45.7295L40.6221 43.1205ZM50.0289 58.6717C49.9807 59.7183 49.1151 60.552 48.0543 60.552C47.0912 60.552 46.2889 59.8647 46.1133 58.9549L44.5886 65.9038C44.5527 66.0702 44.5185 66.2212 44.4979 66.3895C44.4196 66.9392 44.2569 67.5681 43.912 68.1452C46.2125 71.8286 49.6162 75.204 53.8204 73.3039C59.1317 70.9035 65.0288 66.5287 71.5116 60.1797C71.8301 60.0063 72.2043 59.7804 72.5865 59.493C73.5726 58.7534 74.0208 58.0292 75.491 55.2711C76.9432 52.5284 77.7114 48.4509 77.4783 47.4339C77.4245 47.2798 76.9019 46.649 76.2924 47.2345C75.629 47.8663 73.5009 51.3574 72.5507 52.9753C72.5385 52.9957 72.5255 53.0159 72.5117 53.0359C72.7512 52.0136 72.6603 51.055 71.6822 50.7131C71.6822 50.7131 70.6033 52.6463 69.3892 54.7992C69.16 54.9351 68.9379 55.0835 68.7303 55.2487C66.3994 56.3949 54.3251 62.3352 52.7496 63.1699L50.0289 58.6717ZM32.0573 59.6448C31.8813 59.696 31.6952 59.7235 31.5027 59.7235C30.411 59.7235 29.526 58.8405 29.526 57.7512C29.526 57.6024 29.5425 57.4575 29.5738 57.3181L29.5686 57.3167C29.3448 58.1611 28.5739 58.7836 27.6574 58.7836C26.5657 58.7836 25.6807 57.9005 25.6807 56.8113C25.6807 56.6359 25.7036 56.4659 25.7467 56.304L25.6551 56.2797C25.4438 57.1421 24.6642 57.782 23.7348 57.782C23.4139 57.782 23.1108 57.7057 22.8428 57.5702C18.2972 71.6946 15.7272 80.855 15.1329 85.0514C15.0989 85.1906 15.0736 85.3406 15.0571 85.5013C14.7922 88.0807 15.3768 92.0977 16.811 97.5522C16.8231 97.5845 21.3603 100.215 24.8014 98.5005L22.6241 86.0666L32.0573 59.6448Z" fill="#DB9E75"/>
<path opacity="0.176986" d="M40.3024 45.7275C43.989 46.8572 46.4802 49.717 47.0148 52.7727C47.1624 53.5981 47.1032 54.4601 46.9098 55.2747L46.1215 58.8676C46.2322 59.8522 47.0694 60.6177 48.0858 60.6177C49.1775 60.6177 50.0625 59.7346 50.0625 58.6454C50.0625 58.16 49.8868 57.7088 49.5953 57.3577C49.4425 56.3506 49.4003 56.1432 49.2286 55.2863C48.3483 51.0644 47.3445 49.693 47.3445 49.693C46.8349 48.9842 46.32 48.4844 46.0883 48.2687C44.3896 46.6662 42.4077 46.0349 40.8325 45.7883C40.6553 45.7576 40.4769 45.7388 40.3024 45.7275Z" fill="#444444"/>
<path opacity="0.2" d="M50.0289 58.6693C49.9807 59.7159 49.1151 60.5496 48.0543 60.5496C47.0912 60.5496 46.2889 59.8623 46.1133 58.9525L44.5886 65.9014C44.5527 66.0678 44.5185 66.2188 44.4979 66.3871C44.4196 66.9368 44.2569 67.5657 43.912 68.1428C46.2125 71.8262 49.6162 75.2016 53.8204 73.3015C59.1317 70.901 65.0288 66.5263 71.5116 60.1773C71.8301 60.0039 72.2043 59.778 72.5865 59.4906C73.5726 58.751 74.0208 58.0268 75.491 55.2687C76.9432 52.526 77.7114 48.4485 77.4783 47.4315C77.4245 47.2774 76.9019 46.6466 76.2924 47.2321C75.629 47.8639 73.5009 51.355 72.5507 52.9728C72.5385 52.9933 72.5255 53.0135 72.5117 53.0334C72.7512 52.0112 72.6603 51.0526 71.6822 50.7107C71.6822 50.7107 70.6033 52.6439 69.3892 54.7968C69.16 54.9326 68.9379 55.0811 68.7303 55.2463C66.3994 56.3925 54.3251 62.3328 52.7496 63.1675L50.0289 58.6693Z" fill="#8C2A00"/>
<path d="M37.895 39.0534L37.8165 39.061C37.6157 39.0148 36.9825 38.9223 36.4884 38.4138C35.9942 37.9208 35.7008 37.1041 35.9633 36.3029C36.1949 35.5324 36.9362 34.9007 37.6775 34.9161C38.0944 34.9315 38.4342 35.1318 38.4805 35.1626C39.021 35.517 39.2681 36.0101 39.2681 36.0101L39.4215 36.356C39.4754 36.2711 39.5273 36.1914 39.577 36.118C40.658 34.9161 41.739 33.7296 42.8354 32.5278C43.4531 32.6819 44.4724 32.8205 45.6306 32.5432C46.0012 32.4507 46.3255 32.2658 46.6035 32.1118C46.4954 31.9577 46.3873 31.8036 46.2792 31.6803C45.8623 31.1872 45.3681 30.8328 44.8585 30.5863C43.6539 30.0932 42.2949 30.047 41.5382 30.1549C41.4301 30.1703 41.0904 30.2165 40.6116 30.2781C40.4726 30.2936 40.3337 30.309 40.1638 30.3244C39.7623 30.3552 39.4534 30.386 39.2681 30.4014C36.9208 30.5555 36.0096 30.2936 34.836 30.9407C34.6198 31.064 34.1256 31.3567 33.7086 31.896C33.0602 32.7421 32.8637 33.6998 32.835 34.4951L32.8284 34.4847C32.8284 34.4847 31.6701 38.4909 33.2144 40.5094C33.6756 41.1121 33.9825 41.5939 34.1861 41.9733C33.8337 42.212 33.428 42.5018 32.9982 42.8361C31.8863 43.7297 32.782 45.5017 34.1565 45.1319L35.8275 44.6784L36.0312 42.8633C37.859 41.8026 37.8584 39.6173 37.8373 39.161C37.8564 39.1253 37.8756 39.0895 37.895 39.0534Z" fill="#482D1F"/>
<path d="M40.4591 44.5499L38.8199 42.6643L40.6289 43.1193L40.4591 44.5499Z" fill="#482D1F"/>
<path d="M46.1847 37.397C46.1538 37.659 46.092 38.1212 46.2156 38.3216C46.4163 38.6451 46.9568 37.9055 46.8642 37.3816C46.8178 37.1659 46.7097 37.0735 46.5862 37.0735C46.3854 37.0581 46.2156 37.1967 46.1847 37.397ZM42.8644 37.1043C42.8335 37.3662 42.7718 37.8285 42.8953 38.0288C43.0961 38.3524 43.6366 37.6128 43.5439 37.0889C43.4976 36.8732 43.3895 36.7807 43.2659 36.7807C43.0652 36.7653 42.8953 36.904 42.8644 37.1043ZM45.4273 37.4294C45.4197 37.3445 45.3446 37.2818 45.2597 37.2895C45.1747 37.2971 45.1121 37.3722 45.1197 37.4571L45.2581 38.9841C45.2581 39.0036 45.237 39.03 45.2308 39.0305C45.1262 39.0385 45.062 39.0385 44.7983 39.0335C44.6736 39.0311 44.5877 39.03 44.4859 39.03C44.4007 39.03 44.3315 39.0991 44.3315 39.1844C44.3315 39.2697 44.4007 39.3389 44.4859 39.3389C44.5853 39.3389 44.6695 39.3399 44.7924 39.3423C45.0675 39.3475 45.136 39.3475 45.2427 39.3389C45.4244 39.3389 45.567 39.1611 45.5663 38.9702L45.4273 37.4294ZM44.2543 40.2168C44.4087 40.2784 44.9029 40.4633 45.0882 40.2784C45.1654 40.2014 45.3044 39.9394 45.3044 39.9394C45.3044 39.9394 44.8875 39.9394 44.3933 39.8624C44.1153 39.8162 43.9146 39.7545 43.8528 39.8316C43.8373 39.847 43.8528 39.8932 43.8528 39.924C43.8837 40.0781 44.1462 40.186 44.2543 40.2168Z" fill="#482D1F"/>
<path d="M40.5954 36.2785L39.6434 36.0299C39.5259 35.9992 39.4082 36.0795 39.3805 36.2093C39.3527 36.3391 39.4254 36.4692 39.5429 36.4999L40.4427 36.7348C40.4107 36.8836 40.3938 37.038 40.3938 37.1963C40.3938 38.4051 41.3757 39.3849 42.5867 39.3849C43.6456 39.3849 44.5293 38.6358 44.7346 37.6396L45.2294 37.6736C45.2777 38.8397 46.2403 39.7701 47.4204 39.7701C48.6314 39.7701 49.6133 38.7904 49.6133 37.5815C49.6133 36.3727 48.6314 35.393 47.4204 35.393C46.3358 35.393 45.435 36.1788 45.2587 37.2112L44.7795 37.1783C44.7698 35.9778 43.7917 35.0078 42.5867 35.0078C41.7041 35.0078 40.9432 35.5282 40.5954 36.2785ZM45.6998 37.404C45.7889 36.5347 46.5251 35.8563 47.4204 35.8563C48.3757 35.8563 49.15 36.6288 49.15 37.5815C49.15 38.5343 48.3757 39.3068 47.4204 39.3068C46.465 39.3068 45.6908 38.5343 45.6908 37.5815C45.6908 37.5678 45.6909 37.554 45.6912 37.5403C45.6991 37.5196 45.7041 37.4974 45.7057 37.4742C45.7073 37.45 45.7052 37.4264 45.6998 37.404ZM42.5867 38.9216C41.6314 38.9216 40.8571 38.149 40.8571 37.1963C40.8571 36.2436 41.6314 35.4711 42.5867 35.4711C43.5421 35.4711 44.3163 36.2436 44.3163 37.1963C44.3163 38.149 43.5421 38.9216 42.5867 38.9216Z" fill="#482D1F"/>
<path d="M21.6986 93.3867C21.6829 93.2597 21.5672 93.1695 21.4403 93.1852C21.3133 93.201 21.2231 93.3166 21.2388 93.4436C21.3374 94.2394 21.4337 94.8553 21.6633 96.2247C21.8918 97.5877 21.9874 98.1991 22.0849 98.9862C22.1006 99.1132 22.2163 99.2033 22.3432 99.1876C22.4702 99.1719 22.5604 99.0562 22.5447 98.9293C22.4461 98.1335 22.3498 97.5175 22.1202 96.1481C21.8917 94.7852 21.7961 94.1737 21.6986 93.3867ZM18.6213 92.4915C18.5977 92.3658 18.4767 92.2829 18.3509 92.3065C18.2252 92.3301 18.1424 92.4511 18.1659 92.5768C18.327 93.4364 18.4368 94.1055 18.6695 95.5976C18.9029 97.0944 19.0132 97.7667 19.1754 98.6324C19.199 98.7581 19.32 98.841 19.4458 98.8174C19.5715 98.7938 19.6544 98.6728 19.6308 98.5471C19.4697 97.6874 19.36 97.0184 19.1272 95.5263C18.8938 94.0295 18.7835 93.3572 18.6213 92.4915ZM33.7235 57.8477C33.7268 57.8441 33.7301 57.8403 33.7332 57.8365C34.317 57.1225 34.8595 56.2508 35.295 55.2557C35.3463 55.1385 35.2928 55.0019 35.1756 54.9506C35.0584 54.8994 34.9218 54.9528 34.8705 55.07C34.4525 56.0252 33.9323 56.8611 33.3746 57.5432C33.3367 57.5895 33.3197 57.6461 33.3225 57.7015C33.284 57.7429 33.2605 57.7984 33.2605 57.8593C33.2605 57.9087 33.2553 57.9592 33.2447 58.0193C33.24 58.0458 33.2343 58.074 33.2267 58.109C33.2224 58.1289 33.2066 58.1993 33.2061 58.202C33.06 58.7571 32.6348 59.1998 32.0909 59.3807C31.9695 59.4211 31.9038 59.5522 31.9442 59.6736C31.9846 59.795 32.1157 59.8607 32.2371 59.8203C32.928 59.5905 33.4683 59.0278 33.6565 58.3103C33.6557 58.3136 33.6743 58.2309 33.6794 58.2077C33.6882 58.1672 33.695 58.1332 33.7009 58.1C33.716 58.015 33.7238 57.9382 33.7238 57.8593C33.7238 57.8554 33.7237 57.8515 33.7235 57.8477Z" fill="#482D1F"/>
<path d="M77.9279 40.2815L71.8904 39.1647C71.3986 39.0737 70.9261 39.3987 70.8352 39.8905L68.1647 54.3269C68.0738 54.8187 68.3987 55.2911 68.8905 55.3821L74.928 56.4989C75.4198 56.5898 75.8922 56.2649 75.9832 55.7731L78.6536 41.3367C78.7446 40.8449 78.4196 40.3725 77.9279 40.2815Z" fill="white" stroke="#263238" stroke-width="0.356273" stroke-miterlimit="10"/>
<path d="M78.4514 42.4708L78.6601 41.3352C78.6823 41.2183 78.6811 41.0981 78.6567 40.9816C78.6322 40.8651 78.5848 40.7546 78.5174 40.6565C78.4499 40.5584 78.3637 40.4746 78.2637 40.4101C78.1636 40.3455 78.0518 40.3014 77.9346 40.2803L71.8967 39.1638C71.6606 39.1201 71.4168 39.172 71.219 39.3081C71.0212 39.4441 70.8855 39.6531 70.8417 39.8892L70.6307 41.0247L78.4514 42.4708Z" fill="#263238" stroke="#263238" stroke-width="0.356273" stroke-miterlimit="10"/>
<path d="M68.3033 53.625L68.1729 54.3243C68.1514 54.4422 68.1535 54.5632 68.179 54.6803C68.2044 54.7973 68.2529 54.9082 68.3214 55.0065C68.3899 55.1048 68.4772 55.1885 68.5783 55.2529C68.6794 55.3173 68.7921 55.361 68.9102 55.3816L74.9482 56.4982C75.0652 56.5198 75.1854 56.518 75.3018 56.4931C75.4182 56.4682 75.5286 56.4206 75.6265 56.353C75.7245 56.2854 75.8082 56.1992 75.8728 56.0992C75.9374 55.9992 75.9817 55.8875 76.0031 55.7704L76.1335 55.0592L68.3033 53.625Z" fill="#263238" stroke="#263238" stroke-width="0.356273" stroke-miterlimit="10"/>
</g>
</g>
<defs>
<clipPath id="clip0_2_4788">
<rect width="173" height="173" fill="white"/>
</clipPath>
<clipPath id="clip1_2_4788">
<rect width="76.9061" height="137.597" fill="white" transform="matrix(-1 0 0 1 79.3789 30)"/>
</clipPath>
</defs>
</svg>
