<svg width="190" height="147" viewBox="0 0 190 147" fill="none" xmlns="http://www.w3.org/2000/svg">
<g clip-path="url(#clip0_2_4588)">
<path d="M97.1383 79.0049H110.043L111.402 63.0667H98.4973L97.1383 79.0049Z" fill="white" stroke="#263238" stroke-width="0.117456" stroke-miterlimit="10"/>
<path d="M99.7516 79.0054H112.657L111.199 60.1851H98.2941L99.7516 79.0054Z" fill="white" stroke="#263238" stroke-width="0.117456" stroke-miterlimit="10"/>
<g clip-path="url(#clip1_2_4588)">
<path d="M102.698 75.8235H100.613V77.9086H102.698V75.8235Z" fill="white"/>
<path d="M100.961 76.1704H101.309V75.8229H100.961V76.1704Z" fill="#E34980"/>
<path d="M100.612 76.1704H100.96V75.8229H100.612V76.1704Z" fill="#FD4A78"/>
<path d="M102.351 76.865H102.699V76.5175H102.351V76.865Z" fill="#9C3F96"/>
<path d="M100.961 77.9084H101.309V77.5609H100.961V77.9084Z" fill="#69BAA2"/>
<path d="M100.612 77.9084H100.96V77.5609H100.612V77.9084Z" fill="#17D4D0"/>
<path d="M102.005 76.865H102.353V76.5175H102.005V76.865Z" fill="#8E3688"/>
<path d="M100.961 77.2134H101.309V76.8658H100.961V77.2134Z" fill="#22578B"/>
<path d="M100.612 77.2134H100.96V76.8658H100.612V77.2134Z" fill="#3071A1"/>
<path d="M100.612 76.5188H100.96V76.1713H100.612V76.5188Z" fill="#78368D"/>
<path d="M102.005 76.1704H102.353V75.8229H102.005V76.1704Z" fill="#87368C"/>
<path d="M102.005 76.5188H102.353V76.1713H102.005V76.5188Z" fill="#763589"/>
<path d="M101.307 77.9084H101.655V77.5609H101.307V77.9084Z" fill="#4BA493"/>
<path d="M101.307 77.5608H101.655V77.2133H101.307V77.5608Z" fill="#3780B1"/>
<path d="M100.612 77.5608H100.96V77.2133H100.612V77.5608Z" fill="#4CA48D"/>
<path d="M102.005 77.2134H102.353V76.8658H102.005V77.2134Z" fill="#AF275D"/>
<path d="M101.307 76.1704H101.655V75.8229H101.307V76.1704Z" fill="#BC357B"/>
<path d="M100.961 77.5608H101.309V77.2133H100.961V77.5608Z" fill="#266099"/>
<path d="M100.612 76.865H100.96V76.5175H100.612V76.865Z" fill="#224E9C"/>
<path d="M102.005 77.9084H102.353V77.5609H102.005V77.9084Z" fill="#EA8541"/>
<path d="M102.351 77.2134H102.699V76.8658H102.351V77.2134Z" fill="#E94059"/>
<path d="M102.351 76.1755H102.699V75.8232H102.351V76.1755Z" fill="#2F709E"/>
<path d="M101.307 76.865H101.655V76.5175H101.307V76.865Z" fill="#83236D"/>
<path d="M102.351 77.9084H102.699V77.5609H102.351V77.9084Z" fill="#F7DD30"/>
<path d="M102.005 77.5608H102.353V77.2133H102.005V77.5608Z" fill="#DB385E"/>
<path d="M102.351 77.5608H102.699V77.2133H102.351V77.5608Z" fill="#EF9938"/>
<path d="M101.656 76.1704H102.004V75.8229H101.656V76.1704Z" fill="#A9358A"/>
<path d="M101.307 77.2134H101.655V76.8658H101.307V77.2134Z" fill="#111E71"/>
<path d="M100.961 76.865H101.309V76.5175H100.961V76.865Z" fill="#2D338B"/>
<path d="M102.351 76.5225H102.699V76.1749H102.351V76.5225Z" fill="#6C64A8"/>
<path d="M101.656 77.9084H102.004V77.5609H101.656V77.9084Z" fill="#E65B3A"/>
<path d="M101.656 77.5608H102.004V77.2133H101.656V77.5608Z" fill="#68378B"/>
<path d="M101.656 76.8657H102.004V76.5182H101.656V76.8657Z" fill="#400B4D"/>
<path d="M101.656 77.2134H102.004V76.8658H101.656V77.2134Z" fill="#58114C"/>
<path d="M100.961 76.5188H101.309V76.1713H100.961V76.5188Z" fill="#8D3687"/>
<path d="M101.656 76.5188H102.004V76.1713H101.656V76.5188Z" fill="#931F36"/>
<path d="M101.307 76.5188H101.655V76.1713H101.307V76.5188Z" fill="#AF2655"/>
<path d="M101.875 76.9353C101.888 76.945 101.894 76.9438 101.908 76.9456C101.97 76.9466 102.029 76.9456 102.091 76.9456C102.167 76.9456 102.243 76.9451 102.32 76.9456C102.327 76.9453 102.337 76.9456 102.345 76.9456C102.345 76.9493 102.344 76.9529 102.343 76.9565C102.328 77.0175 102.314 77.0788 102.289 77.1371C102.24 77.2533 102.166 77.3501 102.064 77.4244C101.964 77.4971 101.852 77.5408 101.729 77.5544C101.582 77.5707 101.444 77.5416 101.316 77.4681C101.211 77.4075 101.127 77.3241 101.065 77.2187C101.005 77.1154 100.972 77.0039 100.97 76.8841C100.967 76.7604 100.995 76.6435 101.053 76.5342C101.127 76.3982 101.234 76.2989 101.374 76.2345C101.484 76.184 101.599 76.1656 101.72 76.1767C101.842 76.1881 101.953 76.2297 102.053 76.2999C102.13 76.3541 102.195 76.4241 102.244 76.5053L102.256 76.5269L102.1 76.6146C102.096 76.6103 102.094 76.607 102.091 76.6033C102.036 76.5108 101.96 76.4413 101.861 76.3974C101.776 76.3597 101.688 76.3463 101.596 76.3579C101.481 76.3724 101.382 76.4203 101.3 76.5025C101.182 76.6223 101.134 76.7675 101.155 76.9341C101.168 77.0449 101.215 77.1414 101.293 77.2214C101.377 77.3071 101.479 77.3585 101.598 77.3727C101.754 77.3911 101.888 77.3437 102.003 77.2387C102.034 77.2102 102.061 77.1773 102.083 77.1411C102.085 77.1379 102.095 77.1226 102.097 77.1176C102.092 77.1176 102.08 77.1176 102.076 77.1176C102.022 77.1176 101.962 77.1175 101.908 77.1176C101.897 77.1176 101.88 77.1383 101.874 77.1447C101.862 77.1574 101.843 77.1602 101.826 77.1606C101.781 77.1606 101.733 77.1604 101.687 77.1599C101.672 77.1597 101.671 77.1595 101.654 77.1588C101.641 77.1581 101.625 77.1513 101.616 77.1408C101.601 77.1243 101.594 77.0936 101.589 77.0709C101.588 77.0698 101.587 77.0656 101.586 77.0623H101.624C101.677 77.0623 101.726 77.0623 101.777 77.0622C101.849 77.0608 101.921 77.0629 101.993 77.0623C102.032 77.062 102.072 77.0621 102.111 77.0619C102.121 77.0619 102.128 77.059 102.132 77.0485C102.135 77.0369 102.138 77.0258 102.142 77.0143C102.143 77.0107 102.143 77.0067 102.144 77.001C102.138 77.0005 102.133 77.0008 102.127 77.0007C102.054 77.0007 101.98 77.0007 101.908 77.0007C101.894 77.0019 101.888 77.0028 101.877 77.0122C101.867 77.0193 101.861 77.0247 101.854 77.0292C101.847 77.0335 101.837 77.0336 101.827 77.0337C101.754 77.0331 101.673 77.0343 101.6 77.034C101.597 77.034 101.593 77.034 101.591 77.034C101.587 77.0328 101.587 77.0313 101.587 77.0288C101.587 77.0272 101.587 77.0257 101.588 77.0244C101.589 77.0232 101.591 77.0222 101.592 77.0215C101.597 77.0212 101.603 77.0211 101.609 77.0212C101.651 77.0215 101.692 77.0205 101.734 77.0209C101.739 77.0209 101.746 77.0209 101.752 77.0209C101.749 77.0134 101.749 77.0055 101.752 76.998C101.747 76.998 101.743 76.998 101.739 76.998C101.694 76.9974 101.649 76.9985 101.604 76.998C101.601 76.998 101.597 76.998 101.594 76.998C101.589 76.998 101.587 76.9952 101.587 76.9905C101.587 76.9857 101.587 76.9852 101.592 76.985C101.595 76.9849 101.597 76.9849 101.599 76.9849C101.643 76.9858 101.686 76.9844 101.729 76.985C101.736 76.9851 101.744 76.985 101.752 76.985C101.75 76.9776 101.75 76.9697 101.752 76.9623C101.746 76.962 101.741 76.9623 101.736 76.9623C101.695 76.9618 101.653 76.9627 101.612 76.9623C101.608 76.9623 101.603 76.9623 101.599 76.9623C101.593 76.9623 101.587 76.9628 101.587 76.9552C101.587 76.9482 101.592 76.9493 101.597 76.9493C101.602 76.9493 101.61 76.9493 101.616 76.9493C101.657 76.9499 101.695 76.9487 101.737 76.9493C101.741 76.9493 101.746 76.9493 101.752 76.9493C101.749 76.9406 101.749 76.936 101.752 76.9265C101.744 76.9265 101.709 76.9266 101.701 76.9265C101.661 76.9262 101.646 76.9268 101.605 76.9264C101.601 76.9266 101.597 76.9266 101.593 76.9264C101.591 76.9252 101.587 76.923 101.587 76.9201C101.586 76.9147 101.589 76.9141 101.594 76.9134C101.596 76.913 101.612 76.9134 101.615 76.9134C101.689 76.9137 101.752 76.9124 101.826 76.9134C101.837 76.9143 101.847 76.914 101.855 76.9195L101.875 76.9353Z" fill="white"/>
</g>
<path d="M103.606 76.6882C103.597 76.6882 103.589 76.6855 103.584 76.6802C103.579 76.6744 103.577 76.6663 103.577 76.6561V76.417L103.59 76.4586L103.407 76.2063C103.402 76.2 103.4 76.1937 103.4 76.1874C103.401 76.1806 103.403 76.175 103.408 76.1706C103.413 76.1663 103.419 76.1641 103.427 76.1641C103.434 76.1641 103.44 76.1658 103.445 76.1692C103.451 76.1721 103.456 76.1769 103.46 76.1837L103.615 76.3981H103.6L103.755 76.1837C103.761 76.1765 103.766 76.1714 103.77 76.1684C103.775 76.1655 103.781 76.1641 103.788 76.1641C103.796 76.1641 103.802 76.1663 103.806 76.1706C103.811 76.1745 103.813 76.1799 103.813 76.1867C103.813 76.193 103.811 76.1998 103.806 76.2071L103.624 76.4586L103.636 76.417V76.6561C103.636 76.6775 103.626 76.6882 103.606 76.6882ZM103.935 76.6897C103.911 76.6897 103.889 76.685 103.869 76.6758C103.85 76.6661 103.835 76.653 103.824 76.6365C103.813 76.6199 103.807 76.6015 103.807 76.581C103.807 76.5548 103.814 76.5341 103.827 76.5191C103.841 76.504 103.863 76.4933 103.893 76.487C103.924 76.4807 103.967 76.4775 104.02 76.4775H104.053V76.5162H104.021C103.982 76.5162 103.95 76.5181 103.928 76.522C103.905 76.5254 103.889 76.5315 103.88 76.5402C103.871 76.549 103.867 76.5614 103.867 76.5774C103.867 76.5973 103.874 76.6136 103.888 76.6262C103.902 76.6389 103.921 76.6452 103.944 76.6452C103.964 76.6452 103.981 76.6406 103.995 76.6313C104.01 76.6221 104.022 76.6095 104.03 76.5934C104.039 76.5774 104.044 76.5589 104.044 76.538V76.4549C104.044 76.4248 104.037 76.4032 104.025 76.3901C104.013 76.3764 103.993 76.3696 103.966 76.3696C103.948 76.3696 103.931 76.3718 103.914 76.3762C103.897 76.3806 103.879 76.3876 103.861 76.3973C103.854 76.4007 103.848 76.402 103.843 76.401C103.838 76.3995 103.834 76.3969 103.831 76.393C103.828 76.3891 103.827 76.3847 103.826 76.3798C103.826 76.3745 103.827 76.3694 103.829 76.3645C103.832 76.3597 103.836 76.3558 103.842 76.3529C103.864 76.3422 103.885 76.3344 103.906 76.3295C103.927 76.3247 103.947 76.3223 103.966 76.3223C103.996 76.3223 104.021 76.3274 104.041 76.3376C104.061 76.3473 104.076 76.3624 104.086 76.3828C104.096 76.4027 104.1 76.4284 104.1 76.46V76.6576C104.1 76.6673 104.098 76.6748 104.093 76.6802C104.089 76.6855 104.082 76.6882 104.073 76.6882C104.064 76.6882 104.057 76.6855 104.052 76.6802C104.047 76.6748 104.045 76.6673 104.045 76.6576V76.6007H104.052C104.048 76.6192 104.04 76.635 104.029 76.6481C104.018 76.6612 104.005 76.6714 103.989 76.6787C103.973 76.686 103.955 76.6897 103.935 76.6897ZM104.318 76.6897C104.283 76.6897 104.256 76.679 104.238 76.6576C104.219 76.6362 104.21 76.6056 104.21 76.5657V76.194C104.21 76.1842 104.212 76.1769 104.217 76.1721C104.222 76.1667 104.229 76.1641 104.239 76.1641C104.248 76.1641 104.256 76.1667 104.261 76.1721C104.266 76.1769 104.269 76.1842 104.269 76.194V76.5614C104.269 76.5876 104.274 76.6073 104.284 76.6204C104.295 76.633 104.311 76.6394 104.331 76.6394C104.335 76.6394 104.339 76.6391 104.343 76.6386C104.346 76.6382 104.349 76.6379 104.353 76.6379C104.358 76.6374 104.362 76.6386 104.364 76.6416C104.366 76.6445 104.367 76.6503 104.367 76.659C104.367 76.6678 104.365 76.6744 104.362 76.6787C104.358 76.6831 104.351 76.686 104.343 76.6875C104.339 76.688 104.335 76.6885 104.33 76.6889C104.326 76.6894 104.322 76.6897 104.318 76.6897ZM104.534 76.6897C104.499 76.6897 104.472 76.679 104.453 76.6576C104.435 76.6362 104.426 76.6056 104.426 76.5657V76.194C104.426 76.1842 104.428 76.1769 104.433 76.1721C104.438 76.1667 104.445 76.1641 104.455 76.1641C104.464 76.1641 104.471 76.1667 104.477 76.1721C104.482 76.1769 104.485 76.1842 104.485 76.194V76.5614C104.485 76.5876 104.49 76.6073 104.5 76.6204C104.511 76.633 104.526 76.6394 104.547 76.6394C104.551 76.6394 104.555 76.6391 104.558 76.6386C104.562 76.6382 104.565 76.6379 104.569 76.6379C104.574 76.6374 104.577 76.6386 104.579 76.6416C104.582 76.6445 104.583 76.6503 104.583 76.659C104.583 76.6678 104.581 76.6744 104.577 76.6787C104.573 76.6831 104.567 76.686 104.558 76.6875C104.554 76.688 104.55 76.6885 104.546 76.6889C104.542 76.6894 104.537 76.6897 104.534 76.6897ZM104.753 76.6897C104.729 76.6897 104.707 76.685 104.687 76.6758C104.668 76.6661 104.653 76.653 104.642 76.6365C104.631 76.6199 104.625 76.6015 104.625 76.581C104.625 76.5548 104.632 76.5341 104.645 76.5191C104.659 76.504 104.681 76.4933 104.711 76.487C104.742 76.4807 104.785 76.4775 104.838 76.4775H104.871V76.5162H104.839C104.8 76.5162 104.768 76.5181 104.746 76.522C104.723 76.5254 104.707 76.5315 104.698 76.5402C104.689 76.549 104.685 76.5614 104.685 76.5774C104.685 76.5973 104.692 76.6136 104.705 76.6262C104.72 76.6389 104.739 76.6452 104.762 76.6452C104.782 76.6452 104.799 76.6406 104.813 76.6313C104.828 76.6221 104.84 76.6095 104.848 76.5934C104.857 76.5774 104.861 76.5589 104.861 76.538V76.4549C104.861 76.4248 104.855 76.4032 104.843 76.3901C104.831 76.3764 104.811 76.3696 104.783 76.3696C104.766 76.3696 104.749 76.3718 104.732 76.3762C104.715 76.3806 104.697 76.3876 104.679 76.3973C104.672 76.4007 104.666 76.402 104.661 76.401C104.656 76.3995 104.652 76.3969 104.649 76.393C104.646 76.3891 104.645 76.3847 104.644 76.3798C104.644 76.3745 104.645 76.3694 104.647 76.3645C104.65 76.3597 104.654 76.3558 104.66 76.3529C104.682 76.3422 104.703 76.3344 104.724 76.3295C104.745 76.3247 104.765 76.3223 104.783 76.3223C104.814 76.3223 104.839 76.3274 104.859 76.3376C104.879 76.3473 104.894 76.3624 104.904 76.3828C104.913 76.4027 104.918 76.4284 104.918 76.46V76.6576C104.918 76.6673 104.916 76.6748 104.911 76.6802C104.907 76.6855 104.9 76.6882 104.891 76.6882C104.882 76.6882 104.875 76.6855 104.87 76.6802C104.865 76.6748 104.863 76.6673 104.863 76.6576V76.6007H104.87C104.866 76.6192 104.858 76.635 104.847 76.6481C104.836 76.6612 104.823 76.6714 104.807 76.6787C104.791 76.686 104.773 76.6897 104.753 76.6897ZM105.271 76.6897C105.216 76.6897 105.169 76.6792 105.131 76.6583C105.094 76.6374 105.066 76.6073 105.046 76.5679C105.027 76.5286 105.017 76.4814 105.017 76.4265C105.017 76.3857 105.022 76.349 105.033 76.3164C105.044 76.2839 105.06 76.2564 105.081 76.234C105.102 76.2112 105.128 76.1937 105.158 76.1816C105.189 76.1689 105.224 76.1626 105.262 76.1626C105.293 76.1626 105.322 76.167 105.351 76.1757C105.38 76.184 105.405 76.1974 105.427 76.2158C105.433 76.2202 105.437 76.2251 105.438 76.2304C105.44 76.2358 105.44 76.2411 105.438 76.2464C105.436 76.2518 105.433 76.2564 105.43 76.2603C105.426 76.2637 105.422 76.2656 105.416 76.2661C105.41 76.2666 105.405 76.2649 105.399 76.261C105.379 76.2455 105.358 76.2343 105.336 76.2275C105.313 76.2202 105.288 76.2166 105.261 76.2166C105.222 76.2166 105.189 76.2248 105.162 76.2413C105.135 76.2579 105.115 76.2817 105.101 76.3128C105.087 76.3439 105.08 76.3818 105.08 76.4265C105.08 76.4945 105.096 76.5465 105.128 76.5825C105.16 76.6185 105.208 76.6365 105.272 76.6365C105.295 76.6365 105.318 76.6343 105.341 76.6299C105.363 76.625 105.384 76.6185 105.404 76.6102L105.391 76.6445V76.463H105.287C105.278 76.463 105.271 76.4608 105.267 76.4564C105.263 76.452 105.26 76.4462 105.26 76.4389C105.26 76.4311 105.263 76.4253 105.267 76.4214C105.271 76.4175 105.278 76.4156 105.287 76.4156H105.417C105.425 76.4156 105.432 76.4178 105.436 76.4221C105.441 76.4265 105.443 76.4328 105.443 76.4411V76.6313C105.443 76.6386 105.441 76.6447 105.439 76.6496C105.437 76.6544 105.432 76.6581 105.427 76.6605C105.406 76.6688 105.382 76.6758 105.353 76.6816C105.325 76.687 105.297 76.6897 105.271 76.6897ZM105.587 76.6882C105.577 76.6882 105.569 76.6855 105.564 76.6802C105.559 76.6748 105.557 76.6673 105.557 76.6576V76.3536C105.557 76.3439 105.559 76.3366 105.564 76.3317C105.569 76.3264 105.576 76.3237 105.585 76.3237C105.595 76.3237 105.602 76.3264 105.606 76.3317C105.612 76.3366 105.614 76.3439 105.614 76.3536V76.4127H105.607C105.615 76.384 105.63 76.3619 105.652 76.3463C105.673 76.3308 105.7 76.3225 105.733 76.3215C105.74 76.321 105.746 76.3227 105.75 76.3266C105.754 76.33 105.757 76.3361 105.757 76.3449C105.758 76.3531 105.756 76.3597 105.751 76.3645C105.747 76.3694 105.74 76.3723 105.731 76.3733L105.719 76.3747C105.686 76.3777 105.661 76.3884 105.643 76.4068C105.625 76.4248 105.617 76.4496 105.617 76.4812V76.6576C105.617 76.6673 105.614 76.6748 105.609 76.6802C105.604 76.6855 105.596 76.6882 105.587 76.6882ZM105.943 76.6897C105.915 76.6897 105.891 76.6846 105.872 76.6744C105.854 76.6637 105.839 76.6479 105.83 76.627C105.821 76.6061 105.816 76.5801 105.816 76.549V76.3536C105.816 76.3434 105.818 76.3359 105.823 76.331C105.829 76.3261 105.836 76.3237 105.845 76.3237C105.855 76.3237 105.862 76.3261 105.867 76.331C105.872 76.3359 105.875 76.3434 105.875 76.3536V76.5482C105.875 76.5793 105.881 76.6027 105.894 76.6182C105.907 76.6333 105.927 76.6408 105.955 76.6408C105.985 76.6408 106.01 76.6306 106.029 76.6102C106.048 76.5898 106.057 76.5631 106.057 76.53V76.3536C106.057 76.3434 106.06 76.3359 106.065 76.331C106.07 76.3261 106.077 76.3237 106.087 76.3237C106.096 76.3237 106.103 76.3261 106.108 76.331C106.114 76.3359 106.116 76.3434 106.116 76.3536V76.6576C106.116 76.678 106.107 76.6882 106.088 76.6882C106.079 76.6882 106.071 76.6855 106.066 76.6802C106.061 76.6748 106.059 76.6673 106.059 76.6576V76.5913L106.068 76.6015C106.058 76.6301 106.042 76.652 106.02 76.6671C105.998 76.6821 105.973 76.6897 105.943 76.6897ZM106.406 76.6897C106.374 76.6897 106.346 76.6814 106.323 76.6649C106.3 76.6484 106.285 76.6262 106.277 76.5985L106.285 76.5905V76.6576C106.285 76.6673 106.282 76.6748 106.277 76.6802C106.272 76.6855 106.265 76.6882 106.256 76.6882C106.246 76.6882 106.239 76.6855 106.234 76.6802C106.229 76.6748 106.227 76.6673 106.227 76.6576V76.194C106.227 76.1842 106.229 76.1769 106.234 76.1721C106.239 76.1667 106.246 76.1641 106.256 76.1641C106.265 76.1641 106.272 76.1667 106.278 76.1721C106.283 76.1769 106.286 76.1842 106.286 76.194V76.4112H106.277C106.285 76.384 106.301 76.3624 106.324 76.3463C106.347 76.3303 106.374 76.3223 106.406 76.3223C106.438 76.3223 106.466 76.3298 106.489 76.3449C106.512 76.3594 106.53 76.3806 106.543 76.4083C106.556 76.4355 106.563 76.4681 106.563 76.506C106.563 76.5434 106.556 76.5759 106.543 76.6036C106.53 76.6309 106.512 76.652 106.488 76.6671C106.465 76.6821 106.438 76.6897 106.406 76.6897ZM106.394 76.6423C106.416 76.6423 106.435 76.6369 106.451 76.6262C106.468 76.6156 106.48 76.6 106.489 76.5796C106.498 76.5592 106.503 76.5346 106.503 76.506C106.503 76.4617 106.493 76.428 106.473 76.4046C106.454 76.3813 106.427 76.3696 106.394 76.3696C106.372 76.3696 106.353 76.375 106.336 76.3857C106.32 76.3959 106.307 76.4112 106.297 76.4316C106.289 76.4515 106.284 76.4763 106.284 76.506C106.284 76.5497 106.294 76.5835 106.314 76.6073C106.334 76.6306 106.361 76.6423 106.394 76.6423Z" fill="#3A3A3A"/>
<path d="M99.9568 63.4873C99.8514 63.4916 99.7469 63.4666 99.6548 63.4151C99.574 63.3644 99.5136 63.287 99.4841 63.1963C99.4473 63.0864 99.4325 62.9704 99.4403 62.8549L99.7664 62.7936C99.7618 62.8631 99.7654 62.9329 99.7774 63.0015C99.7854 63.0531 99.8073 63.1015 99.8408 63.1416C99.8755 63.175 99.9218 63.1937 99.9699 63.1937C100.018 63.1937 100.064 63.175 100.099 63.1416C100.128 63.1013 100.145 63.0534 100.147 63.0037C100.157 62.9279 100.142 62.8509 100.103 62.7849C100.062 62.7214 100.013 62.6633 99.9568 62.612L99.7161 62.3931C99.6517 62.3341 99.599 62.2636 99.5607 62.1852C99.521 62.096 99.5059 61.9978 99.5169 61.9007C99.519 61.8304 99.5352 61.7613 99.5645 61.6974C99.5939 61.6335 99.6357 61.5761 99.6876 61.5287C99.7988 61.4373 99.94 61.3905 100.084 61.3974C100.165 61.3937 100.246 61.4086 100.32 61.4412C100.378 61.4672 100.428 61.5098 100.462 61.5637C100.497 61.6179 100.521 61.678 100.535 61.741C100.549 61.813 100.555 61.8864 100.552 61.9598L100.23 62.0145C100.236 61.9578 100.236 61.9006 100.23 61.8438C100.226 61.8005 100.21 61.7594 100.182 61.7257C100.167 61.7104 100.148 61.6986 100.128 61.6911C100.107 61.6835 100.086 61.6804 100.064 61.6819C100.039 61.6807 100.015 61.685 99.9922 61.6945C99.9695 61.704 99.9492 61.7183 99.9327 61.7366C99.8995 61.7742 99.8801 61.8221 99.878 61.8723C99.8705 61.9307 99.8804 61.9901 99.9065 62.043C99.9376 62.0935 99.976 62.1392 100.02 62.1787L100.257 62.3975C100.336 62.4683 100.402 62.5519 100.454 62.6448C100.508 62.7515 100.53 62.8716 100.517 62.9906C100.51 63.0823 100.481 63.171 100.432 63.2488C100.384 63.3241 100.318 63.3858 100.239 63.4282C100.151 63.4714 100.054 63.4917 99.9568 63.4873Z" fill="black"/>
<path d="M101.242 63.4874C101.121 63.4956 101.001 63.4649 100.898 63.3999C100.818 63.3412 100.761 63.2559 100.739 63.1592C100.712 63.0437 100.704 62.9248 100.714 62.8068L100.771 62.0781C100.779 61.9537 100.805 61.8312 100.85 61.7148C100.888 61.6164 100.957 61.5333 101.047 61.4785C101.156 61.4175 101.279 61.3886 101.404 61.3953C101.517 61.3888 101.629 61.413 101.73 61.4653C101.805 61.5123 101.861 61.5856 101.885 61.6711C101.913 61.7722 101.921 61.8775 101.912 61.9818L101.898 62.1525H101.539L101.553 61.9774C101.557 61.925 101.557 61.8723 101.553 61.8199C101.552 61.7793 101.538 61.74 101.513 61.7083C101.496 61.6923 101.475 61.6804 101.452 61.6732C101.429 61.6661 101.406 61.6638 101.382 61.6667C101.33 61.6637 101.279 61.6792 101.237 61.7104C101.206 61.7434 101.183 61.7841 101.172 61.8286C101.16 61.8842 101.152 61.9405 101.148 61.9971L101.078 62.8856C101.071 62.946 101.071 63.0069 101.078 63.0673C101.082 63.1093 101.101 63.1483 101.132 63.1767C101.169 63.2021 101.213 63.2144 101.257 63.2117C101.282 63.2143 101.306 63.2118 101.33 63.2042C101.353 63.1967 101.375 63.1843 101.393 63.1679C101.423 63.1356 101.444 63.0954 101.452 63.0519C101.463 62.9978 101.47 62.943 101.474 62.8878L101.489 62.704H101.846V62.8659C101.838 62.9764 101.813 63.085 101.771 63.1876C101.734 63.2776 101.67 63.3539 101.588 63.4065C101.482 63.4654 101.362 63.4934 101.242 63.4874Z" fill="black"/>
<path d="M101.949 63.4588L102.516 61.417H102.915L103.164 63.4588H102.82L102.774 62.9883H102.42L102.3 63.4588H101.949ZM102.477 62.7497H102.753L102.68 61.8941L102.477 62.7497Z" fill="black"/>
<path d="M103.357 63.4588L103.514 61.417H103.775L104.182 62.5812L104.272 61.417H104.58L104.42 63.4588H104.173L103.768 62.2398L103.674 63.4588H103.357Z" fill="black"/>
<path d="M105.349 63.4588L105.508 61.417H105.878L105.813 62.2727H106.228L106.294 61.417H106.668L106.508 63.4588H106.136L106.206 62.5375H105.791L105.721 63.4588H105.349Z" fill="black"/>
<path d="M106.823 63.4588L106.981 61.417H107.838L107.819 61.6796H107.335L107.289 62.2661H107.67L107.65 62.5265H107.269L107.217 63.2027H107.705L107.685 63.4588H106.823Z" fill="black"/>
<path d="M107.902 63.4592L108.061 61.4175H108.55C108.667 61.414 108.784 61.4303 108.895 61.4656C108.982 61.4942 109.055 61.5544 109.099 61.6341C109.147 61.7348 109.164 61.8474 109.149 61.958C109.144 62.0323 109.13 62.1058 109.108 62.1768C109.09 62.2389 109.06 62.2965 109.018 62.3453C108.975 62.3934 108.921 62.4302 108.86 62.4526L109.068 63.4571H108.694L108.519 62.5226H108.348L108.276 63.4571L107.902 63.4592ZM108.366 62.2906H108.482C108.542 62.2931 108.602 62.2819 108.657 62.2578C108.702 62.238 108.738 62.2021 108.757 62.1571C108.781 62.1009 108.796 62.0409 108.799 61.9799C108.812 61.901 108.798 61.82 108.76 61.7501C108.733 61.7189 108.699 61.6951 108.661 61.6813C108.622 61.6675 108.581 61.664 108.541 61.6713H108.405L108.366 62.2906Z" fill="black"/>
<path d="M109.312 63.4588L109.472 61.417H110.327L110.308 61.6796H109.824L109.778 62.2661H110.159L110.139 62.5265H109.758L109.706 63.2027H110.196L110.174 63.4588H109.312Z" fill="black"/>
<path d="M106.385 72.3617C106.368 72.1144 106.348 71.8649 106.328 71.6155H105.958C105.958 71.4885 105.939 71.366 105.93 71.2412H106.3L106.271 70.8692H105.525C105.514 70.7423 105.505 70.6197 105.494 70.4972H105.125C105.125 70.6219 105.142 70.7445 105.153 70.867H104.779C104.759 70.6175 104.742 70.3702 104.722 70.123H103.604C103.604 70.2455 103.623 70.3702 103.632 70.495H103.271C103.271 70.3702 103.251 70.2477 103.243 70.123H103.612L103.584 69.7487H104.321C104.302 69.4993 104.282 69.2542 104.265 69.0069H105.383C105.383 69.1316 105.403 69.2542 105.411 69.3789H106.153C106.173 69.6284 106.193 69.8735 106.212 70.1251H105.842C105.842 70.2499 105.862 70.3724 105.871 70.4972H106.241C106.252 70.6241 106.26 70.7467 106.271 70.8692H106.643C106.632 70.7445 106.624 70.6219 106.615 70.4972H107.731C107.731 70.3702 107.714 70.2499 107.703 70.1251H106.586L106.368 67.1423H105.993C106.022 67.5012 106.048 67.8601 106.077 68.219V68.2584H105.705C105.687 68.0133 105.667 67.766 105.648 67.5166H105.276C105.295 67.7638 105.315 68.0111 105.333 68.2628H104.96C104.96 68.3854 104.978 68.5101 104.989 68.6348H103.124C103.124 68.7618 103.144 68.8821 103.155 69.0069H102.781L102.809 69.3833H103.179C103.179 69.5102 103.199 69.6328 103.208 69.7575H102.833C102.853 70.0048 102.873 70.2521 102.892 70.5037H102.518C102.538 70.751 102.558 70.9983 102.577 71.25H102.943C102.962 71.4995 102.98 71.7446 103 71.9962H102.63L102.658 72.3683H101.914C101.925 72.493 101.934 72.6156 101.943 72.7403H103.052L103.111 73.4844H103.49C103.479 73.364 103.47 73.2415 103.459 73.1145H104.208C104.208 72.992 104.188 72.8694 104.177 72.7425H104.549C104.549 72.6178 104.532 72.4952 104.521 72.3705H103.779L103.75 71.9984H105.61L105.639 72.3683H106.385V72.3617ZM104.063 71.2434C104.063 71.1209 104.044 70.9961 104.035 70.8736H104.405C104.416 70.9983 104.424 71.1209 104.433 71.2434H104.063C104.063 71.3682 104.081 71.4907 104.092 71.6155H103.348C103.348 71.4907 103.33 71.3682 103.319 71.2434H104.063ZM104.803 71.2566H105.173C105.173 71.3813 105.192 71.5038 105.201 71.6264H104.831C104.829 71.4907 104.82 71.3704 104.803 71.2566ZM103.91 69.3876H103.542C103.542 69.2629 103.523 69.1404 103.514 69.02H103.882C103.899 69.1316 103.908 69.2542 103.917 69.3767L103.91 69.3876Z" fill="#263238"/>
<path d="M109.421 68.258C109.352 67.3827 109.285 66.5146 109.219 65.6538H106.613C106.682 66.5204 106.749 67.3885 106.814 68.258H109.421ZM108.874 66.0258L109.018 67.886H107.158L107.013 66.0258H108.874Z" fill="#263238"/>
<path d="M101.597 68.2602H104.203C104.135 67.3848 104.07 66.5248 104.002 65.6538H101.395C101.463 66.5204 101.53 67.3892 101.597 68.2602ZM101.796 66.0258H103.656L103.801 67.886H101.94L101.796 66.0258Z" fill="#263238"/>
<path d="M109.617 70.8713H107.011L107.21 73.4777H109.814C109.756 72.6111 109.69 71.7423 109.617 70.8713ZM107.429 71.2565H109.289L109.433 73.1167H107.573L107.429 71.2565Z" fill="#263238"/>
<path d="M105.981 67.1441C105.961 66.8968 105.941 66.6495 105.922 66.3979H106.294C106.274 66.1484 106.256 65.9033 106.237 65.6538H104.377C104.396 65.9011 104.414 66.1462 104.433 66.3957H104.801C104.812 66.5204 104.821 66.643 104.832 66.7699H104.462C104.482 67.0194 104.501 67.2645 104.519 67.514H104.891C104.891 67.3914 104.871 67.2689 104.862 67.1441H105.239C105.228 67.0194 105.219 66.8968 105.21 66.7721H105.582C105.582 66.8925 105.6 67.015 105.611 67.1419H105.985L105.981 67.1441ZM105.543 66.3957H105.173C105.173 66.2709 105.153 66.1484 105.145 66.0258H105.512C105.53 66.1484 105.539 66.2709 105.55 66.3957H105.543Z" fill="#263238"/>
<path d="M107.62 69.0066C107.62 69.1291 107.638 69.2517 107.649 69.3786H106.905C106.905 69.5034 106.922 69.6259 106.933 69.7507H108.049C108.069 70.0001 108.086 70.2474 108.106 70.4969H109.596L109.537 69.755H109.17C109.17 69.8776 109.187 69.998 109.198 70.1227H108.45L108.364 69.0066H107.62Z" fill="#263238"/>
<path d="M106.388 72.3613C106.388 72.4839 106.405 72.6064 106.416 72.7334H106.044C106.044 72.8581 106.064 72.9807 106.073 73.1054H105.701C105.701 73.2323 105.72 73.3549 105.729 73.4796H106.843C106.814 73.1076 106.786 72.7377 106.758 72.3613H106.388Z" fill="#263238"/>
<path d="M108.363 69.0073H109.107C109.118 69.132 109.127 69.2546 109.136 69.3793H109.508C109.488 69.132 109.47 68.8869 109.451 68.6375H108.335L108.363 69.0073Z" fill="#263238"/>
<path d="M101.712 69.7504H102.082C102.062 69.5031 102.045 69.258 102.025 69.0085H102.395C102.384 68.8816 102.375 68.759 102.364 68.6343H101.624L101.712 69.7504Z" fill="#263238"/>
<path d="M107.617 69.0073L107.589 68.6375H106.845C106.856 68.76 106.864 68.8804 106.875 69.0073H107.617Z" fill="#263238"/>
<path d="M102.511 70.4987L102.483 70.1267H102.113C102.113 70.2493 102.13 70.3718 102.141 70.4966H102.511V70.4987Z" fill="#263238"/>
<path d="M102.176 70.8713H101.808C101.808 70.9961 101.826 71.1164 101.837 71.2412H102.204C102.176 71.1186 102.176 70.9983 102.176 70.8713Z" fill="#263238"/>
<path d="M104.948 68.2627L104.919 67.8906H104.55C104.55 68.0132 104.569 68.1357 104.578 68.2605H104.948V68.2627Z" fill="#263238"/>
<path d="M106.335 71.6152H106.707C106.696 71.4926 106.687 71.3701 106.676 71.2432H106.306C106.317 71.3679 106.326 71.4926 106.335 71.6174V71.6152Z" fill="#263238"/>
<path d="M102.63 71.9895C102.619 71.8669 102.61 71.7444 102.601 71.6196H102.229C102.24 71.74 102.249 71.8625 102.258 71.9895H102.63Z" fill="#263238"/>
<path d="M102.802 69.3804H102.432C102.432 69.5029 102.45 69.6255 102.461 69.7524H102.835C102.835 69.6277 102.815 69.5029 102.807 69.3782L102.802 69.3804Z" fill="#263238"/>
<path d="M104.954 73.1062H105.324C105.324 72.9836 105.304 72.8611 105.295 72.7385H104.926C104.937 72.8589 104.945 72.9814 104.954 73.1062Z" fill="#263238"/>
<path d="M104.208 73.1072C104.208 73.2297 104.228 73.3523 104.237 73.477H104.606C104.606 73.3545 104.589 73.2341 104.578 73.1072H104.208Z" fill="#263238"/>
<path d="M102 73.4802H102.367C102.367 73.3555 102.35 73.2351 102.339 73.1104H101.971C101.98 73.2263 101.989 73.3555 102 73.4802Z" fill="#263238"/>
<path d="M104.721 70.1245H105.091C105.091 70.0019 105.074 69.8794 105.063 69.7546H104.693C104.693 69.8772 104.713 70.0019 104.721 70.1245Z" fill="#263238"/>
<path d="M107.505 67.5141H108.619C108.591 67.142 108.562 66.7722 108.532 66.4001H107.418C107.446 66.77 107.475 67.1398 107.505 67.5141Z" fill="#263238"/>
<path d="M103.399 67.5138L103.314 66.3977H102.198L102.285 67.5138H103.399Z" fill="#263238"/>
<path d="M109.025 72.734L108.94 71.6179H107.826L107.911 72.734H109.025Z" fill="#263238"/>
<path d="M108.068 64.7705H109.699L109.839 66.5716" stroke="#92E3A9" stroke-width="0.117456" stroke-miterlimit="10"/>
<path d="M102.132 64.7705H100.5L100.64 66.5716" stroke="#92E3A9" stroke-width="0.117456" stroke-miterlimit="10"/>
<path d="M108.805 74.252H110.438L110.298 72.4509" stroke="#92E3A9" stroke-width="0.117456" stroke-miterlimit="10"/>
<path d="M102.867 74.252H101.237L101.097 72.4509" stroke="#92E3A9" stroke-width="0.117456" stroke-miterlimit="10"/>
<g style="mix-blend-mode:multiply" opacity="0.5">
<path d="M190 113.973H0V117.1H190V113.973Z" fill="#C2D1F4"/>
</g>
<path d="M83.7859 88.1975H64.0334V91.9975H83.7859V88.1975Z" fill="#6B3934"/>
<path d="M76.4906 82.9268H71.7596V89.4741H76.4906V82.9268Z" fill="#6B3934"/>
<path d="M115.074 101.574H92.8328V105.374H115.074V101.574Z" fill="#6B3934"/>
<path d="M99.4134 82.7856H97.3082V101.797H99.4134V82.7856Z" fill="#6B3934"/>
<path d="M110.593 82.7856H108.488V101.797H110.593V82.7856Z" fill="#6B3934"/>
<path d="M68.0434 82.5205C68.0434 82.5205 63.8634 84.1431 64.7982 87.7683C65.6456 91.0819 71.604 90.6791 71.851 89.2883C71.851 89.2883 76.696 92.5335 80.6328 90.0483C84.5696 87.5631 80.3896 82.7979 80.3896 82.7979L68.0434 82.5205Z" fill="#F46852"/>
<path d="M68.7136 89.2651C70.4471 89.2651 71.8524 88.36 71.8524 87.2435C71.8524 86.127 70.4471 85.2219 68.7136 85.2219C66.9801 85.2219 65.5748 86.127 65.5748 87.2435C65.5748 88.36 66.9801 89.2651 68.7136 89.2651Z" fill="#DD3F37"/>
<path d="M76.963 90.0327C78.9882 90.0327 80.6299 88.9558 80.6299 87.6273C80.6299 86.2989 78.9882 85.2219 76.963 85.2219C74.9377 85.2219 73.296 86.2989 73.296 87.6273C73.296 88.9558 74.9377 90.0327 76.963 90.0327Z" fill="#DD3F37"/>
<path d="M67.166 85.5838C67.166 85.5838 65.437 89.741 68.0438 93.541H69.9438C69.9438 93.541 69.8678 87.0392 71.0458 86.0208C71.0268 86.0208 69.6664 84.9264 67.166 85.5838Z" fill="#FFA894"/>
<path d="M75.6166 85.7777C75.6166 85.7777 76.882 92.7811 76.8706 94.3011H79.0366C79.0366 94.3011 79.865 87.2179 79.0366 86.1881C79.0366 86.1881 77.7712 85.0747 75.6166 85.7777Z" fill="#FFA894"/>
<path d="M68.0436 93.54C68.0436 93.54 66.4742 97.1652 68.0436 97.4768C69.613 97.7884 69.8714 95.82 69.9436 93.54H68.0436Z" fill="#F46852"/>
<path d="M76.8857 94.2996H79.0365C79.0365 94.2996 80.6249 97.4079 79.6255 97.7195C78.6261 98.0311 76.8857 95.8195 76.8857 94.2996Z" fill="#F46852"/>
<path d="M95.8392 91.4507C95.8392 91.4507 91.91 93.5825 93.0652 98.6707C94.1178 103.333 101.828 103.421 102.945 101.559C104.475 102.336 106.177 102.712 107.892 102.651C109.607 102.59 111.279 102.094 112.749 101.209C116.895 98.7733 112.445 91.6749 112.445 91.6749L95.8392 91.4507Z" fill="#38438B"/>
<path d="M101.84 97.959C101.84 99.5322 100.651 101.504 98.4964 101.504C96.3418 101.504 94.0352 99.5322 94.0352 97.959C94.0352 96.3858 95.7832 95.1128 97.9378 95.1128C100.092 95.1128 101.84 96.3896 101.84 97.959Z" fill="#2C3977"/>
<path d="M112.747 97.959C112.747 99.5322 110.706 101.402 108.187 101.402C105.667 101.402 103.627 99.5322 103.627 97.959C103.627 96.3858 105.667 95.1128 108.187 95.1128C110.706 95.1128 112.747 96.3896 112.747 97.959Z" fill="#2C3977"/>
<path d="M53.4099 137.696H52.1673L49.6821 111.176H53.4099V137.696Z" fill="#6B3934"/>
<path d="M30.2518 111.176H54.15V107.376H30.2518V111.176Z" fill="#6B3934"/>
<path d="M30.2491 137.696H31.4917L33.9769 111.176H30.2491V137.696Z" fill="#6B3934"/>
<path d="M30.8653 109.276L32.0813 109.014L26.5295 84.0178L25.3135 84.28L30.8653 109.276Z" fill="#6B3934"/>
<path d="M25.4858 85.0851C25.6293 85.7562 26.2897 86.1839 26.9608 86.0404C27.6319 85.8969 28.0596 85.2365 27.9161 84.5654L25.1429 71.5966C24.9994 70.9255 24.339 70.4978 23.6679 70.6413C22.9968 70.7848 22.5691 71.4452 22.7126 72.1162L25.4858 85.0851Z" fill="#6B3934"/>
<path d="M148.324 137.696H149.566L152.052 111.176H148.324V137.696Z" fill="#6B3934"/>
<path d="M173.97 107.377H147.586V111.177H173.97V107.377Z" fill="#6B3934"/>
<path d="M166.744 146.253C167.107 146.253 167.387 146.011 167.373 145.721V145.527C167.373 145.237 167.079 144.995 166.744 144.995H152.423C152.073 144.995 151.794 145.237 151.794 145.527V145.721C151.794 146.011 152.087 146.253 152.423 146.253H166.744ZM148.077 144.995H125.862C125.515 144.995 125.233 145.277 125.233 145.624C125.233 145.971 125.515 146.253 125.862 146.253H148.077C148.425 146.253 148.706 145.971 148.706 145.624C148.706 145.277 148.425 144.995 148.077 144.995Z" fill="#DE3190"/>
<path d="M148.891 112.097L150.084 112.73L150.102 113.28C150.135 114.693 150.189 115.934 150.262 117.029C150.315 117.89 151.045 127.648 151.309 131.229C151.364 132.041 151.94 132.748 152.756 132.997C153.987 133.383 154.776 133.607 157.997 133.828C158.206 133.847 158.416 133.842 158.612 133.836C161.749 133.699 163.328 133.311 163.683 133.176C164.136 133.007 164.376 132.929 164.621 132.729C165.484 132.047 165.469 130.917 165.497 130.501C165.668 127.754 166.138 120.196 166.411 113.909C166.662 113.819 166.898 113.692 167.102 113.509C167.938 112.755 169.099 111.885 169.734 110.403C171.531 106.208 171.722 101.526 170.309 96.3559C169.203 93.9636 168.459 92.665 168.078 92.4602L138.814 94.459C138.545 94.4531 138.275 94.4473 138.004 94.4414C134.469 94.3778 131.605 97.1367 131.689 100.506C131.689 100.531 131.689 100.544 131.689 100.569C131.912 111.02 134.525 125.908 134.707 130.942C134.721 131.133 134.777 131.552 135.07 131.997C135.978 133.358 138.102 133.053 143.062 133.167C147.282 133.269 148.986 133.574 149.852 132.455C150.328 131.845 150.314 131.145 150.3 130.828C149.96 124.556 149.468 118.226 148.891 112.097Z" fill="#3ABF7C"/>
<path opacity="0.176986" d="M148.839 112.092L150.032 112.724L149.712 102.652C149.718 102.1 149.767 98.7633 152.621 96.7378C154.7 95.2749 157.161 95.2612 158.797 95.2559C159.723 95.2516 163.026 95.1924 164.33 96.7378C166.571 99.3933 166.767 104.372 166.724 105.077C166.646 106.486 166.554 108.68 166.464 111.23C166.433 112.083 166.397 112.984 166.357 113.913C166.612 113.823 166.853 113.695 167.06 113.509C167.896 112.755 169.057 111.885 169.692 110.403C171.489 106.208 171.68 101.526 170.267 96.3559C169.161 93.9636 168.417 92.665 168.036 92.4602L139.036 94.4409C139.843 94.4585 140.647 94.4761 141.458 94.4936C144.602 94.5699 147.214 96.8457 147.55 99.8206C148.005 103.76 148.442 107.878 148.839 112.092Z" fill="#444444"/>
<path d="M152.162 145.068C152.254 145.022 152.363 144.995 152.479 144.995H166.628L163.335 136.418L153.428 136.915C153.428 136.915 152.965 139.202 152.162 145.068ZM148.373 145.042L148.468 136.077L137.919 136.216L135.391 138.08C134.818 138.667 134.204 139.184 133.533 139.645C131.912 140.749 131.06 140.735 128.587 141.964C127.902 142.286 127.274 142.649 126.645 143.054C126.337 143.348 125.807 143.907 125.639 144.577C125.611 144.675 125.611 144.787 125.597 144.899C125.597 144.976 125.6 145.035 125.605 145.078C125.697 145.026 125.804 144.995 125.918 144.995H148.133C148.218 144.995 148.299 145.012 148.373 145.042Z" fill="#474961"/>
<path d="M148.096 78.9904C148.33 83.7491 148.858 90.2933 149.336 91.5638C150.061 93.4891 163.962 92.1184 165.813 91.6973C166.97 91.4356 168.049 88.3166 168.248 87.2721C168.418 86.4313 169.358 85.4924 167.307 78.0198C168.205 77.7868 168.941 77.5906 169.34 77.4886C170.958 77.0754 170.246 75.1861 169.959 73.8877C169.138 70.1823 168.109 68.8257 167.757 68.4172C167.353 67.9504 166.962 67.6148 166.701 67.4106C164.942 66.0393 163.078 65.8351 162.127 65.8205C162.101 65.8059 162.075 65.8059 162.049 65.8059L157.422 65.7476C157.438 65.8726 157.454 66.006 157.472 66.1471C157.279 66.1543 157.089 66.1629 156.904 66.1727C156.898 66.0318 156.892 65.9053 156.886 65.7809L152.265 66.6667C152.265 66.6667 149.529 67.3553 148.025 68.9543C147.802 69.1921 147.473 69.5765 147.153 70.087C146.874 70.5334 146.086 71.9918 145.893 75.6293C145.827 76.9037 145.436 78.8109 147.097 78.9198C147.33 78.9351 147.674 78.96 148.096 78.9904Z" fill="#DE3190"/>
<path opacity="0.176986" d="M148.073 78.9889C147.919 75.8003 148.086 73.4904 148.227 72.5714C148.328 71.9141 148.492 71.3059 148.492 71.3059C148.569 70.8739 148.732 70.2656 149.131 69.6239C150.369 67.5681 152.846 66.9149 154.515 66.4556C154.88 66.3577 155.801 66.2575 156.901 66.1992C156.894 66.0484 156.888 65.9113 156.882 65.7791L152.264 66.6648C152.264 66.6648 149.525 67.3551 148.02 68.954C147.798 69.1919 147.469 69.5763 147.148 70.0868C146.87 70.5331 146.081 71.9916 145.889 75.6291C145.823 76.9035 145.431 78.8107 147.093 78.9196C147.322 78.9346 147.659 78.9591 148.073 78.9889Z" fill="#444444"/>
<path d="M141.365 74.3629C140.31 73.3378 138.403 71.7818 135.644 69.6948C134.798 69.7937 134.86 70.4646 135.829 71.7077L141.365 74.3629ZM159.691 79.6473C159.737 79.7535 159.86 79.8021 159.966 79.756C160.072 79.7098 160.121 79.5864 160.075 79.4802C159.804 78.8581 159.696 78.5105 159.486 77.6025C159.46 77.4897 159.348 77.4194 159.235 77.4454C159.122 77.4714 159.052 77.5839 159.078 77.6967C159.293 78.628 159.409 78.9995 159.691 79.6473Z" fill="#482D1F"/>
<path d="M153.426 136.915L163.335 136.418L162.694 133.421C161.863 133.576 160.531 133.753 158.622 133.837C158.426 133.842 158.216 133.847 158.007 133.828C155.544 133.659 154.503 133.489 153.6 133.245L153.426 136.915ZM137.917 136.216L148.466 136.077C148.466 136.077 148.481 135.077 148.488 133.192C147.407 133.378 145.744 133.232 143.072 133.167C141.63 133.134 140.428 133.136 139.426 133.123L137.917 136.216ZM149.071 89.296L148.155 78.9888C147.956 78.9732 147.803 78.9615 147.697 78.9536C147.483 78.9377 147.263 78.9293 147.009 78.8786C146.682 78.8133 146.462 78.732 146.347 78.6347L145.941 81.4055L141.982 74.9358C141.787 74.6174 141.511 74.3568 141.182 74.1809L134.157 70.4296C133.08 69.4198 132.306 68.8351 131.833 68.6758C131.361 68.5164 130.868 68.6737 130.355 69.1477L136.479 75.5649C137.248 77.7906 138.095 80.012 139.019 82.2291C139.943 84.445 141.379 87.6943 143.328 91.9772C140.667 93.4046 139.065 94.5349 139.065 94.5349C139.065 94.5349 158.874 94.1994 166.732 93.7181C173.723 93.2899 170.352 80.3086 169.523 77.4493C169.481 77.4635 169.436 77.4765 169.39 77.4883C167.943 77.858 162.072 79.489 160.087 79.6004L161.993 86.257C157.31 86.5057 152.818 87.8011 149.071 89.296ZM154.474 66.1468C154.127 66.2426 153.709 66.3281 153.335 66.4611C153.646 67.2214 154.078 67.6669 154.632 67.7976C155.464 67.9936 157.454 67.9936 158.762 67.4315C159.634 67.0567 160.291 66.5104 160.731 65.7924C160.225 65.7829 159.749 65.775 159.304 65.7685V60.5841C159.656 60.172 159.964 59.779 160.145 59.4142C160.45 58.8098 160.407 57.2848 160.274 56.5579C160.23 56.2595 158.08 54.1411 156.835 56.2192L156.952 52.639C156.958 52.415 156.793 52.2183 156.555 52.2115C156.067 52.1828 155.581 52.1262 155.061 51.9686C155.006 51.9637 154.951 51.945 154.896 51.9401C154.426 51.8569 151.779 51.4991 150.242 53.3562C150.102 53.5123 149.974 53.6835 149.858 53.8977C149.604 54.3944 149.458 54.9426 149.451 55.503L149.429 57.9976C149.435 58.2506 149.454 58.5048 149.489 58.7463C149.74 60.5354 150.268 62.0262 150.885 62.9919C151.341 63.7189 151.863 64.1574 152.349 64.2139C152.487 64.24 153.24 64.2919 154.14 64.1041C154.199 64.0901 154.183 64.1023 154.55 63.9795L154.474 66.1468Z" fill="#DB9E75"/>
<path d="M161.804 86.3167C161.689 86.3059 161.586 86.3905 161.575 86.5057C161.565 86.6209 161.649 86.7232 161.764 86.734C161.792 86.7366 161.845 86.7426 161.92 86.7527C162.048 86.7697 162.19 86.7922 162.343 86.8207C162.779 86.9021 163.216 87.0156 163.621 87.1659C163.861 87.2545 164.082 87.3537 164.282 87.4635C164.383 87.5193 164.511 87.4823 164.566 87.3809C164.622 87.2795 164.585 87.152 164.484 87.0962C164.265 86.9758 164.025 86.8683 163.767 86.7728C163.337 86.6134 162.878 86.4941 162.419 86.4086C162.259 86.3787 162.11 86.3552 161.976 86.3373C161.929 86.331 161.887 86.3258 161.85 86.3217C161.828 86.3192 161.812 86.3176 161.804 86.3167ZM146.106 81.2803C146.043 81.1836 145.913 81.1567 145.816 81.2202C145.719 81.2838 145.692 81.4138 145.756 81.5105C145.762 81.5193 145.762 81.5193 145.789 81.5612C145.817 81.6027 145.848 81.6508 145.884 81.705C145.985 81.8599 146.098 82.0328 146.219 82.2191C146.567 82.7515 146.913 83.2855 147.234 83.7861C147.267 83.8377 147.267 83.8377 147.3 83.8893C147.789 84.6527 147.697 84.4375 147.93 84.8279C147.989 84.9274 148.118 84.96 148.217 84.9008C148.317 84.8415 148.349 84.7129 148.29 84.6134C148.055 84.218 148.145 84.4301 147.653 83.6631C147.62 83.6114 147.62 83.6114 147.587 83.5597C147.265 83.0581 146.918 82.5233 146.571 81.9902C146.449 81.8036 146.336 81.6305 146.234 81.4754C146.199 81.421 146.167 81.3728 146.14 81.3313C146.112 81.2892 146.112 81.2892 146.106 81.2803Z" fill="#482D1F"/>
<path d="M154.492 63.9819L156.562 63.2402L154.492 65.6574L154.492 63.9819Z" fill="#482D1F"/>
<path d="M156.615 57.5036L156.65 57.2458C156.65 57.2458 156.749 56.7496 157.141 56.279C157.171 56.2536 157.435 55.9681 157.81 55.8466C158.486 55.6533 159.324 56.0211 159.744 56.661C160.192 57.3173 160.12 58.1385 159.801 58.7417C159.482 59.3449 158.941 59.5922 158.753 59.6599L157.919 59.845C158.522 60.9807 159.057 61.9958 159.183 61.9958C159.412 61.9958 160.31 60.9322 160.9 60.1282C161.187 59.7326 162.167 58.7944 162.46 57.2071C162.522 56.8369 162.701 55.8431 162.423 54.7889C164.195 53.6907 165.445 51.7997 165.641 49.5632C165.97 45.7964 163.184 42.4758 159.417 42.1462C155.651 41.8167 152.33 44.6031 152 48.3698C151.892 49.6114 152.122 50.8046 152.614 51.8582C151.635 52.0828 150.591 52.5834 150.015 53.5515C150.294 53.7498 150.63 53.9141 151.013 54.0178C152.057 54.2773 152.98 54.1477 153.54 54.0003C154.51 55.095 155.495 56.177 156.465 57.2718C156.513 57.3431 156.563 57.4207 156.615 57.5036Z" fill="#482D1F"/>
<path fill-rule="evenodd" clip-rule="evenodd" d="M152.766 58.0829C152.935 58.0697 153.091 58.2096 153.118 58.3802C153.152 58.6356 153.2 59.0466 153.073 59.2178C152.895 59.4967 152.419 58.838 152.504 58.3545C152.562 58.1633 152.653 58.0871 152.766 58.0829ZM149.696 58.1979C149.865 58.1847 150.021 58.3246 150.048 58.4953C150.082 58.7507 150.13 59.1616 150.003 59.3328C149.824 59.6117 149.349 58.953 149.433 58.4695C149.492 58.2783 149.583 58.2021 149.696 58.1979Z" fill="#482D1F"/>
<path d="M151.081 58.6957L150.945 60.0864C150.945 60.0916 150.964 60.1147 150.971 60.1152C151.047 60.1219 151.125 60.1237 151.248 60.1226C151.271 60.1224 151.296 60.1221 151.332 60.1216C151.377 60.1209 151.402 60.1206 151.426 60.1202C151.507 60.1192 151.574 60.1187 151.645 60.1187L151.646 60.1187C151.723 60.1187 151.785 60.1813 151.785 60.2585C151.785 60.3357 151.722 60.3982 151.645 60.3981L151.645 60.3981C151.575 60.3981 151.509 60.3986 151.429 60.3997C151.406 60.4 151.381 60.4003 151.336 60.401C151.3 60.4015 151.274 60.4018 151.25 60.402C151.119 60.4032 151.033 60.4012 150.946 60.3936C150.786 60.3796 150.653 60.221 150.667 60.0606L150.803 58.6686C150.81 58.5918 150.879 58.5356 150.955 58.5431C151.032 58.5506 151.088 58.6189 151.081 58.6957Z" fill="#482D1F"/>
<path d="M151.846 61.201C151.947 61.1678 152.193 61.0772 152.22 60.9392C152.222 60.9113 152.24 60.8708 152.213 60.8545C152.149 60.7788 151.976 60.8338 151.72 60.8814C151.265 60.9538 150.9 60.95 150.9 60.95C150.9 60.95 151.02 61.1849 151.099 61.2478C151.251 61.4295 151.701 61.2585 151.846 61.201Z" fill="#482D1F"/>
<path d="M155.288 58.0427L156.126 57.8639C156.239 57.8397 156.311 57.7284 156.287 57.6152C156.263 57.502 156.152 57.4298 156.038 57.4539L155.138 57.6462C154.838 57.0558 154.249 56.629 153.541 56.567C152.449 56.4715 151.487 57.279 151.392 58.3706C151.389 58.3966 151.388 58.4226 151.386 58.4485L150.961 58.4634C150.849 57.5536 150.115 56.8142 149.165 56.7311C148.073 56.6356 147.111 57.4431 147.015 58.5347C146.92 59.6263 147.727 60.5886 148.819 60.6841C149.91 60.7795 150.872 59.9731 150.968 58.8826L151.41 58.8671C151.554 59.7402 152.273 60.4393 153.195 60.52C154.287 60.6155 155.249 59.808 155.344 58.7164C155.365 58.4835 155.344 58.2566 155.288 58.0427ZM154.839 58.0087C154.915 58.2169 154.948 58.4446 154.927 58.6799C154.852 59.5408 154.093 60.1777 153.232 60.1024C152.371 60.0271 151.734 59.2681 151.809 58.4071C151.884 57.5461 152.643 56.9092 153.504 56.9846C154.096 57.0363 154.581 57.4103 154.803 57.9184C154.804 57.9227 154.804 57.9271 154.805 57.9315C154.811 57.9601 154.823 57.9862 154.839 58.0087ZM150.557 58.7249C150.556 58.7644 150.554 58.8041 150.551 58.844C150.475 59.7049 149.716 60.3418 148.855 60.2665C147.994 60.1912 147.358 59.4322 147.433 58.5712C147.508 57.7102 148.267 57.0734 149.128 57.1487C149.921 57.218 150.523 57.8668 150.555 58.6411C150.553 58.6561 150.551 58.6716 150.552 58.6874C150.552 58.7003 150.554 58.7128 150.557 58.7249Z" fill="#482D1F"/>
<path opacity="0.2" d="M148.104 78.9884L149.021 89.303C147.721 89.8367 146.749 90.2553 146.105 90.5586C145.461 90.8619 144.52 91.3371 143.281 91.9842C141.33 87.6977 139.893 84.4459 138.969 82.2288C138.044 80.0116 137.198 77.7902 136.428 75.5646L130.304 69.1473C130.817 68.6731 131.31 68.5158 131.783 68.6751C132.256 68.8345 133.03 69.4192 134.107 70.4293L141.131 74.1805C141.461 74.3564 141.737 74.617 141.932 74.9354L145.891 81.4051L146.297 78.6343C146.388 78.7316 146.597 78.8129 146.924 78.8782C147.178 78.9289 147.398 78.9373 147.612 78.9532C147.718 78.9611 147.882 78.9729 148.104 78.9884Z" fill="#8C2A00"/>
<path d="M95.6883 136.148H74.8191C74.4969 136.148 74.2358 136.409 74.2358 136.731C74.2358 137.053 74.4969 137.314 74.8191 137.314H95.6883C96.0105 137.314 96.2716 137.053 96.2716 136.731C96.2716 136.409 96.0105 136.148 95.6883 136.148ZM51.4266 136.172L38.7473 126.719C38.6554 126.656 38.564 126.619 38.4604 126.62C38.2787 126.611 38.0986 126.692 37.9844 126.836L37.9467 126.902C37.7561 127.125 37.8141 127.474 38.0505 127.652L50.9501 137.318L58.5476 137.341C58.8456 137.336 59.0878 137.098 59.0956 136.8L59.0942 136.722C59.0761 136.425 58.8385 136.182 58.5404 136.188L51.4266 136.172Z" fill="#A339FF"/>
<path d="M74.4474 136.281C74.5214 136.247 74.6038 136.228 74.6906 136.228L95.6506 136.147C95.611 136.138 95.6927 136.147 95.6506 136.147C95.6505 136.104 95.6709 136.084 95.6505 136.002C95.495 135.38 94.9895 134.862 94.7043 134.602C94.108 134.227 93.5118 133.902 92.8896 133.604C90.5823 132.49 89.7916 132.503 88.275 131.491C87.6528 131.064 87.0695 130.584 86.5381 130.053C86.1838 129.698 85.2812 129.061 83.8294 128.24L72.4869 128.263L74.4474 136.281ZM38.381 126.703C38.4649 126.711 38.5417 126.746 38.6188 126.799L51.2981 136.252L58.4119 136.268C58.4695 136.267 58.5249 136.275 58.5768 136.291C58.5936 136.208 58.6026 136.121 58.6011 136.03C58.5865 135.939 58.5847 135.836 58.557 135.733C58.3906 135.113 57.8888 134.59 57.5992 134.336C57.0094 133.971 56.4073 133.644 55.7801 133.357C54.5469 132.767 53.7419 132.5 53.0322 132.226C52.9271 132.046 52.8268 131.86 52.7298 131.66C52.6086 131.403 52.487 131.12 52.3647 130.798C52.106 130.089 51.9248 129.366 51.7953 128.63L51.1645 126.657L50.9701 125.971L43.0631 120.138L38.381 126.703Z" fill="#474961"/>
<path d="M66.7075 89.4587C65.4126 89.0024 64.3721 89.0205 64.3721 89.0205C58.539 89.0075 37.3717 88.9686 37.0088 88.9946C36.4903 89.0334 33.8519 88.9339 32.2775 91.7685C32.2646 91.7685 32.2646 91.7814 32.2646 91.7814C32.0313 92.2222 31.785 92.7666 31.5646 93.4406C31.1498 94.7498 30.8647 96.5127 30.9943 98.6903C31.0721 99.5588 31.1887 101.451 32.2905 103.266C33.4312 105.158 35.0126 106.429 37.3587 107.232C39.3549 107.906 41.3122 107.595 43.7232 107.375H43.7491C43.8399 107.362 44.0213 107.323 44.2417 107.284L44.6824 107.207C44.9287 107.155 45.149 107.116 45.2527 107.103H45.2787C47.5082 106.701 49.4914 106.338 51.4746 105.962L51.5654 105.949C51.7247 105.918 51.8841 105.887 52.0436 105.856C51.7101 106.319 51.3775 106.785 51.0457 107.254C50.1902 108.459 49.3606 109.665 48.557 110.857L45.3034 115.459C44.8109 116.146 45.0312 117.105 45.796 117.585L49.8013 120.074L53.4308 122.485L54.1437 122.938C54.8566 123.379 55.7218 123.172 56.2695 122.601C57.7188 121.092 60.4385 117.545 63.8524 113.683C63.9868 113.531 64.1204 113.38 64.2534 113.231C66.1721 116.807 68.5541 121.474 69.9458 123.811C70.218 124.278 70.7495 124.524 71.2939 124.446L81.5859 122.917C82.4673 122.787 82.9858 121.841 82.6099 121.024C80.7045 116.837 78.2805 110.24 76.2195 105.807C75.6881 104.666 75.1826 103.538 74.7159 102.475C74.6416 102.307 74.5646 102.131 74.4855 101.95C75.2597 100.888 75.7155 100.128 76.1147 99.1655C76.5684 98.0767 76.9832 97.0786 76.9572 95.7305C76.9184 93.7343 75.9203 91.466 73.9241 90.2475C72.8093 89.5605 71.7205 89.5216 71.0724 89.4698C70.2039 89.4438 69.2058 89.4568 68.0911 89.4568C67.5091 89.4521 67.0709 89.4492 66.7075 89.4587Z" fill="#3ABF7C"/>
<path opacity="0.176986" d="M66.8968 89.4553C68.4129 90.0207 70.2334 91.2425 71.143 93.8817C71.1553 93.9062 73.1645 98.7444 74.5346 101.882C75.2785 100.855 75.7232 100.107 76.1137 99.166C76.5674 98.0772 76.9822 97.0791 76.9562 95.731C76.9174 93.7348 75.9193 91.4664 73.9231 90.248C72.8083 89.561 71.7195 89.5221 71.0714 89.4702C70.2029 89.4443 69.2048 89.4573 68.0901 89.4573C67.6061 89.4534 67.2216 89.4507 66.8968 89.4553V89.4553ZM52.0767 105.809C51.7318 106.287 51.3878 106.769 51.0447 107.254C50.1892 108.46 49.3596 109.665 48.556 110.858L45.3024 115.46C44.8099 116.147 45.0302 117.106 45.795 117.585L49.8003 120.074L53.4298 122.485L54.1427 122.939C54.8556 123.379 55.7208 123.172 56.2685 122.602C57.7178 121.092 60.4375 117.545 63.8514 113.684C64.0037 113.511 64.1551 113.341 64.3056 113.172C63.8313 112.287 63.3853 111.47 62.9898 110.772C62.9898 110.772 62.6268 110.123 61.8491 108.892C61.2139 107.881 60.5529 107 59.9955 106.261C59.6974 105.859 59.2826 105.301 58.7641 104.653C58.1808 104.731 57.5975 104.809 57.0142 104.9C56.2105 105.042 55.4069 105.198 54.5902 105.34C53.7457 105.494 52.9105 105.647 52.0767 105.809Z" fill="#444444"/>
<path d="M61.2335 101.957C60.5259 102.899 60.3074 103.164 60.0798 103.386C59.8699 103.591 59.6617 103.843 58.9651 104.77C58.9006 104.856 58.7787 104.873 58.6929 104.809C58.607 104.744 58.5897 104.623 58.6542 104.537C59.3619 103.595 59.5804 103.331 59.8079 103.108C60.0178 102.903 60.226 102.651 60.9226 101.724C60.9871 101.638 61.109 101.621 61.1949 101.685C61.2807 101.75 61.298 101.872 61.2335 101.957Z" fill="#482D1F"/>
<path d="M47.388 63.9178C45.046 63.2461 42.6348 63.834 40.8857 65.2874L40.793 65.3492C40.5248 65.5417 40.2272 65.8606 39.9164 66.2665C39.6928 66.5413 39.4884 66.8347 39.3058 67.1453C37.9082 69.3271 36.4531 72.6806 36.2555 73.9792C36.2555 74.3628 36.4911 74.6914 36.8255 74.8281L34.8346 81.6029C34.713 82.0036 34.1823 83.6215 34.0527 86.0832C33.9662 87.7244 34.7869 88.7121 36.5147 89.0465C38.5424 89.0255 41.935 89.0635 46.6926 89.1604C51.4502 89.2573 54.2927 84.1114 55.22 73.7228C56.2439 70.3253 54.6359 66.792 51.5771 65.2886L51.9652 64.1615C52.0118 64.0261 51.9398 63.8786 51.8045 63.832L48.1277 62.566C47.9923 62.5193 47.8448 62.5913 47.7981 62.7267L47.388 63.9178Z" fill="#A339FF"/>
<path d="M49.2031 58.578L48.1115 62.6526L51.7427 63.9029L52.0099 62.8415C52.0619 62.8686 52.1154 62.8962 52.1705 62.9244C53.2073 63.4765 53.1469 63.4311 53.2216 63.465C54.0107 63.7695 54.7082 63.8298 54.8384 63.8304C55.9294 63.8669 57.4001 62.0273 58.2667 59.238C58.3427 59.0114 58.3799 58.7807 58.4301 58.5513L58.7758 56.2546C58.8558 55.7417 58.8068 55.2152 58.6093 54.7383C58.5265 54.5341 58.4423 54.3428 58.3412 54.1888C57.2004 52.2702 54.7172 52.3351 54.2735 52.3406C54.2219 52.3351 54.169 52.3426 54.1174 52.3372C53.6154 52.4017 53.1866 52.2654 52.7238 52.2037C52.5176 52.1821 52.3324 52.332 52.2978 52.5369L51.8865 55.8303C51.8562 56.0357 51.4606 55.8529 50.6997 55.282C49.7567 55.7781 49.1858 56.2286 48.9868 56.6334C48.6572 57.2896 48.7903 58.0074 49.1425 58.5006C49.1623 58.5273 49.1825 58.5531 49.2031 58.578ZM62.7178 83.5087C60.9002 83.0692 58.8667 82.5786 56.6175 82.0371L55.392 73.8197C55.3749 73.6339 55.3492 73.415 55.3088 73.1689C55.2683 73.3551 55.2202 73.5411 55.1643 73.7268C53.9745 76.9971 52.8684 79.7695 51.8461 82.0441C49.1447 81.6523 46.5941 81.3544 44.7518 80.9409C44.7492 80.7652 44.932 78.6837 45.3002 74.6965L37.1497 74.9796C37.14 74.9799 37.1303 74.9801 37.1206 74.9801C36.9115 76.3126 36.8393 77.951 36.9042 79.8954C37.0275 83.5932 36.6256 86.6074 38.8964 88.2228C39.4255 88.6001 39.577 88.858 41.3955 88.9988C45.1982 89.2929 48.6519 89.2072 52.1546 89.054C50.9597 89.112 49.7722 89.1636 48.5744 89.1946C53.8637 89.4458 71.3454 89.6577 72.8709 89.6067C74.6711 89.5466 75.5807 88.9578 75.9451 88.0914C76.2377 87.3958 74.4644 86.4849 74.1942 86.3443C74.1398 86.3161 73.5678 86.1655 72.4784 85.8926C73.2927 85.7592 74.0111 85.3849 73.9637 84.4743C73.9637 84.4743 67.0631 83.4131 65.138 83.1424L65.1822 83.1727C64.7234 83.1134 64.2379 83.1067 63.7102 83.2059C63.418 83.2566 63.0872 83.3576 62.7178 83.5087ZM53.4311 122.471L49.7369 120.009L45.8482 117.61C45.6358 117.477 45.3897 117.283 45.2649 117.092L43.0613 120.138L50.9604 125.959L53.4311 122.471ZM81.3647 122.925L71.4486 124.416L72.4856 128.304L83.8276 128.24L81.3647 122.925Z" fill="#F2A98A"/>
<path opacity="0.2" d="M51.8979 82.0237C53.071 82.1938 54.2724 82.3816 55.4565 82.6043C58.2995 83.1389 60.4762 83.5543 61.9867 83.8505C62.2924 83.6926 62.5775 83.5613 62.8423 83.4565C61.0113 83.0137 58.9603 82.519 56.6893 81.9722L55.4638 73.7548C55.4468 73.569 55.4211 73.3501 55.3806 73.104C55.3402 73.2901 55.2921 73.4762 55.2361 73.6619C54.0386 76.9535 52.9258 79.7408 51.8979 82.0237ZM48.6463 89.1297C53.9356 89.3809 71.4172 89.5928 72.9427 89.5418C74.7429 89.4816 75.6526 88.8929 76.017 88.0265C76.3095 87.3309 74.5363 86.4199 74.266 86.2794C74.2113 86.251 73.6319 86.0985 72.528 85.8221C71.9159 85.9294 71.2419 85.8905 70.8041 85.842C69.5923 85.9615 68.3929 86.0682 67.1811 86.1876C66.8003 86.338 66.4195 86.4883 66.0387 86.6386C65.4082 87.7108 60.5257 88.5265 58.6297 88.6662C58.0483 88.7072 57.699 88.7372 56.8988 88.763C54.0609 88.8812 51.3803 89.0589 48.6463 89.1297Z" fill="#8C2A00"/>
<path d="M57.9751 58.5609C57.9263 58.7773 57.8497 59.1342 57.9623 59.3024C58.1055 59.5521 58.5675 59.0011 58.5206 58.5791C58.5009 58.3945 58.4161 58.3335 58.3129 58.3227C58.1583 58.3064 58.0171 58.4089 57.9751 58.5609ZM55.6886 58.2423C55.6269 58.4574 55.5632 58.8157 55.6758 58.9839C55.819 59.2336 56.281 58.6826 56.2341 58.2606C56.2144 58.076 56.1296 58.015 56.0264 58.0041C55.8717 57.9879 55.7306 58.0903 55.6886 58.2423Z" fill="#482D1F"/>
<path d="M56.0571 60.9142C55.9696 60.879 55.7586 60.7786 55.7348 60.6327C55.7375 60.6069 55.7287 60.5669 55.7443 60.5425C55.804 60.4706 55.9675 60.5269 56.1969 60.577C56.6053 60.6591 56.9446 60.6556 56.9446 60.6556C56.9446 60.6556 56.8143 60.9026 56.7431 60.9603C56.5925 61.153 56.1949 60.9678 56.0571 60.9142Z" fill="#482D1F"/>
<path d="M59.0433 57.67C59.1749 57.6577 59.2427 57.5084 59.162 57.4087C59.0568 57.2934 58.877 57.1442 58.6205 57.1042C58.0947 57.0228 57.4821 57.2713 58.0303 57.5114C58.3777 57.6782 58.7943 57.6829 59.0433 57.67ZM55.3032 52.2378C56.3106 51.6992 57.0178 50.776 57.1342 49.6685C57.3362 47.7462 55.682 45.9968 53.4393 45.761C51.1966 45.5253 49.2147 46.8926 49.0127 48.8149C48.8907 49.976 49.4459 51.074 50.399 51.8135C49.8417 51.7569 49.3982 51.7692 48.8775 51.9615C48.6875 52.0328 48.2391 52.2072 47.8178 52.6191C46.6164 53.7571 46.6608 55.4431 46.6609 55.9384C46.7127 57.4297 47.3988 58.4663 47.6716 58.8469C48.3068 59.7478 48.8926 60.2335 49.4291 60.3039C49.74 59.8546 49.985 59.4259 50.1642 59.0178C49.939 58.917 49.6239 58.7305 49.388 58.3886C49.0487 57.8968 48.9143 57.1919 49.2412 56.5615C49.5396 55.9542 50.2357 55.5321 50.849 55.6487C51.1944 55.7111 51.4448 55.9329 51.4807 55.9627C51.7902 56.2528 51.9777 56.6255 52.0427 56.7691C52.042 56.7502 52.0413 56.7313 52.0406 56.7124C52.658 56.5427 53.6777 56.1415 54.5697 55.2187C54.8757 54.9119 55.1185 54.5855 55.3057 54.2924C55.8051 54.5013 56.6268 54.7441 57.6126 54.6652C57.9623 54.6378 58.2737 54.4924 58.5521 54.4167C58.5539 54.4141 58.5548 54.4128 58.5548 54.4128C58.5718 54.3755 58.4097 54.1495 58.4124 54.1237C57.6483 52.8057 56.2195 52.3746 55.3032 52.2378ZM56.5424 57.4071C56.674 57.3949 56.7418 57.2456 56.6482 57.1445C56.543 57.0292 56.3632 56.88 56.0938 56.8386C55.568 56.7573 54.954 57.0186 55.5036 57.2458C55.8639 57.414 56.2805 57.4187 56.5424 57.4071Z" fill="#DE6903"/>
<path d="M51.8875 63.5515L50.7546 62.0435L52.0822 62.7738L51.8875 63.5515Z" fill="#482D1F"/>
<path d="M44.8844 81.0769C44.9838 81.0364 45.0316 80.923 44.9911 80.8235C44.9506 80.7241 44.8371 80.6763 44.7377 80.7168L42.9878 81.4297C42.8883 81.4703 42.8405 81.5837 42.8811 81.6832C42.9216 81.7826 43.035 81.8304 43.1345 81.7899L44.8844 81.0769ZM45.2301 74.3993C45.1709 74.4889 45.1955 74.6095 45.2851 74.6687C45.3746 74.7279 45.4953 74.7033 45.5545 74.6137C46.59 73.0472 47.1169 71.2317 47.0773 69.3564C47.0751 69.249 46.9862 69.1638 46.8788 69.1661C46.7715 69.1684 46.6863 69.2572 46.6885 69.3646C46.7265 71.1608 46.2221 72.8986 45.2301 74.3993Z" fill="#482D1F"/>
<path d="M57.293 58.5978L57.2943 58.579L57.2943 58.5885L57.293 58.5978ZM57.304 59.9746L57.3033 59.9891C57.2885 60.1298 57.1785 60.2503 57.0357 60.2589C57.0097 60.2587 56.9952 60.2582 56.9807 60.2577C56.8434 60.2522 56.7454 60.2432 56.3942 60.2063C56.323 60.1988 56.2713 60.1351 56.2788 60.0639C56.2863 59.9927 56.3501 59.941 56.4213 59.9485C56.7663 59.9848 56.8615 59.9935 56.991 59.9986C57.0045 59.9992 57.0179 59.9996 57.0315 60C57.0286 59.9997 57.0409 59.9859 57.0447 59.967L57.035 58.5808L57.0363 58.562L57.142 57.8041C57.1519 57.7332 57.2174 57.6838 57.2883 57.6937C57.3592 57.7035 57.4086 57.769 57.3988 57.8399L57.2943 58.5885L57.304 59.9746Z" fill="#482D1F"/>
<path d="M173.971 137.696H172.728L170.243 111.176H173.971V137.696Z" fill="#6B3934"/>
<path d="M173.354 109.276L172.138 109.014L177.861 84.0667L179.077 84.325L173.354 109.276Z" fill="#6B3934"/>
<path d="M181.668 72.1669C181.812 71.4958 181.384 70.8355 180.713 70.692C180.042 70.5485 179.382 70.9762 179.238 71.6473L176.465 84.6161C176.322 85.2872 176.749 85.9476 177.42 86.0911C178.091 86.2346 178.752 85.8069 178.895 85.1358L181.668 72.1669Z" fill="#6B3934"/>
<path d="M144.934 78.4353H40.7115V84.6521H144.934V78.4353Z" fill="#70413F"/>
<path d="M47.3434 137.697H43.8208L42.9924 84.6523H48.1718L47.3434 137.697Z" fill="#70413F"/>
<path d="M142.138 137.697H138.616L137.787 84.6523H142.966L142.138 137.697Z" fill="#70413F"/>
<path d="M37.1885 107.915L40.7111 78.3401H144.934L147.628 106.05C147.628 106.05 135.194 105.711 132.5 106.126C129.806 106.54 113.018 107.095 111.156 106.886C109.294 106.677 77.5939 106.437 75.1049 107.475C72.6159 108.512 54.8015 106.965 53.9693 107.175C53.1371 107.384 40.9163 109.363 37.1885 107.915Z" fill="url(#paint0_linear_2_4588)"/>
<path opacity="0.5" d="M49.6 80.4276C49.6 80.4276 47.9895 103.792 48.9362 106.84L53.1981 106.033C53.1981 106.033 52.9416 96.3838 52.1948 79.8604L49.6 80.4276Z" fill="#FE4A78"/>
<path opacity="0.5" d="M113.695 80.4276C113.695 80.4276 113.306 103.792 114.286 106.84L117.419 106.033C117.419 106.033 117.15 96.3838 116.38 79.8604L113.695 80.4276Z" fill="#FE4A78"/>
<path opacity="0.5" d="M42.1322 86.4475C42.1322 86.4475 134.828 87.0747 146.818 86.544L143.27 83.1587C143.27 83.1587 105.024 85.4021 39.5834 83.5607L42.1322 86.4475Z" fill="#111E71"/>
<path opacity="0.5" d="M75.1897 79.48C75.1897 79.48 73.2226 99.9929 75.6185 106.466L71.1138 106.84C71.1138 106.84 69.6149 90.2579 72.18 79.48H75.1897Z" fill="#FE4A78"/>
<path opacity="0.5" d="M96.0596 79.342C96.0596 79.342 97.8289 104.245 98.0391 106.08H94.2866C94.2866 106.08 92.6205 80.3851 92.7237 79.2105C92.8268 78.0358 96.0596 79.342 96.0596 79.342Z" fill="#FE4A78"/>
<path opacity="0.5" d="M132.238 80.3346C132.238 80.3346 135.172 106.036 134.334 106.954L138.318 107.22C138.318 107.22 136.43 80.5457 134.857 79.8604L132.238 80.3346Z" fill="#FE4A78"/>
<path opacity="0.5" d="M38.2099 99.3909C47.2473 100.025 56.3063 99.5739 65.3473 99.273C74.3122 98.9761 83.2662 99.4682 92.2456 99.5495C100.449 99.6268 108.635 99.2079 116.85 99.3421C122.043 99.4275 127.446 99.6024 132.718 99.5332C137.175 99.4722 141.632 98.9558 146.093 99.1266L146.818 96.3044C138.07 96.2637 129.32 96.2339 120.568 96.2149C99.0507 96.1743 77.5227 96.0279 56.0092 96.2149C49.8128 96.2719 43.6236 96.2556 37.4236 96.1133L38.2099 99.3909Z" fill="#111E71"/>
<path d="M130.416 59.9434L136.324 58.8504C136.806 58.7614 137.268 59.0794 137.357 59.5607L139.97 73.6887C140.059 74.17 139.741 74.6324 139.26 74.7214L133.352 75.8143C132.87 75.9034 132.408 75.5854 132.319 75.1041L129.706 60.976C129.616 60.4947 129.934 60.0324 130.416 59.9434Z" fill="white" stroke="#263238" stroke-width="0.135825" stroke-miterlimit="10"/>
<path d="M135.57 68.5235L135.466 67.9713L135.217 68.02C135.199 67.9249 135.182 67.8344 135.164 67.7439L135.412 67.6952C135.396 67.6024 135.377 67.5096 135.361 67.4168L134.86 67.5119C134.841 67.4191 134.825 67.3287 134.809 67.2382L134.558 67.2846C134.575 67.3774 134.593 67.4679 134.609 67.5583L134.359 67.6047L134.257 67.0549H134.224L133.505 67.1895C133.524 67.2823 133.54 67.3727 133.558 67.4655L133.31 67.5119C133.292 67.4191 133.275 67.3287 133.257 67.2382L133.507 67.1918C133.489 67.099 133.473 67.0085 133.454 66.9134L133.955 66.8183L133.851 66.2684L134.6 66.1362C134.619 66.229 134.635 66.3195 134.654 66.4123L135.15 66.3171L135.254 66.8693L135.008 66.9157C135.025 67.0085 135.043 67.099 135.06 67.1918L135.308 67.1454C135.326 67.2382 135.343 67.3287 135.361 67.4215L135.609 67.3727C135.593 67.2799 135.577 67.1895 135.558 67.0967L136.308 66.9551C136.291 66.8623 136.273 66.7719 136.257 66.6791L135.507 66.8206L135.09 64.6143L134.839 64.6607C134.89 64.9251 134.939 65.1919 134.99 65.4564V65.4866L134.742 65.533L134.637 64.9855L134.387 65.0319L134.491 65.584L134.241 65.6304C134.259 65.7209 134.275 65.8114 134.294 65.9065L133.043 66.1385C133.06 66.2313 133.078 66.3218 133.094 66.4123L132.844 66.461C132.862 66.5561 132.879 66.6466 132.897 66.7394L133.146 66.693C133.164 66.7858 133.18 66.8763 133.197 66.9691L132.948 67.0178L133.053 67.5699L132.802 67.6187C132.837 67.7996 132.869 67.9829 132.907 68.1685L133.155 68.1221L133.259 68.6743L133.009 68.723C133.025 68.8158 133.041 68.9063 133.06 68.9991L132.561 69.0942C132.577 69.187 132.596 69.2775 132.612 69.3703L133.361 69.2264L133.466 69.7786L133.716 69.7322C133.698 69.6417 133.681 69.5512 133.663 69.4561L134.164 69.361C134.148 69.2705 134.129 69.1777 134.113 69.0849L134.361 69.0385C134.343 68.9457 134.326 68.8552 134.31 68.7624L133.811 68.8552C133.793 68.7624 133.777 68.6719 133.76 68.5815L135.006 68.3495C135.025 68.4399 135.041 68.5304 135.06 68.6232L135.561 68.5281L135.57 68.5235ZM133.913 67.9806C133.895 67.8901 133.879 67.7973 133.86 67.7068L134.108 67.6581C134.127 67.7509 134.143 67.8414 134.162 67.9319L133.911 67.9806C133.93 68.0711 133.946 68.1639 133.964 68.2543L133.466 68.3495C133.449 68.2567 133.431 68.1662 133.415 68.0757L133.913 67.9806ZM134.415 67.8878L134.66 67.8391C134.679 67.9319 134.695 68.0223 134.714 68.1128L134.466 68.1592C134.449 68.0687 134.431 67.9783 134.415 67.8878ZM133.651 66.6002L133.403 66.6466C133.384 66.5538 133.368 66.4633 133.352 66.3728L133.598 66.3264C133.616 66.4146 133.633 66.5074 133.651 66.6002Z" fill="#263238"/>
<path d="M137.245 65.0598C137.123 64.4163 137.002 63.7737 136.881 63.1318L135.132 63.4636C135.255 64.1062 135.364 64.7466 135.498 65.3915L137.245 65.0598ZM136.682 63.4543C136.77 63.9183 136.856 64.3823 136.941 64.8324L135.696 65.0644C135.607 64.6004 135.522 64.1364 135.433 63.6863L136.682 63.4543Z" fill="#263238"/>
<path d="M131.998 66.0552L133.747 65.7188C133.624 65.0739 133.504 64.4335 133.383 63.7886L131.634 64.1203C131.757 64.7699 131.877 65.4103 131.998 66.0552ZM131.935 64.3547L133.183 64.1227C133.272 64.5867 133.358 65.046 133.443 65.5007L132.195 65.7327C132.108 65.2734 132.022 64.814 131.935 64.3547Z" fill="#263238"/>
<path d="M137.618 66.9956L135.871 67.3274C135.992 67.97 136.115 68.6126 136.236 69.2553L137.985 68.9259C137.85 68.2832 137.734 67.6406 137.618 66.9956ZM136.173 67.557L137.421 67.325C137.509 67.7891 137.596 68.2476 137.681 68.7008L136.435 68.9328C136.34 68.4735 136.254 68.0164 136.166 67.557H136.173Z" fill="#263238"/>
<path d="M134.835 64.6606L134.731 64.1084L134.979 64.062C134.944 63.8764 134.91 63.6955 134.875 63.5122L133.627 63.7442L133.731 64.294L133.979 64.2477C133.995 64.3405 134.014 64.4309 134.03 64.5237L133.784 64.5701L133.889 65.1223L134.137 65.0736C134.118 64.9831 134.102 64.8926 134.084 64.7998L134.334 64.7534L134.283 64.4773L134.531 64.4309C134.55 64.5214 134.566 64.6119 134.585 64.7047L134.835 64.6583V64.6606ZM134.48 64.1549L134.232 64.2012C134.214 64.1084 134.197 64.018 134.181 63.9275L134.427 63.8811L134.48 64.1549Z" fill="#263238"/>
<path d="M136.105 65.8512C136.121 65.9417 136.14 66.0322 136.156 66.1273L135.657 66.2224C135.673 66.3129 135.692 66.4034 135.708 66.4962L136.458 66.3547L136.562 66.9068L137.562 66.7166L137.458 66.1691L137.209 66.2155L137.26 66.4869L136.759 66.582C136.708 66.3083 136.655 66.0322 136.604 65.7561L136.103 65.8512H136.105Z" fill="#263238"/>
<path d="M135.57 68.5239C135.586 68.6144 135.605 68.7072 135.621 68.8L135.373 68.8464C135.389 68.9392 135.408 69.0297 135.424 69.1225L135.176 69.1689C135.192 69.264 135.21 69.3545 135.227 69.445L135.974 69.3035C135.923 69.0297 135.872 68.7559 135.818 68.4775L135.57 68.5239Z" fill="#263238"/>
<path d="M136.601 65.7556L137.1 65.6605C137.118 65.7533 137.134 65.8438 137.153 65.9366L137.401 65.8879L137.297 65.3403L136.55 65.4819C136.566 65.5723 136.584 65.6651 136.601 65.7556Z" fill="#263238"/>
<path d="M132.205 67.159L132.453 67.1126C132.418 66.9293 132.386 66.746 132.351 66.5627L132.599 66.514C132.581 66.4212 132.564 66.3307 132.548 66.2402L132.049 66.333C132.103 66.6091 132.154 66.8782 132.205 67.159Z" fill="#263238"/>
<path d="M136.102 65.8504C136.086 65.7599 136.07 65.6695 136.051 65.5767L135.553 65.6718C135.571 65.7599 135.587 65.8527 135.606 65.9455L136.105 65.8504H136.102Z" fill="#263238"/>
<path d="M132.81 67.6186C132.793 67.5281 132.777 67.4353 132.759 67.3425L132.51 67.3912C132.527 67.4817 132.545 67.5722 132.561 67.665L132.812 67.6186H132.81Z" fill="#263238"/>
<path d="M132.61 67.9443L132.362 67.9907C132.38 68.0812 132.397 68.1717 132.413 68.2645L132.661 68.2158C132.645 68.1253 132.626 68.0395 132.61 67.9443Z" fill="#263238"/>
<path d="M134.249 65.6302L134.198 65.3564L133.948 65.4028C133.966 65.4933 133.983 65.5838 134.001 65.6766L134.249 65.6302Z" fill="#263238"/>
<path d="M135.468 67.9712L135.716 67.9248C135.7 67.832 135.682 67.7415 135.665 67.6487L135.415 67.6974C135.433 67.7902 135.452 67.883 135.468 67.9735V67.9712Z" fill="#263238"/>
<path d="M133.017 68.7351C133.001 68.6423 132.985 68.5518 132.966 68.459L132.718 68.5077C132.734 68.5959 132.753 68.6863 132.769 68.7815L133.02 68.7327L133.017 68.7351Z" fill="#263238"/>
<path d="M132.904 66.7446L132.656 66.791C132.672 66.8815 132.689 66.972 132.707 67.0671L132.955 67.0184L132.904 66.74V66.7446Z" fill="#263238"/>
<path d="M134.674 69.264L134.922 69.2176C134.906 69.1271 134.887 69.0366 134.871 68.9438L134.623 68.9903C134.639 69.0807 134.658 69.1712 134.674 69.264Z" fill="#263238"/>
<path d="M134.175 69.3589C134.194 69.4517 134.21 69.5422 134.229 69.635L134.477 69.5886C134.458 69.4981 134.442 69.4076 134.424 69.3125L134.175 69.3612V69.3589Z" fill="#263238"/>
<path d="M132.73 69.9215L132.98 69.8728C132.964 69.7823 132.945 69.6918 132.929 69.6013L132.681 69.6477C132.697 69.7382 132.713 69.8287 132.73 69.9215Z" fill="#263238"/>
<path d="M134.258 67.0584L134.507 67.012C134.488 66.9192 134.472 66.8288 134.453 66.7383L134.205 66.7847C134.224 66.8752 134.24 66.968 134.258 67.0584Z" fill="#263238"/>
<path d="M135.897 64.7463L136.644 64.6047C136.593 64.3287 136.542 64.0549 136.489 63.7788L135.742 63.9203C135.793 64.1941 135.846 64.4702 135.897 64.7463Z" fill="#263238"/>
<path d="M133.141 65.2667C133.09 64.9906 133.037 64.7169 132.986 64.4431L132.239 64.5846C132.29 64.8584 132.343 65.1322 132.394 65.4082L133.141 65.2667Z" fill="#263238"/>
<path d="M137.374 68.4678C137.323 68.1917 137.272 67.9179 137.218 67.6418L136.471 67.7834C136.522 68.0571 136.576 68.3332 136.627 68.6093L137.374 68.4678Z" fill="#263238"/>
<path d="M136.031 62.6163L137.126 62.4075L137.379 63.7415" stroke="#92E3A9" stroke-width="0.135825" stroke-miterlimit="10"/>
<path d="M132.05 63.3711L130.957 63.5776L131.208 64.9093" stroke="#92E3A9" stroke-width="0.135825" stroke-miterlimit="10"/>
<path d="M137.362 69.6345L138.455 69.4257L138.205 68.094" stroke="#92E3A9" stroke-width="0.135825" stroke-miterlimit="10"/>
<path d="M133.378 70.3886L132.283 70.5951L132.031 69.2634" stroke="#92E3A9" stroke-width="0.135825" stroke-miterlimit="10"/>
<path d="M129.903 62.0856L129.699 60.9743C129.677 60.8599 129.679 60.7423 129.703 60.6282C129.726 60.5142 129.773 60.4061 129.839 60.3101C129.905 60.2141 129.989 60.1321 130.087 60.0689C130.185 60.0057 130.294 59.9626 130.409 59.9419L136.318 58.8492C136.549 58.8065 136.788 58.8573 136.981 58.9905C137.175 59.1236 137.308 59.3281 137.351 59.5591L137.557 60.6704L129.903 62.0856Z" fill="#263238" stroke="#263238" stroke-width="0.135825" stroke-miterlimit="10"/>
<path d="M139.837 73.001L139.965 73.6854C139.986 73.8007 139.984 73.9191 139.959 74.0337C139.934 74.1483 139.886 74.2568 139.819 74.353C139.752 74.4492 139.667 74.5311 139.568 74.5941C139.469 74.6571 139.359 74.7 139.243 74.7201L133.334 75.8128C133.219 75.8339 133.102 75.8322 132.988 75.8079C132.874 75.7835 132.766 75.7369 132.67 75.6707C132.574 75.6046 132.492 75.5202 132.429 75.4223C132.366 75.3245 132.323 75.2152 132.302 75.1006L132.174 74.4046L139.837 73.001Z" fill="#263238" stroke="#263238" stroke-width="0.135825" stroke-miterlimit="10"/>
</g>
<defs>
<linearGradient id="paint0_linear_2_4588" x1="145.327" y1="78.3401" x2="57.9523" y2="154.517" gradientUnits="userSpaceOnUse">
<stop stop-color="#F8DE30"/>
<stop offset="0.989583" stop-color="#FE4A78"/>
</linearGradient>
<clipPath id="clip0_2_4588">
<rect width="190" height="147" fill="white"/>
</clipPath>
<clipPath id="clip1_2_4588">
<rect width="2.08514" height="2.08515" fill="white" transform="translate(100.611 75.8223)"/>
</clipPath>
</defs>
</svg>
