<svg width="50" height="90" viewBox="0 0 50 90" fill="none" xmlns="http://www.w3.org/2000/svg">
<path d="M1.26433 83.5609C0.823436 83.2283 0.735665 82.6013 1.06828 82.1604L6.48859 74.9756C6.82121 74.5348 7.44826 74.447 7.88915 74.7796C8.33004 75.1122 8.41782 75.7393 8.0852 76.1802L3.26714 82.5666L9.65355 87.3846C10.0944 87.7173 10.1822 88.3443 9.8496 88.7852C9.51698 89.2261 8.88993 89.3139 8.44904 88.9812L1.26433 83.5609ZM1.72796 81.7723C17.6471 79.544 49.7771 60.4582 47.6566 1.03578L49.6553 0.96445C51.8079 61.2848 19.0594 81.3658 2.00521 83.753L1.72796 81.7723Z" fill="black"/>
</svg>
