<svg width="486" height="103" viewBox="0 0 486 103" fill="none" xmlns="http://www.w3.org/2000/svg">
<path d="M33.7425 101.896C27.5132 101.896 21.8812 100.829 16.8465 98.696C11.8972 96.5627 7.97183 93.4907 5.0705 89.48C2.16917 85.4693 0.675834 80.7333 0.5905 75.272H19.7905C20.0465 78.9413 21.3265 81.8427 23.6305 83.976C26.0198 86.1093 29.2625 87.176 33.3585 87.176C37.5398 87.176 40.8252 86.1947 43.2145 84.232C45.6038 82.184 46.7985 79.5387 46.7985 76.296C46.7985 73.6507 45.9878 71.4747 44.3665 69.768C42.7452 68.0613 40.6972 66.7387 38.2225 65.8C35.8332 64.776 32.5052 63.6667 28.2385 62.472C22.4358 60.7653 17.6998 59.1013 14.0305 57.48C10.4465 55.7733 7.33183 53.256 4.6865 49.928C2.1265 46.5147 0.8465 41.992 0.8465 36.36C0.8465 31.0693 2.16917 26.4613 4.8145 22.536C7.45983 18.6107 11.1718 15.624 15.9505 13.576C20.7292 11.4427 26.1905 10.376 32.3345 10.376C41.5505 10.376 49.0172 12.6373 54.7345 17.16C60.5372 21.5973 63.7372 27.8267 64.3345 35.848H44.6225C44.4518 32.776 43.1292 30.2587 40.6545 28.296C38.2652 26.248 35.0652 25.224 31.0545 25.224C27.5558 25.224 24.7398 26.12 22.6065 27.912C20.5585 29.704 19.5345 32.3067 19.5345 35.72C19.5345 38.1093 20.3025 40.1147 21.8385 41.736C23.4598 43.272 25.4225 44.552 27.7265 45.576C30.1158 46.5147 33.4438 47.624 37.7105 48.904C43.5132 50.6107 48.2492 52.3173 51.9185 54.024C55.5878 55.7307 58.7452 58.2907 61.3905 61.704C64.0358 65.1173 65.3585 69.5973 65.3585 75.144C65.3585 79.9227 64.1212 84.36 61.6465 88.456C59.1718 92.552 55.5452 95.8373 50.7665 98.312C45.9878 100.701 40.3132 101.896 33.7425 101.896ZM120.831 29.064C126.207 29.064 130.985 30.2587 135.167 32.648C139.348 34.952 142.591 38.408 144.895 43.016C147.284 47.5387 148.479 53 148.479 59.4V101H130.559V61.832C130.559 56.2 129.151 51.8907 126.335 48.904C123.519 45.832 119.679 44.296 114.815 44.296C109.865 44.296 105.94 45.832 103.039 48.904C100.223 51.8907 98.8145 56.2 98.8145 61.832V101H80.8945V6.28H98.8145V38.92C101.119 35.848 104.191 33.4587 108.031 31.752C111.871 29.96 116.137 29.064 120.831 29.064ZM160.911 65.288C160.911 58.12 162.319 51.7627 165.135 46.216C168.037 40.6693 171.92 36.4027 176.784 33.416C181.733 30.4293 187.237 28.936 193.296 28.936C198.586 28.936 203.194 30.0027 207.12 32.136C211.13 34.2693 214.33 36.9573 216.72 40.2V30.088H234.768V101H216.72V90.632C214.416 93.96 211.216 96.7333 207.12 98.952C203.109 101.085 198.458 102.152 193.168 102.152C187.194 102.152 181.733 100.616 176.784 97.544C171.92 94.472 168.037 90.1627 165.135 84.616C162.319 78.984 160.911 72.5413 160.911 65.288ZM216.72 65.544C216.72 61.192 215.866 57.48 214.16 54.408C212.453 51.2507 210.149 48.8613 207.248 47.24C204.346 45.5333 201.232 44.68 197.904 44.68C194.576 44.68 191.504 45.4907 188.688 47.112C185.872 48.7333 183.568 51.1227 181.776 54.28C180.069 57.352 179.216 61.0213 179.216 65.288C179.216 69.5547 180.069 73.3093 181.776 76.552C183.568 79.7093 185.872 82.1413 188.688 83.848C191.589 85.5547 194.661 86.408 197.904 86.408C201.232 86.408 204.346 85.5973 207.248 83.976C210.149 82.2693 212.453 79.88 214.16 76.808C215.866 73.6507 216.72 69.896 216.72 65.544ZM270.19 41.096C272.494 37.3413 275.48 34.3973 279.15 32.264C282.904 30.1307 287.171 29.064 291.95 29.064V47.88H287.214C281.582 47.88 277.315 49.2027 274.414 51.848C271.598 54.4933 270.19 59.1013 270.19 65.672V101H252.27V30.088H270.19V41.096ZM369.94 64.008C369.94 66.568 369.769 68.872 369.428 70.92H317.588C318.014 76.04 319.806 80.0507 322.964 82.952C326.121 85.8533 330.004 87.304 334.612 87.304C341.268 87.304 346.004 84.4453 348.82 78.728H368.148C366.1 85.5547 362.174 91.1867 356.372 95.624C350.569 99.976 343.444 102.152 334.996 102.152C328.169 102.152 322.025 100.659 316.564 97.672C311.188 94.6 306.964 90.2907 303.892 84.744C300.905 79.1973 299.411 72.7973 299.411 65.544C299.411 58.2053 300.905 51.7627 303.892 46.216C306.878 40.6693 311.06 36.4027 316.436 33.416C321.812 30.4293 327.998 28.936 334.996 28.936C341.737 28.936 347.753 30.3867 353.044 33.288C358.42 36.1893 362.558 40.328 365.46 45.704C368.446 50.9947 369.94 57.096 369.94 64.008ZM351.38 58.888C351.294 54.28 349.63 50.6107 346.388 47.88C343.145 45.064 339.177 43.656 334.484 43.656C330.046 43.656 326.292 45.0213 323.22 47.752C320.233 50.3973 318.398 54.1093 317.716 58.888H351.38ZM422.608 21.64C419.45 21.64 416.805 20.6587 414.672 18.696C412.624 16.648 411.6 14.1307 411.6 11.144C411.6 8.15733 412.624 5.68266 414.672 3.71999C416.805 1.67199 419.45 0.647995 422.608 0.647995C425.765 0.647995 428.368 1.67199 430.416 3.71999C432.549 5.68266 433.616 8.15733 433.616 11.144C433.616 14.1307 432.549 16.648 430.416 18.696C428.368 20.6587 425.765 21.64 422.608 21.64ZM431.44 30.088V101H413.52V30.088H431.44ZM470.009 44.808V79.112C470.009 81.5013 470.563 83.2507 471.673 84.36C472.867 85.384 474.83 85.896 477.561 85.896H485.881V101H474.617C459.513 101 451.961 93.6613 451.961 78.984V44.808H443.513V30.088H451.961V12.552H470.009V30.088H485.881V44.808H470.009Z" fill="#005D59"/>
</svg>
