<svg width="356" height="136" viewBox="0 0 356 136" fill="none" xmlns="http://www.w3.org/2000/svg">
<path d="M66.0695 11.656V26.12H42.2615V101H24.3415V26.12H0.5335V11.656H66.0695ZM74.5365 65.288C74.5365 58.12 75.9445 51.7627 78.7605 46.216C81.6618 40.6693 85.5445 36.4027 90.4085 33.416C95.3578 30.4293 100.862 28.936 106.921 28.936C112.211 28.936 116.819 30.0027 120.745 32.136C124.755 34.2693 127.955 36.9573 130.345 40.2V30.088H148.393V101H130.345V90.632C128.041 93.96 124.841 96.7333 120.745 98.952C116.734 101.085 112.083 102.152 106.793 102.152C100.819 102.152 95.3578 100.616 90.4085 97.544C85.5445 94.472 81.6618 90.1627 78.7605 84.616C75.9445 78.984 74.5365 72.5413 74.5365 65.288ZM130.345 65.544C130.345 61.192 129.491 57.48 127.785 54.408C126.078 51.2507 123.774 48.8613 120.873 47.24C117.971 45.5333 114.857 44.68 111.529 44.68C108.201 44.68 105.129 45.4907 102.312 47.112C99.4965 48.7333 97.1925 51.1227 95.4005 54.28C93.6938 57.352 92.8405 61.0213 92.8405 65.288C92.8405 69.5547 93.6938 73.3093 95.4005 76.552C97.1925 79.7093 99.4965 82.1413 102.312 83.848C105.214 85.5547 108.286 86.408 111.529 86.408C114.857 86.408 117.971 85.5973 120.873 83.976C123.774 82.2693 126.078 79.88 127.785 76.808C129.491 73.6507 130.345 69.896 130.345 65.544ZM193.671 28.936C198.961 28.936 203.612 30.0027 207.623 32.136C211.633 34.184 214.791 36.872 217.095 40.2V30.088H235.143V101.512C235.143 108.083 233.82 113.928 231.175 119.048C228.529 124.253 224.561 128.349 219.271 131.336C213.98 134.408 207.58 135.944 200.071 135.944C190.001 135.944 181.724 133.597 175.239 128.904C168.839 124.211 165.212 117.811 164.359 109.704H182.151C183.089 112.947 185.095 115.507 188.167 117.384C191.324 119.347 195.121 120.328 199.559 120.328C204.764 120.328 208.988 118.749 212.231 115.592C215.473 112.52 217.095 107.827 217.095 101.512V90.504C214.791 93.832 211.591 96.6053 207.495 98.824C203.484 101.043 198.876 102.152 193.671 102.152C187.697 102.152 182.236 100.616 177.287 97.544C172.337 94.472 168.412 90.1627 165.51 84.616C162.694 78.984 161.286 72.5413 161.286 65.288C161.286 58.12 162.694 51.7627 165.51 46.216C168.412 40.6693 172.295 36.4027 177.159 33.416C182.108 30.4293 187.612 28.936 193.671 28.936ZM217.095 65.544C217.095 61.192 216.241 57.48 214.535 54.408C212.828 51.2507 210.524 48.8613 207.623 47.24C204.721 45.5333 201.607 44.68 198.279 44.68C194.951 44.68 191.879 45.4907 189.062 47.112C186.247 48.7333 183.943 51.1227 182.151 54.28C180.444 57.352 179.591 61.0213 179.591 65.288C179.591 69.5547 180.444 73.3093 182.151 76.552C183.943 79.7093 186.247 82.1413 189.062 83.848C191.964 85.5547 195.036 86.408 198.279 86.408C201.607 86.408 204.721 85.5973 207.623 83.976C210.524 82.2693 212.828 79.88 214.535 76.808C216.241 73.6507 217.095 69.896 217.095 65.544ZM292.233 21.64C289.075 21.64 286.43 20.6587 284.297 18.696C282.249 16.648 281.225 14.1307 281.225 11.144C281.225 8.15733 282.249 5.68266 284.297 3.71999C286.43 1.67199 289.075 0.647995 292.233 0.647995C295.39 0.647995 297.993 1.67199 300.041 3.71999C302.174 5.68266 303.241 8.15733 303.241 11.144C303.241 14.1307 302.174 16.648 300.041 18.696C297.993 20.6587 295.39 21.64 292.233 21.64ZM301.065 30.088V101H283.145V30.088H301.065ZM339.634 44.808V79.112C339.634 81.5013 340.188 83.2507 341.298 84.36C342.492 85.384 344.455 85.896 347.186 85.896H355.506V101H344.242C329.138 101 321.586 93.6613 321.586 78.984V44.808H313.138V30.088H321.586V12.552H339.634V30.088H355.506V44.808H339.634Z" fill="#005D59"/>
</svg>
