<svg width="96" height="93" viewBox="0 0 96 93" fill="none" xmlns="http://www.w3.org/2000/svg">
<rect x="2.35756" y="2.21913" width="90.5622" height="88.5622" rx="44.2811" fill="#DFEBFD" stroke="url(#paint0_linear_2_10722)" stroke-width="4.43778"/>
<g clip-path="url(#clip0_2_10722)">
<path d="M58.1077 36.9998H38.1377V56.9698H58.1077V36.9998Z" fill="white"/>
<path d="M41.4656 40.3281H44.7939V36.9997H41.4656V40.3281Z" fill="#E34980"/>
<path d="M38.1375 40.3281H41.4658V36.9997H38.1375V40.3281Z" fill="#FD4A78"/>
<path d="M54.7796 46.9849H58.1079V43.6565H54.7796V46.9849Z" fill="#9C3F96"/>
<path d="M41.4656 56.9697H44.7939V53.6413H41.4656V56.9697Z" fill="#69BAA2"/>
<path d="M38.1375 56.9697H41.4658V53.6413H38.1375V56.9697Z" fill="#17D4D0"/>
<path d="M51.451 46.9849H54.7793V43.6565H51.451V46.9849Z" fill="#8E3688"/>
<path d="M41.4656 50.3132H44.7939V46.9848H41.4656V50.3132Z" fill="#22578B"/>
<path d="M38.1375 50.3132H41.4658V46.9848H38.1375V50.3132Z" fill="#3071A1"/>
<path d="M38.1375 43.6565H41.4658V40.3281H38.1375V43.6565Z" fill="#78368D"/>
<path d="M51.451 40.3281H54.7793V36.9997H51.451V40.3281Z" fill="#87368C"/>
<path d="M51.451 43.6565H54.7793V40.3281H51.451V43.6565Z" fill="#763589"/>
<path d="M44.7947 56.9697H48.123V53.6413H44.7947V56.9697Z" fill="#4BA493"/>
<path d="M44.7947 53.6416H48.123V50.3132H44.7947V53.6416Z" fill="#3780B1"/>
<path d="M38.1375 53.6416H41.4658V50.3132H38.1375V53.6416Z" fill="#4CA48D"/>
<path d="M51.451 50.3132H54.7793V46.9848H51.451V50.3132Z" fill="#AF275D"/>
<path d="M44.7947 40.3281H48.123V36.9997H44.7947V40.3281Z" fill="#BC357B"/>
<path d="M41.4656 53.6416H44.7939V50.3132H41.4656V53.6416Z" fill="#266099"/>
<path d="M38.1375 46.9849H41.4658V43.6565H38.1375V46.9849Z" fill="#224E9C"/>
<path d="M51.451 56.9697H54.7793V53.6413H51.451V56.9697Z" fill="#EA8541"/>
<path d="M54.7796 50.3132H58.1079V46.9848H54.7796V50.3132Z" fill="#E94059"/>
<path d="M54.7796 40.3748H58.1079V36.9999H54.7796V40.3748Z" fill="#2F709E"/>
<path d="M44.7947 46.9849H48.123V43.6565H44.7947V46.9849Z" fill="#83236D"/>
<path d="M54.7796 56.9697H58.1079V53.6413H54.7796V56.9697Z" fill="#F7DD30"/>
<path d="M51.451 53.6416H54.7793V50.3132H51.451V53.6416Z" fill="#DB385E"/>
<path d="M54.7796 53.6416H58.1079V50.3132H54.7796V53.6416Z" fill="#EF9938"/>
<path d="M48.1228 40.3281H51.4512V36.9997H48.1228V40.3281Z" fill="#A9358A"/>
<path d="M44.7947 50.3132H48.123V46.9848H44.7947V50.3132Z" fill="#111E71"/>
<path d="M41.4656 46.9849H44.7939V43.6565H41.4656V46.9849Z" fill="#2D338B"/>
<path d="M54.7796 43.7031H58.1079V40.3747H54.7796V43.7031Z" fill="#6C64A8"/>
<path d="M48.1228 56.9697H51.4512V53.6413H48.1228V56.9697Z" fill="#E65B3A"/>
<path d="M48.1228 53.6416H51.4512V50.3132H48.1228V53.6416Z" fill="#68378B"/>
<path d="M48.1228 46.9854H51.4512V43.657H48.1228V46.9854Z" fill="#400B4D"/>
<path d="M48.1228 50.3132H51.4512V46.9848H48.1228V50.3132Z" fill="#58114C"/>
<path d="M41.4656 43.6565H44.7939V40.3281H41.4656V43.6565Z" fill="#8D3687"/>
<path d="M48.1228 43.6565H51.4512V40.3281H48.1228V43.6565Z" fill="#931F36"/>
<path d="M44.7947 43.6565H48.123V40.3281H44.7947V43.6565Z" fill="#AF2655"/>
</g>
<path d="M45.5938 12.988C45.5938 12.5949 45.7103 12.2106 45.9287 11.8837C46.1472 11.5568 46.4576 11.302 46.8208 11.1516C47.184 11.0011 47.5837 10.9617 47.9693 11.0384C48.3549 11.1151 48.7091 11.3045 48.9871 11.5825C49.2651 11.8605 49.4544 12.2146 49.5311 12.6002C49.6078 12.9858 49.5684 13.3855 49.418 13.7487C49.2675 14.1119 49.0127 14.4224 48.6859 14.6408C48.359 14.8592 47.9746 14.9758 47.5815 14.9758C47.0543 14.9758 46.5487 14.7663 46.176 14.3936C45.8032 14.0208 45.5937 13.5152 45.5938 12.988Z" fill="#85A1B9"/>
<path d="M60.4207 15.9973C60.6118 15.6537 60.9005 15.3745 61.2503 15.1949C61.6001 15.0153 61.9954 14.9434 62.3861 14.9884C62.7767 15.0333 63.1453 15.193 63.4452 15.4473C63.7451 15.7016 63.9628 16.0391 64.0709 16.417C64.1789 16.795 64.1724 17.1965 64.0522 17.5707C63.932 17.945 63.7034 18.2753 63.3955 18.5197C63.0875 18.7642 62.7139 18.9119 62.322 18.9441C61.9301 18.9764 61.5374 18.8918 61.1935 18.701C60.7332 18.4441 60.3934 18.0154 60.2486 17.5086C60.1037 17.0019 60.1656 16.4585 60.4207 15.9973Z" fill="#85A1B9"/>
<path d="M74.3332 27.2192C74.6634 27.006 75.0495 26.8955 75.4425 26.9019C75.8355 26.9082 76.2178 27.031 76.541 27.2547C76.8642 27.4785 77.1139 27.7931 77.2583 28.1588C77.4028 28.5245 77.4356 28.9249 77.3526 29.3093C77.2695 29.6936 77.0744 30.0447 76.7919 30.3181C76.5094 30.5915 76.1521 30.7749 75.7654 30.8452C75.3786 30.9154 74.9798 30.8693 74.6192 30.7127C74.2587 30.5561 73.9527 30.296 73.7399 29.9653C73.5982 29.7462 73.5011 29.5012 73.4542 29.2444C73.4073 28.9877 73.4115 28.7242 73.4666 28.469C73.5217 28.2139 73.6266 27.9722 73.7754 27.7577C73.9241 27.5432 74.1136 27.3602 74.3332 27.2192Z" fill="#85A1B9"/>
<path d="M82.0366 42.804C82.4297 42.804 82.814 42.9206 83.1409 43.139C83.4678 43.3574 83.7226 43.6678 83.873 44.031C84.0235 44.3943 84.0628 44.7939 83.9861 45.1795C83.9094 45.5651 83.7201 45.9193 83.4421 46.1973C83.1641 46.4752 82.81 46.6646 82.4244 46.7413C82.0388 46.818 81.6391 46.7786 81.2759 46.6281C80.9127 46.4777 80.6022 46.2229 80.3838 45.896C80.1654 45.5692 80.0488 45.1849 80.0488 44.7917C80.0488 44.2645 80.2582 43.7589 80.631 43.3862C81.0038 43.0134 81.5094 42.804 82.0366 42.804Z" fill="#85A1B9"/>
<path d="M78.1489 63.2712C78.4247 63.55 78.6119 63.9042 78.6869 64.2892C78.7619 64.6742 78.7213 65.0728 78.5702 65.4348C78.4191 65.7967 78.1643 66.1059 77.8379 66.3234C77.5115 66.5409 77.128 66.6569 76.7358 66.6569C76.3436 66.6569 75.9601 66.5409 75.6337 66.3234C75.3073 66.1059 75.0525 65.7967 74.9014 65.4348C74.7503 65.0728 74.7097 64.6742 74.7847 64.2892C74.8597 63.9042 75.0469 63.55 75.3227 63.2712C75.5076 63.0843 75.7276 62.936 75.9702 62.8347C76.2128 62.7335 76.473 62.6814 76.7358 62.6814C76.9986 62.6814 77.2589 62.7335 77.5014 62.8347C77.744 62.936 77.964 63.0843 78.1489 63.2712Z" fill="#85A1B9"/>
<path d="M63.5395 72.59C63.8154 72.8688 64.0026 73.2231 64.0775 73.6081C64.1525 73.9931 64.1119 74.3916 63.9608 74.7536C63.8097 75.1156 63.555 75.4248 63.2285 75.6422C62.9021 75.8597 62.5187 75.9758 62.1264 75.9758C61.7342 75.9758 61.3507 75.8597 61.0243 75.6422C60.6979 75.4248 60.4431 75.1156 60.292 74.7536C60.141 74.3916 60.1003 73.9931 60.1753 73.6081C60.2503 73.2231 60.4375 72.8688 60.7133 72.59C60.8982 72.4032 61.1183 72.2548 61.3608 72.1536C61.6034 72.0524 61.8636 72.0002 62.1264 72.0002C62.3893 72.0002 62.6495 72.0524 62.8921 72.1536C63.1346 72.2548 63.3547 72.4032 63.5395 72.59Z" fill="#85A1B9"/>
<path d="M48.5395 76.59C48.8154 76.8688 49.0026 77.2231 49.0775 77.6081C49.1525 77.9931 49.1119 78.3916 48.9608 78.7536C48.8097 79.1156 48.555 79.4248 48.2285 79.6422C47.9021 79.8597 47.5187 79.9758 47.1264 79.9758C46.7342 79.9758 46.3507 79.8597 46.0243 79.6422C45.6979 79.4248 45.4431 79.1156 45.292 78.7536C45.141 78.3916 45.1003 77.9931 45.1753 77.6081C45.2503 77.2231 45.4375 76.8688 45.7133 76.59C45.8982 76.4032 46.1183 76.2548 46.3608 76.1536C46.6034 76.0524 46.8636 76.0002 47.1264 76.0002C47.3893 76.0002 47.6495 76.0524 47.8921 76.1536C48.1346 76.2548 48.3547 76.4032 48.5395 76.59Z" fill="#85A1B9"/>
<path d="M33.4181 15.9973C33.227 15.6537 32.9383 15.3745 32.5885 15.1949C32.2387 15.0153 31.8434 14.9434 31.4527 14.9884C31.0621 15.0333 30.6935 15.193 30.3936 15.4473C30.0937 15.7016 29.876 16.0391 29.7679 16.417C29.6599 16.795 29.6664 17.1965 29.7866 17.5707C29.9068 17.945 30.1354 18.2753 30.4433 18.5197C30.7513 18.7642 31.1249 18.9119 31.5168 18.9441C31.9087 18.9764 32.3014 18.8918 32.6453 18.701C33.1056 18.4441 33.4454 18.0154 33.5902 17.5086C33.7351 17.0019 33.6732 16.4585 33.4181 15.9973Z" fill="#85A1B9"/>
<path d="M19.5037 27.2192C19.1734 27.006 18.7874 26.8955 18.3944 26.9019C18.0013 26.9082 17.619 27.031 17.2958 27.2547C16.9726 27.4785 16.723 27.7931 16.5785 28.1588C16.434 28.5245 16.4013 28.9249 16.4843 29.3093C16.5673 29.6936 16.7625 30.0447 17.045 30.3181C17.3275 30.5915 17.6847 30.7749 18.0714 30.8452C18.4582 30.9154 18.8571 30.8693 19.2176 30.7127C19.5781 30.5561 19.8841 30.296 20.0969 29.9653C20.2387 29.7462 20.3358 29.5012 20.3827 29.2444C20.4296 28.9877 20.4254 28.7242 20.3702 28.469C20.3151 28.2139 20.2102 27.9722 20.0615 27.7577C19.9128 27.5432 19.7232 27.3602 19.5037 27.2192Z" fill="#85A1B9"/>
<path d="M15.2029 43.3178C14.8726 43.1046 14.4866 42.9942 14.0936 43.0005C13.7006 43.0068 13.3183 43.1296 12.995 43.3533C12.6718 43.5771 12.4222 43.8917 12.2777 44.2575C12.1333 44.6232 12.1005 45.0235 12.1835 45.4079C12.2665 45.7923 12.4617 46.1434 12.7442 46.4168C13.0267 46.6902 13.3839 46.8736 13.7707 46.9438C14.1574 47.014 14.5563 46.9679 14.9168 46.8113C15.2774 46.6547 15.5834 46.3946 15.7961 46.064C15.9379 45.8448 16.035 45.5998 16.0819 45.3431C16.1288 45.0863 16.1246 44.8228 16.0695 44.5677C16.0144 44.3125 15.9094 44.0708 15.7607 43.8563C15.612 43.6418 15.4224 43.4589 15.2029 43.3178Z" fill="#85A1B9"/>
<path d="M15.6899 63.2712C15.4141 63.55 15.2269 63.9042 15.1519 64.2892C15.0769 64.6742 15.1175 65.0728 15.2686 65.4348C15.4197 65.7967 15.6744 66.1059 16.0009 66.3234C16.3273 66.5409 16.7108 66.6569 17.103 66.6569C17.4952 66.6569 17.8787 66.5409 18.2051 66.3234C18.5315 66.1059 18.7863 65.7967 18.9374 65.4348C19.0885 65.0728 19.1291 64.6742 19.0541 64.2892C18.9791 63.9042 18.792 63.55 18.5161 63.2712C18.3313 63.0843 18.1112 62.936 17.8686 62.8347C17.626 62.7335 17.3658 62.6814 17.103 62.6814C16.8402 62.6814 16.5799 62.7335 16.3374 62.8347C16.0948 62.936 15.8748 63.0843 15.6899 63.2712Z" fill="#85A1B9"/>
<path d="M28.9399 75.1946C28.664 75.4737 28.4768 75.8282 28.4019 76.2136C28.3269 76.599 28.3675 76.998 28.5186 77.3603C28.6697 77.7226 28.9245 78.0321 29.2509 78.2498C29.5773 78.4675 29.9608 78.5837 30.353 78.5837C30.7452 78.5837 31.1287 78.4675 31.4551 78.2498C31.7815 78.0321 32.0363 77.7226 32.1874 77.3603C32.3385 76.998 32.3791 76.599 32.3041 76.2136C32.2291 75.8282 32.0419 75.4737 31.7661 75.1946C31.5806 75.0087 31.3603 74.8612 31.1178 74.7606C30.8754 74.6599 30.6155 74.6082 30.353 74.6082C30.0905 74.6082 29.8306 74.6599 29.5881 74.7606C29.3456 74.8612 29.1254 75.0087 28.9399 75.1946Z" fill="#85A1B9"/>
<path d="M46.1387 46.822C46.1387 46.4289 46.2552 46.0445 46.4737 45.7176C46.6921 45.3908 47.0025 45.136 47.3657 44.9855C47.7289 44.8351 48.1286 44.7957 48.5142 44.8724C48.8998 44.9491 49.254 45.1384 49.532 45.4164C49.81 45.6944 49.9993 46.0486 50.076 46.4342C50.1527 46.8198 50.1133 47.2195 49.9629 47.5827C49.8124 47.9459 49.5576 48.2563 49.2307 48.4748C48.9039 48.6932 48.5196 48.8097 48.1264 48.8097C47.8654 48.8097 47.6069 48.7583 47.3657 48.6584C47.1246 48.5585 46.9054 48.4121 46.7209 48.2275C46.5363 48.043 46.3899 47.8238 46.29 47.5827C46.1901 47.3415 46.1387 47.083 46.1387 46.822Z" fill="#85A1B9"/>
<path d="M65.6168 32.0002L46.8906 46.7205L47.8925 47.9987L66.6187 33.2785L65.6168 32.0002Z" fill="#85A1B9"/>
<path d="M61.6433 55.2204L48.1875 45.6975L47.2474 47.0219L60.7033 56.5448L61.6433 55.2204Z" fill="#85A1B9"/>
<defs>
<linearGradient id="paint0_linear_2_10722" x1="47.6387" y1="0.000244141" x2="47.6387" y2="93.0002" gradientUnits="userSpaceOnUse">
<stop stop-color="#FE4A78"/>
<stop offset="0.270833" stop-color="#F8DE30"/>
<stop offset="0.734375" stop-color="#17D5D1"/>
<stop offset="1" stop-color="#408583"/>
</linearGradient>
<clipPath id="clip0_2_10722">
<rect x="38.1387" y="37.0002" width="19.97" height="19.97" rx="9.98501" fill="white"/>
</clipPath>
</defs>
</svg>
