<svg width="121" height="19" viewBox="0 0 121 19" fill="none" xmlns="http://www.w3.org/2000/svg">
<path d="M15.2729 1.248L9.60888 12.168V18H6.24888V12.168L0.560875 1.248H4.35288L7.95288 8.904L11.5289 1.248H15.2729ZM16.3467 11.304C16.3467 9.96 16.6107 8.768 17.1387 7.728C17.6827 6.688 18.4107 5.888 19.3227 5.328C20.2507 4.768 21.2827 4.488 22.4187 4.488C23.4107 4.488 24.2747 4.688 25.0107 5.088C25.7627 5.488 26.3627 5.992 26.8107 6.6V4.704H30.1947V18H26.8107V16.056C26.3787 16.68 25.7787 17.2 25.0107 17.616C24.2587 18.016 23.3867 18.216 22.3947 18.216C21.2747 18.216 20.2507 17.928 19.3227 17.352C18.4107 16.776 17.6827 15.968 17.1387 14.928C16.6107 13.872 16.3467 12.664 16.3467 11.304ZM26.8107 11.352C26.8107 10.536 26.6507 9.84 26.3307 9.264C26.0107 8.672 25.5787 8.224 25.0347 7.92C24.4907 7.6 23.9067 7.44 23.2827 7.44C22.6587 7.44 22.0827 7.592 21.5547 7.896C21.0267 8.2 20.5947 8.648 20.2587 9.24C19.9387 9.816 19.7787 10.504 19.7787 11.304C19.7787 12.104 19.9387 12.808 20.2587 13.416C20.5947 14.008 21.0267 14.464 21.5547 14.784C22.0987 15.104 22.6747 15.264 23.2827 15.264C23.9067 15.264 24.4907 15.112 25.0347 14.808C25.5787 14.488 26.0107 14.04 26.3307 13.464C26.6507 12.872 26.8107 12.168 26.8107 11.352ZM36.8363 0.24V18H33.4763V0.24H36.8363ZM43.516 0.24V18H40.156V0.24H43.516ZM45.9717 11.304C45.9717 9.96 46.2357 8.768 46.7637 7.728C47.3077 6.688 48.0357 5.888 48.9477 5.328C49.8757 4.768 50.9077 4.488 52.0437 4.488C53.0357 4.488 53.8997 4.688 54.6357 5.088C55.3877 5.488 55.9877 5.992 56.4357 6.6V4.704H59.8197V18H56.4357V16.056C56.0037 16.68 55.4037 17.2 54.6357 17.616C53.8837 18.016 53.0117 18.216 52.0197 18.216C50.8997 18.216 49.8757 17.928 48.9477 17.352C48.0357 16.776 47.3077 15.968 46.7637 14.928C46.2357 13.872 45.9717 12.664 45.9717 11.304ZM56.4357 11.352C56.4357 10.536 56.2757 9.84 55.9557 9.264C55.6357 8.672 55.2037 8.224 54.6597 7.92C54.1157 7.6 53.5317 7.44 52.9077 7.44C52.2837 7.44 51.7077 7.592 51.1797 7.896C50.6517 8.2 50.2197 8.648 49.8837 9.24C49.5637 9.816 49.4037 10.504 49.4037 11.304C49.4037 12.104 49.5637 12.808 49.8837 13.416C50.2197 14.008 50.6517 14.464 51.1797 14.784C51.7237 15.104 52.2997 15.264 52.9077 15.264C53.5317 15.264 54.1157 15.112 54.6597 14.808C55.2037 14.488 55.6357 14.04 55.9557 13.464C56.2757 12.872 56.4357 12.168 56.4357 11.352ZM74.7653 6.288C74.3813 5.584 73.8533 5.048 73.1813 4.68C72.5093 4.312 71.7253 4.128 70.8293 4.128C69.8373 4.128 68.9573 4.352 68.1893 4.8C67.4213 5.248 66.8213 5.888 66.3893 6.72C65.9573 7.552 65.7413 8.512 65.7413 9.6C65.7413 10.72 65.9573 11.696 66.3893 12.528C66.8373 13.36 67.4533 14 68.2373 14.448C69.0213 14.896 69.9333 15.12 70.9733 15.12C72.2533 15.12 73.3013 14.784 74.1173 14.112C74.9333 13.424 75.4693 12.472 75.7253 11.256H69.9653V8.688H79.0373V11.616C78.8133 12.784 78.3333 13.864 77.5973 14.856C76.8613 15.848 75.9093 16.648 74.7413 17.256C73.5893 17.848 72.2933 18.144 70.8533 18.144C69.2373 18.144 67.7733 17.784 66.4613 17.064C65.1653 16.328 64.1413 15.312 63.3893 14.016C62.6533 12.72 62.2853 11.248 62.2853 9.6C62.2853 7.952 62.6533 6.48 63.3893 5.184C64.1413 3.872 65.1653 2.856 66.4613 2.136C67.7733 1.4 69.2293 1.032 70.8293 1.032C72.7173 1.032 74.3573 1.496 75.7493 2.424C77.1413 3.336 78.1013 4.624 78.6293 6.288H74.7653ZM84.8832 6.768C85.3152 6.064 85.8752 5.512 86.5632 5.112C87.2672 4.712 88.0672 4.512 88.9632 4.512V8.04H88.0752C87.0192 8.04 86.2192 8.288 85.6752 8.784C85.1472 9.28 84.8832 10.144 84.8832 11.376V18H81.5232V4.704H84.8832V6.768ZM103.778 4.704V18H100.394V16.32C99.9623 16.896 99.3943 17.352 98.6903 17.688C98.0023 18.008 97.2503 18.168 96.4343 18.168C95.3943 18.168 94.4743 17.952 93.6743 17.52C92.8743 17.072 92.2423 16.424 91.7783 15.576C91.3303 14.712 91.1063 13.688 91.1063 12.504V4.704H94.4663V12.024C94.4663 13.08 94.7303 13.896 95.2583 14.472C95.7863 15.032 96.5063 15.312 97.4183 15.312C98.3463 15.312 99.0743 15.032 99.6023 14.472C100.13 13.896 100.394 13.08 100.394 12.024V4.704H103.778ZM110.454 6.648C110.886 6.008 111.478 5.488 112.23 5.088C112.998 4.688 113.87 4.488 114.846 4.488C115.982 4.488 117.006 4.768 117.918 5.328C118.846 5.888 119.574 6.688 120.102 7.728C120.646 8.752 120.918 9.944 120.918 11.304C120.918 12.664 120.646 13.872 120.102 14.928C119.574 15.968 118.846 16.776 117.918 17.352C117.006 17.928 115.982 18.216 114.846 18.216C113.854 18.216 112.982 18.024 112.23 17.64C111.494 17.24 110.902 16.728 110.454 16.104V18H107.094V0.24H110.454V6.648ZM117.486 11.304C117.486 10.504 117.318 9.816 116.982 9.24C116.662 8.648 116.23 8.2 115.686 7.896C115.158 7.592 114.582 7.44 113.958 7.44C113.35 7.44 112.774 7.6 112.23 7.92C111.702 8.224 111.27 8.672 110.934 9.264C110.614 9.856 110.454 10.552 110.454 11.352C110.454 12.152 110.614 12.848 110.934 13.44C111.27 14.032 111.702 14.488 112.23 14.808C112.774 15.112 113.35 15.264 113.958 15.264C114.582 15.264 115.158 15.104 115.686 14.784C116.23 14.464 116.662 14.008 116.982 13.416C117.318 12.824 117.486 12.12 117.486 11.304Z" fill="#005D59"/>
</svg>
