<svg width="400" height="401" viewBox="0 0 400 401" fill="none" xmlns="http://www.w3.org/2000/svg">
<g clip-path="url(#clip0_2_10954)">
<path d="M400 1.00171H0V401.002H400V1.00171Z" fill="white"/>
<path d="M66.6712 67.6697L133.338 67.6697V1.00192L66.6712 1.00192L66.6712 67.6697Z" fill="#E34980"/>
<path d="M0.00520325 67.6697L66.6719 67.6697L66.6719 1.00192L0.00520325 1.00192L0.00520325 67.6697Z" fill="#FD4A78"/>
<path d="M333.334 201H400.001V134.332H333.334V201Z" fill="#9C3F96"/>
<path d="M66.6712 400.999H133.338V334.331H66.6712L66.6712 400.999Z" fill="#69BAA2"/>
<path d="M0.00520325 400.999H66.6719L66.6719 334.331H0.00520325L0.00520325 400.999Z" fill="#17D4D0"/>
<path d="M266.662 201H333.329V134.332H266.662V201Z" fill="#8E3688"/>
<path d="M66.6712 267.662H133.338V200.995H66.6712L66.6712 267.662Z" fill="#22578B"/>
<path d="M0.00520325 267.662H66.6719L66.6719 200.995H0.00520325L0.00520325 267.662Z" fill="#3071A1"/>
<path d="M0.00520325 134.332H66.6719L66.6719 67.664L0.00520325 67.664L0.00520325 134.332Z" fill="#78368D"/>
<path d="M266.662 67.6697L333.329 67.6697V1.00192L266.662 1.00192V67.6697Z" fill="#87368C"/>
<path d="M266.662 134.332H333.329V67.664L266.662 67.664V134.332Z" fill="#763589"/>
<path d="M133.337 400.999H200.004V334.331H133.337V400.999Z" fill="#4BA493"/>
<path d="M133.337 334.331H200.004V267.663H133.337V334.331Z" fill="#3780B1"/>
<path d="M0.00520325 334.331H66.6719L66.6719 267.663H0.00520325L0.00520325 334.331Z" fill="#4CA48D"/>
<path d="M266.662 267.668H333.329V201H266.662V267.668Z" fill="#AF275D"/>
<path d="M133.337 67.6697L200.004 67.6697V1.00192L133.337 1.00192V67.6697Z" fill="#BC357B"/>
<path d="M66.6712 334.331H133.338V267.663H66.6712L66.6712 334.331Z" fill="#266099"/>
<path d="M0.00520325 201H66.6719L66.6719 134.332H0.00520325L0.00520325 201Z" fill="#224E9C"/>
<path d="M266.662 400.999H333.329V334.331H266.662V400.999Z" fill="#EA8541"/>
<path d="M333.334 267.668H400.001V201H333.334V267.668Z" fill="#E94059"/>
<path d="M333.334 68.5978L400.001 68.5978V0.999977L333.334 0.999977V68.5978Z" fill="#2F709E"/>
<path d="M133.337 201H200.004V134.332H133.337V201Z" fill="#83236D"/>
<path d="M333.334 400.999H400.001V334.331H333.334V400.999Z" fill="#F7DD30"/>
<path d="M266.662 334.331H333.329V267.663H266.662V334.331Z" fill="#DB385E"/>
<path d="M333.334 334.331H400.001V267.663H333.334V334.331Z" fill="#EF9938"/>
<path d="M199.997 67.6697L266.663 67.6697V1.00192L199.997 1.00192V67.6697Z" fill="#A9358A"/>
<path d="M133.337 267.662H200.004V200.995H133.337V267.662Z" fill="#111E71"/>
<path d="M66.6712 201H133.338V134.332H66.6712L66.6712 201Z" fill="#2D338B"/>
<path d="M333.334 135.272H400.001V68.6044L333.334 68.6044V135.272Z" fill="#6C64A8"/>
<path d="M199.997 400.999H266.663V334.331H199.997V400.999Z" fill="#E65B3A"/>
<path d="M199.997 334.331H266.663V267.663H199.997V334.331Z" fill="#68378B"/>
<path d="M199.997 201.006H266.663V134.338H199.997V201.006Z" fill="#400B4D"/>
<path d="M199.997 267.668H266.663V201H199.997V267.668Z" fill="#58114C"/>
<path d="M66.6712 134.332H133.338V67.664L66.6712 67.664L66.6712 134.332Z" fill="#8D3687"/>
<path d="M199.997 134.332H266.663V67.664L199.997 67.664V134.332Z" fill="#931F36"/>
<path d="M133.337 134.332H200.004V67.664L133.337 67.664V134.332Z" fill="#AF2655"/>
<circle cx="200" cy="201" r="158" fill="#95235B"/>
<path d="M326.943 94H244.024C240.906 94 238.378 96.528 238.378 99.6464V257.81C238.378 260.929 240.906 263.457 244.024 263.457H326.943C330.061 263.457 332.589 260.929 332.589 257.81V99.6464C332.589 96.528 330.061 94 326.943 94Z" fill="#263238"/>
<path d="M329.412 99.6722V257.471C329.412 257.777 329.352 258.08 329.234 258.362C329.116 258.644 328.943 258.9 328.725 259.115C328.507 259.33 328.249 259.499 327.965 259.613C327.681 259.728 327.378 259.784 327.072 259.78H243.654C243.377 259.783 243.101 259.731 242.844 259.625C242.587 259.52 242.354 259.364 242.159 259.166C241.964 258.969 241.81 258.734 241.708 258.475C241.606 258.217 241.557 257.941 241.563 257.663V99.4867C241.548 98.9953 241.727 98.5177 242.063 98.1582C242.398 97.7988 242.863 97.5867 243.354 97.5684H264.207C264.499 97.5732 264.783 97.6654 265.022 97.8329C265.261 98.0004 265.445 98.2356 265.55 98.5084L266.413 100.631C266.52 100.901 266.705 101.133 266.944 101.298C267.183 101.463 267.465 101.554 267.756 101.559H303.265C303.554 101.557 303.836 101.469 304.075 101.306C304.315 101.143 304.5 100.913 304.608 100.644L305.471 98.5084C305.577 98.2366 305.761 98.0023 306 97.835C306.239 97.6677 306.522 97.5749 306.814 97.5684H327.366C327.914 97.5834 328.434 97.8116 328.817 98.2045C329.199 98.5975 329.412 99.124 329.412 99.6722Z" fill="#FE4A78"/>
<path opacity="0.6" d="M329.418 107.403H241.562V250.897H329.418V107.403Z" fill="white"/>
<path opacity="0.6" d="M251.238 103.905H252.325V102.46H251.238V103.905Z" fill="white"/>
<path opacity="0.6" d="M249.473 103.905H250.561V101.974H249.473V103.905Z" fill="white"/>
<path opacity="0.6" d="M247.701 103.905H248.788V101.494H247.701V103.905Z" fill="white"/>
<path opacity="0.6" d="M245.936 103.905H247.023V101.008H245.936V103.905Z" fill="white"/>
<path opacity="0.6" d="M319.473 101.929H318.827V103.375H319.473V101.929Z" fill="white"/>
<path opacity="0.6" d="M319.915 103.905H325.037V101.405H319.915V103.905Z" fill="white"/>
<path opacity="0.6" d="M328.305 176.912H242.669V194.248H328.305V176.912Z" fill="white"/>
<path opacity="0.6" d="M284.265 98.9623C284.933 98.9623 285.474 98.4212 285.474 97.7537C285.474 97.0863 284.933 96.5452 284.265 96.5452C283.598 96.5452 283.057 97.0863 283.057 97.7537C283.057 98.4212 283.598 98.9623 284.265 98.9623Z" fill="white"/>
<path opacity="0.6" d="M287.91 97.7534C287.91 97.9067 287.864 98.0565 287.779 98.1839C287.694 98.3113 287.572 98.4105 287.431 98.4688C287.289 98.5272 287.133 98.5421 286.983 98.5118C286.832 98.4814 286.695 98.4071 286.587 98.2982C286.479 98.1894 286.406 98.0509 286.376 97.9004C286.347 97.7499 286.364 97.5941 286.423 97.4528C286.483 97.3116 286.583 97.1912 286.711 97.1069C286.839 97.0227 286.989 96.9784 287.142 96.9796C287.347 96.9813 287.542 97.0636 287.685 97.2085C287.829 97.3534 287.91 97.5493 287.91 97.7534Z" fill="white"/>
<path opacity="0.6" d="M328.305 221.348H242.669V231.433H328.305V221.348Z" fill="white"/>
<path d="M285.947 224.456V228.485H285.378V224.955H284.47V224.456H285.947Z" fill="#263238"/>
<path d="M308.276 188.211V189.03H307.809V188.211C307.169 188.197 306.551 187.972 306.051 187.572L306.319 187.009C306.741 187.357 307.263 187.561 307.809 187.591V185.903C307.016 185.705 306.172 185.455 306.172 184.464C306.172 183.748 306.684 183.121 307.809 183.032V182.2H308.276V183.019C308.799 183.036 309.309 183.19 309.753 183.466L309.51 184.048C309.141 183.808 308.716 183.667 308.276 183.639V185.327C309.088 185.532 309.964 185.775 309.964 186.766C309.964 187.495 309.427 188.115 308.276 188.211ZM307.809 185.219V183.652C307.17 183.735 306.882 184.061 306.882 184.445C306.882 184.828 307.291 185.065 307.809 185.219ZM309.248 186.817C309.248 186.35 308.813 186.178 308.276 186.024V187.585C308.954 187.521 309.248 187.207 309.248 186.817Z" fill="#263238"/>
<path d="M312.113 183.076V188.192H311.397V183.716H310.246V183.076H312.113Z" fill="#263238"/>
<path d="M313.201 187.706C313.2 187.641 313.211 187.576 313.235 187.515C313.259 187.454 313.295 187.399 313.341 187.352C313.387 187.305 313.442 187.269 313.503 187.244C313.563 187.219 313.628 187.207 313.694 187.207C313.826 187.207 313.953 187.26 314.046 187.354C314.14 187.447 314.192 187.574 314.192 187.706C314.192 187.839 314.14 187.965 314.046 188.059C313.953 188.152 313.826 188.205 313.694 188.205C313.629 188.205 313.564 188.192 313.504 188.167C313.444 188.142 313.389 188.105 313.343 188.059C313.297 188.012 313.261 187.957 313.237 187.897C313.213 187.836 313.2 187.771 313.201 187.706Z" fill="#263238"/>
<path d="M318.655 185.558C318.655 187.291 317.677 188.218 316.251 188.218C315.806 188.236 315.365 188.134 314.972 187.924L315.247 187.355C315.544 187.527 315.883 187.611 316.225 187.598C317.261 187.598 317.914 186.958 317.914 185.679V185.494C317.744 185.72 317.52 185.899 317.264 186.016C317.007 186.134 316.725 186.185 316.443 186.165C316.226 186.189 316.006 186.166 315.798 186.099C315.59 186.033 315.399 185.923 315.235 185.778C315.072 185.633 314.941 185.456 314.851 185.257C314.76 185.058 314.712 184.843 314.71 184.624C314.714 184.398 314.765 184.175 314.86 183.97C314.954 183.764 315.09 183.581 315.258 183.43C315.427 183.279 315.625 183.165 315.84 183.094C316.055 183.024 316.282 182.998 316.507 183.019C317.888 183.019 318.655 183.934 318.655 185.558ZM317.767 184.592C317.767 184.068 317.345 183.608 316.552 183.608C316.411 183.591 316.27 183.605 316.135 183.647C316.001 183.69 315.876 183.76 315.771 183.853C315.665 183.947 315.581 184.062 315.522 184.19C315.464 184.318 315.433 184.458 315.433 184.599C315.433 185.193 315.88 185.577 316.59 185.577C316.733 185.594 316.877 185.581 317.015 185.54C317.153 185.499 317.28 185.431 317.391 185.338C317.501 185.246 317.591 185.132 317.656 185.004C317.72 184.876 317.758 184.736 317.767 184.592Z" fill="#263238"/>
<path d="M323.139 185.558C323.139 187.291 322.16 188.218 320.734 188.218C320.29 188.236 319.848 188.134 319.456 187.924L319.731 187.355C320.027 187.528 320.366 187.612 320.709 187.598C321.745 187.598 322.397 186.958 322.397 185.679V185.494C322.227 185.72 322.004 185.899 321.747 186.016C321.49 186.134 321.208 186.185 320.926 186.165C320.709 186.189 320.49 186.166 320.282 186.1C320.074 186.033 319.882 185.923 319.719 185.778C319.556 185.633 319.425 185.456 319.334 185.257C319.244 185.058 319.196 184.843 319.193 184.624C319.197 184.399 319.247 184.176 319.341 183.97C319.434 183.765 319.569 183.581 319.737 183.43C319.906 183.279 320.103 183.165 320.318 183.094C320.532 183.024 320.759 182.998 320.984 183.019C322.371 183.019 323.139 183.934 323.139 185.558ZM322.25 184.592C322.25 184.068 321.828 183.608 321.035 183.608C320.895 183.591 320.753 183.605 320.618 183.647C320.484 183.69 320.36 183.76 320.254 183.853C320.149 183.947 320.064 184.062 320.006 184.19C319.947 184.318 319.917 184.458 319.916 184.599C319.916 185.193 320.357 185.577 321.073 185.577C321.216 185.594 321.361 185.581 321.498 185.54C321.636 185.499 321.764 185.431 321.874 185.338C321.984 185.246 322.074 185.132 322.139 185.004C322.204 184.876 322.241 184.736 322.25 184.592Z" fill="#263238"/>
<path d="M249.287 190.315V190.603H247.605V190.379L248.558 189.458C248.807 189.215 248.852 189.068 248.852 188.921C248.852 188.678 248.686 188.531 248.353 188.531C248.241 188.525 248.129 188.545 248.026 188.589C247.923 188.634 247.831 188.701 247.759 188.787L247.528 188.589C247.636 188.47 247.769 188.377 247.917 188.316C248.065 188.256 248.225 188.228 248.385 188.237C248.871 188.237 249.191 188.486 249.191 188.876C249.185 189.02 249.147 189.161 249.08 189.289C249.012 189.416 248.917 189.526 248.801 189.612L248.085 190.302L249.287 190.315Z" fill="#263238"/>
<path d="M249.55 189.433C249.55 188.672 249.959 188.237 250.509 188.237C251.059 188.237 251.462 188.672 251.462 189.433C251.462 190.194 251.053 190.629 250.509 190.629C249.965 190.629 249.55 190.181 249.55 189.433ZM251.129 189.433C251.129 188.832 250.873 188.531 250.49 188.531C250.106 188.531 249.85 188.832 249.85 189.433C249.85 190.034 250.106 190.335 250.49 190.335C250.873 190.335 251.129 190.034 251.129 189.433Z" fill="#263238"/>
<path d="M251.743 188.902C251.733 188.823 251.74 188.743 251.763 188.667C251.785 188.591 251.824 188.521 251.876 188.461C251.928 188.4 251.992 188.352 252.063 188.318C252.135 188.283 252.213 188.265 252.293 188.263C252.612 188.263 252.83 188.518 252.83 188.902C252.83 189.286 252.612 189.542 252.293 189.542C252.213 189.54 252.135 189.521 252.063 189.487C251.992 189.453 251.928 189.404 251.876 189.344C251.824 189.284 251.785 189.213 251.763 189.137C251.74 189.061 251.733 188.981 251.743 188.902ZM252.619 188.902C252.619 188.621 252.497 188.455 252.293 188.455C252.088 188.455 251.96 188.621 251.96 188.902C251.96 189.184 252.088 189.35 252.293 189.35C252.497 189.35 252.619 189.164 252.619 188.902ZM253.706 188.263H253.962L252.363 190.603H252.101L253.706 188.263ZM253.233 189.983C253.25 189.879 253.296 189.782 253.367 189.704C253.437 189.626 253.528 189.57 253.63 189.542C253.731 189.514 253.839 189.516 253.939 189.547C254.039 189.579 254.129 189.638 254.196 189.719C254.264 189.799 254.307 189.897 254.321 190.002C254.334 190.106 254.317 190.212 254.273 190.307C254.228 190.402 254.156 190.482 254.067 190.538C253.978 190.594 253.875 190.623 253.77 190.622C253.45 190.622 253.233 190.367 253.233 189.983ZM254.102 189.983C254.102 189.708 253.974 189.535 253.77 189.535C253.565 189.535 253.444 189.701 253.444 189.983C253.444 190.264 253.572 190.437 253.77 190.437C253.968 190.437 254.102 190.264 254.102 189.983Z" fill="#263238"/>
<path d="M254.658 189.721C254.655 189.538 254.705 189.358 254.804 189.204C254.903 189.05 255.045 188.929 255.213 188.857C255.381 188.784 255.567 188.763 255.747 188.796C255.927 188.83 256.093 188.916 256.223 189.044C256.354 189.172 256.444 189.336 256.481 189.515C256.518 189.694 256.501 189.88 256.432 190.05C256.363 190.219 256.245 190.364 256.093 190.466C255.941 190.568 255.762 190.622 255.579 190.623C255.459 190.628 255.338 190.608 255.225 190.565C255.112 190.522 255.01 190.456 254.923 190.371C254.837 190.287 254.769 190.186 254.723 190.074C254.678 189.962 254.656 189.842 254.658 189.721ZM256.174 189.721C256.182 189.639 256.173 189.556 256.146 189.477C256.12 189.399 256.077 189.327 256.021 189.267C255.965 189.206 255.896 189.159 255.82 189.127C255.744 189.095 255.662 189.079 255.579 189.081C255.438 189.114 255.312 189.193 255.221 189.306C255.131 189.419 255.082 189.56 255.082 189.705C255.082 189.85 255.131 189.99 255.221 190.104C255.312 190.217 255.438 190.296 255.579 190.328C255.659 190.331 255.739 190.317 255.813 190.288C255.887 190.258 255.955 190.213 256.011 190.156C256.067 190.099 256.11 190.03 256.138 189.956C256.166 189.881 256.178 189.801 256.174 189.721Z" fill="#263238"/>
<path d="M257.305 188.678V188.832H257.816V189.094H257.311V190.603H256.992V189.094H256.685V188.832H256.992V188.672C256.986 188.595 256.997 188.517 257.024 188.444C257.051 188.372 257.094 188.306 257.15 188.252C257.205 188.197 257.272 188.156 257.345 188.13C257.418 188.105 257.496 188.095 257.573 188.103C257.703 188.097 257.831 188.133 257.938 188.205L257.842 188.448C257.769 188.395 257.682 188.366 257.593 188.365C257.401 188.365 257.305 188.474 257.305 188.678Z" fill="#263238"/>
<path d="M258.482 188.678V188.832H259V189.094H258.488V190.603H258.169V189.094H257.868V188.832H258.169V188.672C258.163 188.594 258.174 188.516 258.201 188.442C258.229 188.369 258.273 188.303 258.329 188.249C258.385 188.194 258.453 188.153 258.527 188.128C258.601 188.103 258.679 188.094 258.757 188.103C258.884 188.098 259.01 188.134 259.115 188.205L259.019 188.448C258.948 188.393 258.86 188.364 258.77 188.365C258.584 188.365 258.482 188.474 258.482 188.678Z" fill="#263238"/>
<path d="M247.759 183.147C247.756 182.869 247.81 182.594 247.918 182.338C248.025 182.081 248.183 181.85 248.383 181.657C248.583 181.464 248.821 181.314 249.08 181.216C249.34 181.119 249.618 181.075 249.895 181.088C250.181 181.078 250.466 181.129 250.73 181.24C250.993 181.35 251.23 181.517 251.423 181.727L251.053 182.092C250.908 181.937 250.733 181.814 250.538 181.731C250.343 181.648 250.132 181.608 249.921 181.612C249.663 181.612 249.409 181.676 249.182 181.798C248.955 181.92 248.762 182.096 248.62 182.312C248.478 182.527 248.392 182.775 248.37 183.031C248.347 183.288 248.389 183.547 248.492 183.783C248.594 184.02 248.754 184.227 248.956 184.387C249.159 184.547 249.398 184.653 249.652 184.697C249.906 184.741 250.167 184.721 250.412 184.639C250.656 184.558 250.876 184.416 251.053 184.228L251.423 184.592C251.228 184.802 250.99 184.968 250.725 185.078C250.461 185.189 250.175 185.241 249.889 185.232C249.61 185.244 249.331 185.199 249.07 185.099C248.809 184.999 248.571 184.847 248.372 184.651C248.172 184.456 248.015 184.222 247.909 183.963C247.804 183.704 247.753 183.426 247.759 183.147Z" fill="#263238"/>
<path d="M251.761 183.607C251.756 183.293 251.845 182.984 252.016 182.719C252.187 182.455 252.433 182.248 252.722 182.124C253.012 182 253.331 181.965 253.641 182.023C253.95 182.082 254.235 182.231 254.459 182.451C254.684 182.672 254.837 182.954 254.901 183.263C254.964 183.571 254.934 183.891 254.815 184.183C254.695 184.474 254.492 184.723 254.231 184.898C253.97 185.074 253.662 185.168 253.347 185.168C253.139 185.177 252.93 185.144 252.735 185.069C252.54 184.995 252.362 184.881 252.213 184.734C252.064 184.588 251.947 184.412 251.87 184.218C251.792 184.024 251.755 183.816 251.761 183.607ZM254.37 183.607C254.362 183.406 254.294 183.211 254.175 183.047C254.057 182.884 253.892 182.759 253.703 182.688C253.514 182.617 253.309 182.603 253.112 182.649C252.915 182.694 252.736 182.796 252.596 182.942C252.457 183.088 252.364 183.272 252.328 183.471C252.293 183.67 252.317 183.875 252.397 184.06C252.477 184.246 252.61 184.403 252.779 184.514C252.948 184.624 253.145 184.683 253.347 184.682C253.487 184.685 253.626 184.658 253.754 184.605C253.883 184.551 254 184.471 254.096 184.37C254.192 184.269 254.266 184.149 254.314 184.018C254.361 183.886 254.38 183.747 254.37 183.607Z" fill="#263238"/>
<path d="M260.765 183.377V185.136H260.208V183.441C260.208 182.84 259.921 182.546 259.422 182.546C259.291 182.541 259.161 182.564 259.041 182.615C258.921 182.666 258.813 182.743 258.726 182.84C258.639 182.937 258.574 183.052 258.536 183.177C258.498 183.302 258.489 183.434 258.507 183.563V185.136H257.951V183.441C257.951 182.84 257.663 182.546 257.165 182.546C257.034 182.541 256.904 182.564 256.784 182.615C256.664 182.666 256.556 182.743 256.469 182.84C256.381 182.937 256.317 183.052 256.279 183.177C256.241 183.302 256.231 183.434 256.25 183.563V185.136H255.7V182.079H256.225V182.508C256.35 182.35 256.511 182.225 256.695 182.141C256.878 182.058 257.078 182.019 257.28 182.028C257.491 182.013 257.703 182.058 257.891 182.158C258.078 182.257 258.234 182.407 258.341 182.591C258.474 182.407 258.651 182.26 258.855 182.162C259.06 182.064 259.285 182.018 259.511 182.028C259.688 182.013 259.866 182.039 260.031 182.103C260.197 182.167 260.346 182.268 260.466 182.398C260.587 182.528 260.677 182.683 260.728 182.853C260.78 183.023 260.792 183.202 260.765 183.377Z" fill="#263238"/>
<path d="M264.94 183.608C264.951 183.814 264.919 184.02 264.845 184.213C264.772 184.406 264.659 184.581 264.514 184.728C264.369 184.875 264.195 184.99 264.003 185.066C263.811 185.141 263.605 185.176 263.399 185.168C263.189 185.177 262.98 185.135 262.791 185.045C262.601 184.954 262.437 184.819 262.312 184.65V185.136H261.781V180.864H262.338V182.54C262.463 182.38 262.625 182.253 262.81 182.168C262.994 182.084 263.196 182.045 263.399 182.054C263.605 182.044 263.811 182.078 264.003 182.153C264.195 182.228 264.369 182.343 264.514 182.489C264.659 182.636 264.772 182.811 264.845 183.003C264.919 183.196 264.951 183.402 264.94 183.608ZM264.384 183.608C264.375 183.406 264.307 183.212 264.189 183.048C264.071 182.885 263.907 182.76 263.718 182.689C263.53 182.618 263.324 182.604 263.127 182.648C262.931 182.693 262.752 182.794 262.612 182.94C262.472 183.086 262.379 183.269 262.343 183.467C262.306 183.666 262.329 183.87 262.408 184.056C262.487 184.241 262.619 184.4 262.787 184.511C262.955 184.622 263.153 184.682 263.354 184.682C263.494 184.686 263.634 184.66 263.763 184.607C263.893 184.554 264.01 184.474 264.107 184.373C264.204 184.272 264.279 184.151 264.327 184.02C264.374 183.888 264.394 183.747 264.384 183.608Z" fill="#263238"/>
<path d="M265.427 183.608C265.421 183.293 265.51 182.985 265.681 182.721C265.852 182.457 266.097 182.249 266.386 182.125C266.675 182.001 266.994 181.966 267.303 182.023C267.613 182.081 267.897 182.229 268.122 182.45C268.347 182.67 268.501 182.952 268.565 183.259C268.629 183.567 268.6 183.887 268.482 184.179C268.363 184.47 268.161 184.72 267.901 184.896C267.64 185.072 267.333 185.167 267.019 185.168C266.81 185.179 266.6 185.146 266.404 185.072C266.209 184.998 266.03 184.884 265.881 184.737C265.731 184.59 265.613 184.414 265.535 184.22C265.457 184.026 265.42 183.817 265.427 183.608ZM268.042 183.608C268.033 183.406 267.965 183.211 267.847 183.048C267.728 182.884 267.564 182.759 267.375 182.689C267.186 182.618 266.98 182.604 266.783 182.649C266.586 182.694 266.407 182.796 266.268 182.943C266.129 183.089 266.035 183.273 266 183.472C265.964 183.67 265.988 183.875 266.068 184.061C266.148 184.246 266.281 184.404 266.45 184.514C266.619 184.625 266.817 184.683 267.019 184.682C267.158 184.685 267.297 184.659 267.426 184.605C267.555 184.552 267.671 184.472 267.767 184.371C267.864 184.27 267.938 184.15 267.985 184.018C268.032 183.887 268.052 183.747 268.042 183.608Z" fill="#263238"/>
<path d="M273.498 184.63V185.135H270.601V184.739L272.276 183.147C272.705 182.731 272.781 182.475 272.781 182.226C272.781 181.81 272.487 181.554 271.924 181.554C271.731 181.545 271.537 181.58 271.359 181.656C271.18 181.733 271.022 181.849 270.895 181.996L270.505 181.657C270.686 181.446 270.912 181.279 271.167 181.168C271.421 181.057 271.698 181.006 271.976 181.017C272.82 181.017 273.357 181.452 273.357 182.143C273.354 182.39 273.295 182.634 273.184 182.856C273.073 183.077 272.914 183.271 272.717 183.422L271.483 184.605L273.498 184.63Z" fill="#263238"/>
<path opacity="0.6" d="M328.305 195.476H242.669V220.121H328.305V195.476Z" fill="white"/>
<path opacity="0.2" d="M276.943 202.465H247.49C247.308 202.465 247.134 202.393 247.006 202.265C246.878 202.136 246.806 201.962 246.806 201.781C246.806 201.599 246.878 201.425 247.006 201.297C247.134 201.169 247.308 201.097 247.49 201.097H276.943C277.033 201.096 277.123 201.113 277.206 201.147C277.29 201.181 277.365 201.231 277.429 201.295C277.493 201.359 277.543 201.435 277.577 201.518C277.611 201.601 277.628 201.691 277.628 201.781C277.628 201.871 277.611 201.96 277.577 202.044C277.543 202.127 277.493 202.203 277.429 202.267C277.365 202.33 277.29 202.381 277.206 202.415C277.123 202.449 277.033 202.466 276.943 202.465Z" fill="black"/>
<path opacity="0.2" d="M323.483 206.27H247.49C247.308 206.27 247.134 206.198 247.006 206.07C246.878 205.941 246.806 205.767 246.806 205.586C246.806 205.404 246.878 205.23 247.006 205.102C247.134 204.974 247.308 204.902 247.49 204.902H323.483C323.665 204.902 323.839 204.974 323.967 205.102C324.095 205.23 324.167 205.404 324.167 205.586C324.167 205.767 324.095 205.941 323.967 206.07C323.839 206.198 323.665 206.27 323.483 206.27Z" fill="black"/>
<path opacity="0.2" d="M323.483 210.068H247.49C247.4 210.069 247.31 210.052 247.227 210.018C247.144 209.983 247.068 209.933 247.004 209.869C246.94 209.806 246.89 209.73 246.856 209.647C246.822 209.563 246.805 209.474 246.806 209.384C246.806 209.202 246.878 209.028 247.006 208.9C247.134 208.772 247.308 208.699 247.49 208.699H323.483C323.665 208.699 323.839 208.772 323.967 208.9C324.095 209.028 324.167 209.202 324.167 209.384C324.168 209.474 324.151 209.563 324.117 209.647C324.083 209.73 324.033 209.806 323.969 209.869C323.905 209.933 323.829 209.983 323.746 210.018C323.663 210.052 323.573 210.069 323.483 210.068Z" fill="black"/>
<path opacity="0.2" d="M323.483 213.873H247.49C247.308 213.873 247.134 213.801 247.006 213.673C246.878 213.545 246.806 213.371 246.806 213.189C246.806 213.008 246.878 212.834 247.006 212.705C247.134 212.577 247.308 212.505 247.49 212.505H323.483C323.665 212.505 323.839 212.577 323.967 212.705C324.095 212.834 324.167 213.008 324.167 213.189C324.167 213.371 324.095 213.545 323.967 213.673C323.839 213.801 323.665 213.873 323.483 213.873Z" fill="black"/>
<path opacity="0.2" d="M302.42 223.836H297.95C297.788 223.836 297.656 223.967 297.656 224.13V228.6C297.656 228.762 297.788 228.894 297.95 228.894H302.42C302.583 228.894 302.714 228.762 302.714 228.6V224.13C302.714 223.967 302.583 223.836 302.42 223.836Z" fill="black"/>
<path d="M300.502 225.108H299.862V227.621H300.502V225.108Z" fill="white"/>
<path d="M301.441 226.042H298.928V226.681H301.441V226.042Z" fill="white"/>
<path opacity="0.2" d="M273.025 223.836H268.555C268.392 223.836 268.261 223.967 268.261 224.13V228.6C268.261 228.762 268.392 228.894 268.555 228.894H273.025C273.187 228.894 273.319 228.762 273.319 228.6V224.13C273.319 223.967 273.187 223.836 273.025 223.836Z" fill="black"/>
<path d="M271.111 225.108H270.472V227.621H271.111V225.108Z" fill="white"/>
<path d="M272.044 226.042H269.531V226.681H272.044V226.042Z" fill="white"/>
<path d="M323.374 234.994H247.592C246.353 234.994 245.348 235.999 245.348 237.239V244.899C245.348 246.139 246.353 247.144 247.592 247.144H323.374C324.614 247.144 325.619 246.139 325.619 244.899V237.239C325.619 235.999 324.614 234.994 323.374 234.994Z" fill="#FE4A78"/>
<path d="M271.923 241.101C271.901 240.556 272.043 240.017 272.33 239.553C272.617 239.089 273.036 238.721 273.534 238.497C274.031 238.273 274.584 238.203 275.122 238.295C275.659 238.388 276.157 238.639 276.551 239.016C276.945 239.394 277.217 239.88 277.333 240.413C277.448 240.946 277.402 241.502 277.199 242.009C276.996 242.515 276.647 242.95 276.196 243.256C275.745 243.563 275.212 243.728 274.666 243.729C274.311 243.747 273.956 243.691 273.623 243.567C273.29 243.443 272.986 243.252 272.729 243.006C272.472 242.76 272.268 242.464 272.13 242.136C271.991 241.809 271.921 241.457 271.923 241.101ZM276.655 241.101C276.66 240.704 276.547 240.314 276.329 239.981C276.112 239.648 275.8 239.388 275.434 239.233C275.068 239.078 274.665 239.035 274.274 239.11C273.884 239.186 273.525 239.376 273.243 239.656C272.961 239.936 272.769 240.294 272.691 240.683C272.613 241.073 272.653 241.477 272.806 241.844C272.958 242.211 273.217 242.525 273.548 242.744C273.88 242.964 274.269 243.08 274.666 243.077C274.929 243.087 275.191 243.042 275.436 242.947C275.681 242.851 275.903 242.706 276.09 242.521C276.276 242.336 276.423 242.114 276.52 241.87C276.617 241.625 276.663 241.364 276.655 241.101Z" fill="white"/>
<path d="M281.951 243.672L280.838 242.092H280.518H279.239V243.659H278.504V238.543H280.512C281.848 238.543 282.654 239.215 282.654 240.334C282.672 240.692 282.57 241.045 282.366 241.339C282.161 241.633 281.864 241.851 281.522 241.958L282.744 243.684L281.951 243.672ZM281.951 240.321C281.951 239.586 281.458 239.17 280.518 239.17H279.239V241.485H280.518C281.433 241.485 281.925 241.056 281.925 240.321H281.951Z" fill="white"/>
<path d="M283.85 238.53H286.017C287.667 238.53 288.793 239.573 288.793 241.088C288.793 242.604 287.667 243.646 286.017 243.646H283.85V238.53ZM285.973 243.007C286.481 243.007 286.969 242.805 287.329 242.445C287.689 242.085 287.891 241.597 287.891 241.088C287.891 240.579 287.689 240.092 287.329 239.732C286.969 239.372 286.481 239.17 285.973 239.17H284.585V243.007H285.973Z" fill="white"/>
<path d="M293.646 243.032V243.672H289.918V238.556H293.544V239.195H290.647V240.775H293.205V241.414H290.647V243.077L293.646 243.032Z" fill="white"/>
<path d="M298.277 243.672L297.164 242.092H296.844H295.565V243.659H294.83V238.543H296.838C298.174 238.543 298.98 239.215 298.98 240.334C299.003 240.694 298.904 241.051 298.7 241.349C298.496 241.647 298.199 241.868 297.855 241.977L299.076 243.704L298.277 243.672ZM298.277 240.321C298.277 239.586 297.784 239.17 296.844 239.17H295.597V241.485H296.844C297.759 241.485 298.251 241.056 298.251 240.321H298.277Z" fill="white"/>
<path opacity="0.2" d="M323.433 141.755C323.944 144.92 323.221 148.161 321.412 150.809C318.023 155.644 311.942 157.261 307.855 161.322C304.153 165.005 302.235 170.876 297.081 172.935C294.727 173.875 292.08 173.753 289.599 173.261C284.208 172.193 279.368 169.488 274.495 167.103C267.985 163.905 260.427 162.531 254.205 158.95C251.34 157.306 248.814 154.825 247.81 151.679C245.649 144.99 250.317 138.442 255.228 134.414C258.905 131.395 263.157 128.87 266.22 125.167C269.04 121.752 270.204 117.18 273.453 114.092C276.081 111.591 279.847 110.485 283.466 110.575C293.468 110.811 297.899 117.059 303.686 124.003C308.488 129.758 317 130.794 321.431 136.85C322.479 138.303 323.165 139.984 323.433 141.755Z" fill="white"/>
<path d="M291.631 128.991L289.713 155.503C289.713 155.503 296.747 160.305 304.599 158.266L312.228 134.35C312.228 134.35 307.247 126.689 291.631 128.991Z" fill="#263238"/>
<path d="M291.395 128.057L291.19 130.89C291.19 130.89 297.201 136.537 311.973 136.127L313.341 132.981C310.392 130.381 306.835 128.567 302.999 127.707C299.163 126.846 295.172 126.967 291.395 128.057Z" fill="#263238"/>
<path opacity="0.8" d="M291.395 128.057L291.19 130.89C291.19 130.89 297.201 136.537 311.973 136.127L313.341 132.981C310.392 130.381 306.835 128.567 302.999 127.707C299.163 126.846 295.172 126.967 291.395 128.057Z" fill="white"/>
<path opacity="0.2" d="M312.779 133.026C303.827 134.222 296.153 130.845 293.218 129.291C292.387 128.857 291.939 128.569 291.939 128.569C292.195 128.492 292.451 128.428 292.707 128.364C293.965 128.043 295.249 127.829 296.544 127.725C300.549 127.426 304.561 128.205 308.163 129.982C309.834 130.779 311.388 131.803 312.779 133.026Z" fill="black"/>
<path d="M316.737 122.859C316.411 125.839 316.29 130.321 312.779 133.026C309.543 133.442 306.261 133.334 303.059 132.706C301.224 132.355 299.419 131.859 297.662 131.223C296.138 130.688 294.653 130.047 293.218 129.305C293.025 129.008 292.851 128.698 292.7 128.377C292.355 127.655 292.118 126.76 292.943 126.593C294.35 126.312 294.056 126.152 293.966 125.461C293.877 124.771 294.145 124.055 294.433 124.739C294.721 125.423 294.484 126.964 294.798 127.15C295.111 127.335 296.646 126.427 296.53 127.789C296.455 128.327 296.468 128.873 296.569 129.407C296.569 129.471 296.607 129.528 296.633 129.592C296.629 129.599 296.628 129.607 296.628 129.615C296.628 129.622 296.629 129.63 296.633 129.637C296.753 129.92 296.959 130.157 297.222 130.315C297.485 130.474 297.791 130.545 298.097 130.52C299.785 130.615 300.93 129.567 302.65 129.081C304.37 128.595 306.442 128.71 306.768 130.526C307.094 132.342 308.54 131.683 308.213 130.424L308.137 130.046C307.926 128.806 308.079 127.258 308.744 128.07C309.409 128.883 308.463 129.202 309.026 129.765C309.588 130.328 310.4 129.381 310.682 127.719C310.963 126.056 312.255 122.418 310.682 120.41C309.109 118.402 309.627 117.986 310.682 118.229C311.737 118.472 311.168 120.282 312.21 120.787C313.252 121.292 313.585 118.645 313.022 117.353C312.459 116.061 311.743 113.881 313.342 114.156C314.941 114.431 314.621 116.579 314.621 117.993C314.621 119.406 315.024 120.333 315.503 119.809C315.585 119.713 315.701 119.653 315.827 119.642C315.953 119.631 316.078 119.67 316.175 119.751C316.571 120.026 316.936 120.96 316.737 122.859Z" fill="#407BFF"/>
<path d="M301.212 120.979L303.469 119.042L306.091 120.979V123.562L303.834 124.407L301.212 123.275V120.979Z" fill="#407BFF"/>
<path opacity="0.8" d="M301.212 120.979L303.469 119.042L306.091 120.979V123.562L303.834 124.407L301.212 123.275V120.979Z" fill="white"/>
<path opacity="0.5" d="M303.469 119.042V122.22L306.091 123.562V120.979L303.469 119.042Z" fill="white"/>
<path opacity="0.2" d="M316.149 119.732C315.79 120.023 315.502 120.392 315.306 120.811C315.11 121.229 315.011 121.687 315.017 122.149C314.889 124.374 314.173 124.291 312.779 123.351C311.385 122.411 311.871 124.47 312.21 128.556C312.549 132.642 308.846 133.276 307.209 132.713C305.572 132.15 306.909 131.67 305.879 131.037C304.984 130.481 305.118 132.393 303.059 132.706C302.687 132.745 302.312 132.745 301.94 132.706C299.932 132.495 298.545 132.029 297.662 131.216C297.177 130.774 296.821 130.208 296.633 129.579C296.753 129.862 296.959 130.099 297.222 130.258C297.485 130.416 297.791 130.488 298.097 130.462C299.785 130.558 300.93 129.509 302.65 129.023C304.37 128.537 306.442 128.652 306.768 130.468C307.094 132.284 308.54 131.626 308.213 130.366L308.137 129.989C307.926 128.748 308.079 127.201 308.744 128.013C309.409 128.825 308.463 129.145 309.026 129.707C309.588 130.27 310.4 129.324 310.682 127.661C310.963 125.999 312.255 122.36 310.682 120.352C309.109 118.344 309.627 117.929 310.682 118.172C311.737 118.415 311.168 120.224 312.21 120.729C313.252 121.235 313.585 118.587 313.022 117.295C312.459 116.004 311.743 113.823 313.342 114.098C314.941 114.373 314.621 116.522 314.621 117.935C314.621 119.348 315.024 120.275 315.503 119.751C315.589 119.668 315.703 119.62 315.822 119.616C315.942 119.613 316.058 119.654 316.149 119.732Z" fill="black"/>
<path d="M299.939 131.14L297.918 130.699L297.893 128.428L299.325 127.348L300.745 128.243L301.211 130.174L299.939 131.14Z" fill="#407BFF"/>
<path opacity="0.8" d="M299.939 131.14L297.918 130.699L297.893 128.428L299.325 127.348L300.745 128.243L301.211 130.174L299.939 131.14Z" fill="white"/>
<path opacity="0.5" d="M297.918 130.699L299.677 129.368L299.325 127.348L297.893 128.428L297.918 130.699Z" fill="white"/>
<path opacity="0.8" d="M303.654 139.728C309.71 139.728 309.23 151.238 301.966 151.2C294.702 151.161 296.812 139.728 303.654 139.728Z" fill="white"/>
<path opacity="0.2" d="M303.494 140.629C308.609 140.629 308.194 150.317 302.068 150.298C295.942 150.279 297.726 140.629 303.494 140.629Z" fill="black"/>
<path d="M254.562 159.097C254.562 159.097 252.867 161.821 252.867 162.544C252.867 163.266 254.146 166.841 254.984 167.627C255.821 168.414 266.002 170.825 278.407 168.964C290.813 167.103 294.266 161.335 294.873 159.941C295.481 158.547 295.27 153.22 293.933 152.984C292.597 152.747 256.928 157.217 254.562 159.097Z" fill="#263238"/>
<path opacity="0.5" d="M294.873 159.947C294.266 161.335 290.813 167.09 278.407 168.957C266.002 170.825 255.834 168.414 254.984 167.634C254.133 166.854 252.867 163.273 252.867 162.518C252.935 162.119 253.069 161.734 253.264 161.38C253.775 160.344 254.543 159.071 254.543 159.071C256.902 157.198 292.584 152.715 293.914 152.958C294.33 153.028 294.637 153.598 294.841 154.378C295.295 156.143 295.295 158.988 294.873 159.947Z" fill="white"/>
<path opacity="0.2" d="M294.861 154.403C293.64 156.405 289.49 161.13 277.922 162.799C264.896 164.679 254.224 162.256 253.341 161.469L253.265 161.405C253.776 160.369 254.544 159.097 254.544 159.097C256.903 157.223 292.585 152.741 293.915 152.984C294.35 153.054 294.657 153.617 294.861 154.403Z" fill="black"/>
<path d="M254.141 159.007C252.811 158.911 252.139 159.941 252.926 160.606C253.712 161.271 255.17 160.727 255.228 162.064C255.285 163.4 255.349 165.089 256.136 164.181C256.922 163.273 256.2 162.262 258.316 162.608C259.595 162.825 261.29 163.643 262.537 162.819C262.761 162.671 262.946 162.473 263.176 162.339C263.429 162.218 263.693 162.12 263.963 162.045C264.318 161.903 264.659 161.728 264.98 161.52C265.395 161.265 265.875 160.919 265.856 160.427C265.823 160.208 265.716 160.007 265.553 159.857C265.39 159.707 265.181 159.617 264.96 159.602C264.525 159.585 264.091 159.653 263.682 159.8C263.255 159.915 262.829 160.011 262.403 160.088C261.603 160.222 260.887 159.864 260.107 159.73C259.193 159.57 258.272 159.442 257.351 159.333C256.245 159.199 255.196 159.084 254.141 159.007Z" fill="#407BFF"/>
<path d="M266.367 160.67C266.367 160.67 269.718 163.324 270.997 163.273C272.276 163.222 272.666 163.094 273.165 163.816C273.663 164.539 275.921 166.054 276.247 164.545C276.573 163.036 277.775 162.243 278.568 162.486C279.361 162.729 280.864 163.126 281.471 162.007C281.564 161.794 281.703 161.605 281.878 161.452C282.052 161.3 282.258 161.188 282.482 161.124C282.884 160.971 283.294 160.811 283.697 160.677C284.224 160.609 284.745 160.491 285.25 160.325C285.781 160.024 285.979 159.372 286.337 158.88C286.715 158.364 287.271 158.008 287.898 157.882C288.431 157.828 288.967 157.802 289.503 157.805C289.771 157.804 290.034 157.738 290.271 157.613C290.508 157.488 290.712 157.309 290.865 157.089C291.095 156.68 291.031 156.162 291.223 155.727C291.354 155.433 291.592 155.198 291.888 155.072C292.185 154.945 292.518 154.934 292.822 155.043C292.988 155.133 293.171 155.189 293.359 155.209C293.794 155.209 294.196 154.57 294.535 154.826C294.874 155.081 294.714 155.523 295.13 155.708C295.175 155.005 295.13 154.295 295.162 153.591C295.188 153.345 295.141 153.096 295.028 152.875C294.765 152.352 294.355 151.916 293.849 151.622C293.342 151.328 292.761 151.188 292.176 151.219C290.788 151.168 289.298 151.155 288.141 151.929C286.983 152.703 286.44 154.052 285.442 154.985C284.875 155.483 284.243 155.9 283.562 156.226C281.866 157.132 280.115 157.93 278.319 158.618C276.688 159.257 274.642 159.257 272.902 159.506C270.735 159.864 268.541 160.242 266.367 160.67Z" fill="#407BFF"/>
<path d="M294.1 154.007C293.883 154.87 293.045 155.49 292.348 155.989L291.708 156.449C291.317 156.757 290.887 157.013 290.43 157.21C289.948 157.356 289.453 157.45 288.952 157.492C286.934 157.779 285.013 158.54 283.344 159.711C282.927 160.071 282.436 160.335 281.906 160.484C281.428 160.514 280.948 160.499 280.473 160.44C280.235 160.409 279.993 160.446 279.774 160.547C279.556 160.647 279.37 160.807 279.239 161.009C279.194 161.15 279.125 161.282 279.034 161.399C278.924 161.478 278.793 161.522 278.657 161.527C277.066 161.727 275.465 161.831 273.861 161.84C272.231 161.84 270.594 161.757 268.969 161.667L265.772 161.482C265.247 161.431 264.718 161.431 264.193 161.482C263.687 161.546 263.189 161.706 262.69 161.808C262.07 161.902 261.443 161.951 260.816 161.955L258.898 162C257.235 162.045 255.803 161.213 254.268 160.619C254.074 160.559 253.896 160.454 253.75 160.312C253.373 159.877 253.75 159.167 253.539 158.63C253.475 158.51 253.426 158.384 253.392 158.253C253.403 158.064 253.455 157.881 253.546 157.715C253.57 157.658 253.59 157.598 253.603 157.536C253.593 157.272 253.52 157.013 253.392 156.782C253.301 156.523 253.252 156.251 253.245 155.976C253.232 155.823 253.232 155.669 253.245 155.516C253.263 155.4 253.297 155.288 253.347 155.183C253.654 154.544 255.08 154.595 255.694 154.441C260.074 153.316 264.557 152.523 269.008 151.743C274.226 150.814 279.459 149.961 284.706 149.185C286.625 148.917 288.543 148.654 290.462 148.45C291.131 148.321 291.813 148.263 292.495 148.277C292.843 148.308 293.169 148.459 293.416 148.706C293.484 148.771 293.538 148.849 293.576 148.936C293.644 149.207 293.62 149.493 293.505 149.748C293.438 150.171 293.438 150.603 293.505 151.027C293.5 151.25 293.553 151.47 293.659 151.666C293.752 151.765 293.834 151.874 293.902 151.992C294.023 152.274 293.902 152.632 293.902 152.971C293.902 153.31 294.222 153.527 294.1 154.007Z" fill="#263238"/>
<path opacity="0.2" d="M293.09 150.995C292.879 151.871 292.041 152.485 291.344 152.984L290.705 153.438C290.314 153.748 289.884 154.004 289.426 154.199C288.947 154.349 288.454 154.445 287.955 154.487C285.933 154.769 284.007 155.532 282.34 156.712C281.922 157.069 281.431 157.331 280.902 157.479C280.424 157.51 279.944 157.493 279.469 157.428C279.231 157.397 278.989 157.434 278.77 157.535C278.552 157.636 278.366 157.796 278.235 157.997C278.192 158.139 278.122 158.271 278.03 158.387C277.921 158.468 277.789 158.515 277.653 158.522C276.064 158.721 274.465 158.827 272.864 158.841C271.227 158.841 269.596 158.752 267.965 158.656L264.768 158.47C264.243 158.422 263.714 158.422 263.189 158.47C262.683 158.541 262.191 158.694 261.686 158.79C261.066 158.891 260.44 158.94 259.812 158.937L257.894 158.988C256.334 159.033 254.972 158.298 253.546 157.709C253.57 157.652 253.59 157.592 253.603 157.53C253.593 157.266 253.52 157.007 253.392 156.776C253.301 156.516 253.252 156.245 253.245 155.97C253.232 155.817 253.232 155.663 253.245 155.51C253.263 155.394 253.297 155.282 253.347 155.177C253.654 154.538 255.08 154.589 255.694 154.435C260.074 153.31 264.557 152.517 269.008 151.737C274.226 150.808 279.459 149.955 284.706 149.179C286.625 148.91 288.543 148.648 290.462 148.444C291.131 148.315 291.813 148.257 292.495 148.271C292.51 148.396 292.551 148.515 292.616 148.623C292.711 148.723 292.792 148.835 292.859 148.955C292.987 149.23 292.859 149.627 292.859 149.927C293.007 150.368 293.211 150.535 293.09 150.995Z" fill="black"/>
<path d="M252.323 154.404C252.068 155.094 257.343 162.077 257.343 162.077C257.343 162.077 264.908 156.085 270.056 155.235C275.203 154.384 292.207 155.299 292.207 155.299C292.207 155.299 293.198 149.358 293.038 147.939C292.878 146.519 255.169 146.749 252.323 154.404Z" fill="#407BFF"/>
<path opacity="0.7" d="M252.323 154.404C252.068 155.094 257.343 162.077 257.343 162.077C257.343 162.077 264.908 156.085 270.056 155.235C275.203 154.384 292.207 155.299 292.207 155.299C292.207 155.299 293.198 149.358 293.038 147.939C292.878 146.519 255.169 146.749 252.323 154.404Z" fill="white"/>
<path d="M257.198 153.949L258.854 157.473C258.854 157.473 262.371 156.194 263.58 157.473C264.271 158.121 264.703 158.998 264.795 159.941C264.795 159.941 265.69 156.008 267.237 156.948C268.291 157.625 269.257 158.428 270.115 159.34C270.115 159.34 272.296 155.765 274.233 156.948L276.152 158.125C276.152 158.125 277.725 154.557 280.148 154.403C282.572 154.25 283.569 154.621 283.774 153.949C283.979 153.278 289.465 149.473 292.01 149.627L294.568 149.774C294.568 149.774 295.054 146.385 296.486 146.385C296.486 146.385 293.583 144.703 293.641 142.612C293.641 141.812 291.767 143.801 290.443 142.612C289.12 141.422 250.931 149.064 250.931 149.064C250.931 149.064 251.219 148.757 249.403 149.627C247.587 150.496 250.132 150.266 249.403 152.146C248.674 154.026 252.07 152.037 253.035 153.387C254.001 154.736 257.198 153.949 257.198 153.949Z" fill="#407BFF"/>
<path opacity="0.5" d="M257.198 153.949L258.854 157.473C258.854 157.473 262.371 156.194 263.58 157.473C264.271 158.121 264.703 158.998 264.795 159.941C264.795 159.941 265.69 156.008 267.237 156.948C268.291 157.625 269.257 158.428 270.115 159.34C270.115 159.34 272.296 155.765 274.233 156.948L276.152 158.125C276.152 158.125 277.725 154.557 280.148 154.403C282.572 154.25 283.569 154.621 283.774 153.949C283.979 153.278 289.465 149.473 292.01 149.627L294.568 149.774C294.568 149.774 295.054 146.385 296.486 146.385C296.486 146.385 293.583 144.703 293.641 142.612C293.641 141.812 291.767 143.801 290.443 142.612C289.12 141.422 250.931 149.064 250.931 149.064C250.931 149.064 251.219 148.757 249.403 149.627C247.587 150.496 250.132 150.266 249.403 152.146C248.674 154.026 252.07 152.037 253.035 153.387C254.001 154.736 257.198 153.949 257.198 153.949Z" fill="white"/>
<path d="M266.808 153.604C264.065 157.843 251.64 158.892 250.681 155.286C250.47 154.526 250.418 153.732 250.527 152.952C250.697 151.722 251.322 150.602 252.279 149.812C257.472 147.113 265.823 148.533 267.076 151.519C267.216 151.86 267.264 152.232 267.217 152.597C267.17 152.962 267.029 153.309 266.808 153.604Z" fill="#407BFF"/>
<path opacity="0.2" d="M267.077 151.519C267.004 151.698 266.914 151.869 266.808 152.031C264.065 156.27 251.64 157.319 250.681 153.719C250.614 153.467 250.562 153.21 250.527 152.952C250.697 151.722 251.322 150.602 252.279 149.812C257.472 147.113 265.823 148.565 267.077 151.519Z" fill="black"/>
<path d="M292.604 151.091C289.867 155.324 277.436 156.379 276.484 152.773C276.27 152.012 276.218 151.214 276.33 150.432C276.501 149.205 277.126 148.087 278.082 147.299C283.268 144.594 291.62 146.02 292.879 149.006C293.017 149.348 293.064 149.719 293.016 150.085C292.968 150.45 292.826 150.797 292.604 151.091Z" fill="#407BFF"/>
<path opacity="0.2" d="M292.879 149.006C292.804 149.185 292.712 149.357 292.604 149.518C289.867 153.751 277.436 154.806 276.484 151.2C276.412 150.949 276.361 150.692 276.33 150.432C276.501 149.205 277.126 148.087 278.082 147.299C283.268 144.594 291.62 146.059 292.879 149.006Z" fill="black"/>
<path d="M270.887 130.89C283.92 129.803 295.187 141.166 292.68 147.043C290.174 152.92 254.888 157.914 251.569 151.18C248.251 144.447 257.177 132.035 270.887 130.89Z" fill="#263238"/>
<path opacity="0.5" d="M270.887 130.89C283.92 129.803 295.187 141.166 292.68 147.043C290.174 152.92 254.888 157.914 251.569 151.18C248.251 144.447 257.177 132.035 270.887 130.89Z" fill="white"/>
<path opacity="0.2" d="M269.935 138.231C269.935 138.231 269.328 139.728 269.935 139.728C270.543 139.728 269.935 138.231 269.935 138.231Z" fill="white"/>
<path opacity="0.2" d="M274.718 136.466C274.718 136.466 275.805 137.918 275.869 137.253C275.933 136.588 274.718 136.466 274.718 136.466Z" fill="white"/>
<path opacity="0.2" d="M267.577 135.917C267.577 135.917 265.94 136.217 266.368 136.639C266.797 137.061 267.577 135.917 267.577 135.917Z" fill="white"/>
<path opacity="0.2" d="M262.371 137.746C262.371 137.746 261.162 137.842 261.341 138.244C261.52 138.647 262.371 137.746 262.371 137.746Z" fill="white"/>
<path opacity="0.2" d="M265.46 132.77C265.46 132.77 264.123 132.585 264.123 133.013C264.123 133.442 265.46 132.77 265.46 132.77Z" fill="white"/>
<path opacity="0.2" d="M270.204 133.493C270.204 133.493 269.993 134.644 270.479 134.523C270.965 134.401 270.204 133.493 270.204 133.493Z" fill="white"/>
<path opacity="0.2" d="M277.819 134.548C277.819 134.548 278.894 135.041 278.894 134.548C278.894 134.056 277.819 134.548 277.819 134.548Z" fill="white"/>
<path opacity="0.2" d="M274.06 132.042C274.06 132.042 274.654 131.402 274.961 131.556C275.268 131.709 274.06 132.042 274.06 132.042Z" fill="white"/>
<path opacity="0.2" d="M268.727 132.041C269.366 131.92 269.027 132.732 269.027 132.732C269.027 132.732 268.062 132.163 268.727 132.041Z" fill="white"/>
<path opacity="0.2" d="M264.794 140.815C264.794 140.815 264.002 141.301 264.123 141.665C264.245 142.03 264.794 140.815 264.794 140.815Z" fill="white"/>
<path opacity="0.2" d="M281.555 138.033C281.555 138.033 282.885 138.532 282.405 138.979C281.926 139.427 281.555 138.033 281.555 138.033Z" fill="white"/>
<path opacity="0.2" d="M274.059 141.736C274.059 141.736 274.437 142.471 274.059 142.612C273.682 142.752 274.059 141.736 274.059 141.736Z" fill="white"/>
<path opacity="0.2" d="M292.68 147.043C290.167 152.92 254.888 157.914 251.569 151.174C251.212 150.427 250.996 149.62 250.93 148.795C251 148.996 251.083 149.193 251.179 149.383C254.498 156.117 289.777 151.129 292.29 145.246C292.589 144.518 292.705 143.727 292.629 142.944C293.159 144.256 293.178 145.719 292.68 147.043Z" fill="black"/>
<path d="M29 254.715L59.9171 254.573L90.8343 254.52L152.663 254.425L214.491 254.52L245.408 254.573L276.325 254.715L245.408 254.864L214.491 254.917L152.663 255.012L90.8343 254.917L59.9171 254.864L29 254.715Z" fill="#263238"/>
<path d="M152.663 308.729C216.742 308.729 268.688 301.426 268.688 292.416C268.688 283.407 216.742 276.104 152.663 276.104C88.584 276.104 36.6377 283.407 36.6377 292.416C36.6377 301.426 88.584 308.729 152.663 308.729Z" fill="#111E71" fill-opacity="0.22"/>
<path d="M69.7844 286.588L179.483 287.056C206.166 266.125 208.9 235.107 189.877 216.304C178.368 204.931 163.751 207.225 149.829 205.417H149.793C144.943 204.788 140.187 203.638 135.669 201.266C121.343 193.706 113.26 175.869 101.206 160.867C99.6994 158.988 98.128 157.156 96.4618 155.394C86.5475 144.81 66.8136 144.466 56.4901 159.35C30.2692 197.169 42.2827 253.459 69.7844 286.588Z" fill="#FFC727"/>
<path opacity="0.2" d="M69.7844 286.588L179.483 287.056C206.166 266.125 208.9 235.107 189.877 216.304C178.368 204.931 163.751 207.225 149.829 205.417H149.793C144.943 204.788 140.187 203.638 135.669 201.266C121.343 193.706 113.26 175.869 101.206 160.867C99.6994 158.988 98.128 157.156 96.4618 155.394C86.5475 144.81 66.8136 144.466 56.4901 159.35C30.2692 197.169 42.2827 253.459 69.7844 286.588Z" fill="black"/>
<path opacity="0.1" d="M67.3471 200.051C70.2408 245.051 122.19 261.855 154.655 248.371C182.874 236.649 173.63 209.894 149.817 205.417H149.781C144.931 204.789 140.175 203.638 135.657 201.266C121.331 193.706 113.248 175.87 101.194 160.868C83.2267 151.54 65.2421 167.1 67.3471 200.051Z" fill="black"/>
<path d="M161.006 293.845C159.458 293.187 125.232 262.827 124.657 260.841C124.437 260.094 128.564 254.852 133.741 248.655C134.856 247.321 136.018 245.946 137.204 244.558C144.912 235.527 153.279 226.129 153.279 226.129L176.233 246.373L159.523 264.245L155.859 268.176C155.859 268.176 163.763 285.656 164.16 287.904C164.557 290.151 162.559 294.509 161.006 293.845Z" fill="#EB9481"/>
<path d="M161.006 293.845C159.458 293.187 125.232 262.827 124.657 260.841C124.39 259.928 130.545 252.379 137.204 244.558L159.523 264.244L155.859 268.176C155.859 268.176 163.763 285.656 164.16 287.904C164.557 290.151 162.559 294.509 161.006 293.845Z" fill="white"/>
<path d="M161.006 293.845C159.458 293.187 125.232 262.827 124.657 260.841C124.437 260.094 128.564 254.852 133.741 248.656L155.859 268.176C155.859 268.176 163.763 285.657 164.16 287.904C164.557 290.151 162.559 294.51 161.006 293.845Z" fill="#FFC727"/>
<path d="M161.729 292.042C156.12 286.812 132.988 266.248 127.047 261.504C126.994 261.463 126.97 261.504 127.011 261.54C132.461 266.847 155.758 287.221 161.646 292.137C161.771 292.238 161.848 292.155 161.729 292.042Z" fill="#263238"/>
<path d="M163.051 284.714C162.428 284.131 161.692 283.684 160.887 283.4C160.083 283.116 159.229 283.002 158.378 283.065C156.846 283.169 155.413 283.859 154.376 284.992C154.376 285.028 154.412 285.087 154.447 285.058C155.649 284.094 157.131 283.546 158.671 283.497C160.211 283.448 161.725 283.9 162.986 284.785C163.039 284.82 163.098 284.779 163.051 284.714Z" fill="#263238"/>
<path d="M157.579 270.713C155.314 268.644 151.934 267.09 148.839 267.707C148.72 267.707 148.756 267.897 148.839 267.926C151.78 268.653 154.634 269.693 157.354 271.028C157.396 271.058 157.447 271.07 157.498 271.061C157.549 271.053 157.594 271.025 157.624 270.983C157.654 270.941 157.666 270.89 157.657 270.839C157.649 270.788 157.621 270.743 157.579 270.713Z" fill="#263238"/>
<path d="M158.741 272.979C156.47 270.91 153.09 269.356 150.001 269.967C149.876 269.967 149.912 270.162 150.001 270.186C152.942 270.915 155.796 271.957 158.515 273.293C158.557 273.323 158.609 273.335 158.66 273.327C158.71 273.319 158.755 273.29 158.785 273.249C158.815 273.207 158.827 273.155 158.819 273.105C158.811 273.054 158.782 273.009 158.741 272.979Z" fill="#263238"/>
<path d="M159.898 275.238C157.632 273.169 154.253 271.621 151.157 272.232C151.039 272.232 151.074 272.428 151.157 272.451C154.098 273.18 156.953 274.222 159.672 275.558C159.693 275.573 159.717 275.584 159.742 275.589C159.767 275.595 159.793 275.596 159.818 275.591C159.844 275.587 159.868 275.578 159.89 275.564C159.911 275.55 159.93 275.532 159.945 275.511C159.96 275.49 159.97 275.466 159.976 275.441C159.982 275.416 159.982 275.39 159.978 275.365C159.973 275.34 159.964 275.315 159.95 275.294C159.936 275.272 159.919 275.253 159.898 275.238Z" fill="#263238"/>
<path d="M161.059 277.503C158.788 275.433 155.408 273.886 152.319 274.496C152.194 274.496 152.23 274.686 152.319 274.716C155.26 275.445 158.115 276.486 160.834 277.823C160.876 277.853 160.929 277.865 160.98 277.856C161.031 277.847 161.077 277.818 161.107 277.775C161.136 277.733 161.148 277.68 161.139 277.629C161.13 277.578 161.102 277.533 161.059 277.503Z" fill="#263238"/>
<path d="M133.338 257.349C130.758 255.072 127.212 259.086 129.78 261.363C132.348 263.64 135.929 259.632 133.338 257.349Z" fill="white"/>
<path d="M165.495 266.788C165.193 264.79 162.892 264.417 161.285 264.802C158.542 265.477 156.027 266.864 153.991 268.822C153.982 268.83 153.974 268.84 153.968 268.851C153.963 268.863 153.96 268.875 153.96 268.888C153.96 268.9 153.963 268.912 153.968 268.924C153.974 268.935 153.982 268.945 153.991 268.953C153.963 269.004 153.948 269.062 153.946 269.12C153.943 269.179 153.955 269.237 153.979 269.29C154.003 269.344 154.039 269.391 154.085 269.428C154.13 269.465 154.183 269.491 154.241 269.504C156.879 269.818 159.66 270.489 162.317 269.99C163.882 269.7 165.791 268.674 165.495 266.788ZM158.35 269.16C157.051 269.036 155.764 268.846 154.46 268.769C155.858 267.945 157.297 267.193 158.771 266.516C159.49 266.2 160.229 265.93 160.983 265.709C162.168 265.395 166.112 265.478 164.125 268.176C163.028 269.67 159.903 269.32 158.35 269.166V269.16Z" fill="#263238"/>
<path d="M147.529 264.618C149.26 266.699 151.828 267.956 154.051 269.397C154.104 269.424 154.162 269.438 154.221 269.439C154.28 269.439 154.338 269.426 154.391 269.4C154.444 269.374 154.49 269.337 154.526 269.29C154.561 269.243 154.586 269.188 154.597 269.13C154.65 269.13 154.698 269.13 154.692 269.042C154.371 266.233 153.318 263.559 151.638 261.286C150.636 259.981 148.638 258.789 147.131 260.129C145.625 261.469 146.521 263.397 147.529 264.618ZM147.303 262.08C147.499 258.73 150.594 261.197 151.294 262.187C151.735 262.837 152.131 263.517 152.48 264.221C153.227 265.668 153.761 267.186 154.36 268.709C153.304 267.933 152.195 267.257 151.11 266.521C149.829 265.644 147.197 263.918 147.327 262.074L147.303 262.08Z" fill="#263238"/>
<path d="M202.281 211.062C200.004 223.407 167.516 257.722 163.738 261.659L162.885 262.555L138.573 241.801L138.881 241.439L162.707 213.362L96.1523 209.55L122.421 191.168C122.421 191.168 124.413 192.454 128.706 192.051C143.53 190.658 176.878 187.598 184.676 188.316C194.762 189.247 204.374 199.73 202.281 211.062Z" fill="#455A64"/>
<path d="M171.275 202.884C170.396 203.774 169.576 204.721 168.82 205.718C167.978 206.709 167.124 207.693 166.282 208.683V208.713C166.437 208.416 166.591 208.12 166.751 207.824C167.296 206.821 167.753 205.778 168.393 204.823C168.401 204.811 168.404 204.795 168.401 204.781C168.397 204.766 168.388 204.754 168.376 204.746C168.363 204.738 168.348 204.736 168.333 204.739C168.319 204.742 168.306 204.751 168.299 204.764C167.646 205.707 166.899 206.602 166.324 207.604C166.057 208.078 165.802 208.553 165.565 209.039C165.429 209.306 165.298 209.573 165.174 209.846C165.113 209.973 165.06 210.104 165.014 210.237C164.634 210.699 164.26 211.162 163.893 211.636C163.086 212.686 162.363 213.801 161.551 214.844C161.503 214.898 161.592 214.957 161.64 214.903C162.464 213.931 163.377 213.03 164.207 212.057C165.037 211.085 165.867 210.059 166.668 209.033C167.468 208.007 168.216 207.023 168.998 206.027C169.852 205.045 170.645 204.012 171.37 202.932C171.358 202.902 171.311 202.849 171.275 202.884Z" fill="#263238"/>
<path d="M109.796 172.015C116.171 183.168 128.006 199.463 132.104 200.406C138.923 201.977 153.937 201.094 162.546 199.06C165.256 198.419 159.516 178.502 156.528 178.94C148.819 180.079 137.363 182.119 136.533 182.077C135.027 182 124.407 173.527 116.313 166.903C108.67 160.653 106.79 166.779 109.796 172.015Z" fill="#EB9481"/>
<path d="M171.312 194.15C170.197 194.743 170.506 195.336 172.729 195.733C174.953 196.131 184.079 195.769 183.93 198.965C183.782 202.161 170.885 202.469 167.244 201.538C163.604 200.608 158 197.827 158 197.827C160.508 197.263 166.432 195.318 171.312 194.15Z" fill="#EB9481"/>
<path d="M155.901 179.1C163.017 177.772 171.739 175.685 179.389 178.454C180.247 178.739 180.985 179.305 181.482 180.061C184.933 181.247 185.413 183.222 185.413 183.222C188.295 185.303 188.508 187.402 188.508 187.402C188.508 187.402 192.547 188.825 192.066 191.41C191.562 194.31 185.988 191.736 182.057 192.199C173.056 193.249 160.55 197.263 157.989 197.826L155.901 179.1Z" fill="#EB9481"/>
<path d="M171.869 186.667C174.5 186.331 177.151 186.173 179.803 186.192C182.704 186.399 185.586 186.821 188.425 187.455C188.442 187.457 188.459 187.453 188.473 187.443C188.487 187.434 188.498 187.419 188.502 187.403C188.506 187.386 188.504 187.368 188.497 187.353C188.489 187.338 188.476 187.326 188.46 187.319C183.101 185.547 177.358 185.281 171.857 186.548C171.733 186.578 171.739 186.685 171.869 186.667Z" fill="#263238"/>
<path d="M170.451 181.33C173.048 181.224 177.614 181.063 185.399 183.305C185.399 183.305 185.441 183.269 185.399 183.257C180.702 181.202 175.527 180.492 170.451 181.206C170.279 181.224 170.273 181.336 170.451 181.33Z" fill="#263238"/>
<path d="M169.734 178.443C174.158 178.443 176.951 178.983 181.463 180.074V180.026C176.47 178.247 174.454 178.17 169.699 178.295C169.55 178.295 169.562 178.443 169.734 178.443Z" fill="#263238"/>
<path d="M154.826 178.964L157.827 201.295C157.827 201.295 134.31 203.596 130.408 200.703C126.506 197.809 112.667 179.356 109.133 171.481C105.598 163.607 110.579 161.905 116.183 166.334C121.786 170.764 135.958 181.283 136.593 181.295C137.227 181.307 154.826 178.964 154.826 178.964Z" fill="#263238"/>
<path d="M81.7151 216.078C81.8218 216.203 125.636 208.963 126.069 208.459C126.662 207.777 120.596 174.796 112.929 164.656C111.008 162.118 104.497 161.952 101.461 164.253C86.4114 175.674 81.3237 215.639 81.7151 216.078Z" fill="#EBEBEB"/>
<path d="M110.64 171.588C108.659 171.445 104.989 167.283 103.755 163.992C103.672 163.766 104.307 161.62 104.941 158.946C105.327 157.327 105.724 155.518 105.961 153.84L116.131 157.884C115.231 159.896 114.582 162.011 114.197 164.181C114.174 164.414 114.174 164.648 114.197 164.881C114.2 164.919 114.2 164.956 114.197 164.994C114.192 166.346 113.741 171.813 110.64 171.588Z" fill="#EB9481"/>
<path d="M114.167 164.893C114.17 164.931 114.17 164.969 114.167 165.006C113.801 165.004 113.436 164.973 113.076 164.911C107.117 163.921 106.696 156.426 106.713 154.131L116.136 157.885C115.236 159.897 114.582 162.012 114.191 164.182C114.165 164.418 114.157 164.656 114.167 164.893Z" fill="#263238"/>
<path d="M105.19 140.421C103.844 144.121 105.256 155.097 107.799 157.659C111.494 161.377 117.826 162.053 121.058 157.546C124.189 153.176 122.096 138.909 119.226 136.549C114.998 133.074 107.177 134.954 105.19 140.421Z" fill="#EB9481"/>
<path d="M112.934 145.141C113.255 145.029 113.527 144.869 113.836 144.726C114.169 144.622 114.459 144.414 114.666 144.133C114.709 144.032 114.719 143.92 114.693 143.813C114.668 143.706 114.608 143.611 114.524 143.54C114.331 143.425 114.111 143.365 113.886 143.365C113.662 143.365 113.442 143.425 113.249 143.54C112.819 143.708 112.466 144.029 112.258 144.442C112.226 144.537 112.22 144.639 112.241 144.738C112.263 144.836 112.312 144.926 112.382 144.999C112.452 145.071 112.54 145.123 112.638 145.148C112.736 145.173 112.838 145.171 112.934 145.141Z" fill="#263238"/>
<path d="M120.221 144.424C119.883 144.424 119.575 144.323 119.243 144.27C118.893 144.262 118.555 144.139 118.282 143.92C118.215 143.837 118.175 143.736 118.169 143.629C118.163 143.523 118.19 143.417 118.246 143.327C118.401 143.165 118.596 143.046 118.812 142.982C119.027 142.919 119.255 142.913 119.474 142.965C119.928 143.011 120.35 143.222 120.66 143.558C120.719 143.64 120.754 143.736 120.762 143.836C120.77 143.936 120.75 144.036 120.705 144.125C120.659 144.215 120.59 144.29 120.505 144.343C120.419 144.395 120.321 144.424 120.221 144.424Z" fill="#263238"/>
<path d="M114.836 151.415C115.051 151.688 115.32 151.915 115.626 152.08C115.932 152.245 116.269 152.346 116.615 152.375C116.92 152.404 117.228 152.388 117.529 152.328C117.587 152.322 117.645 152.31 117.701 152.292L117.861 152.251C117.899 152.24 117.933 152.217 117.957 152.185C117.98 152.152 117.992 152.113 117.991 152.073C117.994 152.047 117.994 152.022 117.991 151.996V151.931C117.95 151.338 117.813 150.496 117.813 150.496C118.033 150.585 119.141 150.958 119.094 150.662C118.781 148.093 118.204 145.564 117.374 143.113C117.374 143.036 117.226 143.066 117.244 143.143C117.523 145.515 118.216 147.827 118.531 150.211C118.135 150.07 117.722 149.987 117.303 149.962C117.226 149.998 117.606 151.628 117.6 151.883C117.136 151.974 116.66 151.971 116.198 151.875C115.735 151.779 115.297 151.593 114.908 151.326C114.842 151.308 114.789 151.361 114.836 151.415Z" fill="#263238"/>
<path d="M117.18 152.074C116.908 152.512 116.525 152.872 116.071 153.117C115.822 153.247 115.537 153.293 115.259 153.248C114.666 153.153 114.583 152.607 114.666 152.133C114.7 151.88 114.765 151.633 114.862 151.398C115.544 151.862 116.355 152.099 117.18 152.074Z" fill="#263238"/>
<path d="M116.071 153.141C115.822 153.271 115.537 153.317 115.259 153.271C114.666 153.176 114.583 152.631 114.666 152.157C114.976 152.141 115.283 152.23 115.537 152.408C115.791 152.586 115.979 152.844 116.071 153.141Z" fill="#FF9BBC"/>
<path d="M113.326 147.662C113.369 147.858 113.466 148.039 113.604 148.184C113.683 148.259 113.776 148.317 113.878 148.355C113.98 148.392 114.089 148.409 114.197 148.403C114.31 148.392 114.418 148.356 114.514 148.298C114.611 148.239 114.693 148.16 114.755 148.065C114.854 147.896 114.913 147.705 114.927 147.508C114.935 147.39 114.935 147.271 114.927 147.152C114.913 146.908 114.842 146.67 114.719 146.458C114.737 146.634 114.737 146.811 114.719 146.986C114.706 147.146 114.68 147.305 114.642 147.461C114.565 147.775 114.405 148.054 114.156 148.054C113.907 148.054 113.687 147.882 113.563 147.579C113.441 147.261 113.352 146.931 113.296 146.595C113.221 146.948 113.231 147.314 113.326 147.662Z" fill="#263238"/>
<path d="M119 147.099C119.018 147.3 119.089 147.492 119.208 147.656C119.28 147.745 119.37 147.818 119.472 147.869C119.574 147.92 119.686 147.949 119.801 147.953C119.913 147.958 120.025 147.937 120.128 147.892C120.231 147.847 120.322 147.778 120.394 147.692C120.517 147.538 120.602 147.357 120.643 147.164C120.67 147.049 120.686 146.932 120.69 146.814C120.711 146.569 120.672 146.323 120.578 146.097C120.579 146.272 120.559 146.447 120.518 146.618C120.484 146.775 120.438 146.93 120.382 147.081C120.263 147.383 120.068 147.632 119.789 147.597C119.51 147.561 119.344 147.365 119.267 147.045C119.19 146.714 119.145 146.377 119.131 146.037C119.004 146.376 118.959 146.739 119 147.099Z" fill="#263238"/>
<path d="M104.757 150.638C106.803 149.98 107.615 143.019 107.615 143.019C107.615 143.019 107.698 145.954 108.249 145.865C108.801 145.776 110.918 141.714 111.072 138.844C112.739 139.866 114.533 140.663 116.409 141.216C119.047 141.91 121.935 141.637 121.923 141.216C121.876 139.894 120.553 136.472 118.715 135.286C117.369 134.34 115.796 133.765 114.156 133.62C112.516 133.475 110.868 133.766 109.376 134.462C105.16 136.241 104.134 139.028 103.577 141.174C103.019 143.321 104.004 150.881 104.757 150.638Z" fill="#263238"/>
<path d="M107.047 149.405C107.047 149.405 104.675 145.806 103.074 146.63C101.473 147.454 103.133 152.613 104.983 153.372C105.215 153.49 105.469 153.56 105.729 153.577C105.989 153.593 106.25 153.556 106.495 153.468C106.74 153.379 106.965 153.241 107.155 153.063C107.344 152.884 107.495 152.668 107.598 152.429L107.047 149.405Z" fill="#EB9481"/>
<path d="M103.595 148.095V148.148C104.887 148.741 105.54 149.963 105.967 151.243C105.895 151.109 105.794 150.992 105.673 150.9C105.552 150.809 105.412 150.744 105.263 150.711C105.114 150.679 104.96 150.679 104.811 150.711C104.663 150.744 104.523 150.808 104.401 150.899C104.366 150.899 104.401 150.982 104.437 150.971C104.67 150.907 104.918 150.917 105.146 150.999C105.374 151.081 105.571 151.23 105.712 151.427C105.946 151.759 106.145 152.115 106.305 152.489C106.358 152.607 106.571 152.554 106.536 152.417C106.533 152.406 106.533 152.394 106.536 152.382C106.613 150.71 105.385 148.326 103.595 148.095Z" fill="#263238"/>
<path d="M116.705 133.952C115.357 133.174 113.903 132.597 112.388 132.239C110.686 131.871 105.231 131.812 103.838 132.784C102.444 133.757 101.65 138.832 101.549 139.574C101.448 140.315 101.383 144.863 102.919 146.096C104.454 147.33 105.29 139.674 108.095 137.362C110.9 135.049 116.705 133.952 116.705 133.952Z" fill="#FFC727"/>
<path opacity="0.1" d="M116.705 133.959C116.705 133.959 110.906 135.044 108.101 137.362C105.296 139.681 104.46 147.33 102.918 146.097C102.242 145.557 101.952 144.81 101.732 143.582C102.272 141.377 103.511 137.979 105.569 135.731C107.514 133.632 110.627 132.767 113.87 132.678C114.851 133.021 115.799 133.449 116.705 133.959Z" fill="black"/>
<path d="M102.967 150.692C103.293 148.658 105.855 143.368 108.304 140.427C110.753 137.486 117.329 136.217 118.224 136.348C120.388 136.662 120.685 137.801 121.046 137.64C121.408 137.48 119.694 135.227 119.113 134.806C118.532 134.385 116.967 133.377 116.018 133.318C115.069 133.258 109.187 133.318 106.851 135.618C104.515 137.919 100.921 144.626 101.289 146.458C101.384 146.897 101.929 147.223 102.054 147.845C102.226 148.664 102.309 149.624 102.504 150.176C102.665 150.644 102.937 150.864 102.967 150.692Z" fill="#FFC727"/>
<path d="M108.937 139.064C108.464 138.706 108.022 138.309 107.615 137.878C107.194 137.457 106.826 136.987 106.518 136.478C106.518 136.443 106.435 136.478 106.453 136.508C106.695 137.071 107.023 137.593 107.425 138.056C107.839 138.503 108.332 138.87 108.878 139.141C108.937 139.194 108.985 139.099 108.937 139.064Z" fill="#263238"/>
<path d="M103.126 148.646C103.085 148.492 102.996 148.356 102.942 148.207C102.873 148.04 102.823 147.865 102.794 147.686C102.783 147.343 102.734 147.003 102.646 146.672C102.534 146.416 102.395 146.173 102.231 145.948C102.024 145.706 101.906 145.401 101.899 145.082C101.899 145.041 101.839 145.035 101.833 145.082C101.774 145.675 102.154 146.179 102.379 146.725C102.47 147.081 102.532 147.444 102.563 147.81C102.617 148.153 102.781 148.47 103.031 148.711C103.067 148.735 103.144 148.7 103.126 148.646Z" fill="#263238"/>
<path d="M104.039 146.5C103.867 146.251 103.677 146.025 103.523 145.752C103.383 145.494 103.26 145.227 103.156 144.952C103.049 144.679 102.966 144.401 102.865 144.128C102.764 143.855 102.586 143.499 102.48 143.167C102.48 143.126 102.408 143.167 102.42 143.167C102.527 143.505 102.574 143.867 102.669 144.211C102.755 144.507 102.862 144.796 102.99 145.076C103.101 145.349 103.24 145.609 103.405 145.853C103.56 146.104 103.761 146.324 103.998 146.5C103.998 146.5 104.039 146.517 104.039 146.5Z" fill="#263238"/>
<path d="M104.946 144.566C104.549 144.166 104.211 143.711 103.944 143.214C103.689 142.728 103.458 142.224 103.238 141.72C103.238 141.684 103.161 141.72 103.173 141.72C103.303 142.28 103.502 142.822 103.766 143.333C103.896 143.581 104.053 143.814 104.235 144.027C104.44 144.25 104.671 144.449 104.922 144.62C104.928 144.637 104.976 144.596 104.946 144.566Z" fill="#263238"/>
<path d="M105.925 142.728C105.724 142.563 105.555 142.362 105.427 142.135C105.273 141.892 105.124 141.643 104.976 141.388L104.561 140.665C104.408 140.427 104.305 140.161 104.259 139.882C104.259 139.846 104.193 139.846 104.193 139.882C104.192 140.165 104.248 140.446 104.359 140.706C104.463 140.997 104.594 141.277 104.751 141.542C104.903 141.807 105.071 142.063 105.255 142.307C105.399 142.53 105.605 142.705 105.848 142.811C105.925 142.823 105.972 142.758 105.925 142.728Z" fill="#263238"/>
<path d="M106.72 140.35C106.548 140.149 106.376 139.947 106.222 139.728C106.068 139.508 105.919 139.295 105.777 139.069C105.635 138.844 105.475 138.601 105.338 138.358C105.338 138.316 105.261 138.358 105.279 138.358C105.361 138.625 105.464 138.885 105.587 139.135C105.715 139.379 105.86 139.615 106.02 139.84C106.177 140.064 106.35 140.276 106.536 140.475C106.699 140.686 106.9 140.865 107.129 141.003C107.138 141.006 107.148 141.006 107.157 141.004C107.166 141.002 107.174 140.997 107.181 140.99C107.187 140.983 107.191 140.974 107.193 140.965C107.194 140.955 107.193 140.946 107.188 140.937C107.051 140.728 106.894 140.531 106.72 140.35Z" fill="#263238"/>
<path d="M110.603 138.038C110.425 137.771 110.247 137.51 110.045 137.255C109.836 137.003 109.612 136.764 109.375 136.537C108.923 136.09 108.424 135.692 107.887 135.352C107.857 135.352 107.81 135.352 107.839 135.399C108.735 136.312 109.666 137.178 110.549 138.115C110.56 138.122 110.572 138.125 110.584 138.122C110.597 138.12 110.607 138.113 110.615 138.103C110.622 138.093 110.624 138.08 110.622 138.068C110.62 138.056 110.613 138.045 110.603 138.038Z" fill="#263238"/>
<path d="M111.996 136.401C111.812 136.138 111.597 135.897 111.356 135.684C110.845 135.247 110.288 134.868 109.696 134.551C109.654 134.551 109.619 134.551 109.654 134.604C110.152 135.008 110.656 135.399 111.131 135.826C111.37 136.033 111.597 136.253 111.813 136.484C112.02 136.721 112.174 137 112.376 137.243C112.376 137.243 112.423 137.243 112.417 137.243C112.335 136.937 112.192 136.651 111.996 136.401Z" fill="#263238"/>
<path d="M113.764 135.749C113.593 135.491 113.395 135.252 113.171 135.038C112.761 134.621 112.282 134.28 111.754 134.03C111.724 134.03 111.695 134.065 111.724 134.089C112.197 134.43 112.637 134.813 113.041 135.233C113.248 135.441 113.438 135.66 113.634 135.88C113.819 136.115 114.017 136.341 114.226 136.556C114.226 136.556 114.268 136.556 114.262 136.556C114.124 136.27 113.957 136 113.764 135.749Z" fill="#263238"/>
<path d="M115.087 134.836C114.885 134.646 114.677 134.462 114.494 134.278C114.294 134.092 114.066 133.938 113.818 133.822C113.776 133.822 113.758 133.851 113.782 133.881C114.173 134.249 114.553 134.628 114.968 135.002C115.295 135.376 115.581 135.783 115.822 136.217H115.863C115.751 135.689 115.48 135.207 115.087 134.836Z" fill="#263238"/>
<path d="M116.646 134.647C116.282 134.244 115.845 133.915 115.359 133.674C115.324 133.674 115.294 133.716 115.33 133.733C115.774 134.021 116.174 134.372 116.515 134.777C116.851 135.178 117.143 135.613 117.387 136.076C117.387 136.076 117.44 136.076 117.429 136.076C117.287 135.543 117.018 135.053 116.646 134.647Z" fill="#263238"/>
<path d="M118.579 135.737C118.535 135.626 118.486 135.517 118.43 135.411C118.314 135.2 118.177 135.002 118.021 134.818C117.695 134.453 117.334 134.121 116.942 133.828C116.939 133.823 116.935 133.819 116.93 133.816C116.925 133.814 116.919 133.812 116.914 133.812C116.908 133.812 116.903 133.813 116.897 133.815C116.892 133.818 116.888 133.821 116.884 133.826C116.881 133.83 116.879 133.835 116.878 133.841C116.877 133.846 116.877 133.852 116.878 133.857C116.88 133.863 116.883 133.868 116.887 133.872C116.89 133.876 116.895 133.879 116.901 133.881C117.275 134.176 117.612 134.517 117.903 134.895C118.05 135.081 118.181 135.279 118.294 135.488C118.353 135.589 118.401 135.69 118.454 135.79C118.489 135.898 118.537 136.002 118.596 136.099C118.6 136.104 118.604 136.108 118.609 136.11C118.614 136.113 118.62 136.115 118.626 136.115C118.632 136.115 118.638 136.113 118.643 136.11C118.648 136.108 118.652 136.104 118.656 136.099C118.655 135.974 118.629 135.851 118.579 135.737Z" fill="#263238"/>
<path d="M119.795 135.945C119.697 135.773 119.586 135.609 119.463 135.453C119.344 135.293 119.213 135.143 119.072 135.002C118.929 134.86 118.781 134.724 118.645 134.575C118.642 134.57 118.639 134.566 118.634 134.562C118.63 134.559 118.624 134.557 118.619 134.556C118.613 134.555 118.607 134.555 118.602 134.557C118.597 134.559 118.592 134.562 118.588 134.566C118.584 134.57 118.581 134.575 118.579 134.58C118.577 134.585 118.577 134.591 118.578 134.597C118.579 134.602 118.581 134.608 118.584 134.612C118.588 134.617 118.592 134.62 118.597 134.623C118.742 134.768 118.875 134.925 118.995 135.091L119.339 135.548L119.683 136.01C119.787 136.178 119.902 136.338 120.026 136.491C120.026 136.491 120.08 136.491 120.074 136.461C120.002 136.278 119.909 136.105 119.795 135.945Z" fill="#263238"/>
<path opacity="0.6" d="M159.013 183.613C159.013 183.613 170.279 178.407 170.279 171.452C170.279 164.496 155.627 160.037 155.627 154.6C155.627 149.162 161.983 145.96 161.983 145.96C161.983 145.96 151.903 149.411 151.939 156.29C151.974 163.168 161.586 167.805 162.517 172.181C163.798 178.253 159.013 183.613 159.013 183.613Z" fill="#EBEBEB"/>
<path opacity="0.6" d="M159.571 183.613C159.571 183.613 148.305 179.545 148.305 174.078C148.305 168.611 162.898 165.065 162.892 160.79C162.886 156.515 156.511 154.012 156.511 154.012C156.511 154.012 166.592 156.699 166.592 162.106C166.592 167.514 155.527 171.25 154.744 175.673C153.962 180.097 159.571 183.613 159.571 183.613Z" fill="#EBEBEB"/>
<path d="M164.514 201.091L153.799 201.108L153.801 202.78L164.516 202.763L164.514 201.091Z" fill="#FFC727"/>
<path d="M164.521 201.091L153.806 201.108L153.807 202.21L164.522 202.194L164.521 201.091Z" fill="#263238"/>
<path d="M141.076 196.634C141.829 197.764 142.943 198.604 144.237 199.015C145.531 199.425 146.926 199.383 148.192 198.894C148.723 198.682 149.23 198.413 149.704 198.093L148.34 196.077C148.086 196.254 147.816 196.407 147.534 196.534C146.755 196.893 145.872 196.959 145.049 196.719C144.225 196.48 143.515 195.95 143.051 195.229C141.575 193.166 141.041 188.451 142.529 186.637C142.63 186.501 143.057 186.287 144.783 186.637C145.103 186.708 145.464 186.785 145.874 186.898C146.19 187.008 146.518 187.077 146.852 187.105L146.893 185.92L147.012 184.734C146.899 184.734 146.722 184.662 146.496 184.597C145.698 184.366 144.883 184.2 144.059 184.099C142.79 183.969 141.462 184.099 140.644 185.125C138.242 188.06 139.232 194.055 141.076 196.634Z" fill="#FFC727"/>
<path d="M148.352 196.077C148.099 196.255 147.829 196.408 147.546 196.534L148.204 198.906C148.735 198.694 149.242 198.426 149.716 198.105L148.352 196.077Z" fill="#263238"/>
<path d="M144.069 184.07L144.793 186.655C145.113 186.726 145.475 186.803 145.884 186.916C146.2 187.026 146.529 187.095 146.862 187.123L146.904 185.938L147.022 184.752C146.91 184.752 146.732 184.68 146.506 184.615C145.71 184.368 144.895 184.186 144.069 184.07Z" fill="#263238"/>
<path d="M173.382 180.862C173.382 180.862 172.113 191.784 169.901 196.386C167.689 200.987 164.564 201.503 162.661 201.503H155.658C153.731 201.503 150.636 200.999 148.406 196.41C146.177 191.82 144.878 180.898 144.878 180.898L173.382 180.862Z" fill="#FFC727"/>
<g opacity="0.1">
<path opacity="0.1" d="M171.868 189.935C171.649 190.943 171.411 191.933 171.145 192.9L147.147 192.935C146.881 191.998 146.637 191.002 146.412 190L171.868 189.935Z" fill="black"/>
<path opacity="0.1" d="M170.814 193.985C170.654 194.507 170.482 195.005 170.304 195.456L148.002 195.491C147.818 195.041 147.646 194.542 147.48 194.027L170.814 193.985Z" fill="black"/>
<path opacity="0.1" d="M172.42 187.178C172.331 187.652 172.236 188.144 172.136 188.642L146.146 188.684C146.039 188.186 145.944 187.694 145.861 187.219L172.42 187.178Z" fill="black"/>
</g>
<path d="M96.4682 172.293C90.0464 189.839 90.3013 205.179 92.8037 207.711C98.2708 213.225 122.019 207.118 127.955 206.287C130.326 205.955 123.11 186.767 120.602 187.425C114.672 188.973 106.294 191.89 105.991 191.801C105.398 191.629 105.991 186.322 105.208 172.281C104.592 160.92 99.095 165.118 96.4682 172.293Z" fill="#EB9481"/>
<path d="M150.605 183.916C150.765 186.287 144.871 186.193 144.871 186.193C145.763 186.705 146.448 187.512 146.81 188.475C147.361 190.195 144.901 191.82 144.901 191.82C145.716 192.541 146.295 193.492 146.561 194.547C146.923 196.255 144.669 198.247 144.669 198.247C145.035 199.325 145.019 200.496 144.622 201.562C142.677 206.253 129.549 207.13 125.754 206.59L119.581 188.155C119.581 188.155 130.13 180.358 135.431 179.824C138.378 179.492 150.356 180.281 150.605 183.916Z" fill="#EB9481"/>
<path d="M144.818 186.133C141.651 185.422 138.295 185.475 135.117 185.54C135.046 185.54 135.046 185.647 135.117 185.653C138.307 185.754 141.604 186.246 144.794 186.246C144.803 186.24 144.812 186.233 144.818 186.224C144.824 186.215 144.829 186.205 144.831 186.195C144.833 186.184 144.833 186.173 144.831 186.162C144.829 186.152 144.824 186.142 144.818 186.133Z" fill="#263238"/>
<path d="M144.848 191.719C144.114 191.624 143.37 191.624 142.636 191.719C141.853 191.778 141.077 191.855 140.264 191.938C138.707 192.112 137.153 192.322 135.604 192.567C135.538 192.567 135.538 192.686 135.604 192.68C137.157 192.514 138.711 192.365 140.27 192.265L142.642 192.128C143.383 192.14 144.122 192.07 144.848 191.921C144.865 191.91 144.879 191.895 144.889 191.877C144.899 191.86 144.904 191.84 144.904 191.82C144.904 191.8 144.899 191.78 144.889 191.762C144.879 191.744 144.865 191.73 144.848 191.719Z" fill="#263238"/>
<path d="M144.605 198.247C143.94 198.176 143.269 198.218 142.618 198.371L140.489 198.638C139.072 198.804 137.649 198.976 136.226 199.095C136.155 199.095 136.161 199.213 136.226 199.208C137.673 199.089 139.12 198.994 140.566 198.87L142.701 198.668C143.353 198.666 144 198.548 144.61 198.318C144.61 198.318 144.64 198.259 144.605 198.247Z" fill="#263238"/>
<path d="M144.955 199.854C145.042 200.794 144.789 201.735 144.243 202.505C143.678 203.275 142.925 203.888 142.055 204.284C140.378 205.088 138.613 205.694 136.796 206.092C134.99 206.508 133.154 206.78 131.305 206.905C129.457 207.032 127.601 206.991 125.761 206.78H125.808C124.424 207.029 123.041 207.256 121.657 207.462C123.017 207.106 124.381 206.768 125.749 206.448H125.796C127.62 206.553 129.45 206.521 131.269 206.353C133.088 206.199 134.894 205.925 136.677 205.535C138.459 205.16 140.201 204.62 141.883 203.922C142.718 203.593 143.461 203.066 144.048 202.386C144.633 201.672 144.953 200.778 144.955 199.854Z" fill="#263238"/>
<path d="M119.793 187.065L123.748 208.643C123.748 208.643 94.4797 214.4 91.5919 207.457C88.7042 200.513 92.4517 178.354 97.2488 169.62C102.046 160.885 104.957 165.599 105.467 171.897C105.977 178.194 106.244 190.871 106.375 190.842C106.505 190.812 119.793 187.065 119.793 187.065Z" fill="#263238"/>
<path d="M255.197 266.278C254.533 267.826 224.061 301.951 222.074 302.52C221.321 302.74 216.097 298.589 209.919 293.401C208.584 292.28 207.215 291.112 205.827 289.92C196.826 282.211 187.445 273.791 187.445 273.791L207.76 250.903L225.549 267.666L229.463 271.342C229.463 271.342 246.973 263.491 249.22 263.106C251.468 262.721 255.838 264.731 255.197 266.278Z" fill="#EB9481"/>
<path d="M255.198 266.278C254.534 267.826 224.062 301.951 222.075 302.52C221.162 302.781 213.632 296.59 205.828 289.92L225.598 267.666L229.511 271.342C229.511 271.342 247.021 263.491 249.269 263.106C251.516 262.72 255.839 264.73 255.198 266.278Z" fill="white"/>
<path d="M255.198 266.278C254.534 267.826 224.061 301.951 222.075 302.52C221.322 302.739 216.098 298.589 209.919 293.4L229.487 271.342C229.487 271.342 246.997 263.491 249.244 263.106C251.492 262.72 255.838 264.73 255.198 266.278Z" fill="#FFC727"/>
<path d="M253.396 265.549C248.131 271.141 227.507 294.207 222.746 300.137C222.704 300.184 222.746 300.214 222.781 300.166C228.118 294.735 248.558 271.508 253.491 265.632C253.592 265.508 253.509 265.431 253.396 265.549Z" fill="#263238"/>
<path d="M246.066 264.203C245.483 264.825 245.034 265.562 244.749 266.366C244.463 267.17 244.346 268.024 244.406 268.875C244.508 270.405 245.193 271.838 246.321 272.878C246.357 272.907 246.416 272.848 246.38 272.812C245.42 271.607 244.877 270.122 244.833 268.581C244.789 267.04 245.247 265.526 246.137 264.268C246.179 264.22 246.108 264.161 246.066 264.203Z" fill="#263238"/>
<path d="M232.049 269.628C229.974 271.893 228.414 275.267 229.013 278.363C229.013 278.481 229.209 278.446 229.233 278.363C229.971 275.422 231.022 272.569 232.369 269.853C232.399 269.811 232.411 269.758 232.402 269.707C232.393 269.656 232.364 269.611 232.322 269.581C232.279 269.551 232.227 269.539 232.176 269.548C232.125 269.557 232.079 269.586 232.049 269.628Z" fill="#263238"/>
<path d="M234.321 268.478C232.245 270.737 230.68 274.117 231.285 277.213C231.285 277.331 231.474 277.296 231.504 277.213C232.24 274.274 233.29 271.423 234.635 268.709C234.666 268.668 234.678 268.616 234.671 268.564C234.663 268.513 234.635 268.467 234.593 268.437C234.552 268.406 234.5 268.393 234.448 268.401C234.397 268.409 234.351 268.436 234.321 268.478Z" fill="#263238"/>
<path d="M236.585 267.328C234.51 269.587 232.95 272.961 233.549 276.056C233.549 276.181 233.745 276.145 233.769 276.056C234.508 273.116 235.559 270.264 236.906 267.547C236.927 267.505 236.933 267.456 236.921 267.41C236.909 267.364 236.881 267.324 236.842 267.297C236.803 267.27 236.755 267.258 236.708 267.264C236.66 267.27 236.617 267.292 236.585 267.328Z" fill="#263238"/>
<path d="M238.855 266.172C236.774 268.437 235.214 271.811 235.819 274.906C235.819 275.025 236.009 274.989 236.033 274.906C236.771 271.966 237.822 269.113 239.169 266.397C239.199 266.355 239.211 266.303 239.203 266.253C239.195 266.202 239.167 266.157 239.125 266.127C239.083 266.097 239.031 266.085 238.981 266.094C238.93 266.102 238.885 266.13 238.855 266.172Z" fill="#263238"/>
<path d="M218.612 293.828C216.324 296.401 220.326 299.959 222.615 297.385C224.904 294.812 220.901 291.248 218.612 293.828Z" fill="white"/>
<path d="M228.153 261.7C226.155 262.003 225.781 264.297 226.149 265.904C226.82 268.648 228.198 271.169 230.146 273.216C230.153 273.225 230.163 273.233 230.175 273.239C230.186 273.244 230.198 273.247 230.211 273.247C230.223 273.247 230.236 273.244 230.247 273.239C230.258 273.233 230.268 273.225 230.276 273.216C230.327 273.245 230.385 273.262 230.444 273.264C230.503 273.267 230.562 273.256 230.615 273.232C230.669 273.207 230.716 273.171 230.753 273.125C230.79 273.079 230.816 273.024 230.828 272.966C231.16 270.328 231.836 267.553 231.343 264.89C231.059 263.325 230.039 261.416 228.153 261.7ZM230.525 268.857C230.395 270.156 230.205 271.443 230.122 272.747C229.345 271.318 228.515 269.931 227.881 268.43C227.569 267.709 227.304 266.968 227.086 266.213C226.772 265.027 226.867 261.084 229.559 263.082C231.029 264.179 230.662 267.304 230.507 268.857H230.525Z" fill="#263238"/>
<path d="M225.917 279.661C228.005 277.941 229.274 275.38 230.714 273.138C230.743 273.087 230.758 273.029 230.76 272.971C230.761 272.912 230.749 272.854 230.723 272.801C230.698 272.748 230.66 272.702 230.613 272.667C230.566 272.632 230.511 272.608 230.454 272.599C230.454 272.545 230.454 272.498 230.365 272.504C227.556 272.809 224.878 273.853 222.603 275.528C221.292 276.524 220.094 278.493 221.417 280.034C222.739 281.576 224.702 280.663 225.917 279.661ZM223.379 279.88C220.029 279.673 222.508 276.583 223.498 275.89C224.15 275.448 224.831 275.052 225.538 274.704C227.001 274.006 228.499 273.385 230.027 272.842C229.25 273.891 228.574 275 227.833 276.079C226.955 277.366 225.224 279.993 223.379 279.88Z" fill="#263238"/>
<path d="M224.779 264.025L203.533 289.801L138.9 239.844L132.662 235.023C132.662 235.023 130.77 236.156 127.918 237.537C123.981 239.458 118.235 241.848 113.237 242.322C104.852 243.129 90.9648 242.281 84.4363 232.539C78.9335 224.338 82.6574 214.198 82.6574 214.198L91.9965 210.747C91.9965 210.747 114.529 193.842 128.582 194.02C134.548 194.091 142.974 199.042 150.753 204.165C158.533 209.288 224.779 264.025 224.779 264.025Z" fill="#455A64"/>
<path d="M132.655 235.011C132.655 235.011 130.764 236.144 127.912 237.525C123.34 231.447 113.574 220.329 113.283 219.932L132.655 235.011Z" fill="#263238"/>
<path d="M100.257 205.114C98.9166 205.945 97.618 206.834 96.2957 207.688C94.9734 208.542 93.657 209.313 92.4118 210.244C91.1665 211.175 89.945 212.2 88.7472 213.208C88.1543 213.706 87.5969 214.205 87.0336 214.72C86.4444 215.212 85.8952 215.749 85.3911 216.327C85.3436 216.381 85.4266 216.458 85.48 216.422C86.1022 216.022 86.6965 215.58 87.2589 215.1C87.8934 214.626 88.516 214.139 89.1445 213.659C90.3601 212.728 91.5935 211.833 92.8031 210.896C94.0128 209.959 95.1275 208.951 96.3194 208.014C97.5112 207.077 98.9344 206.081 100.257 205.138C100.304 205.138 100.286 205.097 100.257 205.114Z" fill="#263238"/>
<path d="M220.16 262.839C218.802 264.168 217.527 265.602 216.253 266.99C214.978 268.378 213.697 269.824 212.428 271.247C209.89 274.1 207.334 276.94 204.838 279.828C203.468 281.417 202.116 283.012 200.83 284.672C200.77 284.749 200.889 284.838 200.954 284.773C203.664 282.087 206.16 279.205 208.692 276.353C211.224 273.501 213.75 270.631 216.247 267.737C217.61 266.154 219.01 264.577 220.273 262.916C220.326 262.839 220.22 262.75 220.16 262.839Z" fill="#263238"/>
<path d="M165.115 260.254C161.919 257.455 158.592 254.792 155.254 252.154C151.915 249.515 148.63 246.882 145.257 244.327C144.29 243.591 143.312 242.868 142.339 242.145C141.367 241.421 140.347 240.751 139.374 240.004C139.321 239.962 139.268 240.057 139.321 240.099C140.193 240.793 141.011 241.569 141.871 242.287C142.73 243.004 143.501 243.674 144.326 244.35C145.932 245.679 147.563 246.983 149.188 248.288C152.485 250.944 155.813 253.559 159.173 256.133C161.083 257.591 162.98 259.056 164.937 260.449C165.115 260.532 165.245 260.349 165.115 260.254Z" fill="#263238"/>
<path d="M187.991 233.701C185.026 230.991 181.86 228.524 178.747 225.992C175.634 223.46 172.479 220.857 169.318 218.32L159.92 210.759C156.884 208.316 153.86 205.838 150.634 203.644C148.855 202.458 147.047 201.319 145.173 200.299C143.359 199.249 141.459 198.357 139.492 197.631C139.48 197.63 139.468 197.633 139.458 197.639C139.447 197.645 139.439 197.654 139.433 197.665C139.428 197.676 139.427 197.688 139.429 197.7C139.431 197.712 139.436 197.723 139.445 197.732C141.04 198.734 142.73 199.594 144.343 200.56C145.956 201.527 147.515 202.529 149.057 203.572C152.259 205.749 155.265 208.186 158.289 210.605C164.563 215.627 170.825 220.685 177.152 225.625C180.709 228.4 184.143 231.317 187.825 233.891C187.949 233.974 188.098 233.784 187.991 233.701Z" fill="#263238"/>
<path d="M138.142 258.605H45.0703V265.294H138.142V258.605Z" fill="#37474F"/>
<path d="M65.4156 265.3L62.937 270.897L50.8287 298.274H47.7334L55.8748 270.897L57.5351 265.3H65.4156Z" fill="#37474F"/>
<path d="M57.5343 265.3H65.4148L62.9362 270.897H55.874L57.5343 265.3Z" fill="#263238"/>
<path d="M135.486 298.274H132.391L120.282 270.897L117.81 265.3H125.684L127.35 270.897L135.486 298.274Z" fill="#37474F"/>
<path d="M127.35 270.897H120.282L117.81 265.3H125.684L127.35 270.897Z" fill="#263238"/>
<path d="M99.7659 250.683H59.6045V258.605H99.7659V250.683Z" fill="#FFC727"/>
<path d="M66.0309 250.683H62.1055V258.605H66.0309V250.683Z" fill="#37474F"/>
<path d="M69.121 250.683H67.4844V258.605H69.121V250.683Z" fill="#37474F"/>
<path d="M95.0465 250.683H91.1211V258.605H95.0465V250.683Z" fill="#37474F"/>
<path d="M85.1319 244.771H57.2744V250.683H85.1319V244.771Z" fill="#455A64"/>
<path d="M97.1493 244.771H85.1299V250.683H97.1493V244.771Z" fill="#455A64"/>
<path d="M85.1319 245.383H57.2744V250.067H85.1319V245.383Z" fill="white"/>
<path d="M59.0762 246.349C61.2464 246.295 63.4167 246.254 65.5988 246.236L72.1214 246.201L78.644 246.236C80.8142 246.236 82.9845 246.295 85.1666 246.349C82.9963 246.402 80.8261 246.444 78.644 246.461L72.1214 246.497L65.5988 246.461C63.4167 246.444 61.2464 246.402 59.0762 246.349Z" fill="#DBDBDB"/>
<path d="M59.0762 247.268C61.2464 247.215 63.4167 247.173 65.5988 247.155L72.1214 247.12L78.644 247.155C80.8142 247.155 82.9845 247.215 85.1666 247.268C82.9963 247.321 80.8261 247.363 78.644 247.381L72.1214 247.416L65.5988 247.381C63.4167 247.363 61.2464 247.321 59.0762 247.268Z" fill="#DBDBDB"/>
<path d="M59.0762 248.187C61.2464 248.134 63.4167 248.093 65.5988 248.075L72.1214 248.039L78.644 248.075C80.8142 248.075 82.9845 248.134 85.1666 248.187C82.9963 248.241 80.8261 248.282 78.644 248.3L72.1214 248.336L65.5988 248.3C63.4167 248.282 61.2464 248.241 59.0762 248.187Z" fill="#DBDBDB"/>
<path d="M59.0762 249.106C61.2464 249.053 63.4167 249.011 65.5988 248.993L72.1214 248.958L78.644 248.993C80.8142 248.993 82.9845 249.053 85.1666 249.106C82.9963 249.159 80.8261 249.201 78.644 249.219L72.1214 249.254L65.5988 249.219C63.4167 249.201 61.2464 249.159 59.0762 249.106Z" fill="#DBDBDB"/>
<path d="M91.3987 238.291H63.5176V244.772H91.3987V238.291Z" fill="#37474F"/>
<path d="M88.44 238.291H85.8428V244.772H88.44V238.291Z" fill="#FFC727"/>
<path d="M84.1408 238.291H83.1328V244.772H84.1408V238.291Z" fill="#FFC727"/>
</g>
<defs>
<clipPath id="clip0_2_10954">
<rect width="400.001" height="401" rx="200" fill="white"/>
</clipPath>
</defs>
</svg>
